<?xml version="1.0" encoding="utf-8"?>
<!-- Generator: Adobe Illustrator 25.4.1, SVG Export Plug-In . SVG Version: 6.00 Build 0)  -->
<svg version="1.1" id="Ebene_3" xmlns="http://www.w3.org/2000/svg" xmlns:xlink="http://www.w3.org/1999/xlink" x="0px" y="0px"
	 viewBox="0 0 357 29.4" style="enable-background:new 0 0 357 29.4;" xml:space="preserve">
<style type="text/css">
	.st0{fill:#FFFFFF;}
</style>
<g>
	<path class="st0" d="M10.3,13.1c3.7-1,8.2-2,9.6-2.1c0.4-0.2,1-0.2,1.4-0.2c2-0.4,3.9-0.8,5.9-1c1.4,0,2.7-0.2,4.1-0.4l5.1-0.6
		c1.4-0.2,2.7-0.4,3.9-0.6c1-0.2,2.1-0.4,3.3-0.4c1.2-0.2,2.1-0.2,2.3-0.2c1-0.2,1.8-0.4,2.7-0.4l4.7-0.4c1.6-0.2,3.3-0.4,4.9-0.4
		c0.8,0,1.8,0,2.5-0.2c0-0.2,0.8-0.2,2-0.2c1.2,0,2.5,0,3.7-0.2l3.3-0.4c1,0,3.7-0.2,6.1-0.2C78,5.1,81,5.1,81.9,4.9
		c1.2-0.2,2.3-0.2,3.5-0.2c0.8,0,2-0.2,2.1-0.2c1.2-0.2,2.3-0.2,3.5-0.2c1,0,2.1,0,3.1-0.2c0-0.2,1.8-0.2,8-0.2
		c1.4,0,6.1-0.2,10.1-0.2c4.3-0.2,11.1-0.4,15.2-0.4c4.1-0.2,8.4-0.2,9.6-0.4c6.1-0.2,25.4-0.6,51.5-0.8c9.6,0,17.6-0.2,18.2-0.2
		c0.4-0.2,0.6-0.2,0.6,0c2.1,0.2,4.5,0.4,6.6,0.2c2.3,0,4.5,0,6.8,0.2c0.4,0.2,0.6,0.2,1,0.2c0.6,0,0.6-0.2,0-0.4
		c-0.6-0.2,8.6-0.2,12.3,0.2c0.8,0,2.3,0.2,3.5,0.2c1.4,0.2,2,0.2,1.8-0.2c-0.2-0.2-0.2-0.4,0-0.4c0.2,0,0.6,0,0.6,0.2
		c1,0.2,1.8,0.2,2.7,0.2c0.8,0,1.6,0,2.3,0.2c0.2,0.2,0.6,0.2,1.2,0c0.8-0.2,1,0,1,0.2c0,0.4,0,0.4,0.4,0c0.2-0.2,1-0.4,3.3-0.2
		c1,0,2,0.2,2.9,0.4c2.1,0.2,4.5,0.4,6.6,0.4c0.8,0,1.6,0.2,1.6,0.2c0,0.2,0.4,0.2,0.8,0.2c0.6-0.2,0.8-0.2,1,0.2
		c0.2,0.2,0.4,0.2,0.8,0.2c0.2,0,0.4-0.2,0.2-0.4c-0.2-0.2-0.2-0.2,0-0.2c1,0.2,2,0.2,3.1,0.2c1,0,2.1,0.2,3.1,0.4
		c0.6,0.2,1.4,0.2,2.1,0.2c0.8-0.2,1.4-0.2,1.4,0.2c0,0.4,0.6,0.4,1.4,0.4s1.2,0.2,1,0.4c-0.2,0.4,0,0.4,0.8,0
		c1.4-0.4,2.1-0.4,2.1-0.2c0,0.2,0.2,0.2,0.6,0.2c0.4,0,1,0,1.4,0.2c0.4,0.2,0.8,0.2,1.2,0.2c0.4-0.2,0.8,0,1,0.2
		c0.2,0.2,0.6,0.2,0.8,0c0.6-0.2,0.8-0.4,0.8-0.2c0,0.2,1.2,0.4,2.5,0.4c4.1,0.2,8.2,0.8,12.1,1.4c1,0.4,2,0.6,3.1,0.6
		c0.6,0,1.2,0.2,1.6,0.2c1.2,0.4,2.5,0.6,3.7,0.6c0.4,0,0.8,0,1.2,0.2c0.6,0.2,1.2,0.2,2,0.2c0.8,0.2,1.6,0.4,2.3,0.6
		c0.4,0.2,1,0.4,1.4,0.2c0.6-0.2,2.9,0.4,2.7,0.8c-0.2,0.2-0.2,0.2,0.2,0.2c0.2,0,0.4,0.2,0.4,0.4c0,0.4-2.3,0.2-2.7-0.4
		c-1.6-0.6-3.1-0.8-4.7-0.8c-0.8,0.2-1,0.2-1-0.2c0-0.2,0.2-0.2,0.4-0.2c0.2,0.2,0.4,0,0.4-0.2c0-0.4-0.2-0.4-0.8,0
		c-0.6,0.4-0.6,0.4-0.6,0.2c0-0.2-0.6-0.2-1.4-0.2c-1,0.2-1.8,0-2.5-0.4c-0.8-0.4-1-0.4-0.8-0.2c0.2,0.2,0,0.2-0.4,0.2
		c-0.4,0-0.6-0.2-0.4-0.2c0-0.2,0-0.2-0.4-0.2c-0.2,0-0.4,0-0.4,0.2s-0.4,0.2-0.8,0.2c-0.4-0.2-0.6-0.2-0.4-0.4
		c0.4-0.4-1.4-0.6-3.7-0.4c-1.4,0-2.1,0-2.1-0.2s0.2-0.4,0.6-0.4c0.4-0.2,0.4-0.2-0.2-0.2c-0.4,0-0.8,0.2-1,0.4
		c-0.4,0.2-0.8,0.2-1.8-0.2c-2.1-0.8-3.5-1-4.1-0.8c-0.4,0.2-0.8,0.2-0.8-0.2c-0.4-0.2-0.6-0.2-0.6,0c0,0.4-0.8,0.2-2.9-0.2
		c-0.6-0.2-0.6-0.2,0-0.4c0.6-0.2,0.6-0.2-0.2-0.2c-0.6,0-1,0.2-1,0.2c0,0.2-0.6,0.2-1,0.2C283,6.2,282.8,6.2,283,6
		c0.2-0.2-0.8-0.4-2.1-0.4c-1.8-0.2-2.7-0.2-2.9,0c-0.4,0.2-3.5-0.4-3.5-1c-0.4-0.2-2.9,0-3.1,0.4c-0.2,0.2-0.6,0.2-1-0.2
		c-0.6-0.6-2.1-0.8-2.1-0.2c0,0.4-2,0.4-2.9,0c-0.6-0.2-0.4-0.2,0.4-0.2c0.6,0.2,0.8,0,0.8-0.2s0-0.2-0.2-0.2c-0.6,0-1.2,0-1.8-0.2
		c-1-0.2-1.4-0.2-1.4,0.2c0,0.4,0,0.4-4.3-0.2c-0.6,0-1.4-0.2-2-0.4c-0.4-0.4-7.4-1-7.6-0.8c-0.2,0,0.2,0.2,0.8,0.2
		c0.6,0,1.2,0,2,0.2c0.6,0.2,0.6,0.2-0.8,0.4c-0.8,0-1.6-0.2-2.1-0.4c-0.4-0.2-0.8-0.4-1.4-0.4s-0.8,0-0.6-0.2
		c0-0.2-0.8-0.2-2.1-0.2c-1.2,0-2.1,0.2-2.1,0.4c0.2,0.2,0,0.2-0.4,0.2c-0.6,0-0.8-0.2-0.8-0.2c0-0.2-0.4-0.4-0.6-0.4
		c-0.4-0.2-0.6,0-0.4,0.2c0,0.2-0.2,0.4-0.8,0.4c-0.6,0.2-0.8,0.2-0.6-0.2c0.2-0.2,0.2-0.4-0.2-0.4c-0.2,0-0.4,0-0.4,0.2
		c0,0.4-1.2,0.4-1.4,0c-0.2-0.4-0.6-0.4-7.8-0.2c-4.1,0.2-5.7,0.2-5.1-0.2c0.6-0.2,0.6-0.4-0.2-0.4c-0.4,0-0.6,0.2-0.8,0.4
		c-0.2,0.2-0.4,0.4-0.6,0.2c-0.6-0.4-4.3-0.8-6.2-0.4c-1,0.2-1.6,0.2-1.4,0s0-0.2-0.6-0.2c-1,0.2-2.1,0.2-3.3,0
		c-1.2-0.2-1.6-0.2-1.8,0.2c-0.2,0.4-0.8,0.4-2.5,0.4c-1.8,0-2-0.2-1.6-0.2c0.6-0.2,0.4-0.2-1-0.2c-1.6,0-1.8,0-0.8,0.2
		c0.6,0.2-1.4,0.2-5.1,0.2c-8.2,0-20.5,0.2-32,0.4c-5.3,0.2-11.9,0.2-14.8,0.2c-13.1,0.2-51.3,1.6-62.7,2.1c-0.8,0-1.6,0.2-2.3,0.2
		c-1,0-1.4,0.2-1.4,0.6s0,0.4-0.6,0c-0.8-0.6-4.5-0.4-4.1,0.2c0.2,0.2-0.4,0.4-1.6,0.4c-0.8,1.2-0.8,1.2,1.2,1.2
		c1.4,0,5.7-0.2,9.8-0.4c4.1-0.2,9.2-0.4,11.3-0.4s5.9-0.2,8-0.2l12.3-0.4c4.7,0,10-0.2,11.7-0.2l21.1-0.6c4.3-0.2,9.8-0.2,12.1-0.2
		c4.3-0.2,47.2-0.2,59.1-0.2l21.9,0.8l3.5,0.4c1,0,3.1,0.2,4.7,0.2l6.6,0.4c1.8,0.2,3.5,0.4,5.3,0.4c0.6,0,1.2,0,1.8,0.2
		c0.2,0.2,0.4,0.2,0.6,0.2c1,0,2.1,0,3.1,0.2c1.6,0.2,4.7,0.6,6.6,0.8c11.5,1.2,22.1,2.5,25,3.1c1.2,0.2,3.9,0.6,6.1,1
		c1.6,0.2,3.3,0.6,4.7,1c0.6,0.2,1,0.2,1.6,0.2s1.2,0.2,2,0.2l5.9,1.2c6.1,1.2,5.9,1,5.1,1.4c-0.6,0.2-0.2,0.2,0.8,0.2
		c1-0.2,1.2-0.2,0.8,0.2c-0.6,0.4-0.6,0.4,0.2,0.2c1-0.2,3.1,0.4,2.7,0.8c-0.2,0.2,0,0.2,0.4,0.2c0.6-0.2,4.1,0.4,6.1,1.2
		c0.8,0.2,1.6,0.4,1.8,0.4c0.4-0.2,0.8,0,1,0.4c0.4,0.2,0.6,0.4,0.6,0.2c0.6,0.2,1.4,0.4,2,0.6c0.8,0.4,1.6,0.6,2.3,0.8
		c0.4,0,0.8,0.2,0.8,0.6c0.2,0.2,0.6,0.4,0.8,0.4c0.8,0.2,1.6,0.4,2.1,0.8c1.4,0.6,1.4,0.6-0.4-0.4l-3.7-2.1
		c-0.8-0.2-1.4-0.6-2.1-1.2c-0.2-0.2-0.4-0.2-0.8-0.2l-6.1-2.1c-1.6-0.6-3.1-1-4.7-1.2l-3.7-1c-1.2-0.4-2.3-0.8-3.5-0.8
		c-0.6,0-0.8-0.2-0.8-0.2c0-0.2,0.6-0.2,1.4-0.2s1.6,0.2,1.6,0.2c0,0.2,0.4,0.2,0.8,0.2c0.4,0,0.8,0,1.2,0.2c0,0.2,0.4,0.4,0.6,0.4
		c1.2,0,10.9,3.1,11.7,3.7c0.6,0.4,1.2,0.6,2,0.8c0.4,0,0.8,0.2,1.2,0.4c0.4,0.4,1,0.6,1.6,1c0.8,0.4,1.6,0.8,2.3,1.2
		c0.4,0.4,0.8,0.6,1.4,0.8c0.8,0.2,3.5,1.8,3.3,2.1c0,0.2,0.2,0.2,0.6,0.2c1.2-0.2,1.4,0.4,0.4,1c-0.6,0.4-1,0.8-0.8,1
		c0.2,0.4-0.4,0.4-1,0c-0.4-0.2-0.6-0.4-0.6-0.2c0,0.4-2.9-0.8-3.9-1.4c-1-0.6-4.7-2.3-5.9-2.7c-0.6-0.2-1-0.2-1.6-0.2
		c-0.4,0.2-0.6,0-0.6-0.2c0.2-0.4-1.2-1.6-1.8-1.2c-0.4,0.2-0.4,0.4,0.4,0.4c0.2,0,0.6,0.2,0.8,0.2c-0.6,0.4-2.7-0.2-2.7-0.6
		s-2.5-1.6-3.3-1.2c-0.4,0.2-0.6,0-0.6-0.2s-0.4-0.4-1-0.4l-2.1-0.4c-1-0.2-2.1-0.6-3.3-0.8l-5.7-1c-3.3-0.6-12.7-2.1-13.9-2.3
		c-1.6-0.2-4.5-0.8-4.7-1c-0.4-0.2-0.4-0.2-0.4,0s-0.8,0.2-2.5-0.2c-1.6-0.2-3.1-0.4-3.5-0.4c-0.6,0-1,0-1.6-0.2
		c-1.6-0.4-3.1-0.6-4.7-0.8c-2.1-0.4-3.9-0.6-3.7-0.8c0-0.2-0.4-0.2-0.8-0.2c-2.7,0-5.3-0.2-8-0.6c-3.9-0.4-8.6-0.8-10.1-0.8
		c-1,0-2.1,0-3.1-0.2c-0.2-0.2-3.3-0.4-7-0.8l-11.1-0.8c-2.3-0.2-7.4-0.4-10.9-0.4c-2.3,0-4.5,0-6.8-0.2c0-0.4-3.9-0.2-5.1,0.2
		c-0.8,0.2-1,0.2-1.4,0c-0.2-0.2-2-0.4-5.5-0.4c-3.5,0-5.1-0.2-5.3-0.4c-0.4-0.2-0.4-0.2-0.4,0s-1.6,0.4-6.6,0.4
		c-3.7,0-8,0.2-9.6,0.2c-2,0.2-3.1,0.2-3.5,0c-0.8-0.2-1.8-0.2-2.5,0c-1,0.2-2,0.2-2.9,0c-0.6,0-1-0.2-1.6-0.2
		c-0.4,0.2-7.2,0.4-7.4,0.2c-1-0.2-2.1-0.2-3.3-0.2l-5.5,0.2h-3.3c-1.2,0.2-1.2,1,0,1c0.6,0,0.8,0,0.8,0.2c-0.6,0.2-9,0.4-9,0.2
		S159,9,161,9c1.2,0,2.3,0,3.5-0.2c0.4-0.4-0.8-0.8-1.8-0.6c-0.6,0.2-0.8,0.2-0.6-0.2c0.2-0.2,0-0.4-0.6-0.4s-0.8,0.2-0.8,0.2
		C160,8,159,8,158.2,8c-2.3,0-2.5,0.2-2.5,0.8c0.2,0.4-0.2,0.6-1.4,0.6c-1.4,0-1.6-0.2-0.6-0.4c0.6-0.2,0.8-0.4,0.8-0.6
		c-0.2-0.4-2-0.4-8.8-0.2c-2.5,0.2-6.1,0.4-8,0.4c-4.9,0.2-10.1,0.4-12.5,0.6c-2.1,0.2-2.7,0.8-0.8,0.8h1.2l-1.2,0.2
		c-2,0.4-5.3,0.4-5.3,0c0-0.2,0.6-0.2,1.4-0.2h1.4l-1.2-0.6c-1-0.6-1.2-0.6-2-0.2c-0.8,0.4-0.8,0.4-0.8,0c0-0.4-0.2-0.4-0.6-0.4
		c-1.6,0.2-3.3,0.4-4.9,0.4c-1.8,0-3.5,0-5.1,0.4c-0.8,0.4-0.6,0.8,0.6,0.8c0.6,0,0.6,0.2,0.4,0.4c-0.6,0.2-1.2,0.2-2,0.2
		c-1-0.2-1.2-0.2-0.6,0.2c0.8,0.2,2,0.2,8-0.2c0.8-0.2,1.8,0,2.5,0.2c0,0.2,0.6,0.2,1.6,0.2c4.1-0.4,8-0.4,12.1-0.4
		c2.5,0,9.6-0.2,10-0.4c0.4-0.2,0.8-0.2,1,0c0.8,0.2,1.8,0.2,2.5,0c0.8,0,1.6-0.2,2.3-0.2h0.2c0,0,0,0,0-0.2c0-0.2,0.2-0.2,0.8,0
		c0.4,0.2,0.6,0.2,0.8,0c2-0.2,3.9-0.2,5.9-0.2c3.9,0.2,6.1,0,6.1-0.2c0.2-0.2,0.4-0.2,0.6,0s0.8,0.2,1.8,0.2c1-0.2,2.1-0.2,3.1,0
		c2,0.4,3.9,0.2,5.9-0.4c0.8-0.4,1-0.2,1.4,0c0.2,0.4,1,0.4,2.9,0.2c1.4-0.2,2.9-0.2,4.3,0.2c0.6,0.2,1.2,0.2,2,0
		c0.4-0.2,3.7-0.2,3.7,0c0,0.2,0.4,0.2,0.6,0.2c0.6,0,0.8,0,0-0.2c-0.4-0.2,0.4-0.4,2.3-0.2c1.6,0,2.9,0.2,3.1,0.4
		c0.2,0.2,0.4,0.2,0.4-0.2c0-0.2,0.4-0.4,0.8-0.4c0.4,0,0.6,0.2,0.6,0.4c-0.2,0.2,0.2,0.2,0.8,0l1.4-0.2c0.8,0.2,1.6,0.4,2.1,0.4
		c1.6,0.2,2,0.2,1.8-0.2c-0.4-0.2-0.2-0.2,0.6-0.2c0.4,0.2,0.8,0,1-0.2c0.2-0.2,0.4-0.2,0.6,0.2c0.4,0.4,0.6,0.4,2,0
		c0.8-0.2,1.8-0.4,2.5-0.2c0.6,0,2.3,0.2,4.1,0.2c3.1,0,3.5,0.2,2.5,1c-0.4,0.4-5.1,0.4-9.6,0.2c-2.1-0.2-3.3-0.2-3.5,0
		c-0.4,0.2-4.3,0.4-8.4,0.4c-9.6-0.2-21.3,0-22.6,0.4c-0.8,0.4-0.8,0.4,0.4,0.2c0.6,0,1.4,0,1.4,0.2c0.8,0.2,1.6,0.2,2.3,0.2
		c1.2-0.2,15.4-0.2,31.2-0.2c29.7,0.2,35.1,0.2,47,1c5.5,0.4,11.3,1,13.5,1.2c2,0.2,3.9,0.4,6.1,0.4c1.4,0,2.7,0.2,4.1,0.4
		c0.2,0.2,0,0.2-0.4,0.2c-0.4,0-0.8,0.2-0.8,0.2c0,0.2,0.4,0.2,0.8,0c0.8-0.2,2-0.2,4.3,0l5.7,0.4c1,0,2,0.2,2.9,0.4
		c2,0.4,3.9,0.6,5.9,0.8c3.3,0.2,6.4,0.6,9.6,1.2c3.3,0.8,6.6,1.2,10,1.6l6.2,1l4.9,1c1.2,0.2,2.1,0.4,3.3,0.8
		c0.6,0.4,0.6,0.4,0,0.4c-0.8-0.2-8-1.6-9.6-1.8c-0.6,0-0.6,0,0.2,0.4c0.8,0.2,1.8,0.4,2.5,0.6l4.7,0.8c1.8,0.4,2.9,0.4,2.9,0.4
		c0.2-0.4,3.1,0.2,4.5,0.8c0.8,0.2,0.8,0.4,0.2,0.2c-3.7-0.8-4.3-0.8-4.3-0.6c-0.2,0.4-2.9,0.2-6.2-0.8l-4.1-0.8
		c-0.8-0.2-3.7-0.6-6.6-1.2c-2.7-0.4-6.1-1-7.2-1c-1,0-1.8-0.2-2.7-0.4c-0.8-0.2-1.6-0.2-2.3-0.4c-0.8,0-1.4,0-2.1-0.2
		c-0.4-0.2-11.3-1.6-18.2-2.1c-5.1-0.4-6.6-0.4-5.3,0.2c0.4,0.2,0.4,0.2,0.2,0.2c-0.4,0-0.6-0.2-0.8-0.4c-0.4-0.2-0.8-0.2-1.2-0.2
		c-0.6,0-1-0.2-1-0.4c0-0.4-0.2-0.4-0.6-0.2c-0.6,0.4-1.6,0.4-2.1-0.2c-0.4-0.4-3.1-0.4-3.5,0c-0.2,0.2-0.4,0-0.4-0.2
		c0-0.4-0.2-0.4-0.8-0.4c-0.6,0.2-1,0.4-1,0.4c-0.2,0.2-0.6,0-1-0.2c-0.6-0.4-2.1-0.6-8.2-1c-7.8-0.4-11.1-0.4-11.5-0.2
		c-0.2,0.2-0.8,0-1.6-0.2c-1-0.4-3.3-0.4-10.3-0.6c-6.4,0-9,0-8.8,0.2s0.2,0.2,0,0.2s-0.6,0-0.8-0.2c0-0.2-2.5-0.4-6.6-0.4h-7.4
		c-6.8,0-27.7,0.2-32,0.2c-3.3,0.2-8.8,0.2-12.9,0.2c-6.1,0.2-11.1,0.2-19.5,0.6c-6.6,0.4-8.2,0.4-8.8,0.6h-0.2c0,0,0,0,0-0.2
		s-0.6-0.2-1.4-0.2c-0.6,0-4.9,0.2-9.4,0.2c-2.9,0-5.7,0-8.6,0.2c-0.6,0.2-14.8,0.8-17.8,0.8c-0.6,0-1.2,0.2-1.2,0.2
		c0,0.2-0.8,0.2-2,0.2c-2.3,0-3.7,0.2-10,0.4l-6.4,0.4C69.8,17,63.6,17.6,59.7,18c-2.1,0.2-4.9,0.4-6.1,0.4
		c-3.5,0.2-7.4,0.6-10.7,1.2c-1.8,0.4-9.8,1.4-9.8,1.4c-32,5.5-32,1-32,1S-3.4,17.2,10.3,13.1 M331.6,20.7c-1,0-2-0.2-2.9-0.6
		c-1-0.4-2-0.6-2.9-0.6c-0.4,0-1,0-1.4-0.2c-1.2-0.4-2.5-0.6-3.7-0.6c-2-0.2-5.1-0.8-7-1c-1.6-0.4-3.1-0.6-4.7-0.8
		c-1.2,0-2.1-0.2-3.3-0.4c-2.3-0.4-10.3-1.6-14.2-1.8c-1.6-0.2-4.9-0.6-7.6-1c-3.1-0.6-6.4-0.8-9.8-1c-2.5-0.2-6.1-0.4-8-0.6
		l-7.2-0.4c-1.8,0-3.7-0.2-5.5-0.6c-1.2-0.2-2.3-0.2-3.5-0.2c-1.4,0-2.9-0.2-4.3-0.4c-2.3-0.4-18.3-0.8-26.2-0.8
		c-3.5,0-4.7-0.2-4.9-1c-0.2-0.4,1.8-0.6,2.1-0.2c0.2,0.2,0.6,0.2,0.8,0.2c0.2,0,0.2-0.2-0.2-0.2c-0.4-0.2-0.6-0.4-0.4-0.4
		c0.4,0,0.8,0,1-0.2c0.6-0.2,0.6-0.2,0.4,0.2c-0.2,0.2,0,0.4,0.6,0.4c0.4,0.2,0.6,0.2,0.8-0.2c0.2-0.2,0.4-0.2,0.8,0
		c0.8,0.2,2,0,2-0.4c0-0.2,0.2-0.2,0.4,0.2c0.4,0.4,0.6,0.4,1.2,0c0.6-0.2,1.4-0.2,2.1,0c0.6,0.2,1.2,0.2,1.8,0
		c0.4-0.2,0.6-0.2,0.6-0.2c0,0.2,1.6,0.4,3.3,0.4c1.2,0,2.5,0,3.7,0.2c0.8,0.2,1.6,0.2,2.1,0.2c0.8,0,1.6,0,2.1,0.4
		c0.6,0.2,0.8,0.2,0.8,0c0-0.2,0.8-0.4,2.1-0.4c3.3,0,6.8,0.4,10.1,0.8c1.6,0.2,3.1,0.2,4.7,0.2c2.1,0,4.3,0.2,6.2,0.4
		c3.7,0.8,5.7,0.8,5.7,0.4c0-0.2,0.2-0.2,0.6,0c0.8,0.2,1.4,0.4,2.1,0.4c2.7-0.2,7.6,0.4,8.2,1c0.2,0.2,0.4,0.2,0.6,0.4
		c0.2,0,1.8-0.2,3.5-0.2c2.1,0,3.5,0.2,3.7,0.4c0.6,0.4,2.9,0.6,6.8,0.8c3.5,0.2,3.5,0.2,2.9,0.4c-0.4,0.2,0.2,0.2,1.8,0.2
		c1-0.2,2.1,0,3.1,0.2c1.2,0.4,2.3,0.6,3.5,0.8c1.6,0.2,3.1,0.4,3.3,0.6c0.6,0.2,1.4,0.4,2.1,0.2c0.8,0,1.6,0.2,1.6,0.4
		c0,0.2,0.4,0.2,0.8,0.2c0.6-0.2,0.8-0.2,0.8,0.2c0,0.2,0.2,0.2,0.4,0.2c0.2-0.2,0.4,0,0.6,0c0.4,0,0.6,0.2,1,0.2
		c0.4,0.2,1.8,0.2,2.9,0.4l2.7,0.4c0.4,0,0.6,0.2,0.6,0.2c0,0.2,0.6,0.2,1.2,0.2c0.8-0.2,1.2,0,1.2,0.2c0,0.2,0.6,0.2,1.6,0.2
		c0.8,0,1.6,0,2.1,0.2c0.8,0.4,1.8,0.6,2.5,0.8c1,0.2,3.3,0.8,5.1,1c1.4,0.4,2.7,0.6,4.1,0.8c0.6,0,1,0.2,1,0.2
		c0.2,0.2,1.8,0.8,6.1,1.8c1.8,0.6,4.5,1.8,3.5,1.8c-0.4,0-0.8-0.2-1.2-0.4c-0.8-0.4-1.8-0.6-2.5-0.8c-1-0.2-1.8-0.4-1.8-0.8
		c0-0.2-0.2-0.2-0.6-0.2c-0.4,0.2-9.2-1.8-12.1-2.7C332.9,20.9,332.4,20.9,331.6,20.7 M93.1,10.7c0.2,0.2,0.6,0.2,1.4,0.2
		c1.2-0.2,2.5-0.2,3.7-0.2c2.9-0.2,3.9-0.4,1.2-0.4c-0.8,0-1.8-0.2-1.8-0.2c0-0.2,0.4-0.2,0.6-0.2c1,0.4,8.6-0.2,8-0.4
		c-0.6-0.2-1-0.2-1.6-0.2c-0.4,0-0.8,0-1-0.4c-1.2-0.2-2.3-0.2-3.3,0c-3.5,0.2-4.7,0.6-4.5,1.4c0.2,0.2-0.4,0.4-1.6,0.4
		C93.4,10.5,92.9,10.7,93.1,10.7 M326.3,13.3c0-0.2-0.4-0.2-0.8-0.2c-0.6,0.2-5.5-1.4-5.5-1.8c0-0.2,0.4-0.2,1.4-0.2
		c0.8,0.2,1.6,0.2,1.8,0.4c0.2,0.2,0.6,0.2,0.8,0c0.2-0.2,0.2,0,0,0.2c-0.4,0.4-0.2,0.4,0.6,0.2c1.2-0.2,2.5,0.8,2.1,1.2
		C326.5,13.5,326.3,13.5,326.3,13.3 M74.1,8.2C75.7,8,77.2,8,77.4,8c0.4-0.2,0.6-0.2,0.4-0.4c-0.2-0.2,0.6-0.2,1.2-0.4
		c0.8-0.2-0.2-0.2-2.5,0c-2.1,0-4.1,0.2-4.3,0.2s-0.6,0.2-0.8,0.4C71.2,8.2,71.4,8.2,74.1,8.2 M154.1,11.1c3.1,0,6.4,0,9.6-0.4
		c0.8-0.2-9-0.2-14.4,0.2C146.9,11.3,148.5,11.3,154.1,11.1 M337.2,24.4c0.6,0.4-0.6,0.2-4.1-0.6c-4.7-1.2-4.7-1.2-4.3-1.4
		C331.6,23,334.5,23.6,337.2,24.4 M338.8,23.8c1.6,0.2,6.8,1.8,6.8,2c0,0.2,0.2,0.2-2.7-0.6c-1.2-0.4-2.3-0.6-3.5-0.8l-1.8-0.4
		C337.4,23.8,337.6,23.8,338.8,23.8 M309.7,12.7c0.6,0,1-0.2,0.8-0.2c-0.2-0.2-8.2-1.2-8.8-1.2C301.1,11.5,308.7,12.7,309.7,12.7
		 M130.7,9.4c-2,0-2.5-0.2-2-0.2c1.2-0.4,5.3-0.4,4.9,0C132.7,9.4,131.7,9.4,130.7,9.4 M189.1,8.2c-0.8,0-1.4,0-2.1-0.2
		c-0.2-0.2,0.8-0.2,2.1-0.2c1.4,0,2.1,0.2,2.1,0.2C190.6,8.2,189.9,8.2,189.1,8.2 M145.2,8.8c-1.4,0-2.3-0.2-2.5-0.2
		c2-0.2,3.9-0.2,5.9-0.2C147.3,8.8,146.1,9,145.2,8.8 M295.3,10.5c0.8,0.2,1.6,0.4,2.3,0.4c2.5,0.4,2.7,0.4,2.5,0.2
		c-1-0.2-2-0.4-2.9-0.6C296,10.5,295.3,10.5,295.3,10.5 M149.1,8.6c-0.4-0.2,0-0.2,1.2-0.4c1,0,1.8,0.2,1.6,0.4
		C151.4,9,149.9,9,149.1,8.6 M195.9,5.7c5.7,0,7.8-0.2,4.9-0.2h-10.1C187.7,5.7,190.3,5.7,195.9,5.7 M137.8,8.8
		c0.4-0.2,1-0.2,1.6-0.2s1.2,0.2,1.2,0.2c0,0.2-0.6,0.4-1.6,0.4C138.1,9.2,137.6,9,137.8,8.8 M103.8,10.5c1.4-0.2,1.8-0.2,1.2-0.4
		c-0.6,0-1-0.2-1.6-0.2c-0.4,0-0.6,0.2-1,0.2c-0.4,0-0.6,0.2-0.6,0.2C101.8,10.5,102.8,10.7,103.8,10.5 M336.8,23.6
		c0,0.2-0.2,0.2-1.2,0c-0.6-0.2-1.2-1-0.6-1C335.7,22.8,336.8,23.4,336.8,23.6 M291.2,10.1c2.9,0.4,4.1,0.4,2.7,0.2l-3.1-0.4
		l-2.1-0.2L291.2,10.1z M227.5,5.7c2.9,0,3.9-0.2,2.5-0.2c-1.8-0.2-3.5-0.2-5.1,0C223.6,5.7,224.8,5.7,227.5,5.7 M270.3,8
		c2,0.4,2.9,0.4,2,0c-0.6-0.2-1.4-0.2-2.1-0.2C268.9,7.8,268.9,7.8,270.3,8 M82.9,7.2C82.1,7,82.1,7,83.7,7c1.2,0,1.6,0,1.2,0.2
		C84.3,7.4,84.3,7.4,82.9,7.2 M101.4,6.2c0-0.2,2.5-0.4,2.7-0.2c0.2,0.2-0.6,0.2-1.2,0.2C102.4,6.4,102,6.4,101.4,6.2 M179.3,8.2
		c-0.6,0-0.8-0.2-0.8-0.2c0.4-0.2,1-0.2,1.4-0.2c0.6,0,0.8,0.2,0.6,0.2C180.5,8.2,179.7,8.2,179.3,8.2 M227.5,8c0-0.4,0.8-0.4,1.8,0
		c0.6,0.2,0.4,0.2-0.6,0.2C228.1,8.2,227.5,8.2,227.5,8 M129,11.9c2.1,0,3.1-0.2,2.1-0.2c-1.4-0.2-2.5-0.2-3.9,0
		C126,11.7,126.8,11.9,129,11.9 M232.2,8.2c-0.8,0-1.2-0.2-0.8-0.2l1-0.4c0.2-0.2,0.6,0,0.6,0l0,0C233.8,8.2,233.6,8.2,232.2,8.2
		 M205.5,7.6c0-0.2,0.2-0.4,0.6-0.4c0.6,0.2,0.8,0.8,0.2,0.8S205.5,7.8,205.5,7.6 M114.1,9.6c1.2-0.2,2.5-0.2,3.7,0
		c1,0,0.2,0.2-1.8,0.2C114.1,9.6,113.2,9.6,114.1,9.6 M315.4,13.7c0.4,0.2,2.1,0.4,2.1,0.2c0-0.2-0.6-0.2-1.2-0.2
		C315.8,13.5,315.4,13.5,315.4,13.7 M156.7,4.5c1-0.4,1.4-0.4,1.4,0c0,0.2-0.6,0.2-1,0.2C156.1,4.7,156.1,4.7,156.7,4.5 M91.5,6.6
		c0-0.2,0.6-0.2,1-0.2c0.6,0,0.6,0,0.4,0.2C92.1,7,91.5,7,91.5,6.6 M262.7,9.6c-0.4-0.4,0.2-0.4,1,0c0.6,0.4,0.6,0.4,0,0.4
		C263.5,9.9,263.1,9.9,262.7,9.6 M246.3,3.9c0-0.2,0.6-0.2,1-0.2c1,0.2,1,0.4-0.4,0.4C246.5,4.1,246.3,4.1,246.3,3.9 M238.5,6
		c1.2,0,1.8-0.2,1.2-0.2h-2C236.9,6,237.3,6,238.5,6 M323.2,15c0.6,0.2,1,0.2,1.6,0.2s0.6,0-0.2-0.2C323.2,14.6,322.2,14.6,323.2,15
		 M76.3,7.2c0.4,0,0.6,0.2,0.6,0.2c0,0.2-0.4,0.4-0.8,0.4c-0.4,0-0.6-0.2-0.4-0.4C75.9,7.4,76.1,7.2,76.3,7.2 M258,10.9
		c-0.2,0.2-0.2,0.2-0.4,0.4c0,0.2,0.2,0.2,0.4,0.2c0.4,0,0.6-0.2,0.6-0.4C258.6,10.9,258.4,10.7,258,10.9 M315.4,19.9
		c1.2,0.2,1.2,0.2,0.8,0c-0.2-0.2-0.6-0.4-1-0.4C314.6,19.7,314.6,19.7,315.4,19.9 M95,6.6l0.6-0.2c0.6-0.2,0.8,0,0.8,0.2
		c0,0.2-0.4,0.2-0.8,0.2C95.2,6.6,95,6.6,95,6.6 M218.9,3.1h1.8c0.6,0.2,0.2,0.2-0.6,0.2C218.9,3.3,218.8,3.1,218.9,3.1 M267,7.6
		c1,0,1.6-0.2,1-0.2c-0.6-0.2-1.2-0.2-2,0C265.6,7.6,266,7.6,267,7.6 M300.3,13.5c0-0.2,0.2-0.2,0.6-0.2c0.2,0,0.4,0,0.4,0.2
		c0,0.2-0.2,0.4-0.4,0.4C300.5,13.9,300.3,13.9,300.3,13.5 M163.9,6c1.6,0,2.1,0,1.4-0.2h-2.7C161.8,6,162.3,6,163.9,6 M311.7,12.9
		c1.2,0.4,1.2,0.4,0.8,0c-0.2-0.2-0.6-0.2-0.8-0.2C310.9,12.7,310.9,12.9,311.7,12.9 M208.4,5.7c1,0,1.2,0,0.6-0.2
		c-0.6-0.2-1-0.2-1.6,0C207,5.7,207.6,5.7,208.4,5.7 M136.4,9c0.6,0.2,0.2,0.2-0.6,0.2c-0.8,0-1.4,0-0.8-0.2
		C135.4,8.8,136,8.8,136.4,9 M245.7,6.2c1,0,1.4-0.2,0.8-0.2c-0.6-0.2-1.2-0.2-1.8,0C244.3,6.2,244.7,6.2,245.7,6.2 M172.3,8.2
		c0.6-0.2,1-0.2,1.6,0c0.6,0,0.2,0.2-0.6,0.2C172.3,8.2,171.7,8.2,172.3,8.2 M183.6,5.7c0.6,0,1,0,0.6-0.2c-0.6-0.2-1-0.2-1.6,0
		C182.4,5.7,182.8,5.7,183.6,5.7 M181.9,2.9c0.8,0,1.2,0,0.6-0.2c-0.6-0.2-1.2-0.2-1.8,0C180.5,2.9,180.9,2.9,181.9,2.9 M255.4,6.8
		c0.8,0,1.2-0.2,0.8-0.2c-0.6-0.2-1.2-0.2-1.8,0C254.1,6.8,254.5,6.8,255.4,6.8 M301.1,15.2c-0.2,0-0.4,0.2-0.6,0.2
		c0,0.2,0,0.2,0.2,0.2c0.2,0,0.6,0,0.8-0.2C301.5,15.4,301.5,15.2,301.1,15.2 M139.7,11.5c0.8,0,1.2-0.2,0.6-0.2
		c-0.4-0.2-1-0.2-1.4,0C138.5,11.5,138.7,11.5,139.7,11.5 M281.8,9c0.8,0,1,0,0.8-0.2c-0.4-0.2-1-0.2-1.4,0C280.6,9,281,9,281.8,9
		 M119.6,12.1c0.8,0,1.2-0.2,0.8-0.2c-0.4-0.2-1-0.2-1.4,0C118.4,12.1,118.6,12.1,119.6,12.1 M262.7,7.4c0.6,0,1-0.2,0.6-0.2
		c-0.4-0.2-1-0.2-1.4,0C261.3,7.4,261.7,7.4,262.7,7.4 M110,9.8h1c0.4,0.2,0,0.2-0.6,0.2S109.6,9.9,110,9.8 M285.1,9.4
		c0.6,0,0.8-0.2,0.6-0.2h-1C284.3,9.4,284.5,9.4,285.1,9.4 M201.2,7.8h1c0.4,0.2,0.2,0.2-0.6,0.2C201.2,8,201,8,201.2,7.8
		 M312.4,19.3c0.6-0.2,0.6-0.2,0.4-0.2c-0.2-0.2-0.6-0.2-0.8,0C311.9,19.3,312.1,19.3,312.4,19.3 M245.5,8.6c-0.2-0.2,0-0.4,0.2-0.4
		s0.4,0.2,0.4,0.4c0.2,0.2,0,0.2-0.2,0.2L245.5,8.6z M334.5,23c0,0.2-0.2,0.2-0.4,0.2c-0.4,0-0.6,0-0.6-0.2c0.2,0,0.4-0.2,0.6-0.2
		C334.3,22.8,334.5,22.8,334.5,23 M180.9,5.8c0.6-0.2,0.6-0.2,0.4-0.2c-0.2,0-0.6,0-0.8,0C180.3,5.7,180.7,5.8,180.9,5.8 M276.1,8.4
		c1,0,1.4,0,0.8-0.2h-1.8C275,8.4,275.4,8.4,276.1,8.4 M259.4,5.7c0.2,0,0.6,0,0.8,0c0.4,0.2,0.2,0.2-0.4,0.2
		C259.5,5.8,259.2,5.7,259.4,5.7 M115.9,5.7c0.2,0,0.6,0,0.8,0c0.4,0.2,0.2,0.2-0.4,0.2C116.1,5.8,115.7,5.7,115.9,5.7 M251.3,6.4
		c0.8,0,1.2,0,0.8-0.2h-1.8C250,6.4,250.4,6.4,251.3,6.4 M259.5,7c0.8,0,1.2,0,0.6-0.2h-1.8C258.2,7,258.6,7,259.5,7 M214.3,5.8
		c0.6-0.2,0.6-0.2,0.4-0.2c-0.2-0.2-0.6-0.2-0.8,0C213.5,5.7,213.9,5.8,214.3,5.8 M220.1,5.8c0.6-0.2,0.6-0.2,0.2-0.2
		c-0.2-0.2-0.8-0.2-0.8,0C219.3,5.7,219.5,5.8,220.1,5.8 M281.8,11.3c0-0.2,0-0.2,0.2-0.2s0.4,0.2,0.6,0.2c0,0.2,0,0.2-0.4,0.2
		C282,11.5,282,11.5,281.8,11.3 M97.7,6.2c0.4-0.2,0.8-0.2,1,0c0.4,0.2,0,0.2-0.6,0.2C97.5,6.4,97.3,6.2,97.7,6.2 M298,13.1
		c0.2,0,0.6,0,0.8,0c0.4,0.2,0.2,0.2-0.2,0.2C298,13.3,298,13.3,298,13.1 M123.7,8.2c0.6,0,0.8,0,0.6-0.2c-0.4-0.2-0.8-0.2-1,0
		C122.7,8.2,123.1,8.2,123.7,8.2 M195.3,7.8h1.6c0.6,0.2,0.2,0.2-0.6,0.2C195.3,8,194.7,8,195.3,7.8 M73.7,7.6c0.4-0.2,0.8-0.2,1,0
		c0.4,0,0.2,0-0.4,0S73.5,7.6,73.7,7.6 M194.7,2.9c0.6,0,0.6,0,0.6-0.2c-0.4-0.2-0.8-0.2-1,0C194,2.9,194.2,2.9,194.7,2.9
		 M175.6,8.2c0.4-0.2,0.8-0.2,1,0c0.4,0.2,0.2,0.2-0.6,0.2C175.6,8.2,175.4,8.2,175.6,8.2 M177.8,5.8c0.6-0.2,0.6-0.2,0.2-0.2
		c-0.2-0.2-0.6,0-0.6,0C177,5.7,177.2,5.8,177.8,5.8 M278.3,12.5h-0.8c-0.2,0.2,0.2,0.2,0.6,0.2C278.5,12.7,278.7,12.7,278.3,12.5
		 M221.9,3.1c0.2-0.2,0.6-0.2,0.8-0.2c0.4,0.2,0.2,0.2-0.4,0.2C222.1,3.3,221.7,3.1,221.9,3.1 M279.5,8.8c0.6,0,0.6-0.2,0.4-0.2
		c-0.4-0.2-0.8-0.2-1,0C278.7,8.8,278.9,8.8,279.5,8.8 M195.9,4.1c0.4-0.2,0.8-0.2,1,0c0.4,0,0.2,0.2-0.6,0.2
		C195.9,4.1,195.7,4.1,195.9,4.1 M310.5,19.1c0.6,0,0.8-0.2,0.6-0.2c-0.4-0.2-0.8-0.2-1,0C309.9,18.9,310.1,19.1,310.5,19.1
		 M225.2,8c0.2-0.2,0.6-0.2,0.8-0.2c0.4,0.2,0.2,0.2-0.2,0.2C225.6,8,225.4,8,225.2,8 M128,5.5c0.4-0.2,0.8-0.2,1,0
		c0.4,0,0,0.2-0.6,0.2C128,5.5,127.8,5.5,128,5.5 M240.4,8.4h0.8c0.4,0.2,0.2,0.2-0.2,0.2C240.6,8.6,240.4,8.4,240.4,8.4 M105.9,6
		c0-0.2,0.2-0.2,0.4-0.2s0.4,0,0.4,0.2c0,0-0.2,0.2-0.4,0.2S105.9,6.2,105.9,6 M229.5,2.9c0.6,0,0.8,0,0.4-0.2
		c-0.2-0.2-0.6-0.2-0.8,0C228.7,2.9,229.1,3.1,229.5,2.9 M130.3,5.3c0-0.2,0-0.2,0.2-0.2l0.4,0.2c0.2,0.2,0.2,0.2-0.2,0.2
		C130.5,5.5,130.3,5.5,130.3,5.3 M214.7,8c0.2,0,0.4-0.2,0.8-0.2c0.4,0.2,0.4,0.2-0.2,0.2C214.7,8,214.5,8,214.7,8 M190.5,2.9
		c0.8,0,0.8,0,0.6-0.2c-0.2-0.2-0.6-0.2-0.8,0C189.9,2.9,190.1,2.9,190.5,2.9 M280.8,6.6c-0.2-0.2,0-0.2,0.2-0.2
		c0.2,0,0.4,0,0.4,0.2c0,0.2,0,0.2-0.2,0.2L280.8,6.6z M268.9,14.8c0.6,0,0.6-0.2,0.4-0.2c-0.2-0.2-0.6-0.2-0.8,0
		C268.1,14.8,268.5,14.8,268.9,14.8 M354.8,25.2c0.6,0,0.8-0.2,0.4-0.2c-0.2-0.2-0.6-0.2-0.8,0C354,25.2,354.4,25.2,354.8,25.2
		 M165.5,10.9C165.9,10.9,165.9,10.9,165.5,10.9c-0.2-0.2-0.4-0.2-0.8-0.2C164.7,10.9,164.9,10.9,165.5,10.9 M287.5,9.6
		C287.8,9.6,288,9.6,287.5,9.6c-0.2-0.2-0.4-0.2-0.8-0.2C286.9,9.6,287.1,9.6,287.5,9.6 M88,6.8c0.2-0.2,0.6-0.2,0.8,0
		C89.1,7,89,7,88.4,7C88.2,6.8,88,6.8,88,6.8 M278.9,14.8c0.6,0,0.6-0.2,0.4-0.2c-0.2-0.2-0.6-0.2-0.8,0
		C278.1,14.8,278.5,14.8,278.9,14.8 M260.7,4.7c0.6,0,0.8-0.2,0.4-0.2c-0.2-0.2-0.6-0.2-0.8,0C259.9,4.5,260.3,4.7,260.7,4.7
		 M199.4,4.1c0-0.2,0.6-0.2,0.6,0c0.4,0,0.4,0.2-0.2,0.2C199.4,4.1,199.2,4.1,199.4,4.1 M142.4,11.5
		C142.8,11.5,142.8,11.5,142.4,11.5c0-0.2-0.6-0.2-0.6-0.2C141.7,11.5,141.8,11.5,142.4,11.5"/>
</g>
</svg>
