<?xml version="1.0" standalone="no"?>
<!DOCTYPE svg PUBLIC "-//W3C//DTD SVG 1.1//EN" "http://www.w3.org/Graphics/SVG/1.1/DTD/svg11.dtd" >
<svg xmlns="http://www.w3.org/2000/svg" xmlns:xlink="http://www.w3.org/1999/xlink" version="1.1">
<metadata></metadata>
<defs>
<font id="nunito_sansextralight_italic" horiz-adv-x="1228" >
<font-face units-per-em="2048" ascent="1638" descent="-410" />
<missing-glyph horiz-adv-x="503" />
<glyph unicode="&#xfb01;" horiz-adv-x="1048" d="M51 918l4 73h199l4 58q14 197 107.5 291t281.5 104l68 4l2 -76l-90 -6q-137 -10 -204 -83t-77 -222l-6 -70h571l-75 -991h-86l71 918h-487l-72 -918h-86l72 918h-197zM823 1266l13 133h133l-13 -133h-133z" />
<glyph unicode="&#xfb02;" horiz-adv-x="1052" d="M51 918l4 73h199l4 58q14 197 107.5 291t281.5 104l68 4v-76l-88 -6q-138 -10 -204.5 -83t-76.5 -222l-6 -70h299l-4 -73h-301l-72 -918h-86l72 918h-197zM753 0l115 1444h86l-115 -1444h-86z" />
<glyph horiz-adv-x="0" />
<glyph unicode="&#xd;" horiz-adv-x="503" />
<glyph horiz-adv-x="0" />
<glyph horiz-adv-x="0" />
<glyph unicode=" "  horiz-adv-x="503" />
<glyph unicode="&#x09;" horiz-adv-x="503" />
<glyph unicode="&#xa0;" horiz-adv-x="503" />
<glyph unicode="!" horiz-adv-x="434" d="M106 0l13 143h139l-10 -143h-142zM174 332l59 1112h111l-115 -1112h-55z" />
<glyph unicode="&#x22;" horiz-adv-x="808" d="M211 901l16 543h107l-66 -543h-57zM606 901l16 543h107l-66 -543h-57z" />
<glyph unicode="#" d="M47 391l4 82h234l139 514h-289l4 82h307l103 375h86l-103 -375h386l102 375h88l-102 -375h213l-5 -82h-231l-139 -514h286l-4 -82h-305l-106 -391h-86l106 391h-385l-106 -391h-88l106 391h-215zM373 473h385l139 514h-385z" />
<glyph unicode="$" d="M90 184l47 74q106 -102 215 -146t258 -44q186 0 290 82.5t104 228.5q0 78 -48.5 129t-119 80.5t-195.5 68.5q-147 45 -235.5 84t-150.5 114t-62 194q0 121 60 214t168.5 145t248.5 52l18 219h84l-18 -223q258 -25 401 -190l-49 -74q-78 94 -186.5 139t-260.5 45 q-172 0 -273 -87t-101 -236q0 -90 52 -148.5t127 -91.5t208 -74q139 -43 223 -79.5t141.5 -104.5t57.5 -174q0 -113 -56.5 -201t-160 -140t-240.5 -58l-16 -218h-86l16 220q-141 8 -259 58t-202 142z" />
<glyph unicode="%" horiz-adv-x="1878" d="M174 963q0 233 92 365t256 132q158 0 241 -99t83 -292q0 -231 -92 -361t-256 -130q-158 0 -241 99t-83 286zM268 952q0 -154 56.5 -226.5t175.5 -72.5q123 0 187.5 109.5t64.5 318.5q0 154 -56.5 227.5t-173.5 73.5q-125 0 -189.5 -109.5t-64.5 -320.5zM432 2l977 1487 l72 -47l-977 -1487zM1069 371q0 236 92 366.5t256 130.5q158 0 241 -98t83 -291q0 -233 -92.5 -363t-255.5 -130q-156 0 -240 99t-84 286zM1163 360q0 -152 56.5 -224.5t175.5 -72.5q123 0 187.5 109t64.5 320q0 152 -56.5 225.5t-173.5 73.5q-125 0 -189.5 -110t-64.5 -321 z" />
<glyph unicode="&#x26;" horiz-adv-x="1327" d="M131 348q0 123 75 226.5t253 222.5l26 16q-106 123 -144 196.5t-38 155.5q0 133 87 213t233 80q133 0 210.5 -72.5t77.5 -197.5q0 -70 -26.5 -126t-91 -116.5t-185.5 -146.5l393 -455q100 201 101 483h86q-6 -332 -131 -546l243 -281h-104l-184 211q-82 -109 -194.5 -167 t-250.5 -58q-129 0 -228 45t-153.5 128t-54.5 189zM219 346q0 -129 94.5 -204.5t255.5 -75.5q121 0 220.5 53t168.5 153l-419 480q-6 -6 -12.5 -9.5t-10.5 -7.5q-168 -113 -232.5 -197.5t-64.5 -191.5zM395 1163q0 -69 32 -130.5t126 -172.5q158 106 214 174t56 146 q0 88 -56 142t-146 54q-102 0 -164 -58t-62 -155z" />
<glyph unicode="'" horiz-adv-x="413" d="M211 901l16 543h107l-66 -543h-57z" />
<glyph unicode="(" horiz-adv-x="575" d="M215 373q0 293 77 572.5t220 520.5l66 -28q-276 -522 -277 -1065q0 -371 133 -738l-67 -24q-152 375 -152 762z" />
<glyph unicode=")" horiz-adv-x="575" d="M4 -360q276 528 277 1065q0 377 -134 737l70 24q152 -375 152 -761q0 -293 -78 -572.5t-221 -521.5z" />
<glyph unicode="*" horiz-adv-x="917" d="M123 1065v80l330 -6l-172 280l67 39l160 -289l158 289l67 -39l-168 -280l328 6v-80l-328 6l168 -278l-67 -39l-158 286l-160 -288l-65 41l170 278z" />
<glyph unicode="+" d="M117 539l8 82h461l37 460h77l-36 -460h460l-8 -82h-459l-36 -457h-78l37 457h-463z" />
<glyph unicode="," horiz-adv-x="434" d="M92 -160q41 43 58.5 81t21.5 79h-66l13 143h139l-8 -118q-6 -70 -29.5 -123.5t-77.5 -102.5z" />
<glyph unicode="-" horiz-adv-x="851" d="M158 504l6 78h541l-7 -78h-540z" />
<glyph unicode="." horiz-adv-x="434" d="M106 0l13 143h139l-10 -143h-142z" />
<glyph unicode="/" horiz-adv-x="524" d="M-84 -84l643 1612l82 -35l-645 -1612z" />
<glyph unicode="0" d="M141 608q0 406 136.5 629t381.5 223q229 0 347 -159.5t118 -464.5q0 -406 -136 -629t-384 -223q-227 0 -345 159.5t-118 464.5zM233 590q0 -264 92.5 -393t282.5 -129q209 0 316.5 199.5t107.5 586.5q0 264 -92 393t-281 129q-209 0 -317.5 -198.5t-108.5 -587.5z" />
<glyph unicode="1" d="M256 0l8 78h318l100 1243l-274 -172l-48 72l330 211l21 12h63l-106 -1366h321l-6 -78h-727z" />
<glyph unicode="2" d="M156 0l4 66l569 581q141 143 197.5 246.5t56.5 218.5q0 121 -77 193.5t-204 72.5q-123 0 -229 -43t-215 -137l-35 72q88 88 215 139t256 51q172 0 274.5 -93t102.5 -253q0 -133 -66.5 -257t-224.5 -284l-495 -495h772l-6 -78h-895z" />
<glyph unicode="3" d="M115 176l47 72q102 -92 204.5 -136t219.5 -44q172 0 271 88t99 250q0 143 -90 215.5t-266 72.5h-143l6 80h135q174 0 279.5 96.5t105.5 253.5q0 115 -79 184.5t-208 69.5q-119 0 -224 -43t-214 -137l-35 72q90 88 216 139t257 51q170 0 272.5 -93t102.5 -249 q0 -127 -73.5 -231.5t-198.5 -149.5q116 -30 180.5 -114t64.5 -211q0 -195 -126.5 -310.5t-337.5 -115.5q-135 0 -253 48t-212 142z" />
<glyph unicode="4" d="M111 340l4 68l796 1036h72l-82 -1024h232l-7 -80h-231l-27 -340h-86l27 340h-641l-4 -4v4h-53zM229 420h586l68 848z" />
<glyph unicode="5" d="M166 176l49 72q104 -92 205.5 -136t210.5 -44q174 0 278.5 111.5t104.5 295.5q0 150 -89 241t-235 91q-246 0 -377 -205h-77l63 842h831l-6 -80h-743l-49 -631q59 72 153.5 115t196.5 43q193 0 308.5 -113.5t115.5 -302.5q0 -143 -61.5 -253.5t-171 -173t-248.5 -62.5 q-129 0 -248 49t-211 141z" />
<glyph unicode="6" horiz-adv-x="1226" d="M147 594q0 262 72 457.5t203 302t305 106.5q123 0 235.5 -49t204.5 -141l-47 -72q-193 180 -395 180q-207 0 -334 -174t-151 -497l-9 -97q53 129 165 205t257 76q135 0 236.5 -54.5t158 -153.5t56.5 -228q0 -135 -59.5 -243t-164 -168t-235.5 -60q-238 0 -368 158.5 t-130 451.5zM272 420q0 -158 102.5 -256t270.5 -98q164 0 266.5 108.5t102.5 282.5q0 158 -99.5 254t-263.5 96q-108 0 -195 -50t-135.5 -138.5t-48.5 -198.5z" />
<glyph unicode="7" d="M229 1366l9 78h903l-4 -64l-795 -1380h-92l786 1366h-807z" />
<glyph unicode="8" d="M106 369q0 131 81 234.5t221 139.5q-104 39 -159.5 121t-55.5 197q0 119 59 209t167.5 140t254.5 50q213 0 331.5 -95t118.5 -255q0 -135 -71.5 -234.5t-196.5 -140.5q248 -80 248 -354q0 -117 -60.5 -206t-175 -138t-270.5 -49q-242 0 -367 96t-125 285zM199 360 q0 -143 96 -215.5t297 -72.5t310.5 80.5t109.5 230.5q0 160 -93.5 233.5t-306.5 73.5q-201 0 -307 -82t-106 -248zM285 1059q0 -133 93 -209t271 -76q184 0 283.5 88t99.5 242q0 129 -91 201.5t-269 72.5q-186 0 -286.5 -85t-100.5 -234z" />
<glyph unicode="9" d="M100 174l47 72q197 -180 396 -180q209 0 335 174t150 497l8 97q-53 -129 -164.5 -205t-257.5 -76q-135 0 -236.5 54.5t-157.5 153.5t-56 228q0 135 59.5 242.5t165 168t236.5 60.5q237 0 366 -159.5t129 -450.5q0 -262 -71.5 -457.5t-202.5 -302t-305 -106.5 q-121 0 -233.5 48t-207.5 142zM256 987q0 -158 98.5 -254t261.5 -96q109 0 196 50t135 138t48 199q0 158 -103.5 256t-270.5 98q-164 0 -264.5 -108.5t-100.5 -282.5z" />
<glyph unicode=":" horiz-adv-x="434" d="M106 0l13 143h139l-10 -143h-142zM174 848l10 143h142l-11 -143h-141z" />
<glyph unicode=";" horiz-adv-x="434" d="M92 -160q41 43 58.5 81t21.5 79h-66l13 143h139l-8 -118q-6 -70 -29.5 -123.5t-77.5 -102.5zM174 848l10 143h142l-11 -143h-141z" />
<glyph unicode="&#x3c;" d="M119 543l6 73l1036 476l-8 -88l-928 -424l862 -422l-6 -90z" />
<glyph unicode="=" d="M102 334l7 82h999l-6 -82h-1000zM133 743l8 82h1000l-8 -82h-1000z" />
<glyph unicode="&#x3e;" d="M82 68l6 90l928 422l-862 424l8 88l962 -476l-6 -73z" />
<glyph unicode="?" horiz-adv-x="878" d="M63 1270q90 88 215 139t244 51q160 0 252 -75.5t92 -202.5q0 -84 -27.5 -154t-69.5 -125t-114 -135q-102 -113 -160.5 -203t-76.5 -213l-2 -20h-54v22q6 98 40 179t77 141.5t115 142.5q94 106 138 182t44 175q0 94 -67.5 149t-188.5 55q-213 0 -420 -180zM293 0l10 143 h139l-10 -143h-139z" />
<glyph unicode="@" horiz-adv-x="1882" d="M119 567q0 262 111.5 464t306 312.5t434.5 110.5q260 0 443 -110.5t275.5 -282.5t92.5 -352q0 -213 -62.5 -342t-154.5 -182.5t-189 -53.5q-111 0 -169 48t-60 140h-4q-49 -86 -132 -137t-184 -51q-125 0 -207.5 91t-82.5 261q0 137 53 260t152.5 200t228.5 77 q104 0 181 -53.5t93 -130.5h2l25 155h86l-103 -594q-6 -37 -6 -65q0 -72 36 -98.5t108 -26.5q70 0 138 49t116.5 161.5t48.5 291.5q0 156 -80 307t-244 250.5t-401 99.5q-217 0 -391 -98.5t-274.5 -279.5t-100.5 -421q0 -238 92 -414t265 -272t411 -96q184 0 321.5 56.5 t212.5 158.5h117q-90 -143 -260 -223t-391 -80q-258 0 -451.5 108.5t-298 305t-104.5 456.5zM616 494q0 -141 66 -214t162 -73q112 0 196 67.5t128 177t44 228.5q0 127 -64.5 194.5t-172.5 67.5q-109 0 -189.5 -64.5t-125 -168t-44.5 -215.5z" />
<glyph unicode="A" horiz-adv-x="1462" d="M31 0l733 1444h82l508 -1444h-90l-142 399h-796l-203 -399h-92zM367 481h727l-297 850z" />
<glyph unicode="B" horiz-adv-x="1361" d="M158 0l112 1444h512q223 0 337 -89t114 -261q0 -129 -67.5 -223.5t-196.5 -135.5q121 -30 182 -111t61 -206q0 -199 -124.5 -308.5t-354.5 -109.5h-575zM250 80h489q187 0 285 82t98 239q0 291 -358 291h-467zM303 774h461q178 0 279.5 84t101.5 240q0 131 -90 198.5 t-267 67.5h-438z" />
<glyph unicode="C" horiz-adv-x="1386" d="M154 655q0 244 80.5 426.5t230 280.5t354.5 98q164 0 294 -49t220 -145l-49 -70q-100 96 -208.5 138t-262.5 42q-178 0 -306 -86t-195.5 -248.5t-67.5 -388.5q0 -281 135 -433t385 -152q260 0 444 182l39 -72q-104 -98 -229 -146t-281 -48q-176 0 -308 80.5t-203.5 232.5 t-71.5 358z" />
<glyph unicode="D" horiz-adv-x="1484" d="M158 0l112 1444h432q324 0 494 -170t170 -488q0 -369 -184.5 -577.5t-524.5 -208.5h-499zM250 78h409q301 0 458 185.5t157 524.5q0 578 -569 578h-355z" />
<glyph unicode="E" horiz-adv-x="1179" d="M158 0l112 1444h869l-4 -80h-785l-47 -592h744l-9 -80h-741l-47 -612h782l-6 -80h-868z" />
<glyph unicode="F" horiz-adv-x="1122" d="M158 0l112 1444h848l-4 -80h-764l-47 -592h723l-8 -78h-721l-55 -694h-84z" />
<glyph unicode="G" horiz-adv-x="1466" d="M152 633q0 252 85 438t241.5 286.5t369.5 100.5q299 0 489 -192l-49 -72q-106 98 -209.5 140t-230.5 42q-188 0 -324.5 -88t-209 -253t-72.5 -394q0 -276 137 -425.5t405 -149.5q98 0 203 19t191 54l39 506h-400l6 82h480l-50 -647q-86 -41 -217 -68.5t-243 -27.5 q-313 0 -477 171t-164 478z" />
<glyph unicode="H" horiz-adv-x="1538" d="M158 0l112 1444h84l-51 -672h973l-8 -78h-971l-53 -694h-86zM1217 0l112 1444h86l-112 -1444h-86z" />
<glyph unicode="I" horiz-adv-x="477" d="M158 0l112 1444h84l-112 -1444h-84z" />
<glyph unicode="J" horiz-adv-x="608" d="M-53 -12v78l106 8q117 10 184.5 83.5t79.5 207.5l84 1079h84l-84 -1084q-27 -340 -348 -364z" />
<glyph unicode="K" horiz-adv-x="1226" d="M158 0l112 1444h84l-53 -670l811 670h129l-864 -705l799 -739h-115l-764 702l-55 -702h-84z" />
<glyph unicode="L" horiz-adv-x="1079" d="M158 0l112 1444h84l-104 -1366h766l-6 -78h-852z" />
<glyph unicode="M" horiz-adv-x="1720" d="M158 0l110 1444h78l502 -1139l674 1139h75l-112 -1444h-84l98 1253l-622 -1028h-70l-465 1035l-100 -1260h-84z" />
<glyph unicode="N" horiz-adv-x="1499" d="M158 0l112 1444h72l850 -1297l104 1297h80l-112 -1444h-70l-854 1305l-102 -1305h-80z" />
<glyph unicode="O" horiz-adv-x="1538" d="M154 655q0 244 79.5 426.5t226 280.5t343.5 98q190 0 329.5 -81t213 -232.5t73.5 -360.5q0 -242 -79.5 -424t-227 -280t-344.5 -98q-190 0 -328.5 80.5t-212 232.5t-73.5 358zM246 653q0 -281 136 -432t388 -151q172 0 298 86t192.5 247.5t66.5 384.5q0 283 -135 434.5 t-389 151.5q-172 0 -298 -86t-192.5 -248.5t-66.5 -386.5z" />
<glyph unicode="P" horiz-adv-x="1294" d="M158 0l112 1444h512q219 0 334 -103.5t115 -281.5q0 -217 -134 -327.5t-370 -110.5h-436l-49 -621h-84zM297 702h434q410 1 410 357q0 145 -88 225t-269 80h-436z" />
<glyph unicode="Q" horiz-adv-x="1538" d="M154 655q0 244 79.5 426.5t226 280.5t343.5 98q190 0 329.5 -81t213 -232.5t73.5 -360.5q0 -303 -125 -510.5t-360 -267.5q37 -16 67.5 -51t63.5 -96l111 -205l-72 -45l-129 237q-70 131 -250 138q-170 6 -299 86t-200.5 229.5t-71.5 353.5zM246 653q0 -281 136 -432 t388 -151q172 0 298 86t192.5 247.5t66.5 384.5q0 283 -135 434.5t-389 151.5q-172 0 -298 -86t-192.5 -248.5t-66.5 -386.5z" />
<glyph unicode="R" horiz-adv-x="1386" d="M158 0l112 1444h545q217 0 334 -93.5t117 -277.5q0 -182 -103.5 -290.5t-300.5 -127.5q47 -16 80 -54t64 -105l223 -496h-94l-205 463q-45 102 -112.5 139t-192.5 37h-332l-51 -639h-84zM299 721h469q207 0 307.5 85t100.5 263q0 150 -89.5 222.5t-267.5 72.5h-469z" />
<glyph unicode="S" horiz-adv-x="1224" d="M80 178l49 72q111 -98 223.5 -141t259.5 -43q203 0 309.5 79.5t106.5 223.5q0 86 -50 139t-125 83t-206 66q-152 43 -246 83t-159.5 120t-65.5 209q0 119 61.5 207t175 136t265.5 48q150 0 275.5 -49t222.5 -145l-50 -72q-201 184 -446 184q-203 0 -309.5 -82 t-106.5 -229q0 -96 54.5 -156.5t135.5 -94.5t216 -71q150 -43 236.5 -79.5t148 -108.5t61.5 -188q0 -117 -61.5 -204t-175 -134t-265.5 -47q-170 0 -297 46t-237 148z" />
<glyph unicode="T" horiz-adv-x="1196" d="M94 1366l6 78h1147l-6 -78h-532l-107 -1366h-86l109 1366h-531z" />
<glyph unicode="U" horiz-adv-x="1464" d="M186 475q0 45 2 70l72 899h84l-70 -891q-2 -25 -2 -70q0 -415 420 -415h2q471 0 504 467l70 909h86l-70 -895q-23 -283 -171 -424t-417 -141q-252 0 -381 128t-129 363z" />
<glyph unicode="V" horiz-adv-x="1372" d="M98 1444h88l467 -1338l678 1338h92l-735 -1444h-84z" />
<glyph unicode="W" horiz-adv-x="2238" d="M160 1444h84l350 -1321l561 1321l74 -2l352 -1317l559 1319h86l-612 -1444h-80l-352 1305l-557 -1305h-78z" />
<glyph unicode="X" horiz-adv-x="1290" d="M10 0l606 743l-460 701h102l412 -635l510 635h104l-569 -703l487 -741h-102l-438 676l-549 -676h-103z" />
<glyph unicode="Y" horiz-adv-x="1189" d="M76 1444h96l442 -670l545 670h101l-607 -742l-55 -702h-86l55 700z" />
<glyph unicode="Z" horiz-adv-x="1185" d="M47 0l4 63l998 1301h-893l6 80h946l4 4v-4h49l-4 -64l-993 -1300h913l-8 -80h-965l-4 -4v4h-53z" />
<glyph unicode="[" horiz-adv-x="575" d="M162 -369l143 1813h336l-4 -76h-252l-131 -1661h250l-4 -76h-338z" />
<glyph unicode="\" horiz-adv-x="524" d="M39 1505l88 23l391 -1624l-88 -23z" />
<glyph unicode="]" horiz-adv-x="575" d="M-59 -369l4 76h252l133 1661h-252l4 76h338l-144 -1813h-335z" />
<glyph unicode="^" d="M88 287l551 999h74l395 -999h-84l-354 893l-494 -893h-88z" />
<glyph unicode="_" horiz-adv-x="1024" d="M-37 -68l6 68h1008l-4 -68h-1010z" />
<glyph unicode="`" horiz-adv-x="614" d="M98 1534h119l176 -410h-74z" />
<glyph unicode="a" horiz-adv-x="1067" d="M125 268q0 111 59.5 175.5t194.5 94t364 29.5h72l6 80q2 18 2 51q0 121 -56 177.5t-175 56.5q-174 0 -342 -109l-37 76q74 53 176.5 85t198.5 32q325 -1 325 -318q0 -31 -2 -47l-53 -651h-88l14 178q-49 -96 -133 -144t-188 -48q-150 0 -244 78.5t-94 203.5zM221 272 q0 -92 65.5 -146t180.5 -54q135 0 230.5 94t105.5 242l6 79h-59q-219 0 -333 -22.5t-155 -67.5t-41 -125z" />
<glyph unicode="b" horiz-adv-x="1157" d="M135 0l115 1444h86l-49 -617q49 88 141 138.5t201 50.5q125 0 221 -59.5t149.5 -168t53.5 -253.5q0 -164 -58.5 -289t-164 -192.5t-240.5 -67.5q-125 0 -217 56t-135 159l-17 -201h-86zM258 455q0 -186 88 -285.5t254 -99.5q168 0 263 126t95 349q0 184 -89 285.5 t-248 101.5q-170 0 -266.5 -127t-96.5 -350z" />
<glyph unicode="c" horiz-adv-x="962" d="M106 463q0 164 58.5 290t167 194.5t254.5 68.5q102 0 192 -36t154 -97l-45 -74q-82 66 -153.5 95.5t-155.5 29.5q-180 0 -279.5 -127t-99.5 -350q0 -182 89 -284.5t257 -102.5q80 0 147.5 28.5t145.5 94.5l34 -72q-61 -63 -149 -99t-188 -36q-129 0 -225.5 59t-150 166.5 t-53.5 251.5z" />
<glyph unicode="d" horiz-adv-x="1157" d="M106 465q0 164 58.5 289t163 193.5t241.5 68.5q125 0 217.5 -56.5t135.5 -156.5l49 641h86l-113 -1444h-86l14 178q-49 -90 -141 -141t-201 -51q-125 0 -221 59t-149.5 168t-53.5 252zM199 463q0 -186 90 -289.5t250 -103.5q170 0 266 127t96 350q0 186 -88 285.5 t-254 99.5q-168 0 -264 -126t-96 -343z" />
<glyph unicode="e" horiz-adv-x="1073" d="M106 463q0 164 58.5 290t167 194.5t256.5 68.5q184 0 288.5 -109.5t104.5 -324.5q0 -61 -4 -95h-776v-32q0 -178 90 -281.5t260 -103.5q199 0 344 125l37 -74q-59 -61 -166 -98t-213 -37q-207 0 -327 129t-120 348zM209 567h688q1 16 1 31q0 158 -75 244q-82 94 -229 94 q-164 0 -263.5 -97.5t-121.5 -271.5z" />
<glyph unicode="f" horiz-adv-x="618" d="M51 918l4 73h199l4 58q14 197 107.5 291t281.5 104l68 4v-76l-88 -6q-138 -10 -204.5 -83t-76.5 -222l-6 -70h299l-4 -73h-301l-72 -918h-86l72 918h-197z" />
<glyph unicode="g" horiz-adv-x="1165" d="M109 489q0 158 57 277t162.5 184.5t244.5 65.5q127 0 220.5 -56.5t136.5 -156.5l14 188h86l-74 -946q-35 -428 -426 -428q-121 0 -222 35t-193 106l45 72q102 -74 182 -101.5t188 -27.5q313 0 342 344l15 191q-45 -96 -139.5 -150.5t-206.5 -54.5q-197 0 -314.5 125 t-117.5 333zM201 481q0 -178 88 -272t256 -94q170 0 267 119.5t97 330.5q0 174 -90 270.5t-254 96.5q-170 0 -267 -120t-97 -331z" />
<glyph unicode="h" horiz-adv-x="1132" d="M135 0l115 1444h86l-51 -621q51 92 141 142.5t205 50.5q168 0 256 -83t88 -245q0 -35 -2 -53l-49 -635h-86l49 627q2 18 2 53q0 254 -254 254q-162 0 -259 -95.5t-110 -260.5l-45 -578h-86z" />
<glyph unicode="i" horiz-adv-x="434" d="M135 0l78 991h86l-78 -991h-86zM213 1268l10 129h129l-10 -129h-129z" />
<glyph unicode="j" horiz-adv-x="434" d="M-219 -297l84 4q129 10 194.5 75.5t73.5 199.5l80 1009h86l-78 -999q-27 -338 -348 -361l-88 -6zM213 1268l10 129h129l-10 -129h-129z" />
<glyph unicode="k" horiz-adv-x="958" d="M135 0l115 1444h86l-74 -918l551 465h123l-571 -477l557 -514h-119l-543 498l-39 -498h-86z" />
<glyph unicode="l" horiz-adv-x="434" d="M135 0l115 1444h86l-115 -1444h-86z" />
<glyph unicode="m" horiz-adv-x="1708" d="M135 0l78 991h84l-12 -170q45 96 126 145.5t191 49.5q244 0 299 -195q47 92 136 143.5t204 51.5q154 0 232.5 -82t78.5 -242q0 -37 -2 -57l-51 -635h-86l51 627q2 20 2 55q0 129 -56 190.5t-171 61.5q-147 0 -233 -93t-101 -261l-45 -580h-86l49 627q2 20 2 61 q0 125 -56 185.5t-171 60.5q-145 0 -232 -93t-100 -261l-45 -580h-86z" />
<glyph unicode="n" horiz-adv-x="1132" d="M135 0l78 991h84l-14 -172q51 94 141 145.5t207 51.5q168 0 256 -83t88 -245q0 -35 -2 -53l-49 -635h-86l49 627q2 18 2 53q0 254 -254 254q-162 0 -259 -95.5t-110 -260.5l-45 -578h-86z" />
<glyph unicode="o" horiz-adv-x="1097" d="M106 463q0 164 57.5 289t161 194.5t240.5 69.5q195 0 311.5 -130t116.5 -349q0 -164 -57 -289t-161.5 -193.5t-239.5 -68.5q-129 0 -225.5 59t-150 166.5t-53.5 251.5zM199 457q0 -186 89 -286.5t253 -100.5q166 0 263 126t97 347q0 184 -90 286.5t-250 102.5 q-168 0 -265 -126t-97 -349z" />
<glyph unicode="p" horiz-adv-x="1157" d="M106 -369l107 1360h86l-12 -166q49 90 141 140.5t201 50.5q125 0 221 -59.5t149.5 -168t53.5 -253.5q0 -164 -58.5 -289t-164 -192.5t-240.5 -67.5q-125 0 -217 56t-135 159l-45 -570h-87zM258 455q0 -186 88 -285.5t254 -99.5q168 0 263 126t95 349q0 184 -89 285.5 t-248 101.5q-170 0 -266.5 -127t-96.5 -350z" />
<glyph unicode="q" horiz-adv-x="1157" d="M104 467q0 164 58.5 289t164 192.5t240.5 67.5q125 0 218.5 -56.5t134.5 -156.5l16 188h86l-109 -1360h-86l43 547q-49 -90 -142 -141t-200 -51q-125 0 -221 59t-149.5 168t-53.5 254zM197 457q0 -182 90 -284.5t248 -102.5q170 0 267 127t97 350q0 186 -88 285.5 t-254 99.5q-168 0 -264 -126t-96 -349z" />
<glyph unicode="r" horiz-adv-x="667" d="M135 0l78 991h86l-12 -174q49 94 132 139t218 56l45 4l4 -78l-70 -8q-319 -31 -348 -336l-47 -594h-86z" />
<glyph unicode="s" horiz-adv-x="974" d="M84 121l45 72q82 -66 155.5 -93.5t170.5 -27.5q286 0 286 181q0 58 -34.5 95t-85 58.5t-138.5 46.5q-102 31 -164.5 58.5t-106.5 80.5t-44 139v5q0 127 100 203q102 77 269 77q100 0 188 -35t145 -98l-45 -74q-133 121 -286 121q-133 0 -204 -49.5t-71 -147.5 q0 -82 63.5 -121t190.5 -73q102 -29 166 -56.5t108 -81t44 -141.5q0 -125 -105.5 -199.5t-277.5 -74.5q-107 0 -205 35.5t-164 99.5z" />
<glyph unicode="t" horiz-adv-x="643" d="M51 918l4 73h199l25 309h86l-25 -309h299l-4 -73h-301l-45 -578q-2 -16 -2 -45q0 -111 57 -169t166 -58q49 0 88 8l-10 -80q-39 -8 -84 -8q-145 0 -224 79.5t-79 219.5q0 27 2 41l45 590h-197z" />
<glyph unicode="u" horiz-adv-x="1116" d="M158 315q0 35 2 54l49 622h86l-49 -616q-2 -16 -2 -49q0 -256 248 -256q156 0 251 94t107 262l45 565h86l-78 -991h-84l15 184q-49 -96 -138.5 -147t-199.5 -51q-164 0 -251 83t-87 246z" />
<glyph unicode="v" horiz-adv-x="1032" d="M84 991h90l307 -915l451 915h94l-500 -991h-98z" />
<glyph unicode="w" horiz-adv-x="1699" d="M119 991h92l238 -891l387 891h104l244 -889l379 889h96l-430 -991h-103l-247 885l-385 -885h-103z" />
<glyph unicode="x" horiz-adv-x="1036" d="M18 0l449 514l-350 477h112l291 -411l365 411h112l-424 -481l369 -510h-113l-313 444l-387 -444h-111z" />
<glyph unicode="y" horiz-adv-x="1032" d="M84 991h90l307 -915l451 915h94l-688 -1360h-88l180 359z" />
<glyph unicode="z" horiz-adv-x="1015" d="M61 0l7 59l749 859h-653l6 73h766l-4 -69l-739 -846h696l-6 -76h-822z" />
<glyph unicode="{" horiz-adv-x="651" d="M111 502l4 73l43 3q86 4 123.5 44t44.5 123l39 525q16 174 184 174h168l-4 -76h-162q-88 0 -98 -94l-41 -535q-6 -88 -51.5 -138t-104.5 -62q59 -12 95 -62.5t30 -138.5l-43 -537q-4 -47 15.5 -70.5t66.5 -23.5h160l-5 -76h-149q-188 0 -176 174l41 527q2 12 2 35 q0 68 -32 99.5t-109 33.5z" />
<glyph unicode="|" horiz-adv-x="501" d="M137 -369l144 1813h88l-144 -1813h-88z" />
<glyph unicode="}" horiz-adv-x="651" d="M-59 -369l4 76h161q92 0 99 94l43 537q6 88 51 138t104 63q-59 14 -94 63t-28 137l38 535q10 94 -81 94h-160l4 76h149q98 0 140.5 -43t36.5 -131l-41 -525q-6 -86 25.5 -124.5t117.5 -42.5l37 -3l-4 -73l-41 -2q-86 -2 -123 -42t-47 -126l-39 -527q-8 -84 -53 -129 t-129 -45h-170z" />
<glyph unicode="~" d="M117 518q98 188 268 189q70 0 133.5 -27t143.5 -74q70 -39 112.5 -57.5t83.5 -18.5q70 0 116 38t81 104l71 -31q-49 -92 -114.5 -140t-155.5 -48q-68 0 -130 25.5t-146 74.5q-72 39 -113 57.5t-82 18.5q-70 0 -117 -39t-82 -103z" />
<glyph unicode="&#xa1;" horiz-adv-x="434" d="M94 -369l109 1031h53l-53 -1031h-109zM174 848l10 143h142l-11 -143h-141z" />
<glyph unicode="&#xa2;" d="M201 463q0 240 118.5 389t325.5 162l19 223h86l-19 -223q88 -8 164 -43t131 -88l-45 -74q-82 66 -152.5 95.5t-154.5 29.5q-182 0 -281.5 -127t-99.5 -350q0 -180 90 -283.5t256 -103.5q82 0 148.5 28.5t144.5 94.5l37 -72q-59 -59 -142.5 -95t-177.5 -40l-16 -222h-86 l16 226q-166 23 -264 149.5t-98 323.5z" />
<glyph unicode="&#xa3;" d="M66 0l6 78h231l47 604h-231l8 82h231l23 295q14 188 119.5 294.5t275.5 106.5q119 0 227.5 -50t196.5 -144l-49 -74q-76 88 -173 137t-200 49q-139 0 -220 -80.5t-93 -230.5l-25 -303h394l-7 -82h-393l-47 -604h719l-8 -78h-1032z" />
<glyph unicode="&#xa4;" d="M123 70l113 114q-51 66 -80 148t-29 170t27.5 169t78.5 146l-110 117l72 74l110 -117q63 57 144 88t169 31q176 0 308 -113l106 111l74 -74l-109 -111q53 -66 83 -148.5t30 -172.5t-29.5 -173t-83.5 -149l109 -110l-74 -74l-106 110q-131 -113 -308 -112q-176 0 -313 117 l-110 -115zM215 502q0 -117 54.5 -215.5t146.5 -155.5t200 -57q111 0 203 57t145.5 155.5t53.5 215.5t-53.5 215t-145.5 155.5t-203 57.5q-109 0 -200.5 -58.5t-146 -156t-54.5 -213.5z" />
<glyph unicode="&#xa5;" d="M84 1444h102l443 -676h8l553 676h102l-553 -676h357l-9 -82h-415l-17 -225h416l-8 -82h-416l-29 -379h-86l31 379h-418l9 82h415l19 223v2h-418l8 82h354z" />
<glyph unicode="&#xa6;" horiz-adv-x="501" d="M139 -369l54 684h88l-54 -684h-88zM227 760l54 684h88l-54 -684h-88z" />
<glyph unicode="&#xa7;" horiz-adv-x="1050" d="M78 -250l47 74q92 -68 168 -94.5t174 -26.5q133 0 204.5 72.5t71.5 201.5q0 88 -45 152t-147 125l-152 90q-156 92 -221 174t-65 184q0 82 35.5 159t91.5 122q-14 45 -15 107q0 168 102.5 268t270.5 100q88 0 181 -38t149 -97l-45 -74q-76 68 -146.5 96.5t-158.5 28.5 q-119 0 -193 -77.5t-74 -200.5q0 -84 44 -144.5t149 -124.5l151 -94q158 -96 222.5 -178t64.5 -186q0 -74 -35 -146.5t-94 -120.5q18 -51 18 -114q0 -170 -98 -269.5t-266 -99.5q-115 0 -208 32t-181 99zM203 702q0 -70 50 -129t173 -137l137 -88q156 -96 211 -174 q78 82 78 203q0 70 -48 127t-173 137l-139 86q-154 98 -209 174q-80 -80 -80 -199z" />
<glyph unicode="&#xa8;" horiz-adv-x="614" d="M141 1270l10 123h125l-8 -123h-127zM471 1270l8 123h127l-10 -123h-125z" />
<glyph unicode="&#xa9;" horiz-adv-x="1669" d="M102 723q0 205 96.5 372t264.5 263t373 96t371.5 -96t263 -263t96.5 -372t-96.5 -372t-264.5 -264t-370 -97q-205 0 -372 97t-264.5 264t-97.5 372zM178 723q0 -184 87 -335.5t237.5 -239t333.5 -87.5q182 0 331.5 87.5t236.5 239t87 335.5t-87 334.5t-236.5 237.5 t-331.5 87t-333 -87t-238 -237.5t-87 -334.5zM444 723q0 203 107.5 321.5t292.5 118.5q82 0 162.5 -31.5t138.5 -84.5l-37 -66q-72 57 -134.5 83t-133.5 26q-145 0 -224 -95.5t-79 -271.5t78.5 -272.5t224.5 -96.5q72 0 134 26t134 83l37 -66q-57 -53 -138 -84.5t-163 -31.5 q-185 0 -292.5 118.5t-107.5 323.5z" />
<glyph unicode="&#xaa;" horiz-adv-x="665" d="M117 1012q0 98 85 139t290 41h34l2 41q12 150 -125 149q-104 0 -204 -67l-29 63q49 37 112.5 56.5t125.5 19.5q98 0 153 -52t55 -147l-2 -28l-28 -377h-86l8 90q-29 -47 -77 -73.5t-107 -26.5q-92 0 -149.5 48t-57.5 124zM209 1016q0 -43 35 -74t84 -31q80 0 132 51.5 t60 135.5l2 37h-28q-111 0 -172.5 -11.5t-87 -37t-25.5 -70.5z" />
<glyph unicode="&#xab;" horiz-adv-x="806" d="M125 520l4 45l211 326l72 -27l-195 -321l139 -326l-71 -22zM449 520l4 45l211 326l72 -27l-195 -321l139 -326l-71 -22z" />
<glyph unicode="&#xac;" d="M135 758l6 80h1000l-41 -516h-74l35 436h-926z" />
<glyph unicode="&#xad;" horiz-adv-x="851" d="M158 504l6 78h541l-7 -78h-540z" />
<glyph unicode="&#xae;" horiz-adv-x="1669" d="M121 723q0 205 96 372t264 263t373 96t372 -96t263 -263t96 -372t-96 -372t-264 -264t-371 -97q-205 0 -372 97t-264 264t-97 372zM197 723q0 -184 86 -335.5t236.5 -239t334.5 -87.5q182 0 331.5 87.5t236.5 239t87 335.5t-87 334.5t-236.5 237.5t-331.5 87t-332.5 -87 t-237.5 -237.5t-87 -334.5zM539 291l67 862h316q287 0 286 -233q0 -107 -66.5 -173.5t-187.5 -78.5q55 -20 95 -93l157 -284h-94l-154 274q-31 53 -66.5 72.5t-98.5 19.5h-140l-28 -366h-86zM659 735h250q105 0 157 47t52 136q0 88 -49 124.5t-160 36.5h-221z" />
<glyph unicode="&#xaf;" horiz-adv-x="614" d="M69 1288l8 88h596l-6 -88h-598z" />
<glyph unicode="&#xb0;" horiz-adv-x="745" d="M137 1163q0 82 38 148.5t104.5 104.5t146.5 38t145.5 -38t103.5 -104.5t38 -148.5t-38 -148.5t-103.5 -104.5t-145.5 -38t-146.5 38t-104.5 104.5t-38 148.5zM225 1163q0 -92 56.5 -150.5t144.5 -58.5t144.5 58.5t56.5 150.5t-56.5 150.5t-144.5 58.5t-144.5 -58.5 t-56.5 -150.5z" />
<glyph unicode="&#xb1;" d="M76 0l8 82h999l-8 -82h-999zM125 616l6 80h461l31 385h77l-30 -385h460l-6 -80h-460l-31 -385h-80l31 385h-459z" />
<glyph unicode="&#xb2;" horiz-adv-x="778" d="M127 578l4 66l332 340q76 80 108.5 136t32.5 117q0 66 -40 103t-109 37q-55 0 -124 -28t-128 -77l-49 62q137 119 299 118q113 0 176 -58t63 -157q0 -74 -39 -144.5t-121 -152.5l-282 -286h432l-4 -76h-551z" />
<glyph unicode="&#xb3;" horiz-adv-x="778" d="M94 691l60 61q115 -102 233 -102q92 0 147.5 42t55.5 128q0 162 -195 161h-94l4 74h82q102 0 158.5 47t56.5 140q0 63 -41 99t-108 36q-55 0 -124 -28t-126 -77l-49 62q137 119 299 118q113 0 176 -56t63 -142q0 -88 -44 -147.5t-114 -86.5q68 -18 105 -67t37 -127 q0 -119 -80 -186.5t-205 -67.5q-84 0 -162 32.5t-135 86.5z" />
<glyph unicode="&#xb4;" horiz-adv-x="614" d="M319 1124l236 410h133l-295 -410h-74z" />
<glyph unicode="&#xb5;" horiz-adv-x="1116" d="M102 -369l107 1360h86l-49 -616q-2 -16 -2 -49q0 -256 248 -256q156 0 251 94t107 262l45 565h86l-78 -991h-84l15 184q-49 -96 -138.5 -147t-199.5 -51q-180 0 -271 96l-37 -451h-86z" />
<glyph unicode="&#xb6;" horiz-adv-x="1138" d="M152 1036q0 180 107.5 294t305.5 114h451l-144 -1813h-98l135 1721h-254l-135 -1721h-98l82 1055q-158 4 -255 99.5t-97 250.5z" />
<glyph unicode="&#xb7;" horiz-adv-x="434" d="M145 471l11 143h141l-10 -143h-142z" />
<glyph unicode="&#xb8;" horiz-adv-x="614" d="M90 -350l29 69q74 -29 149 -28q63 0 97 21.5t34 62.5q0 31 -19.5 47t-55.5 16q-45 0 -99 -22l-37 28l37 197h86l-24 -131q29 6 53 6q66 0 105.5 -36t39.5 -101q0 -76 -58 -122t-165 -46q-41 0 -88 9t-84 30z" />
<glyph unicode="&#xb9;" horiz-adv-x="778" d="M254 578l6 76h152l55 686l-150 -94l-39 67l205 131h74l-61 -790h147l-6 -76h-383z" />
<glyph unicode="&#xba;" horiz-adv-x="665" d="M102 1118q0 150 81 243t218 93q119 0 191 -77t72 -201q0 -152 -82 -244t-222 -92q-116 0 -187 76.5t-71 201.5zM190 1118q0 -100 44.5 -153.5t125.5 -53.5q103 0 158 70t55 195q0 100 -44 153t-128 53q-100 0 -155.5 -70.5t-55.5 -193.5z" />
<glyph unicode="&#xbb;" horiz-adv-x="806" d="M76 219l196 324l-141 323l72 25l164 -326l-5 -45l-215 -325zM400 219l196 324l-141 323l72 25l164 -326l-5 -45l-215 -325z" />
<glyph unicode="&#xbc;" horiz-adv-x="1880" d="M254 578l6 75h152l55 686l-150 -94l-38 68l204 131h74l-61 -791h147l-6 -75h-383zM436 4l973 1485l69 -49l-972 -1485zM1172 193l4 67l465 606h73l-47 -598h131l-6 -75h-131l-14 -193h-92l14 193h-397zM1274 268h301l35 439z" />
<glyph unicode="&#xbd;" horiz-adv-x="1880" d="M254 578l6 75h152l55 686l-150 -94l-38 68l204 131h74l-61 -791h147l-6 -75h-383zM436 4l973 1485l69 -49l-972 -1485zM1184 0l4 66l332 340q76 80 108.5 136t32.5 117q0 66 -40 103t-109 37q-55 0 -124 -28t-128 -77l-49 62q137 119 299 118q113 0 176 -58t63 -157 q0 -74 -39 -144.5t-121 -152.5l-282 -286h432l-4 -76h-551z" />
<glyph unicode="&#xbe;" horiz-adv-x="1880" d="M94 690l60 62q115 -102 233 -103q92 0 147.5 42t55.5 128q0 162 -195 162h-94l4 74h82q102 0 158.5 47t56.5 139q0 63 -41 99t-108 36q-55 0 -124 -27.5t-126 -76.5l-49 61q137 119 299 119q113 0 176 -56.5t63 -142.5q0 -88 -44 -147t-113 -86q67 -19 104 -68t37 -127 q0 -119 -80 -186.5t-205 -67.5q-84 0 -161.5 33t-135.5 86zM436 4l973 1485l69 -49l-972 -1485zM1172 193l4 67l465 606h73l-47 -598h131l-6 -75h-131l-14 -193h-92l14 193h-397zM1274 268h301l35 439z" />
<glyph unicode="&#xbf;" horiz-adv-x="878" d="M18 -102q0 76 27 138t68 109.5t108 112.5q104 102 162.5 183t77.5 200l2 18h53l-2 -22q-6 -94 -39 -169t-76 -127t-112 -122q-92 -92 -135 -157.5t-43 -157.5q0 -94 68.5 -149.5t189.5 -55.5q211 0 417 180l37 -72q-90 -88 -213 -139t-237 -51q-164 0 -258.5 78 t-94.5 203zM434 848l10 143h142l-11 -143h-141z" />
<glyph unicode="&#xc0;" horiz-adv-x="1462" d="M31 0l733 1444h82l508 -1444h-90l-142 399h-796l-203 -399h-92zM367 481h727l-297 850zM553 1872h114l185 -305h-74z" />
<glyph unicode="&#xc1;" horiz-adv-x="1462" d="M31 0l733 1444h82l508 -1444h-90l-142 399h-796l-203 -399h-92zM367 481h727l-297 850zM778 1567l225 305h131l-282 -305h-74z" />
<glyph unicode="&#xc2;" horiz-adv-x="1462" d="M31 0l733 1444h82l508 -1444h-90l-142 399h-796l-203 -399h-92zM367 481h727l-297 850zM549 1567l253 305h74l205 -305h-102l-142 231l-182 -231h-106z" />
<glyph unicode="&#xc3;" horiz-adv-x="1462" d="M31 0l733 1444h82l508 -1444h-90l-142 399h-796l-203 -399h-92zM367 481h727l-297 850zM503 1626q5 96 53 147.5t126 51.5q41 0 76.5 -16.5t95.5 -53.5q41 -27 67.5 -40t50.5 -13q49 0 78 32.5t31 84.5h70q-4 -94 -52.5 -146.5t-126.5 -52.5q-41 0 -77.5 17.5t-92.5 52.5 q-41 27 -67.5 40t-50.5 13q-49 0 -78 -32t-33 -85h-70z" />
<glyph unicode="&#xc4;" horiz-adv-x="1462" d="M31 0l733 1444h82l508 -1444h-90l-142 399h-796l-203 -399h-92zM367 481h727l-297 850zM596 1661l10 123h125l-8 -123h-127zM925 1661l9 123h127l-11 -123h-125z" />
<glyph unicode="&#xc5;" horiz-adv-x="1462" d="M-8 0l747 1397q-57 23 -92 71t-35 109q0 82 57.5 138.5t141.5 56.5q82 0 139.5 -56.5t57.5 -138.5q0 -59 -32 -106.5t-85 -69.5l528 -1571l-194 170l-131 399h-766l-275 -538zM371 481h696l-270 834zM707 1577q0 -43 28 -76l-10 31l43 -55q6 0 10 -4l76 141l16 -125 q20 14 31.5 37.5t11.5 50.5q0 47 -28.5 78t-73.5 31t-74.5 -31t-29.5 -78z" />
<glyph unicode="&#xc6;" horiz-adv-x="2019" d="M-10 0l973 1444h1015l-4 -82h-930l80 -590h762l-6 -80h-745l82 -610h657l-8 -82h-721l-51 399h-738l-268 -399h-98zM412 481h669l-108 838z" />
<glyph unicode="&#xc7;" horiz-adv-x="1386" d="M154 655q0 244 80.5 426.5t230 280.5t354.5 98q164 0 294 -49t220 -145l-49 -70q-100 96 -208.5 138t-262.5 42q-178 0 -306 -86t-195.5 -248.5t-67.5 -388.5q0 -281 135 -433t385 -152q260 0 444 182l39 -72q-199 -186 -483 -194l-14 -74q29 6 53 6q66 0 105.5 -36 t39.5 -101q0 -76 -58.5 -122t-164.5 -46q-41 0 -88 9t-84 30l29 69q74 -29 149 -28q63 0 97 21.5t34 62.5q0 31 -19.5 47t-56.5 16q-45 0 -98 -22l-37 28l27 142q-160 12 -277.5 97t-182 231.5t-64.5 340.5z" />
<glyph unicode="&#xc8;" horiz-adv-x="1179" d="M158 0l112 1444h869l-4 -80h-785l-47 -592h744l-9 -80h-741l-47 -612h782l-6 -80h-868zM478 1872h114l185 -305h-74z" />
<glyph unicode="&#xc9;" horiz-adv-x="1179" d="M158 0l112 1444h869l-4 -80h-785l-47 -592h744l-9 -80h-741l-47 -612h782l-6 -80h-868zM703 1567l225 305h131l-282 -305h-74z" />
<glyph unicode="&#xca;" horiz-adv-x="1179" d="M158 0l112 1444h869l-4 -80h-785l-47 -592h744l-9 -80h-741l-47 -612h782l-6 -80h-868zM474 1567l253 305h74l205 -305h-102l-142 231l-182 -231h-106z" />
<glyph unicode="&#xcb;" horiz-adv-x="1179" d="M158 0l112 1444h869l-4 -80h-785l-47 -592h744l-9 -80h-741l-47 -612h782l-6 -80h-868zM521 1661l10 123h125l-8 -123h-127zM850 1661l9 123h127l-11 -123h-125z" />
<glyph unicode="&#xcc;" horiz-adv-x="477" d="M60 1872h114l185 -305h-74zM158 0l112 1444h84l-112 -1444h-84z" />
<glyph unicode="&#xcd;" horiz-adv-x="477" d="M158 0l112 1444h84l-112 -1444h-84zM285 1567l225 305h131l-282 -305h-74z" />
<glyph unicode="&#xce;" horiz-adv-x="477" d="M56 1567l253 305h74l205 -305h-102l-142 231l-182 -231h-106zM158 0l112 1444h84l-112 -1444h-84z" />
<glyph unicode="&#xcf;" horiz-adv-x="477" d="M103 1661l10 123h125l-8 -123h-127zM158 0l112 1444h84l-112 -1444h-84zM432 1661l9 123h127l-11 -123h-125z" />
<glyph unicode="&#xd0;" horiz-adv-x="1492" d="M23 696l6 76h196l54 672h432q323 0 493 -170t170 -488q0 -369 -184 -577.5t-524 -208.5h-500l55 696h-198zM258 78h410q301 0 457.5 185.5t156.5 524.5q0 578 -567 578h-357l-47 -594h402l-6 -76h-400z" />
<glyph unicode="&#xd1;" horiz-adv-x="1499" d="M158 0l112 1444h72l850 -1297l104 1297h80l-112 -1444h-70l-854 1305l-102 -1305h-80zM522 1626q5 96 53 147.5t126 51.5q41 0 76.5 -16.5t95.5 -53.5q41 -27 67.5 -40t50.5 -13q49 0 78 32.5t31 84.5h70q-4 -94 -52.5 -146.5t-126.5 -52.5q-41 0 -77.5 17.5t-92.5 52.5 q-41 27 -67.5 40t-50.5 13q-49 0 -78 -32t-33 -85h-70z" />
<glyph unicode="&#xd2;" horiz-adv-x="1538" d="M154 655q0 244 79.5 426.5t226 280.5t343.5 98q190 0 329.5 -81t213 -232.5t73.5 -360.5q0 -242 -79.5 -424t-227 -280t-344.5 -98q-190 0 -328.5 80.5t-212 232.5t-73.5 358zM246 653q0 -281 136 -432t388 -151q172 0 298 86t192.5 247.5t66.5 384.5q0 283 -135 434.5 t-389 151.5q-172 0 -298 -86t-192.5 -248.5t-66.5 -386.5zM590 1872h114l185 -305h-74z" />
<glyph unicode="&#xd3;" horiz-adv-x="1538" d="M154 655q0 244 79.5 426.5t226 280.5t343.5 98q190 0 329.5 -81t213 -232.5t73.5 -360.5q0 -242 -79.5 -424t-227 -280t-344.5 -98q-190 0 -328.5 80.5t-212 232.5t-73.5 358zM246 653q0 -281 136 -432t388 -151q172 0 298 86t192.5 247.5t66.5 384.5q0 283 -135 434.5 t-389 151.5q-172 0 -298 -86t-192.5 -248.5t-66.5 -386.5zM815 1567l225 305h131l-282 -305h-74z" />
<glyph unicode="&#xd4;" horiz-adv-x="1538" d="M154 655q0 244 79.5 426.5t226 280.5t343.5 98q190 0 329.5 -81t213 -232.5t73.5 -360.5q0 -242 -79.5 -424t-227 -280t-344.5 -98q-190 0 -328.5 80.5t-212 232.5t-73.5 358zM246 653q0 -281 136 -432t388 -151q172 0 298 86t192.5 247.5t66.5 384.5q0 283 -135 434.5 t-389 151.5q-172 0 -298 -86t-192.5 -248.5t-66.5 -386.5zM586 1567l253 305h74l205 -305h-102l-142 231l-182 -231h-106z" />
<glyph unicode="&#xd5;" horiz-adv-x="1538" d="M154 655q0 244 79.5 426.5t226 280.5t343.5 98q190 0 329.5 -81t213 -232.5t73.5 -360.5q0 -242 -79.5 -424t-227 -280t-344.5 -98q-190 0 -328.5 80.5t-212 232.5t-73.5 358zM246 653q0 -281 136 -432t388 -151q172 0 298 86t192.5 247.5t66.5 384.5q0 283 -135 434.5 t-389 151.5q-172 0 -298 -86t-192.5 -248.5t-66.5 -386.5zM540 1626q5 96 53 147.5t126 51.5q41 0 76.5 -16.5t95.5 -53.5q41 -27 67.5 -40t50.5 -13q49 0 78 32.5t31 84.5h70q-4 -94 -52.5 -146.5t-126.5 -52.5q-41 0 -77.5 17.5t-92.5 52.5q-41 27 -67.5 40t-50.5 13 q-49 0 -78 -32t-33 -85h-70z" />
<glyph unicode="&#xd6;" horiz-adv-x="1538" d="M154 655q0 244 79.5 426.5t226 280.5t343.5 98q190 0 329.5 -81t213 -232.5t73.5 -360.5q0 -242 -79.5 -424t-227 -280t-344.5 -98q-190 0 -328.5 80.5t-212 232.5t-73.5 358zM246 653q0 -281 136 -432t388 -151q172 0 298 86t192.5 247.5t66.5 384.5q0 283 -135 434.5 t-389 151.5q-172 0 -298 -86t-192.5 -248.5t-66.5 -386.5zM633 1661l10 123h125l-8 -123h-127zM962 1661l9 123h127l-11 -123h-125z" />
<glyph unicode="&#xd7;" d="M150 158l415 422l-391 424l64 57l387 -422l415 422l52 -57l-416 -420l391 -426l-61 -56l-388 420l-415 -420z" />
<glyph unicode="&#xd8;" horiz-adv-x="1538" d="M154 655q0 244 79.5 426.5t226 280.5t343.5 98q215 0 362 -100l105 156l65 -43l-108 -162q94 -88 143 -221.5t49 -303.5q0 -242 -79.5 -424t-227 -280t-344.5 -98q-211 0 -358 100l-105 -156l-65 43l108 162q-94 86 -144 219t-50 303zM246 653q-1 -296 149 -446l723 1081 q-123 86 -315 86q-172 0 -298 -86t-192.5 -248.5t-66.5 -386.5zM457 156q123 -86 313 -86q172 0 298 86t192.5 247.5t66.5 384.5q0 299 -149 449z" />
<glyph unicode="&#xd9;" horiz-adv-x="1464" d="M186 475q0 45 2 70l72 899h84l-70 -891q-2 -25 -2 -70q0 -416 422 -415q471 0 504 467l70 909h86l-70 -895q-23 -283 -171 -424t-417 -141q-252 0 -381 128t-129 363zM555 1872h114l185 -305h-74z" />
<glyph unicode="&#xda;" horiz-adv-x="1464" d="M186 475q0 45 2 70l72 899h84l-70 -891q-2 -25 -2 -70q0 -416 422 -415q471 0 504 467l70 909h86l-70 -895q-23 -283 -171 -424t-417 -141q-252 0 -381 128t-129 363zM780 1567l225 305h131l-282 -305h-74z" />
<glyph unicode="&#xdb;" horiz-adv-x="1464" d="M186 475q0 45 2 70l72 899h84l-70 -891q-2 -25 -2 -70q0 -416 422 -415q471 0 504 467l70 909h86l-70 -895q-23 -283 -171 -424t-417 -141q-252 0 -381 128t-129 363zM551 1567l253 305h74l205 -305h-102l-142 231l-182 -231h-106z" />
<glyph unicode="&#xdc;" horiz-adv-x="1464" d="M186 475q0 45 2 70l72 899h84l-70 -891q-2 -25 -2 -70q0 -416 422 -415q471 0 504 467l70 909h86l-70 -895q-23 -283 -171 -424t-417 -141q-252 0 -381 128t-129 363zM598 1661l10 123h125l-8 -123h-127zM927 1661l9 123h127l-11 -123h-125z" />
<glyph unicode="&#xdd;" horiz-adv-x="1189" d="M76 1444h96l442 -670l545 670h101l-607 -742l-55 -702h-86l55 700zM641 1567l225 305h131l-282 -305h-74z" />
<glyph unicode="&#xde;" horiz-adv-x="1294" d="M158 0l112 1444h84l-24 -332h446q207 0 318.5 -90t111.5 -266q0 -186 -122.5 -293t-354.5 -107h-459l-26 -356h-86zM276 438h453q197 0 292 80t95 238q0 143 -86 209.5t-254 66.5h-452z" />
<glyph unicode="&#xdf;" horiz-adv-x="1189" d="M135 0l80 1028q18 211 135 317.5t295 106.5q133 0 212 -61.5t79 -169.5q0 -92 -50 -156t-143 -137q-76 -61 -109.5 -100.5t-33.5 -90.5q0 -72 55.5 -110.5t167.5 -81.5q90 -35 144.5 -63.5t92.5 -79t38 -128.5q0 -127 -97.5 -207.5t-259.5 -80.5q-98 0 -194 35.5 t-164 99.5l47 72q82 -66 154.5 -94.5t160.5 -28.5q117 0 189 55t72 147q0 74 -57.5 114t-172.5 79q-90 33 -143 60.5t-91 75.5t-38 122q0 84 45 139.5t135 126.5q84 66 125 115t41 119q0 66 -55.5 105.5t-147.5 39.5q-319 0 -346 -356l-80 -1012h-86z" />
<glyph unicode="&#xe0;" horiz-adv-x="1067" d="M125 268q0 111 59.5 175.5t194.5 94t364 29.5h72l6 80q2 18 2 51q0 121 -56 177.5t-175 56.5q-174 0 -342 -109l-37 76q74 53 176.5 85t198.5 32q325 -1 325 -318q0 -31 -2 -47l-53 -651h-88l14 178q-49 -96 -133 -144t-188 -48q-150 0 -244 78.5t-94 203.5zM221 272 q0 -92 65.5 -146t180.5 -54q135 0 230.5 94t105.5 242l6 79h-59q-219 0 -333 -22.5t-155 -67.5t-41 -125zM346 1534h119l176 -410h-74z" />
<glyph unicode="&#xe1;" horiz-adv-x="1067" d="M125 268q0 111 59.5 175.5t194.5 94t364 29.5h72l6 80q2 18 2 51q0 121 -56 177.5t-175 56.5q-174 0 -342 -109l-37 76q74 53 176.5 85t198.5 32q325 -1 325 -318q0 -31 -2 -47l-53 -651h-88l14 178q-49 -96 -133 -144t-188 -48q-150 0 -244 78.5t-94 203.5zM221 272 q0 -92 65.5 -146t180.5 -54q135 0 230.5 94t105.5 242l6 79h-59q-219 0 -333 -22.5t-155 -67.5t-41 -125zM567 1124l236 410h133l-295 -410h-74z" />
<glyph unicode="&#xe2;" horiz-adv-x="1067" d="M125 268q0 111 59.5 175.5t194.5 94t364 29.5h72l6 80q2 18 2 51q0 121 -56 177.5t-175 56.5q-174 0 -342 -109l-37 76q74 53 176.5 85t198.5 32q325 -1 325 -318q0 -31 -2 -47l-53 -651h-88l14 178q-49 -96 -133 -144t-188 -48q-150 0 -244 78.5t-94 203.5zM221 272 q0 -92 65.5 -146t180.5 -54q135 0 230.5 94t105.5 242l6 79h-59q-219 0 -333 -22.5t-155 -67.5t-41 -125zM338 1124l260 410h78l194 -410h-102l-137 324l-189 -324h-104z" />
<glyph unicode="&#xe3;" horiz-adv-x="1067" d="M125 268q0 111 59.5 175.5t194.5 94t364 29.5h72l6 80q2 18 2 51q0 121 -56 177.5t-175 56.5q-174 0 -342 -109l-37 76q74 53 176.5 85t198.5 32q325 -1 325 -318q0 -31 -2 -47l-53 -651h-88l14 178q-49 -96 -133 -144t-188 -48q-150 0 -244 78.5t-94 203.5zM221 272 q0 -92 65.5 -146t180.5 -54q135 0 230.5 94t105.5 242l6 79h-59q-219 0 -333 -22.5t-155 -67.5t-41 -125zM297 1237q4 94 52 145.5t126 51.5q37 0 71.5 -14.5t63.5 -32t37 -21.5q41 -27 67.5 -40t51.5 -13q49 0 77.5 31.5t30.5 82.5h68q-2 -94 -50 -145t-128 -51 q-41 0 -77 17.5t-91 51.5q-47 29 -70.5 41.5t-48.5 12.5q-49 0 -78 -32t-33 -85h-69z" />
<glyph unicode="&#xe4;" horiz-adv-x="1067" d="M125 268q0 111 59.5 175.5t194.5 94t364 29.5h72l6 80q2 18 2 51q0 121 -56 177.5t-175 56.5q-174 0 -342 -109l-37 76q74 53 176.5 85t198.5 32q325 -1 325 -318q0 -31 -2 -47l-53 -651h-88l14 178q-49 -96 -133 -144t-188 -48q-150 0 -244 78.5t-94 203.5zM221 272 q0 -92 65.5 -146t180.5 -54q135 0 230.5 94t105.5 242l6 79h-59q-219 0 -333 -22.5t-155 -67.5t-41 -125zM389 1270l10 123h125l-8 -123h-127zM719 1270l8 123h127l-10 -123h-125z" />
<glyph unicode="&#xe5;" horiz-adv-x="1067" d="M125 268q0 111 59.5 175.5t194.5 94t364 29.5h72l6 80q2 18 2 51q0 121 -56 177.5t-175 56.5q-174 0 -342 -109l-37 76q74 53 176.5 85t198.5 32q325 -1 325 -318q0 -31 -2 -47l-53 -651h-88l14 178q-49 -96 -133 -144t-188 -48q-150 0 -244 78.5t-94 203.5zM221 272 q0 -92 65.5 -146t180.5 -54q135 0 230.5 94t105.5 242l6 79h-59q-219 0 -333 -22.5t-155 -67.5t-41 -125zM422 1329q0 82 58 138.5t140 56.5t139.5 -56.5t57.5 -138.5t-57.5 -138t-139.5 -56t-140 56t-58 138zM516 1329q0 -45 29.5 -76.5t74.5 -31.5t75 31.5t30 76.5 q0 47 -30 78t-75 31t-74.5 -31t-29.5 -78z" />
<glyph unicode="&#xe6;" horiz-adv-x="1765" d="M125 268q0 111 59.5 175.5t194.5 94t364 29.5h82l6 80q2 20 3 55q0 117 -57.5 173.5t-176.5 56.5q-92 0 -177 -25.5t-173 -83.5l-37 76q74 53 177.5 85t201.5 32q268 0 319 -203q59 96 154.5 149.5t220.5 53.5q180 0 283.5 -108.5t103.5 -321.5q0 -45 -6 -99h-758l-2 -10 v-22q0 -178 91.5 -281.5t263.5 -103.5q80 0 165.5 30.5t159.5 94.5l35 -74q-57 -61 -160.5 -98t-197.5 -37q-162 0 -266.5 76.5t-145.5 218.5q-45 -137 -150.5 -216t-244.5 -79q-145 0 -238.5 78.5t-93.5 203.5zM221 272q0 -90 64.5 -145t175.5 -55q141 0 240.5 99 t111.5 257l4 59h-67q-219 0 -333 -22.5t-155 -67.5t-41 -125zM915 567h672q8 180 -72.5 274.5t-220.5 94.5q-153 0 -250.5 -90t-125.5 -254z" />
<glyph unicode="&#xe7;" horiz-adv-x="962" d="M106 463q0 164 58.5 290t167 194.5t254.5 68.5q102 0 192 -36t154 -97l-45 -74q-82 66 -153.5 95.5t-155.5 29.5q-181 0 -280 -127t-99 -350q0 -182 89 -284.5t257 -102.5q80 0 147.5 28.5t145.5 94.5l34 -72q-59 -61 -146 -97t-185 -38l-15 -76q29 6 54 6 q66 0 105.5 -36t39.5 -101q0 -76 -58.5 -122t-164.5 -46q-41 0 -88 9t-84 30l28 69q74 -29 150 -28q63 0 97 21.5t34 62.5q0 31 -19.5 47t-56.5 16q-45 0 -98 -22l-37 28l27 148q-160 27 -254.5 152.5t-94.5 318.5z" />
<glyph unicode="&#xe8;" horiz-adv-x="1073" d="M106 463q0 164 58.5 290t167 194.5t256.5 68.5q184 0 288.5 -109.5t104.5 -324.5q0 -61 -4 -95h-776v-32q0 -178 90 -281.5t260 -103.5q199 0 344 125l37 -74q-59 -61 -166 -98t-213 -37q-207 0 -327 129t-120 348zM209 567h688q8 180 -74 274.5t-229 94.5 q-164 0 -263.5 -97.5t-121.5 -271.5zM356 1534h119l176 -410h-74z" />
<glyph unicode="&#xe9;" horiz-adv-x="1073" d="M106 463q0 164 58.5 290t167 194.5t256.5 68.5q184 0 288.5 -109.5t104.5 -324.5q0 -61 -4 -95h-776v-32q0 -178 90 -281.5t260 -103.5q199 0 344 125l37 -74q-59 -61 -166 -98t-213 -37q-207 0 -327 129t-120 348zM209 567h688q8 180 -74 274.5t-229 94.5 q-164 0 -263.5 -97.5t-121.5 -271.5zM577 1124l236 410h133l-295 -410h-74z" />
<glyph unicode="&#xea;" horiz-adv-x="1073" d="M106 463q0 164 58.5 290t167 194.5t256.5 68.5q184 0 288.5 -109.5t104.5 -324.5q0 -61 -4 -95h-776v-32q0 -178 90 -281.5t260 -103.5q199 0 344 125l37 -74q-59 -61 -166 -98t-213 -37q-207 0 -327 129t-120 348zM209 567h688q8 180 -74 274.5t-229 94.5 q-164 0 -263.5 -97.5t-121.5 -271.5zM348 1124l260 410h78l194 -410h-102l-137 324l-189 -324h-104z" />
<glyph unicode="&#xeb;" horiz-adv-x="1073" d="M106 463q0 164 58.5 290t167 194.5t256.5 68.5q184 0 288.5 -109.5t104.5 -324.5q0 -61 -4 -95h-776v-32q0 -178 90 -281.5t260 -103.5q199 0 344 125l37 -74q-59 -61 -166 -98t-213 -37q-207 0 -327 129t-120 348zM209 567h688q8 180 -74 274.5t-229 94.5 q-164 0 -263.5 -97.5t-121.5 -271.5zM399 1270l10 123h125l-8 -123h-127zM729 1270l8 123h127l-10 -123h-125z" />
<glyph unicode="&#xec;" horiz-adv-x="434" d="M8 1534h119l176 -410h-74zM135 0l78 991h86l-78 -991h-86z" />
<glyph unicode="&#xed;" horiz-adv-x="434" d="M135 0l78 991h86l-78 -991h-86zM229 1124l236 410h133l-295 -410h-74z" />
<glyph unicode="&#xee;" horiz-adv-x="434" d="M0 1124l260 410h78l194 -410h-102l-137 324l-189 -324h-104zM135 0l78 991h86l-78 -991h-86z" />
<glyph unicode="&#xef;" horiz-adv-x="434" d="M51 1270l10 123h125l-8 -123h-127zM135 0l78 991h86l-78 -991h-86zM381 1270l8 123h127l-10 -123h-125z" />
<glyph unicode="&#xf0;" horiz-adv-x="1103" d="M102 424q0 150 57.5 265.5t162 179t241.5 63.5q135 0 231.5 -59.5t133.5 -155.5q-10 281 -183 463l-325 -131l-25 73l287 117q-115 94 -281 147l31 68q199 -63 330 -182l272 110l25 -75l-236 -95q184 -213 185 -553q0 -340 -128 -506.5t-350 -166.5q-195 0 -311.5 118.5 t-116.5 319.5zM195 418q0 -170 88 -259t254 -89q168 0 265 114.5t97 321.5q0 162 -91 252t-251 90q-168 0 -265 -113.5t-97 -316.5z" />
<glyph unicode="&#xf1;" horiz-adv-x="1132" d="M135 0l78 991h84l-14 -172q51 94 141 145.5t207 51.5q168 0 256 -83t88 -245q0 -35 -2 -53l-49 -635h-86l49 627q2 18 2 53q0 254 -254 254q-162 0 -259 -95.5t-110 -260.5l-45 -578h-86zM309 1237q4 94 52 145.5t126 51.5q37 0 71.5 -14.5t63.5 -32t37 -21.5 q41 -27 67.5 -40t51.5 -13q49 0 77.5 31.5t30.5 82.5h68q-2 -94 -50 -145t-128 -51q-41 0 -77 17.5t-91 51.5q-47 29 -70.5 41.5t-48.5 12.5q-49 0 -78 -32t-33 -85h-69z" />
<glyph unicode="&#xf2;" horiz-adv-x="1097" d="M106 463q0 164 57.5 289t161 194.5t240.5 69.5q195 0 311.5 -130t116.5 -349q0 -164 -57 -289t-161.5 -193.5t-239.5 -68.5q-129 0 -225.5 59t-150 166.5t-53.5 251.5zM199 457q0 -186 89 -286.5t253 -100.5q166 0 263 126t97 347q0 184 -90 286.5t-250 102.5 q-168 0 -265 -126t-97 -349zM340 1534h119l176 -410h-74z" />
<glyph unicode="&#xf3;" horiz-adv-x="1097" d="M106 463q0 164 57.5 289t161 194.5t240.5 69.5q195 0 311.5 -130t116.5 -349q0 -164 -57 -289t-161.5 -193.5t-239.5 -68.5q-129 0 -225.5 59t-150 166.5t-53.5 251.5zM199 457q0 -186 89 -286.5t253 -100.5q166 0 263 126t97 347q0 184 -90 286.5t-250 102.5 q-168 0 -265 -126t-97 -349zM561 1124l236 410h133l-295 -410h-74z" />
<glyph unicode="&#xf4;" horiz-adv-x="1097" d="M106 463q0 164 57.5 289t161 194.5t240.5 69.5q195 0 311.5 -130t116.5 -349q0 -164 -57 -289t-161.5 -193.5t-239.5 -68.5q-129 0 -225.5 59t-150 166.5t-53.5 251.5zM199 457q0 -186 89 -286.5t253 -100.5q166 0 263 126t97 347q0 184 -90 286.5t-250 102.5 q-168 0 -265 -126t-97 -349zM332 1124l260 410h78l194 -410h-102l-137 324l-189 -324h-104z" />
<glyph unicode="&#xf5;" horiz-adv-x="1097" d="M106 463q0 164 57.5 289t161 194.5t240.5 69.5q195 0 311.5 -130t116.5 -349q0 -164 -57 -289t-161.5 -193.5t-239.5 -68.5q-129 0 -225.5 59t-150 166.5t-53.5 251.5zM199 457q0 -186 89 -286.5t253 -100.5q166 0 263 126t97 347q0 184 -90 286.5t-250 102.5 q-168 0 -265 -126t-97 -349zM291 1237q4 94 52 145.5t126 51.5q37 0 71.5 -14.5t63.5 -32t37 -21.5q41 -27 67.5 -40t51.5 -13q49 0 77.5 31.5t30.5 82.5h68q-2 -94 -50 -145t-128 -51q-41 0 -77 17.5t-91 51.5q-47 29 -70.5 41.5t-48.5 12.5q-49 0 -78 -32t-33 -85h-69z " />
<glyph unicode="&#xf6;" horiz-adv-x="1097" d="M106 463q0 164 57.5 289t161 194.5t240.5 69.5q195 0 311.5 -130t116.5 -349q0 -164 -57 -289t-161.5 -193.5t-239.5 -68.5q-129 0 -225.5 59t-150 166.5t-53.5 251.5zM199 457q0 -186 89 -286.5t253 -100.5q166 0 263 126t97 347q0 184 -90 286.5t-250 102.5 q-168 0 -265 -126t-97 -349zM383 1270l10 123h125l-8 -123h-127zM713 1270l8 123h127l-10 -123h-125z" />
<glyph unicode="&#xf7;" d="M117 539l8 82h999l-8 -82h-999zM487 84l15 168h164l-15 -168h-164zM553 911l14 168h164l-14 -168h-164z" />
<glyph unicode="&#xf8;" horiz-adv-x="1097" d="M106 463q0 164 57.5 289t161 194.5t240.5 69.5q135 0 234 -64l82 123l69 -41l-88 -133q64 -63 97.5 -156.5t33.5 -207.5q0 -164 -57 -289t-161.5 -193.5t-239.5 -68.5q-131 0 -234 63l-80 -123l-71 43l88 131q-63 63 -97.5 155.5t-34.5 207.5zM201 457q0 -183 84 -283 l467 707q-80 51 -191 51q-168 0 -264 -126t-96 -349zM348 119q78 -49 193 -49q166 0 262 126t96 347q0 180 -86 282z" />
<glyph unicode="&#xf9;" horiz-adv-x="1116" d="M158 315q0 35 2 54l49 622h86l-49 -616q-2 -16 -2 -49q0 -256 248 -256q156 0 251 94t107 262l45 565h86l-78 -991h-84l15 184q-49 -96 -138.5 -147t-199.5 -51q-164 0 -251 83t-87 246zM350 1534h119l176 -410h-74z" />
<glyph unicode="&#xfa;" horiz-adv-x="1116" d="M158 315q0 35 2 54l49 622h86l-49 -616q-2 -16 -2 -49q0 -256 248 -256q156 0 251 94t107 262l45 565h86l-78 -991h-84l15 184q-49 -96 -138.5 -147t-199.5 -51q-164 0 -251 83t-87 246zM571 1124l236 410h133l-295 -410h-74z" />
<glyph unicode="&#xfb;" horiz-adv-x="1116" d="M158 315q0 35 2 54l49 622h86l-49 -616q-2 -16 -2 -49q0 -256 248 -256q156 0 251 94t107 262l45 565h86l-78 -991h-84l15 184q-49 -96 -138.5 -147t-199.5 -51q-164 0 -251 83t-87 246zM342 1124l260 410h78l194 -410h-102l-137 324l-189 -324h-104z" />
<glyph unicode="&#xfc;" horiz-adv-x="1116" d="M158 315q0 35 2 54l49 622h86l-49 -616q-2 -16 -2 -49q0 -256 248 -256q156 0 251 94t107 262l45 565h86l-78 -991h-84l15 184q-49 -96 -138.5 -147t-199.5 -51q-164 0 -251 83t-87 246zM393 1270l10 123h125l-8 -123h-127zM723 1270l8 123h127l-10 -123h-125z" />
<glyph unicode="&#xfd;" horiz-adv-x="1032" d="M84 991h90l307 -915l451 915h94l-688 -1360h-88l180 359zM528 1124l236 410h133l-295 -410h-74z" />
<glyph unicode="&#xfe;" horiz-adv-x="1157" d="M106 -369l144 1813h86l-49 -617q49 88 141 138.5t201 50.5q125 0 221 -59.5t149.5 -168t53.5 -253.5q0 -164 -58.5 -289t-164 -192.5t-240.5 -67.5q-125 0 -217 56t-135 159l-45 -570h-87zM258 455q0 -186 88 -285.5t254 -99.5q168 0 263 126t95 349q0 184 -89 285.5 t-248 101.5q-170 0 -266.5 -127t-96.5 -350z" />
<glyph unicode="&#xff;" horiz-adv-x="1032" d="M84 991h90l307 -915l451 915h94l-688 -1360h-88l180 359zM350 1270l10 123h125l-8 -123h-127zM680 1270l8 123h127l-10 -123h-125z" />
<glyph unicode="&#x152;" horiz-adv-x="2142" d="M154 657q0 369 184 578t524 209h1239l-4 -80h-786l-47 -592h745l-8 -80h-744l-47 -612h785l-6 -80h-1172q-324 0 -493.5 170t-169.5 487zM246 655q0 -575 567 -575h313l103 1284h-369q-301 0 -457.5 -184.5t-156.5 -524.5z" />
<glyph unicode="&#x153;" horiz-adv-x="1857" d="M106 463q0 164 57.5 289t162 194.5t241.5 69.5q147 0 246.5 -75t138.5 -222q51 141 160 219t266 78q180 0 283.5 -109.5t103.5 -324.5q0 -61 -4 -95h-770v-32q0 -180 92.5 -282.5t268.5 -102.5q82 0 168 30.5t159 94.5l35 -74q-57 -61 -161.5 -98t-198.5 -37 q-162 0 -267.5 74.5t-148.5 209.5q-51 -131 -155.5 -207.5t-245.5 -76.5q-129 0 -226.5 59t-151 166.5t-53.5 251.5zM199 457q0 -186 89 -286.5t253 -100.5q166 0 263 126t97 347q0 184 -90 286.5t-250 102.5q-168 0 -265 -126t-97 -349zM999 567h680q8 180 -71.5 274.5 t-223.5 94.5q-163 0 -262.5 -97.5t-122.5 -271.5z" />
<glyph unicode="&#x178;" horiz-adv-x="1189" d="M76 1444h96l442 -670l545 670h101l-607 -742l-55 -702h-86l55 700zM459 1661l10 123h125l-8 -123h-127zM788 1661l9 123h127l-11 -123h-125z" />
<glyph unicode="&#x2c6;" horiz-adv-x="614" d="M90 1124l260 410h78l194 -410h-102l-137 324l-189 -324h-104z" />
<glyph unicode="&#x2dc;" horiz-adv-x="614" d="M49 1237q4 94 52 145.5t126 51.5q37 0 71.5 -14.5t63.5 -32t37 -21.5q41 -27 67.5 -40t51.5 -13q49 0 77.5 31.5t30.5 82.5h68q-2 -94 -50 -145t-128 -51q-41 0 -77 17.5t-91 51.5q-47 29 -70.5 41.5t-48.5 12.5q-49 0 -78 -32t-33 -85h-69z" />
<glyph unicode="&#x2000;" horiz-adv-x="936" />
<glyph unicode="&#x2001;" horiz-adv-x="1872" />
<glyph unicode="&#x2002;" horiz-adv-x="936" />
<glyph unicode="&#x2003;" horiz-adv-x="1872" />
<glyph unicode="&#x2004;" horiz-adv-x="624" />
<glyph unicode="&#x2005;" horiz-adv-x="468" />
<glyph unicode="&#x2006;" horiz-adv-x="312" />
<glyph unicode="&#x2007;" horiz-adv-x="312" />
<glyph unicode="&#x2008;" horiz-adv-x="234" />
<glyph unicode="&#x2009;" horiz-adv-x="374" />
<glyph unicode="&#x200a;" horiz-adv-x="104" />
<glyph unicode="&#x2010;" horiz-adv-x="851" d="M158 504l6 78h541l-7 -78h-540z" />
<glyph unicode="&#x2011;" horiz-adv-x="851" d="M158 504l6 78h541l-7 -78h-540z" />
<glyph unicode="&#x2012;" horiz-adv-x="851" d="M158 504l6 78h541l-7 -78h-540z" />
<glyph unicode="&#x2013;" horiz-adv-x="1024" d="M0 510l6 68h1024l-6 -68h-1024z" />
<glyph unicode="&#x2014;" horiz-adv-x="2048" d="M0 510l6 68h2048l-6 -68h-2048z" />
<glyph unicode="&#x2018;" horiz-adv-x="434" d="M195 1110l8 111q6 72 30.5 128t77.5 105l51 -41q-43 -43 -59 -80t-20 -80h65l-14 -143h-139z" />
<glyph unicode="&#x2019;" horiz-adv-x="434" d="M195 1141q43 43 59 79.5t20 79.5h-65l10 144h141l-6 -113q-6 -70 -31.5 -127t-78.5 -104z" />
<glyph unicode="&#x201a;" horiz-adv-x="434" d="M92 -160q41 43 58.5 81t21.5 79h-66l13 143h139l-8 -118q-6 -70 -29.5 -123.5t-77.5 -102.5z" />
<glyph unicode="&#x201c;" horiz-adv-x="727" d="M195 1110l8 111q6 72 30.5 128t77.5 105l51 -41q-43 -43 -59 -80t-20 -80h65l-14 -143h-139zM488 1110l8 111q6 72 30.5 128t77.5 105l51 -41q-43 -43 -59 -80t-20 -80h65l-14 -143h-139z" />
<glyph unicode="&#x201d;" horiz-adv-x="727" d="M195 1141q43 43 59 79.5t20 79.5h-65l10 144h141l-6 -113q-6 -70 -31.5 -127t-78.5 -104zM488 1141q43 43 59 79.5t20 79.5h-65l10 144h141l-6 -113q-6 -70 -31.5 -127t-78.5 -104z" />
<glyph unicode="&#x201e;" horiz-adv-x="727" d="M92 -160q41 43 58.5 81t21.5 79h-66l13 143h139l-8 -118q-6 -70 -29.5 -123.5t-77.5 -102.5zM385 -160q41 43 58.5 81t21.5 79h-66l13 143h139l-8 -118q-6 -70 -29.5 -123.5t-77.5 -102.5z" />
<glyph unicode="&#x2022;" horiz-adv-x="1073" d="M168 543q0 94 48 178t133 135t190 51q98 0 183 -48t136 -131t51 -185q0 -98 -50 -181t-135 -132.5t-185 -49.5q-99 0 -185 48t-136 131t-50 184z" />
<glyph unicode="&#x2026;" horiz-adv-x="1300" d="M106 0l13 143h139l-10 -143h-142zM541 0l10 143h141l-10 -143h-141zM975 0l10 143h141l-10 -143h-141z" />
<glyph unicode="&#x202f;" horiz-adv-x="374" />
<glyph unicode="&#x2039;" horiz-adv-x="483" d="M125 520l4 45l211 326l72 -27l-195 -321l139 -326l-71 -22z" />
<glyph unicode="&#x203a;" horiz-adv-x="483" d="M76 219l196 324l-141 323l72 25l164 -326l-5 -45l-215 -325z" />
<glyph unicode="&#x205f;" horiz-adv-x="468" />
<glyph unicode="&#x20ac;" d="M33 528l6 82h227v15q0 113 13 211h-222l6 82h228q49 260 186 401t342 141q139 0 247 -47t194 -147l-50 -72q-68 88 -169 136t-222 48q-170 0 -281.5 -118.5t-156.5 -341.5h389l-6 -82h-395q-14 -94 -15 -222v-4h391l-6 -82h-383q16 -229 117.5 -345.5t284.5 -116.5 q92 0 196.5 50t182.5 134l37 -72q-76 -84 -193 -139t-217 -55q-219 0 -346 141t-148 403h-237z" />
<glyph unicode="&#x2122;" horiz-adv-x="1841" d="M76 1368l8 76h700l-8 -76h-305l-63 -786h-86l61 786h-307zM854 582l68 862h67l289 -643l385 643h72l-68 -862h-80l55 690l-337 -561h-64l-250 549l-55 -678h-82z" />
<glyph unicode="&#x25fc;" horiz-adv-x="993" d="M0 0v993h993v-993h-993z" />
</font>
</defs>
</svg>
