<svg xmlns="http://www.w3.org/2000/svg" viewBox="0 0 357 29.419"><path d="M139.823 11.956c.516 0 .516-.14.171-.14-.171-.14-.69-.14-.69 0-.171.14 0 .14.519.14m57.525-9.2c0-.14.516-.14.69 0 .343 0 .343.14-.174.14s-.687 0-.516-.14m61.832.838c.516 0 .69-.14.345-.14a.917.917 0 00-.861 0c-.171 0 .171.14.516.14m18.257 12.407c.516 0 .516-.14.345-.14a.932.932 0 00-.861 0c-.174.14.171.14.516.14m-192.559-9.9a.917.917 0 01.861 0c.345.14.171.14-.345.14-.345 0-.516 0-.516-.14m201.344 3.484c.342 0 .516 0 .171-.14a.932.932 0 00-.861 0c0 .14.171.14.69.14m-123.148 1.673c.343 0 .516 0 .171-.14a.932.932 0 00-.861 0c0 .14.171.14.69.14m191.007 17.15c.516 0 .69-.14.345-.14a.917.917 0 00-.861 0c-.171.14.171.14.516.14m-86.633-12.409c.516 0 .688-.14.343-.14a.928.928 0 00-.859 0c-.174.14.171.14.516.14m12.057-10.038c-.174-.14 0-.278.171-.278a.341.341 0 01.345.278c0 .14 0 .28-.174.28zm-91.114-4.463c.69 0 .861 0 .516-.138a.935.935 0 00-.861 0c-.343.138-.171.138.345.138m24.284 6a1.229 1.229 0 01.69-.14c.345.14.345.28-.174.28s-.688-.14-.516-.14m-148.981-.14a1.225 1.225 0 00-.69.14c-.171 0 0 .14.516.14s.516-.14.174-.28m63.9-3.067c0-.14 0-.278.174-.278l.343.278c.174.14.174.28-.171.28a.343.343 0 01-.345-.28m100.07-2.789c.516 0 .688 0 .345-.138a.917.917 0 00-.861 0c-.174.138.171.278.516.138M67.138 7.077a.918.918 0 00-.861 0c-.171.14.174.278.516.14.519 0 .69 0 .345-.14m36-1.814a.341.341 0 01.343-.278c.174 0 .345 0 .345.14 0 0-.171.278-.345.278-.171.14-.343.14-.343-.14m135.547 2.789h.861c.345.14.174.28-.171.28-.516 0-.69-.14-.69-.28M125.354 4.427a1.327 1.327 0 011.035 0c.343 0 0 .14-.519.14s-.859-.14-.516-.14m98 3.067a1.539 1.539 0 01.861-.14c.345.14.174.28-.171.28a1.177 1.177 0 01-.69-.14m86.119 13.525c.688 0 .859-.14.516-.14a1.308 1.308 0 00-1.035 0c-.171 0 0 .14.519.14M193.731 2.754a1.3 1.3 0 011.033 0c.345 0 .174.14-.516.14-.516 0-.688-.14-.516-.14m84.4 5.856c.516 0 .687-.14.342-.14a1.326 1.326 0 00-1.033 0c-.171 0 0 .14.69.14m-58.047-6.833a1.534 1.534 0 01.861-.14c.345.14.171.28-.345.28-.345 0-.69-.14-.516-.14m56.838 11.294h-.861c-.171.138.171.278.516.278.516 0 .69-.14.345-.278M175.474 4.984c.516-.14.516-.14.174-.28-.174-.138-.519 0-.69 0-.171.14 0 .28.516.28m-2.065 2.789a1.3 1.3 0 011.033 0c.345.137.171.137-.516.137-.516 0-.69 0-.516-.137m19.29-6.276c.516 0 .688 0 .516-.138a1.3 1.3 0 00-1.033 0c-.345.138-.174.138.516.138M70.584 7.077a1.3 1.3 0 011.033 0c.345.14.174.14-.516.14-.516 0-.688 0-.516-.14m122.632.278h1.549c.516.14.174.14-.688.14s-1.378 0-.861-.14m-72.34.558c.516 0 .861 0 .516-.137a1.321 1.321 0 00-1.033 0c-.345.137 0 .137.516.137m175.855 5.854a1.785 1.785 0 01.861 0c.345.14.171.14-.171.28-.519 0-.69-.14-.69-.28M94.7 5.402a1.3 1.3 0 011.033 0c.345.14 0 .14-.516.14s-.861 0-.516-.14m185.838 6.275c0-.138 0-.278.171-.278a.953.953 0 01.516.278c0 .14 0 .28-.343.28a.341.341 0 01-.345-.28m-62.349-6.691c.516-.14.516-.14.171-.28-.171-.138-.69-.138-.69 0-.171.14 0 .28.519.28m-5.856 0c.516-.14.516-.14.342-.28a.934.934 0 00-.861 0c-.171.14.174.28.519.28m45.642 1.533c.859 0 1.2 0 .688-.14h-1.723c-.345.14 0 .14 1.035.14m-8.269-.7c.861 0 1.207 0 .69-.137h-1.723c-.345.137 0 .137 1.033.137M113.124 4.703a1.785 1.785 0 01.861 0c.345.14.171.14-.345.28-.345 0-.687-.14-.516-.28m144.677 0a1.786 1.786 0 01.861 0c.345.14.171.14-.345.28-.343 0-.687-.14-.516-.28m17.051 3.487c1.035 0 1.378 0 .861-.14h-1.723c-.342.14 0 .14.861.14m-96.106-3.207c.516-.14.688-.14.342-.28a1.787 1.787 0 00-.861 0c-.171.14.174.28.519.28m154.837 20.774a.338.338 0 01-.343.278c-.345 0-.519 0-.519-.138a2.228 2.228 0 01.519-.28c.171-.14.343-.14.343.14M243.848 8.33c-.171-.14 0-.42.171-.42s.345.28.345.42c.171.137 0 .278-.171.278zm67.517 13.1c.516-.14.688-.14.345-.28a.932.932 0 00-.861 0c0 .14.171.28.516.28m-112.3-14.083h1.032c.345.14.174.28-.516.28-.516 0-.687-.14-.516-.28m-138.65 6a.954.954 0 00.516-.278c.174-.28 0-.28-.343-.14-.69.14-.861.418-.174.418m223.389-4.042c.516 0 .861-.14.516-.28h-1.033c-.345.14 0 .28.516.28m-176.711.418h1.04c.345.14 0 .278-.516.278s-.861-.137-.516-.278m153.976-2.789c.69 0 1.035-.14.69-.14a2.352 2.352 0 00-1.378 0c-.516 0-.171.14.687.14m-193.42 4.043c.69 0 .862-.14.519-.28a2.666 2.666 0 00-1.206.14c-.345 0 0 .14.687.14m49.088 1.671c.861 0 1.206-.137.69-.137a2.31 2.31 0 00-1.378 0c-.345 0-.174.137.688.137m163.8-3.762c.861 0 1.033 0 .688-.14a2.311 2.311 0 00-1.378 0c-.516.14-.171.14.69.14m-143.473 3.067c.861 0 1.207-.14.69-.14a2.312 2.312 0 00-1.378 0c-.516 0-.171.14.687.14m162.935 4.46a1.436 1.436 0 00-.687.28c0 .14 0 .278.171.278a.978.978 0 00.69-.278c.171-.14.171-.28-.174-.28M253.841 6.241c.861 0 1.206-.14.69-.14a3.585 3.585 0 00-1.723 0c-.345 0 0 .14 1.033.14m-74.234-4.743c.861 0 1.206 0 .69-.138a3.584 3.584 0 00-1.723 0c-.345.138 0 .138 1.033.138m1.9 3.347c.688 0 1.032 0 .688-.14a2.94 2.94 0 00-1.549 0c-.345.14 0 .14.861.14m-11.54 2.929a2.887 2.887 0 011.549 0c.519 0 .174.137-.687.137s-1.378-.137-.861-.137m74.06-2.231c1.035 0 1.378-.14.861-.14a3.562 3.562 0 00-1.723 0c-.516 0-.171.14.861.14M133.797 8.75c.516.14.174.14-.688.14s-1.378 0-.861-.14a2.888 2.888 0 011.549 0m72.682-3.9c1.035 0 1.206 0 .69-.14a2.94 2.94 0 00-1.549 0c-.519.14 0 .14.859.14m104.032 8.785c1.206.418 1.206.418.861 0a1.489 1.489 0 00-.861-.28c-.69 0-.69.14 0 .28m-148.984-8.5c1.552 0 2.068 0 1.378-.14h-2.755c-.69.14-.171.14 1.378.14M61.287 7.504c-.861 0-1.033.838-.171.838.516 0 .516-.14.171-.28-.516-.278-.516-.418 0-.558m237.856 6.831c0-.138.174-.278.519-.278a.341.341 0 01.342.278c0 .14-.171.42-.342.42a.5.5 0 01-.519-.42m-33.586-7.109c1.035 0 1.552-.14 1.035-.14a4.32 4.32 0 00-1.894 0c-.519 0-.174.14.859.14m-48.4-5.578h1.723c.516.14.174.14-.688.28-1.035 0-1.378-.14-1.035-.28M91.944 5.83l.688-.278c.516-.14.861 0 .861.14s-.345.278-.861.278c-.345 0-.688 0-.688-.14m222.354 16.314c1.207.278 1.207.278.861 0a1.117 1.117 0 00-1.033-.42c-.516 0-.516.14.171.42m-57.87-11.016a1.011 1.011 0 00-.345.558.343.343 0 00.345.28c.345 0 .516-.14.516-.418s-.171-.558-.516-.42M73.17 6.668c.345 0 .516.138.516.278 0 .28-.345.418-.69.418s-.516-.138-.343-.418a.936.936 0 01.516-.278m249.051 9.34a7.678 7.678 0 001.549.28c.69 0 .69 0-.171-.28-1.378-.278-2.41-.278-1.378 0M236.791 5.272c1.206 0 1.723-.138 1.206-.278h-2.066c-.688.14-.343.14.861.278m7.924-2.649c0-.138.516-.138 1.033-.138 1.035.278 1.035.418-.345.418-.516 0-.861-.14-.688-.28m16.535 6.971c-.345-.418.171-.418 1.033 0 .516.418.516.418 0 .418a1.116 1.116 0 01-1.033-.418M88.499 5.969c0-.14.516-.278 1.033-.278.69 0 .69 0 .345.278-.861.418-1.378.418-1.378 0m65.794-2.649c1.033-.418 1.378-.418 1.378 0 0 .14-.516.28-1.033.28-1.035 0-1.035 0-.345-.28m-65.623 6c.345 0 .861.138.861.278.174.28 0 .418-.516.418s-.861-.137-.861-.418c0-.14.345-.278.516-.278m225.628 5.158c.345.28 2.239.418 2.239.14 0-.14-.516-.28-1.2-.28-.69-.138-1.035 0-1.035.14M111.231 9.445a17.415 17.415 0 013.788 0c1.035 0 .174.14-1.723.14-2.065 0-2.927-.14-2.065-.14m92.146-2.369c0-.28.171-.418.516-.418.687.278.861.976.171.976a.682.682 0 01-.687-.558m27.04.835c-.861 0-1.206-.137-.69-.137l1.035-.42a.478.478 0 01.688.14c.516.418.345.418-1.033.418m-104.2 4.323c2.239 0 3.1-.138 2.068-.138a18.737 18.737 0 00-3.962 0c-1.033 0-.171.138 1.894.138m99.554-4.6c0-.418.859-.418 1.72 0 .519.278.345.278-.516.278-.688 0-1.2-.137-1.2-.278m-48.743.278c-.516 0-.861-.137-.861-.278a3.152 3.152 0 011.378-.28c.516 0 .861.14.688.28 0 .14-.688.278-1.2.278M98.496 5.544c0-.28 2.584-.418 2.755-.14.174.14-.516.28-1.2.28a8.678 8.678 0 01-1.552-.14m-18.6 1.116c-.861-.28-.69-.28.861-.28 1.2 0 1.549 0 1.2.28-.688.278-.688.278-2.065 0m188.942.976c2.065.418 2.927.418 1.894 0a7.771 7.771 0 00-2.068-.28c-1.2 0-1.2 0 .174.28m-204.96.278c-.516.28 0 .28 1.206.14s2.239-.278 2.239-.278c.342-.28-2.584-.14-3.446.137m161.9-3.067c2.927 0 3.959-.14 2.582-.14a32.391 32.391 0 00-5.166 0c-1.378 0-.174.14 2.584.14m64.071 5.3c2.927.558 4.133.558 2.755.14l-3.1-.418-2.068-.14zm46.159 16.452c0 .14-.174.14-1.207 0-.687-.14-1.206-1.116-.516-1.116.516 0 1.723.838 1.723 1.116m-235.1-15.894c1.378-.14 1.723-.14 1.2-.418a6.472 6.472 0 00-1.549-.14 3.1 3.1 0 01-1.032.14c-.345 0-.519.14-.519.278s.861.28 1.9.14m34.273-2.091a3.474 3.474 0 011.552-.278c.688 0 1.2.137 1.2.278 0 .28-.688.418-1.549.418s-1.378-.138-1.207-.418m58.56-3.765c5.685 0 7.924-.14 4.995-.14h-10.338c-2.755 0-.345.14 5.339.14M146.54 8.335c-.345-.28 0-.28 1.2-.42 1.035 0 1.723.14 1.552.42-.345.418-1.894.418-2.755 0m147.6 2.369a8.029 8.029 0 002.413.558c2.581.418 2.755.418 2.581.28a14.381 14.381 0 00-2.927-.7c-1.378-.28-2.239-.28-2.068-.14M142.57 8.611c-1.378 0-2.413-.14-2.584-.14a28.88 28.88 0 015.856-.137 10.861 10.861 0 01-3.272.278m44.436-.7a5.275 5.275 0 01-2.068-.278c-.171-.14.69-.28 2.068-.28s2.239.14 2.068.28a5.275 5.275 0 01-2.068.278m-58.906 1.4c-1.894 0-2.581-.14-2.065-.28 1.206-.418 5.339-.418 4.994 0a10.354 10.354 0 01-2.929.28m180.5 4.042c.688 0 1.033-.14.861-.14-.174-.138-8.269-1.533-8.785-1.533-.69.14 6.888 1.533 7.924 1.673m29.293 13.523c1.549.278 6.888 2.091 6.888 2.369s.174.28-2.755-.7a20.23 20.23 0 00-3.617-.978l-1.723-.418c-.171-.278.174-.278 1.207-.278m-1.549.7c.687.558-.519.28-4.136-.7-4.65-1.4-4.65-1.4-4.3-1.673a72.142 72.142 0 018.44 2.369m-184.642-16.17a85.387 85.387 0 009.646-.418c.861-.28-9.13-.14-14.641.278-2.41.28-.69.28 4.994.14M70.931 7.777c1.549-.14 3.1-.28 3.443-.28.345-.14.519-.278.345-.558-.171-.14.516-.278 1.206-.418.861-.14-.174-.14-2.584 0-2.239 0-4.133.14-4.3.14a1.213 1.213 0 00-.69.558c-.345.558-.171.558 2.584.558m254.391 6.273c0-.14-.345-.28-.69-.14-.688.28-5.511-1.673-5.511-2.231 0-.278.345-.278 1.378-.138.69.138 1.552.278 1.723.558a.932.932 0 00.861 0c.171-.14.171 0 0 .138-.345.418-.171.558.516.28 1.207-.14 2.584.835 2.068 1.533-.174.278-.345.278-.345 0M90.045 10.977c.174.278.69.278 1.38.138a21.742 21.742 0 013.788-.278c2.929-.14 3.962-.558 1.207-.558-.861 0-1.723-.14-1.723-.28 0-.278.345-.278.688-.278 1.035.418 8.614-.14 8.095-.418a4.9 4.9 0 00-1.549-.28 1.117 1.117 0 01-1.033-.418 11.792 11.792 0 00-3.445 0c-3.446.28-4.823.7-4.478 1.673q.257.416-1.549.418c-1.035 0-1.551.14-1.38.28m-20.323.138c.171.42.69.558 2.755.42l4.133-.557c2.584-.42 5.339-.7 5.339-.42 0 .42 1.9.14 3.274-.278a1.3 1.3 0 011.2-.14c.174.28 1.378.28 2.929.14 1.723 0 2.584-.28 2.239-.418s-.516-.42-.345-.558-.345-.28-.861-.28c-3.1 0-20.839 1.256-20.839 1.533a1.175 1.175 0 00.171.558m-31.863 3.487q1.292.837 2.065 0a1.138 1.138 0 011.035-.14c.345.14.861 0 .861-.278a14.086 14.086 0 013.272-.42c3.445 0 6.717-.418 6.372-.7-.345-.42.861-.7 2.413-.7 1.033 0 1.2 0 .688.278s-.171.28.861.14c.69 0 3.272-.278 5.511-.418 2.584-.278 4.478-.558 4.823-.976 1.033-.7-7.4-.28-16.535.976-10.16 1.393-12.057 1.673-11.367 2.231m292.8 8.5a9.217 9.217 0 01-2.929-.7 10.352 10.352 0 00-2.927-.7 2.616 2.616 0 01-1.378-.278 17.623 17.623 0 00-3.791-.7 102.46 102.46 0 01-7.062-1.253 35.734 35.734 0 00-4.649-.838 17.041 17.041 0 01-3.272-.418c-2.413-.558-10.508-1.814-14.469-2.231-1.549-.14-4.995-.7-7.75-1.116a82.662 82.662 0 00-9.818-1.253c-2.584-.14-6.2-.42-8.095-.7l-7.233-.558a34.553 34.553 0 01-5.511-.7 15.792 15.792 0 00-3.617-.138 25.364 25.364 0 01-4.307-.42c-2.41-.418-18.6-.976-26.352-.835-3.446 0-4.649-.14-4.823-1.116-.171-.558 1.723-.7 2.068-.14a1.484 1.484 0 00.861.28c.171 0 .171-.14-.174-.28-.343-.278-.516-.418-.343-.418a3.671 3.671 0 001.033-.14c.516-.137.516-.137.345.14s0 .418.516.558c.345.14.688.14.861-.14s.345-.278.861 0c.861.28 2.065 0 2.065-.558 0-.137.174-.137.345.14.345.418.516.418 1.207 0a2.662 2.662 0 012.068 0 2.228 2.228 0 001.72 0c.345-.278.516-.278.516-.14 0 .28 1.552.42 3.274.42a16.106 16.106 0 013.788.278 5.047 5.047 0 002.239.14 4.639 4.639 0 012.239.418c.516.278.69.278.861 0 0-.28.861-.418 2.068-.418a83.934 83.934 0 0110.163.976 30.275 30.275 0 004.82.278 38.536 38.536 0 016.375.558c3.788.838 5.682.978 5.682.558 0-.278.174-.278.516 0a4.635 4.635 0 002.239.42c2.758-.14 7.752.555 8.269 1.253a2.99 2.99 0 00.688.418c.174 0 1.723-.138 3.617-.138 2.239 0 3.445.138 3.791.558.516.418 2.927.7 6.888.976 3.617.138 3.617.138 2.929.558-.345.138.171.278 1.723.278a6.362 6.362 0 013.1.28 13.764 13.764 0 003.617.835c1.549.14 3.1.418 3.272.7a3.482 3.482 0 002.068.278c.861 0 1.549.14 1.549.418 0 .14.345.14.861.14.516-.14.861-.14.861.14a.339.339 0 00.345.278c.171-.138.343 0 .516 0a4.524 4.524 0 001.032.14c.345.14 1.723.28 2.929.558l2.755.418c.345 0 .688.14.688.28s.519.138 1.206.138c.69-.138 1.207 0 1.207.14s.688.28 1.549.28a9.275 9.275 0 012.239.278 11.265 11.265 0 002.584.838c1.033.138 3.272.835 5.168 1.253a24.738 24.738 0 004.133.976c.516 0 1.033.14 1.033.28.171.278 1.723.835 6.03 2.231 1.72.7 4.478 2.229 3.617 2.229a3.378 3.378 0 01-1.206-.418 8.412 8.412 0 00-2.584-.835c-1.033-.28-1.723-.558-1.723-.838 0-.137-.171-.137-.516-.137-.345.278-9.3-2.231-12.228-3.347a16.282 16.282 0 00-2.239-.418M.312 17.677a6.525 6.525 0 00.345-2.231c.171-1.393.171-1.533 1.549-1.951a9.1 9.1 0 012.413-.418 25.843 25.843 0 003.617-.558 64.508 64.508 0 017.921-1.256 6.371 6.371 0 011.374-.286 43.111 43.111 0 015.858-1.256 27.949 27.949 0 004.133-.558l5.166-.7a23.583 23.583 0 003.962-.7 11.015 11.015 0 013.272-.558c1.207-.14 2.239-.28 2.413-.28a9.245 9.245 0 012.755-.418l4.823-.558a30.313 30.313 0 014.994-.418 6.7 6.7 0 002.584-.28c0-.138.861-.278 2.065-.278a31.29 31.29 0 003.791-.14l3.443-.418c1.035 0 3.791-.28 6.2-.28 2.413-.138 5.339-.278 6.375-.418a16.148 16.148 0 013.617-.137c.861 0 1.894-.14 2.239-.14a17.722 17.722 0 013.617-.28 9.239 9.239 0 003.1-.278c0-.14 1.723-.14 8.095-.28 1.378 0 6.027-.138 10.334-.278 4.3-.28 11.2-.418 15.328-.558s8.44-.28 9.646-.418c6.2-.28 25.662-.7 52.015-.976 9.644 0 17.739-.14 18.257-.28.343-.14.688-.14.516 0a41.644 41.644 0 006.717.28 46.98 46.98 0 016.888.278 2.136 2.136 0 001.032.28q.778 0 0-.42c-.516-.278 8.614-.138 12.4.28.861 0 2.413.14 3.617.278 1.378.14 1.894.14 1.723-.138-.171-.14-.171-.42 0-.42a.978.978 0 01.69.28 8.867 8.867 0 002.755.278 5.511 5.511 0 012.41.28c.171.138.516.138 1.206 0s1.033 0 1.033.278c0 .418 0 .418.345 0 .171-.278 1.033-.418 3.272-.14a11.3 11.3 0 012.929.42 53.42 53.42 0 006.717.418c.862 0 1.549.14 1.549.278 0 .28.345.28.861.28.516-.14.861-.14 1.033.14a1.477 1.477 0 00.69.278c.171 0 .345-.278.171-.418-.171-.28-.171-.28 0-.14a23.3 23.3 0 003.1.28 14.128 14.128 0 013.1.558 3.165 3.165 0 002.068.137c.861-.137 1.378-.137 1.378.14s.688.418 1.378.418q1.292 0 1.033.418c-.171.42 0 .42.861 0 1.378-.558 2.239-.558 2.239-.138 0 .278.174.278.516.138a1.682 1.682 0 011.378.28 1.708 1.708 0 001.207.14.932.932 0 011.032.278c.174.28.519.28.861 0 .519-.278.69-.418.861-.14 0 .28 1.206.42 2.584.558a91.983 91.983 0 0112.228 1.674 12.777 12.777 0 003.1.7c.516 0 1.206.14 1.552.14a12.11 12.11 0 003.788.7 2.347 2.347 0 011.206.28 6.507 6.507 0 001.894.278 9.128 9.128 0 012.413.7 1.794 1.794 0 001.378.278c.516-.278 2.927.42 2.755.838-.174.14-.174.278.171.278.174 0 .345.14.345.42 0 .418-2.41.138-2.755-.42a12 12 0 00-4.823-.836c-.69.14-1.033.14-1.033-.14s.171-.278.343-.278c.174.137.345 0 .345-.28 0-.558-.171-.558-.861 0-.516.418-.687.418-.687.14s-.516-.28-1.378-.14a3.375 3.375 0 01-2.584-.558c-.69-.418-1.033-.558-.861-.278.171.138 0 .278-.345.278s-.516-.14-.345-.278c0-.14 0-.28-.343-.28a.341.341 0 00-.345.28c0 .138-.345.278-.69.138s-.516-.278-.343-.418c.343-.418-1.378-.7-3.791-.418-1.378 0-2.239 0-2.239-.278a.5.5 0 01.516-.42c.345-.137.345-.278-.171-.278a1.341 1.341 0 00-1.033.418c-.345.28-.861.14-1.723-.14-2.068-.975-3.617-1.253-4.133-.835-.345.278-.69.278-.861-.14-.345-.278-.519-.278-.519 0 0 .418-.859.28-2.927-.14-.516-.138-.516-.278 0-.555s.516-.28-.171-.28c-.519 0-1.035.14-1.035.28s-.516.278-1.032.137q-1.035-.206-.516-.418c.171-.14-.69-.418-2.068-.558-1.723-.278-2.755-.278-2.927 0-.345.28-3.446-.558-3.617-1.116-.345-.278-2.929 0-3.1.418-.174.28-.519.14-1.035-.138-.688-.7-2.239-.838-2.239-.28 0 .418-2.065.418-2.927 0-.516-.278-.345-.278.345-.14.516.14.859 0 .859-.278 0-.14 0-.278-.171-.14a11.026 11.026 0 01-1.723-.137c-1.033-.14-1.378-.14-1.378.278s0 .418-4.3-.14a6.033 6.033 0 01-1.9-.418c-.342-.418-7.4-1.116-7.75-.836-.171 0 .171.138.69.138a8.849 8.849 0 011.894.28c.687.278.516.278-.69.418a4.464 4.464 0 01-2.239-.558 2.9 2.9 0 00-1.378-.558c-.516 0-.861 0-.687-.14 0-.138-.861-.278-2.068-.138-1.206 0-2.239.278-2.068.418s0 .278-.342.278c-.519 0-.69-.138-.69-.278s-.345-.418-.687-.558-.519 0-.345.14c0 .138-.174.418-.69.418-.688.14-.861.14-.688-.28.171-.278.171-.418-.174-.418a.343.343 0 00-.345.28c0 .418-1.2.418-1.378 0s-.688-.42-7.921-.14c-4.133.14-5.685.14-5.168-.14s.516-.418-.171-.418a1.542 1.542 0 00-.861.418c-.174.28-.345.418-.516.14-.516-.558-4.307-.835-6.375-.558-1.033.14-1.549.14-1.378 0 .174-.278 0-.278-.516-.14a6.231 6.231 0 01-3.272 0c-1.207-.138-1.552-.138-1.723.28s-.861.558-2.584.558-2.065-.14-1.549-.28c.688-.278.345-.278-1.033-.278-1.552 0-1.723 0-.861.278.687.14-1.378.28-5.168.28-8.266 0-20.668.278-32.208.558-5.34.138-12.057.278-14.983.278-13.263.28-51.843 1.951-63.21 2.649a13.95 13.95 0 01-2.413.14c-1.033 0-1.378.278-1.378.7s0 .418-.516 0c-.69-.7-4.478-.42-4.133.278.171.278-.345.418-1.552.558-1.723.14-1.723.14.345.14 1.378 0 5.684-.14 9.818-.42s9.3-.555 11.366-.555c2.239 0 5.856-.14 8.095-.28l12.4-.558c4.649 0 9.989-.14 11.885-.278l21.355-.7c4.307-.14 9.818-.28 12.23-.28 4.3-.138 47.708-.278 59.764-.278l22.045.835 3.617.42c1.035 0 3.1.278 4.652.278l6.717.558a50.078 50.078 0 005.339.418 3.813 3.813 0 011.723.28.586.586 0 00.688.138 13.292 13.292 0 013.1.14c1.552.28 4.649.7 6.717.838 11.54 1.533 22.219 3.067 25.146 3.765 1.207.138 3.962.7 6.2 1.113a26.155 26.155 0 014.823 1.116 6.015 6.015 0 001.549.28 13.962 13.962 0 011.9.278l5.856 1.4c6.2 1.393 5.856 1.253 5.166 1.673-.516.278-.171.278.861.138s1.207-.138.861.14c-.516.418-.516.418.171.278 1.035-.278 3.1.42 2.758.838-.174.278 0 .278.343.14.516-.28 4.136.558 6.2 1.533.69.278 1.551.558 1.723.418q.518-.21 1.033.418c.345.28.516.418.516.28a6.658 6.658 0 011.9.7 12.031 12.031 0 002.41.838 1.016 1.016 0 01.861.7 1.126 1.126 0 00.861.558 6.3 6.3 0 012.239.978c1.378.7 1.378.7-.345-.558l-3.788-2.512a7.758 7.758 0 01-2.068-1.393 1.435 1.435 0 00-.688-.28l-6.2-2.509a25.266 25.266 0 00-4.652-1.533l-3.788-1.256a12.848 12.848 0 00-3.617-.976c-.516 0-.861-.138-.861-.278s.516-.28 1.378-.28 1.549.14 1.549.28c0 .278.345.278.69.14a2.724 2.724 0 011.206.138c0 .28.343.42.688.42 1.207 0 11.024 3.762 11.885 4.46a3.8 3.8 0 001.894.838 2.212 2.212 0 011.206.418 6.053 6.053 0 001.561 1.104 11.465 11.465 0 012.41 1.533 4.622 4.622 0 001.38.836c.859.14 3.617 2.231 3.272 2.509 0 .14.171.28.687.14 1.207-.14 1.378.418.345 1.256-.516.418-1.033.976-.861 1.253.174.42-.345.42-1.033 0-.345-.278-.516-.418-.516-.278 0 .418-2.929-.976-3.962-1.673s-4.649-2.789-5.856-3.347a3.116 3.116 0 00-1.552-.138c-.343.138-.687 0-.516-.14.174-.558-1.2-1.814-1.723-1.533-.343.278-.343.418.345.558a8.8 8.8 0 01.861.278c-.516.418-2.755-.278-2.755-.7 0-.558-2.584-1.814-3.272-1.536-.345.14-.69 0-.69-.138s-.345-.418-1.033-.558l-2.068-.558a29.176 29.176 0 00-3.272-.838l-5.684-1.253c-3.272-.7-12.744-2.649-13.951-2.789-1.549-.14-4.478-.835-4.649-1.256-.345-.278-.345-.278-.345 0s-.861.28-2.584-.138c-1.549-.14-3.1-.42-3.617-.42a4.9 4.9 0 01-1.549-.278 47.059 47.059 0 00-4.823-.835c-2.239-.42-3.962-.7-3.791-.838 0-.14-.343-.278-.861-.14a75.69 75.69 0 01-8.095-.7c-3.962-.558-8.611-.838-10.16-.976a10.99 10.99 0 01-3.1-.28c-.174-.14-3.274-.418-7.062-.835l-11.2-.838c-2.413-.278-7.407-.418-11.024-.418a45.493 45.493 0 01-6.889-.278c0-.42-3.962-.28-5.168.137-.861.28-1.033.28-1.378 0-.171-.278-1.894-.418-5.511-.418-3.446 0-5.168-.14-5.339-.418-.345-.28-.345-.28-.345 0s-1.549.418-6.717.418c-3.788 0-8.095.14-9.644.28q-2.845.416-3.617 0a3.844 3.844 0 00-2.584 0 5.169 5.169 0 01-2.929 0 8.123 8.123 0 00-1.549-.14c-.345.278-7.233.418-7.578.278a15.512 15.512 0 00-3.272-.137l-5.513.278h-3.443c-1.207.14-1.207 1.116 0 1.116.516 0 .861 0 .861.14-.519.278-9.13.558-9.13.278s1.207-.278 3.1-.278a13.424 13.424 0 003.446-.28c.345-.418-.861-.835-1.723-.7-.516.14-.69.14-.516-.138s0-.418-.516-.418-.861.137-.861.278a6.733 6.733 0 01-2.584.278c-2.41 0-2.584.14-2.584.838.174.558-.171.7-1.378.7-1.378 0-1.549-.14-.687-.42.516-.137.859-.418.859-.7-.171-.42-1.894-.558-8.782-.14-2.584.14-6.2.418-8.095.418-4.994.14-10.334.558-12.573.7-2.068.14-2.755.836-.861.836h1.2l-1.2.28c-1.894.418-5.339.418-5.339 0 0-.14.687-.28 1.378-.28h1.378l-1.206-.7c-1.033-.7-1.2-.7-1.894-.14-.861.558-.861.558-.861 0 0-.418-.171-.558-.687-.418a44.758 44.758 0 01-5 .418 16.564 16.564 0 00-5.166.558c-.861.558-.516.836.688.836.69 0 .69.14.345.418a7.181 7.181 0 01-1.894.14c-1.033-.14-1.206-.14-.516.14.861.278 1.894.278 8.095-.14a5.411 5.411 0 012.584.14c0 .14.688.278 1.549.14a93.41 93.41 0 0112.228-.42c2.584 0 9.646-.278 9.991-.418a1.32 1.32 0 011.032 0 7.292 7.292 0 002.584 0 21.815 21.815 0 012.41-.14.2.2 0 00.345-.138c0-.28.171-.28.69 0 .343.278.688.278.859 0a43.327 43.327 0 015.858-.14c3.959.14 6.027 0 6.2-.278a.373.373 0 01.519 0c.171.278.859.278 1.72.138a11.617 11.617 0 013.1 0 11.689 11.689 0 005.856-.418c.861-.418 1.035-.278 1.378 0 .174.418 1.035.418 2.929.28a13.97 13.97 0 014.307.138 4.013 4.013 0 001.894 0c.345-.278 3.788-.278 3.788 0 0 .14.345.28.69.28.516 0 .688 0 0-.28-.345-.278.345-.418 2.41-.278 1.552 0 2.929.14 3.1.418.174.14.345.14.345-.14 0-.138.345-.418.861-.418s.688.14.688.418c-.171.14.174.14.861 0l1.378-.278a8.176 8.176 0 002.239.418c1.552.14 1.9.14 1.723-.278-.345-.28-.171-.28.516-.14a.851.851 0 001.035-.28c.171-.137.342-.137.687.28s.516.418 2.068 0a6.168 6.168 0 012.584-.28c.516 0 2.41.14 4.133.14 3.1 0 3.446.14 2.584 1.256-.345.558-5.168.558-9.646.137q-3.1-.416-3.617 0c-.345.28-4.307.42-8.44.42-9.644-.28-21.529 0-22.907.558-.861.418-.861.418.345.138.688 0 1.378 0 1.378.14a7.3 7.3 0 002.41.14c1.207-.14 15.5-.28 31.521-.28 29.969.14 35.48.28 47.363 1.116 5.513.418 11.369 1.116 13.608 1.4a48.2 48.2 0 006.027.558 18.057 18.057 0 014.136.558c.171.138 0 .278-.345.278s-.69.14-.69.278c0 .28.345.28.861 0 .69-.278 1.894-.278 4.307 0l5.682.558a17.869 17.869 0 012.929.558 52.23 52.23 0 005.856.838 51.551 51.551 0 019.646 1.393 83.374 83.374 0 009.989 1.951l6.372 1.256 4.994 1.116a12.629 12.629 0 013.274.976c.516.558.516.558 0 .418-.861-.278-8.095-1.811-9.646-2.229-.688 0-.688 0 .171.418a10.615 10.615 0 002.584.7l4.652.838c1.72.418 2.927.558 2.927.418.174-.418 3.1.14 4.478.838.69.278.69.418.174.278-3.791-.976-4.307-.976-4.307-.7-.171.558-2.929.14-6.372-.835l-4.136-.838c-.859-.138-3.788-.7-6.717-1.393-2.755-.558-6.027-1.116-7.233-1.256a14.777 14.777 0 01-2.755-.555 16.2 16.2 0 00-2.41-.42 5.267 5.267 0 01-2.068-.278c-.345-.28-11.366-1.814-18.257-2.509-5.166-.558-6.717-.42-5.34.278.345.14.345.28.174.28a.994.994 0 01-.861-.42 2.377 2.377 0 00-1.207-.278c-.688 0-1.033-.14-1.033-.558s-.171-.558-.516-.14a1.682 1.682 0 01-2.239-.14c-.345-.558-3.1-.558-3.617 0-.174.14-.345 0-.345-.278 0-.418-.171-.558-.861-.418-.516.138-1.033.418-1.033.558-.174.138-.516 0-1.035-.28-.516-.558-2.239-.7-8.266-1.253-7.924-.558-11.2-.558-11.54-.14-.171.14-.861 0-1.549-.28-1.035-.418-3.274-.558-10.508-.7-6.543 0-9.127 0-8.956.278.174.14.174.28 0 .28a.967.967 0 01-.688-.28c0-.278-2.584-.418-6.717-.418h-7.407c-6.888 0-27.9.14-32.379.278-3.274.14-8.956.28-12.918.28-6.2.14-11.2.278-19.635.7-6.717.418-8.266.418-8.785.7a.2.2 0 01-.342-.138c0-.14-.516-.28-1.378-.14-.69 0-5 .14-9.475.278a73.58 73.58 0 00-8.611.28c-.516.278-14.983.976-17.912.835-.688 0-1.2.14-1.2.28s-.861.278-2.068.278c-2.41 0-3.791.14-9.989.558l-6.546.418c-5.685.28-12.057.838-16.019 1.4-2.239.138-4.994.558-6.027.558a74.785 74.785 0 00-10.334 1.671 31.483 31.483 0 01-5.684.838 32.79 32.79 0 00-4.65.7c-.174.278-3.791.975-5.858 1.113a74.26 74.26 0 00-8.437 1.954 19.748 19.748 0 01-5 .976 10.975 10.975 0 00-2.755.558 4.951 4.951 0 01-3.272.278c-1.894-.278-2.239-.7-4.307-4.322-.516-.976-.687-4.878-.171-5.576" fill="#fff"/></svg>