<svg xmlns="http://www.w3.org/2000/svg"><defs><font id="nunito_sansextrabold_italic" horiz-adv-x="1228"><font-face units-per-em="2048" ascent="1638" descent="-410"/><glyph unicode="ﬁ" horiz-adv-x="1316" d="M31 774l18 232h191l2 26q16 197 142 299.5T758 1448l104 6-4-227-117-6q-92-4-137-42t-51-124l-4-49h690L1159 0H850l61 774H530L469 0H160l61 774H31zm901 424l20 293h336l-22-293H932z"/><glyph unicode="ﬂ" horiz-adv-x="1316" d="M31 774l18 232h191l2 26q16 197 142 299.5T758 1448l112 6 7-227-136-6q-92-4-137-42t-51-124l-4-49h252l-17-232H530L469 0H160l61 774H31zM850 0l115 1444h309L1159 0H850z"/><glyph horiz-adv-x="0"/><glyph horiz-adv-x="571"/><glyph horiz-adv-x="0"/><glyph horiz-adv-x="0"/><glyph horiz-adv-x="571"/><glyph horiz-adv-x="571"/><glyph horiz-adv-x="571"/><glyph unicode="!" horiz-adv-x="532" d="M61 0l27 328h330L393 0H61zm91 1446l378-2-174-977H170z"/><glyph unicode="&quot;" horiz-adv-x="960" d="M158 1444h354L391 834H186zm438 0h354L829 834H624z"/><glyph unicode="#" d="M88 338l14 192h162l111 400H180l15 192h233l88 322h205l-88-322h221l88 322h205l-88-322h119l-15-192h-157L895 530h190l-14-192H842L748 0H543l94 338H416L322 0H117l94 338H88zm381 192h221l111 400H580z"/><glyph unicode="$" d="M35 143l121 228q98-74 205.5-108T598 229q125 0 189.5 45T852 403q0 47-35 80t-88 54.5T580 590q-143 45-234.5 88t-157 124-65.5 210q0 117 58.5 212T343 1379.5t239 76.5l18 223h246l-19-227q121-16 219.5-55t161.5-97l-121-227q-193 141-411 141-109 0-172.5-47T440 1040q0-53 38-90t95.5-60.5T731 834q139-43 227.5-84T1109 631t62-201q0-178-122.5-298T717-12l-17-224H455l16 224Q197 8 35 143z"/><glyph unicode="%" horiz-adv-x="1953" d="M115 985q0 225 102 354t283 129q176 0 272-104t96-297q0-229-101-355T483 586q-176 0-272 103.5T115 985zm254-27q0-94 26.5-137t85.5-43q133 1 133 318 0 92-27.5 135t-86.5 43q-68 0-99.5-79T369 958zm59-895l950 1442 185-125L614-61zm694 324q0 225 101.5 353T1505 868q176 0 272.5-104.5T1874 467q0-229-100.5-355T1491-14q-178 0-273.5 103.5T1122 387zm252-29q0-94 28-137t87-43q133 1 133 318 0 92-27.5 136t-87.5 44q-70 0-101.5-80T1374 358z"/><glyph unicode="&amp;" horiz-adv-x="1415" d="M57 383q0 147 81 249.5T371 811q-117 143-117 287 0 162 114.5 260t297.5 98q178 0 282.5-86t104.5-231q0-121-69-213T772 760l234-250q90 166 112 373h254q-37-324-192-555L1489 0h-369L997 133Q802-17 569-16q-152 0-267.5 51t-180 142T57 383zm299 23q0-86 61.5-136.5T584 219q135 0 252 88L522 647q-166-90-166-241zm172 694q0-39 20.5-79T621 920q102 49 143 97t41 109q0 55-34 90t-93 35q-66 0-108-41t-42-110z"/><glyph unicode="'" horiz-adv-x="522" d="M158 1444h354L391 834H186z"/><glyph unicode="(" horiz-adv-x="768" d="M201 395q0 303 92 567.5T571 1481l195-95q-129-270-189.5-512.5T516 350q0-154 26.5-314.5T633-319l-211-84Q303-180 252 9.5T201 395z"/><glyph unicode=")" horiz-adv-x="768" d="M8-309Q137-39 197.5 203.5T258 727q0 152-27.5 311.5T141 1397l211 84q119-221 169-410.5T571 682q0-303-91-567.5T203-403z"/><glyph unicode="*" horiz-adv-x="929" d="M104 967v211l250-15-137 207 182 107 111-224 111 224 182-109-137-205 249 15V965l-249 16 137-207-182-106-111 225-113-223-182 104 139 207z"/><glyph unicode="+" d="M115 481l16 211h393l31 395h213l-31-395h391l-16-211H719L688 88H475l31 393H115z"/><glyph unicode="," horiz-adv-x="532" d="M61 0l27 328h330l-15-203Q393 4 343-94.5T186-295L72-199Q185-93 213 0H61z"/><glyph unicode="-" horiz-adv-x="901" d="M129 428l18 242h633l-18-242H129z"/><glyph unicode="." horiz-adv-x="532" d="M61 0l27 328h330L393 0H61z"/><glyph unicode="/" horiz-adv-x="677" d="M-86-78l657 1645 224-80L137-158z"/><glyph unicode="0" d="M90 629q0 260 68.5 447.5T355 1362t309 98q250 0 381-165t131-480q0-260-69-447.5T909 82 600-16q-250 0-380 164.5T90 629zm309-45q0-184 51.5-270.5T608 227q125 0 191.5 162T866 860q0 184-50 270.5T657 1217q-125 0-191.5-163T399 584z"/><glyph unicode="1" d="M176 0l21 256h309l65 821-245-135-121 229 487 273h228L825 256h314L1118 0H176z"/><glyph unicode="2" horiz-adv-x="1230" d="M96 0l19 236 522 507q178 172 178 310 0 78-49 118.5T621 1212q-184 0-385-139l-82 227q197 162 505 162 217 0 343-108.5t126-298.5q0-117-60-222.5T862 586L520 256h590L1090 0H96z"/><glyph unicode="3" d="M43 145l119 228q193-139 401-140 121 0 183.5 50.5T809 428q0 92-59.5 135T569 606H367l20 248h172q127 0 193.5 50t66.5 147q0 78-51 119.5T618 1212q-193 0-382-139l-82 227q92 76 224 119t279 43q137 0 245-46t167-129 59-191q0-127-66.5-219.5T870 737q113-35 177.5-113.5T1112 428q0-129-65.5-229.5T856 41 559-16q-152 0-286 43T43 145z"/><glyph unicode="4" d="M51 264l19 236 733 944h260l-74-936h199l-21-244H971L950 0H639l20 264H51zm320 244h309l35 448z"/><glyph unicode="5" d="M84 145l119 228q182-139 393-140 121 0 191.5 63.5T858 473q0 102-63.5 159.5T618 690q-158 0-268-100H168l68 854h927l-18-244H528l-26-313q94 47 215 47 129 0 229.5-54.5T1103 729t56-221q0-162-68.5-280.5T896 46.5 600-16q-152 0-285 42T84 145z"/><glyph unicode="6" d="M88 623q0 254 78 444t223.5 292.5T729 1462q137 0 265-42t227-120l-121-227q-88 68-180.5 103.5T745 1212q-141 0-227-110.5T410 774q51 74 135 117t180 43q125 0 222-56.5T1098.5 721t54.5-229q0-145-64.5-262t-178-182.5T653-18q-270 0-417.5 166.5T88 623zm338-174q0-96 59.5-158T641 229q94 0 153.5 68T854 475q0 98-57.5 156.5T645 690q-96 0-157.5-66.5T426 449z"/><glyph unicode="7" d="M133 0l711 1188H152l18 256h1038l-18-238L469 0H133z"/><glyph unicode="8" d="M49 385q0 133 77 228.5T336 745q-96 43-146.5 122T139 1053q0 188 143.5 298.5T670 1462t377-98 133-279q0-117-69-211T930 739q233-77 233-329 0-127-70.5-223.5T893 37 594-16Q340-16 194.5 91.5T49 385zm299 25q0-86 63.5-134.5T598 227q131 0 198.5 51.5T864 428q0 90-59.5 135T621 608q-272 0-273-198zm92 620q0-84 56.5-131T653 852q109 0 167.5 50t58.5 145q0 172-209 172-113 0-171.5-47.5T440 1030z"/><glyph unicode="9" d="M43 143l121 228q88-68 180-104t176-36q141 0 227.5 112T854 670q-51-74-135-117t-180-43q-125 0-222.5 56.5T165 723t-54 229q0 145 64.5 262t178 182.5T610 1462q271 0 418.5-167T1176 821q0-254-78-444.5T874.5 84 535-18q-135 0-264.5 42T43 143zm369 826q0-98 56-156.5T618 754q99 0 160.5 66.5T840 995q0 96-57.5 157.5T635 1214q-100 0-161.5-67.5T412 969z"/><glyph unicode=":" horiz-adv-x="532" d="M61 0l27 328h330L393 0H61zm52 678l26 328h332l-27-328H113z"/><glyph unicode=";" horiz-adv-x="532" d="M61 0l27 328h330l-15-203Q393 4 343-94.5T186-295L72-199Q185-93 213 0H61zm54 678l26 328h332l-27-328H115z"/><glyph unicode="&lt;" d="M113 473l18 232 1032 407-18-231-752-293 707-293-21-232z"/><glyph unicode="=" d="M98 276l17 211h995l-14-211H98zm31 410l16 211h998l-17-211H129z"/><glyph unicode="&gt;" d="M80 63l20 232 752 293-707 293 19 231 966-407-18-232z"/><glyph unicode="?" horiz-adv-x="958" d="M61 1300q98 80 223.5 121t268.5 41q199 0 317.5-91T989 1133q0-80-31.5-144.5t-77.5-112T758 766q-84-72-130-125t-61-117l-16-67H371l8 102q8 106 52 177t122 151q61 63 90 106t29 99q0 59-40 89.5T518 1212q-176 0-373-139zM264 0l25 328h332L594 0H264z"/><glyph unicode="@" horiz-adv-x="1923" d="M94 543q0 285 116 491.5t320.5 315T995 1458q268 0 461-100.5t293-273.5 100-388q0-178-54-306t-150.5-194.5T1425 129q-109 0-176 47t-84 125h-4q-55-80-123.5-126T864 129q-152 0-236.5 101.5T543 500q0 145 55 265t152.5 189.5T973 1024q84 0 147.5-35t89.5-98h7l20 115h221l-88-484q-10-61-10-96 0-59 24.5-90t79.5-31q41 0 82 39t68.5 127 27.5 225q0 172-73.5 301t-219 201-354.5 72q-197 0-350-85T403.5 935 315 543q0-205 81-358.5T629.5-53 993-137q150 0 257.5 37T1409 0h287q-80-145-263.5-235.5T993-326q-274 0-477 110T203.5 90.5 94 543zm674-43q0-88 39-141.5T913 305q82 0 140.5 50.5t88 131T1171 657q0 94-42 141.5T1012 846q-76 0-131.5-51.5t-84-131T768 500z"/><glyph unicode="A" horiz-adv-x="1538" d="M-61 0l776 1444h256L1522 0h-310l-112 319H428L266 0H-61zm610 561h465l-191 543z"/><glyph unicode="B" horiz-adv-x="1411" d="M104 0l113 1444h645q236 0 360-98.5t124-264.5q0-242-256-338 112-30 174.5-120.5T1327 412q0-197-142.5-304.5T801 0H104zm332 244h338q133 0 194.5 44t61.5 144q0 90-56 135t-175 45H465zm47 612h303q129 0 189.5 42t60.5 136q0 166-225 166H510z"/><glyph unicode="C" horiz-adv-x="1388" d="M119 674q0 238 93 416t263 275 397 97q147 0 276.5-42t225.5-124l-119-227q-92 72-180 104.5T885 1206q-209 0-325-142T444 674q0-213 94.5-324.5T813 238t387 137l84-228q-80-76-210-120.5T801-18q-209 0-362.5 84T202 306.5 119 674z"/><glyph unicode="D" horiz-adv-x="1562" d="M104 0l113 1444h557q217 0 376-82t244-233.5 85-358.5q0-242-93.5-415T1115 91 690 0H104zm340 258h220q252 0 374.5 127T1161 772q0 203-108.5 308.5T733 1186H516z"/><glyph unicode="E" horiz-adv-x="1214" d="M104 0l115 1444h995l-18-248H510l-27-338h643l-20-248H465l-29-362h684L1100 0H104z"/><glyph unicode="F" horiz-adv-x="1171" d="M104 0l115 1444h973l-18-252H514l-27-332h619l-21-252H467L420 0H104z"/><glyph unicode="G" horiz-adv-x="1511" d="M119 672q0 240 93 418t267 275 406 97q326 0 522-166l-119-227q-90 72-179 105.5T909 1208q-223 0-345-141T442 672q0-215 102.5-330T854 227q109 0 225 35l27 313H821l19 222h569l-55-703q-102-53-244.5-82.5T813-18q-215 0-371.5 84T202 305.5 119 672z"/><glyph unicode="H" horiz-adv-x="1579" d="M104 0l115 1444h313l-47-584h664l47 584h313L1395 0h-314l49 606H467L418 0H104z"/><glyph unicode="I" horiz-adv-x="606" d="M104 0l113 1444h320L424 0H104z"/><glyph unicode="J" horiz-adv-x="772" d="M-35 236l144 8q96 6 141 50t53 142l78 1008h321L625 440q-16-217-135-326.5T141-10L-20-20z"/><glyph unicode="K" horiz-adv-x="1388" d="M104 0l113 1444h320l-50-639 641 639h392L799 741 1434 0h-373L475 664 424 0H104z"/><glyph unicode="L" horiz-adv-x="1153" d="M104 0l115 1444h320L444 260h643L1069 0H104z"/><glyph unicode="M" horiz-adv-x="1724" d="M109 0l114 1444h252l391-871 537 871h248L1536 0h-281l68 854-379-616H739L455 840 389 0H109z"/><glyph unicode="N" horiz-adv-x="1540" d="M104 0l115 1444h236l645-907 71 907h299L1356 0h-238L475 905 401 0H104z"/><glyph unicode="O" horiz-adv-x="1611" d="M119 674q0 236 88 415t251 277 376 98q211 0 368.5-84t242.5-240.5 85-369.5q0-236-89-415T1190 78 813-20q-211 0-367.5 83.5T204 304t-85 370zm319 0q0-213 96.5-329T811 229q184 0 291.5 143.5T1210 770q0 213-97 328.5T838 1214q-186 0-293-144T438 674z"/><glyph unicode="P" horiz-adv-x="1368" d="M104 0l115 1444h641q230 0 356.5-113.5T1343 1022q0-231-136-355T817 543H467L424 0H104zm381 784h303q256 1 256 220 0 100-55 148t-170 48H518z"/><glyph unicode="Q" horiz-adv-x="1611" d="M119 674q0 236 88 415t251 277 376 98q215 0 371.5-83t240.5-239.5 84-371.5q0-254-100.5-440.5T1143 53q78-33 125-125l137-250-281-127-188 349q-45 80-160 82-201 4-349 90T199 312.5 119 674zm319 0q0-213 96.5-329T811 229q186 0 292.5 144.5T1210 770q0 213-97 328.5T838 1214q-186 0-293-144T438 674z"/><glyph unicode="R" horiz-adv-x="1435" d="M104 0l113 1444h672q225 0 350-110.5t125-303.5q0-385-379-444 57-17 95-54.5t71-103.5L1360 0h-344L793 461q-27 53-68 76.5T618 561H463L420 0H104zm375 803h340q121 0 183.5 53t62.5 156q0 96-53.5 142T848 1200H510z"/><glyph unicode="S" horiz-adv-x="1333" d="M55 147l119 228q215-145 475-146 133 0 204 41t71 117q0 51-38 87t-97.5 58.5T627 586q-152 45-247 87T216 799t-69 217 74 234.5T430 1407t315 55q156 0 297.5-45t229.5-121l-121-227q-90 70-197.5 107.5T739 1214q-129 0-201.5-45T465 1044q0-55 40-92t100.5-60.5T772 838q147-43 241.5-85t161-122 66.5-209q0-209-158.5-324.5T637-18q-168 0-318.5 43T55 147z"/><glyph unicode="T" horiz-adv-x="1273" d="M78 1184l20 260h1225l-18-260H852L758 0H438l92 1184H78z"/><glyph unicode="U" horiz-adv-x="1513" d="M139 530q0 27 4 84l66 830h313l-65-838q-2-23-2-63 0-158 75.5-236T762 229q137 0 215 79t92 257l70 879h313l-68-856q-23-301-184.5-453.5T745-18q-301 0-453.5 138T139 530z"/><glyph unicode="V" horiz-adv-x="1490" d="M41 1444h332L741 397l531 1047h325L836 0H580z"/><glyph unicode="W" horiz-adv-x="2283" d="M111 1444h321l252-995 428 995h223l258-1008 422 1008h305L1694 0h-256l-262 954L766 0H510z"/><glyph unicode="X" horiz-adv-x="1382" d="M-80 0l610 735-483 709h367l311-473 381 473h377L887 727 1382 0h-364L692 492 297 0H-80z"/><glyph unicode="Y" horiz-adv-x="1302" d="M-31 1444h357l354-533 436 533h367L823 653 772 0H453l51 653z"/><glyph unicode="Z" horiz-adv-x="1249" d="M63 0l17 233 760 959H156l20 252h1053l-19-230-761-962h708L1137 0H63z"/><glyph unicode="[" horiz-adv-x="763" d="M145-369l144 1813h518l-16-232H573L465-137h219l-18-232H145z"/><glyph unicode="\" horiz-adv-x="675" d="M35 1507l237 60L674-98l-238-60z"/><glyph unicode="]" horiz-adv-x="763" d="M-39-369l16 232h220l104 1349H84l18 232h519L479-369H-39z"/><glyph unicode="^" d="M74 293l489 999h230l329-999H895l-236 727-350-727H74z"/><glyph unicode="_" horiz-adv-x="1024" d="M-23-178L-8 0h962l-12-178H-23z"/><glyph unicode="`" horiz-adv-x="614" d="M-9 1556h287l176-419H262z"/><glyph unicode="a" horiz-adv-x="1118" d="M63 281q0 115 58.5 184.5t185.5 101T645 598h74l2 27q1 11 1 22 0 74-37 110-42 42-138 42-76 0-163-27t-165-74l-67 207q84 55 208.5 90t243.5 35q207 0 308.5-95T1014 647q0-45-2-67L967 0H674l10 137Q645 63 575.5 23.5T414-16q-100 0-180 38.5T108.5 129 63 281zm302 32q0-53 36.5-84.5T500 197q84 0 140 60t65 157l2 35h-56q-160 0-223-31t-63-105z"/><glyph unicode="b" horiz-adv-x="1255" d="M80 0l113 1444h309l-45-555q49 66 129 103.5t174 37.5q127 0 224-58.5t150.5-168T1188 547q0-164-60.5-292t-170-199.5T707-16q-209 0-312 157L385 0H80zm344 489q0-133 57.5-202.5T645 217q111 0 173.5 83T881 526q0 131-58.5 201T655 797q-106 0-168.5-83T424 489z"/><glyph unicode="c" horiz-adv-x="1011" d="M70 475q0 170 68.5 296T334 963.5t297 66.5q240 0 393-125L924 694q-133 98-277 99-123 0-191.5-82T387 479q0-125 61.5-191.5T618 221q137 0 279 98l64-213q-70-57-165.5-89.5T598-16q-160 0-279.5 61t-184 172T70 475z"/><glyph unicode="d" horiz-adv-x="1255" d="M70 467q0 164 60 292t169 199.5 250 71.5q205 0 307-151l45 565h309L1096 0H791l10 125Q752 59 672 21.5T498-16q-127 0-224.5 58T123 209.5 70 467zm307 18q0-129 58.5-198.5T602 217q107 0 169.5 84T834 524q0 133-57.5 203T612 797q-111 0-173-83t-62-229z"/><glyph unicode="e" horiz-adv-x="1091" d="M70 477q0 162 66.5 288t182 195.5T580 1030q204 0 325-124t121-357q0-49-6-105H367q18-229 251-229 154 0 293 98l66-207q-66-57-168-89.5T596-16q-158 0-276.5 61t-184 173T70 477zm303 121h397q0 111-48 165t-132 54q-182 0-217-219z"/><glyph unicode="f" horiz-adv-x="770" d="M31 774l18 232h191l2 26q16 197 142 299.5T758 1448l112 6 7-227-136-6q-92-4-137-42t-51-124l-4-49h252l-17-232H530L469 0H160l61 774H31z"/><glyph unicode="g" horiz-adv-x="1263" d="M57-260l99 213q201-106 397-107 117 0 180.5 57.5T805 86l6 76q-49-63-128-98T504 29q-129 0-226.5 57T126 247.5 72 492q0 154 60.5 276.5t171 192T555 1030q213 0 311-153l11 129h307l-72-887q-20-260-162.5-382T545-385q-285 0-488 125zm322 764q0-113 59.5-176.5T606 264q109 0 172.5 76T842 545q0 125-58.5 188.5T616 797q-111 0-174-78t-63-215z"/><glyph unicode="h" horiz-adv-x="1218" d="M80 0l113 1444h309l-43-549q53 63 135 99t182 36q168 0 254-93t86-273q0-43-2-66L1067 0H758l47 586q1 17 1 32 0 77-33 119-40 51-124 51-96 0-151.5-60T434 563L389 0H80z"/><glyph unicode="i" horiz-adv-x="546" d="M80 0l80 1006h309L389 0H80zm84 1200l23 289h332l-23-289H164z"/><glyph unicode="j" horiz-adv-x="546" d="M-201-160l115 8q82 6 121 41T80 2l80 1004h309L393 47q-12-147-58-234T188.5-319.5-90-375l-103-6zm363 1360l23 289h332l-23-289H162z"/><glyph unicode="k" horiz-adv-x="1142" d="M80 0l113 1444h309l-68-869 397 429h377L750 518 1153 0H780L424 451 389 0H80z"/><glyph unicode="l" horiz-adv-x="546" d="M80 0l115 1444h309L389 0H80z"/><glyph unicode="m" horiz-adv-x="1812" d="M80 0l80 1004h301l-10-111q117 137 307 137 102 0 176-43t110-125q59 82 147.5 125t194.5 43q158 0 240-93t82-273q0-41-2-64L1659 0h-309l47 592q2 14 2 41 0 155-133 155h-2q-178 0-197-241L1024 0H715l47 590q2 14 2 41 0 157-133 157h-2q-178 0-197-241L389 0H80z"/><glyph unicode="n" horiz-adv-x="1218" d="M80 0l80 1006h301l-10-119q53 68 137 105.5t188 37.5q168 0 254-93t86-273q0-43-2-66L1067 0H758l47 586q1 17 1 32 0 77-33 119-40 51-124 51-96 0-151.5-60T434 563L389 0H80z"/><glyph unicode="o" horiz-adv-x="1204" d="M70 479q0 168 66.5 293t188 191.5T608 1030t281-61.5 183.5-173T1137 535q0-170-66.5-294T882 50.5 598-16 317.5 45t-183 173T70 479zm307-6q0-256 217-256 119 0 177 90t58 236q0 254-217 254-119 0-177-90.5T377 473z"/><glyph unicode="p" horiz-adv-x="1255" d="M49-369l109 1375h305l-10-121q49 68 130 106.5t177 38.5q127 0 224-58.5t150.5-168T1188 547q0-164-60.5-292t-170-199.5T707-16q-205 0-310 153l-39-506H49zm375 858q0-133 57.5-202.5T645 217q111 0 173.5 83T881 526q0 131-58.5 201T655 797q-106 0-168.5-83T424 489z"/><glyph unicode="q" horiz-adv-x="1255" d="M70 467q0 164 60 292t169 199.5 250 71.5q104 0 182-40t127-116l10 132h308L1067-369H758l37 488q-49-63-127-99T498-16q-127 0-224.5 58T123 209.5 70 467zm307 18q0-129 58.5-198.5T602 217q107 0 168 83t61 224q0 135-56 204t-163 69q-111 0-173-83t-62-229z"/><glyph unicode="r" horiz-adv-x="821" d="M80 0l80 1004h295l-11-138q106 143 347 162l71 4-2-256-190-20q-123-12-176.5-65.5T430 524L389 0H80z"/><glyph unicode="s" horiz-adv-x="997" d="M20 106l101 213q84-55 180-85.5T492 203q80 0 117.5 22.5T647 285q0 43-46 65.5T453 403q-109 29-179.5 60t-122 90T100 707q0 94 56.5 167.5t157 114.5 229.5 41q115 0 223-33.5T948 905l-98-205q-74 55-154 83t-159 28q-78 0-119-22.5T377 725q0-43 46-66.5T571 606q109-29 179.5-59.5t122-90T924 303q0-150-118-234.5T485-16h-4Q227-16 20 106z"/><glyph unicode="t" horiz-adv-x="792" d="M31 774l18 232h191l22 294h309l-22-294h252l-17-232H530l-30-379q-1-14-1-27 0-157 160-157 39 0 95 6L719-6q-59-10-115-10-207 0-311.5 90T188 340q0 37 2 55l31 379H31z"/><glyph unicode="u" horiz-adv-x="1206" d="M102 344q0 43 2 66l48 596h309l-47-578q-1-17-1-33-1-77 31-119 38-52 121-51 90 0 144.5 60.5T772 449l45 557h309L1047 0H745l11 129Q703 59 621 21.5T438-16q-164 0-250 92t-86 268z"/><glyph unicode="v" horiz-adv-x="1093" d="M16 1004h314l211-637 309 637h309L637 0H375z"/><glyph unicode="w" horiz-adv-x="1767" d="M37 1006h307l191-637 284 637h209l186-644 289 644h309L1325 0h-262L883 569 627 0H367z"/><glyph unicode="x" horiz-adv-x="1105" d="M-88 0l467 520-363 486h361l192-273 234 273h368L733 516 1116 0H758L541 303 283 0H-88z"/><glyph unicode="y" horiz-adv-x="1093" d="M16 1004h314l211-637 309 637h309L444-369H131L354 57z"/><glyph unicode="z" horiz-adv-x="1052" d="M55 0l19 215 534 559H123l18 232h863l-17-207-543-568h519L946 0H55z"/><glyph unicode="{" horiz-adv-x="839" d="M76 426l16 221 86 8q70 6 99.5 41T313 813l29 358q12 139 84 206t190 67h267l-17-232H731q-41 0-63.5-19t-26.5-69l-29-348q-8-92-63-156.5T424 541q66-16 113-84t38-160L547-49q-2-49 16.5-68.5T625-137h135l-19-232H514q-139 0-211 77T242-96l28 356 2 33q0 61-25.5 90T160 418z"/><glyph unicode="|" horiz-adv-x="593" d="M84-369l143 1813h287L371-369H84z"/><glyph unicode="}" horiz-adv-x="839" d="M-39-369l16 232h136q43 0 65.5 19.5T203-49l26 346q8 92 64.5 157.5T420 537q-66 14-113 80.5T268 776l29 348q4 49-16.5 68.5T217 1212H84l18 232h228q137 0 209.5-77t62.5-196l-31-358q-6-80 18.5-115.5T684 655l84-8-18-221-84-8q-70-6-99.5-42T530 260L500-96q-23-272-291-273H-39z"/><glyph unicode="~" d="M119 537q41 102 122 161.5T416 758q59 0 116.5-21.5T664 676q55-29 91-43.5t68-14.5q51 0 88 30t66 91l149-100q-41-102-122.5-161.5T827 418q-59 0-116.5 21.5T580 500q-61 31-95 45t-65 14q-98 0-152-125z"/><glyph unicode="¡" horiz-adv-x="532" d="M6-369l168 908h186l27-906zM113 678l26 328h332l-27-328H113z"/><glyph unicode="¢" d="M158 475q0 215 107.5 355.5T563 1014l19 235h245l-16-223q178-20 301-121l-100-211q-133 98-275 99-125 0-193.5-82T475 479q0-125 62.5-191.5T707 221q76 0 142 24.5T985 319l64-213q-61-51-145.5-82.5T727-14l-16-222H465l18 248Q329 61 243.5 183T158 475z"/><glyph unicode="£" d="M45 0l21 256h149l29 373H96l13 188h149l18 236q14 186 147.5 297.5T772 1462q139 0 265-42t212-120l-121-227q-190 139-348 139-86 0-134-46t-54-134l-17-215h328l-12-188H559l-29-373h617L1126 0H45z"/><glyph unicode="¤" d="M100 90l109 113q-94 133-94 299t94 299L100 913l117 117 109-112q129 92 286 92 156 0 285-92l111 114 120-121-112-114q92-131 92-295t-94-297l112-115-114-113L903 90Q774-6 612-6 452-6 324 88L215-25zm260 412q0-111 73-190t179-79q68 0 125.5 36t91 98.5T862 502q0 74-34.5 135t-92 97T608 770q-68 0-124-37t-90-98.5T360 502z"/><glyph unicode="¥" d="M27 1444h344l272-496 363 496h344L883 825h237l-14-188H784l-10-127h322l-15-188H758L733 0H416l24 322H121l14 188h322l10 127H145l15 188h235z"/><glyph unicode="¦" horiz-adv-x="593" d="M86-369l53 684h287l-53-684H86zm88 1129l53 684h287l-53-684H174z"/><glyph unicode="§" horiz-adv-x="1187" d="M55-258L156-45q164-111 340-111 98 0 151 38t53 104q0 45-27.5 78.5T582 131L326 266q-131 68-192.5 151T72 610q0 94 42 174t119 140q-41 70-40 145 0 184 139 286.5T688 1458q233 0 410-121l-99-204q-63 47-141 73.5T700 1233q-102 0-154-36t-52-103q0-86 116-148l256-135q131-70 193.5-153t62.5-191q0-94-41-174T963 156q39-70 38-148 0-186-135-288.5T506-383q-133 0-249 33T55-258zm295 938q0-111 148-193l264-143 51-31q27 41 27 82 0 59-35 105.5T694 592L432 739l-51 31q-31-51-31-90z"/><glyph unicode="¨" horiz-adv-x="614" d="M26 1208l21 271h284l-22-271H26zm389 0l23 271h282l-20-271H415z"/><glyph unicode="©" horiz-adv-x="1669" d="M102 723q0 205 96.5 372T463 1358t373 96 371.5-96 263-263 96.5-372-96.5-372T1206 87 836-10q-205 0-373 97T198.5 351 102 723zm136 0q0-172 76.5-310.5t213-217T836 117q170 0 306 78.5t213 217 77 310.5-77 309-213 216-306 79q-172 0-308.5-79t-213-216T238 723zm182 0q0 201 119.5 320.5T866 1163q94 0 176-24.5t140-71.5l-68-190q-37 29-95 50t-112 21q-98 0-153.5-58.5T698 723q0-111 55.5-169T907 496q53 0 111.5 21.5T1114 567l68-190q-59-47-141.5-71.5T866 281q-207 0-326.5 119.5T420 723z"/><glyph unicode="ª" horiz-adv-x="694" d="M74 1010q0 96 78.5 139t250.5 43h60l2 20q2 33-17.5 46.5T381 1272q-98 0-199-47l-32 176q123 53 276 53 145 0 212-64.5t67-191.5q0-33-3-49l-24-318H438l8 99q-53-109-178-109-82 0-138 56.5T74 1010zm229 20q0-23 16.5-35t42.5-12q37 0 63 22.5t28 61.5l2 12h-68q-84 0-84-49z"/><glyph unicode="«" horiz-adv-x="1075" d="M125 469l12 152 234 331 200-96-174-311 121-316-205-90zm455 0l12 152 234 331 200-96-174-311 121-316-205-90z"/><glyph unicode="¬" d="M129 688l18 211h1000l-49-623H881l30 412H129z"/><glyph unicode="­" horiz-adv-x="901" d="M129 428l18 242h633l-18-242H129z"/><glyph unicode="®" horiz-adv-x="1669" d="M121 723q0 205 96 372t264 263 373 96 372-96 263-263 96-372-96-372-264-264-371-97q-205 0-372 97T218 351t-97 372zm135 0q0-172 78-310.5t214-217T854 117t306 78.5 213 217 77 310.5-77 310-213 216-306 78-307-78-214-216-77-310zm207-432l67 866h394q158 0 242.5-68.5T1251 897q0-106-57-179t-158-100q43-8 76-34.5t51-67.5l103-225H958L846 569q-14 31-41 31h-47l-25-309H463zm307 497h119q53 0 77.5 23t24.5 70q0 37-25.5 54T887 952H782z"/><glyph unicode="¯" horiz-adv-x="614" d="M47 1247l14 193h641l-14-193H47z"/><glyph unicode="°" horiz-adv-x="753" d="M115 1145q0 88 41 158.5T268.5 1414t159.5 40 159.5-40T700 1303.5t41-158.5q0-86-41-156.5T587.5 878 428 838t-159.5 40T156 988.5 115 1145zm168 0q0-66 42-109t103-43 103 43 42 109q0 68-42 110.5T428 1298t-103-43-42-110z"/><glyph unicode="±" d="M76 0l16 211h1000L1075 0H76zm45 584l18 213h393l23 290h213l-25-290h396l-19-213H727l-25-291H492l22 291H121z"/><glyph unicode="²" horiz-adv-x="778" d="M98 578l15 193 290 280q45 45 63.5 75t18.5 60q0 68-102 68-53 0-112.5-19.5T160 1182l-27 191q55 37 140 58t165 21q141 0 228.5-65.5T754 1213q0-80-41-148.5T563 908L414 785h323l-16-207H98z"/><glyph unicode="³" horiz-adv-x="778" d="M65 648l56 190q133-72 258-72 59 0 91 21.5t32 60.5q0 66-101 66H250l16 201h121q115 0 115 71 0 68-103 68-119 0-239-72l-27 191q57 37 140 58t165 21q143 0 229.5-63t86.5-168q0-72-39-123t-113-76q68-22 105.5-70T745 838q0-123-95-196.5T395 568q-90 0-180 22.5T65 648z"/><glyph unicode="´" horiz-adv-x="614" d="M262 1137l225 419h317l-350-419H262z"/><glyph unicode="µ" horiz-adv-x="1206" d="M43-369l109 1375h309l-47-578q-8-100 30.5-151.5T565 225q90 0 144.5 60.5T772 449l45 557h309L1047 0H745l11 129Q703 59 621 21.5T438-16q-23 0-59 4l-27-357H43z"/><glyph unicode="¶" horiz-adv-x="1290" d="M102 958q0 143 58.5 253t170 171.5T594 1444h625L1075-369H870l129 1629H782L653-369H446l74 912q-186 4-302 115.5T102 958z"/><glyph unicode="·" horiz-adv-x="532" d="M90 385l27 328h332l-27-328H90z"/><glyph unicode="¸" horiz-adv-x="614" d="M20-367l31 119q92-29 166-28 90 0 90 53 0 39-61 39-35 0-76-13l-37 43 41 195h166L313-82h15q75 0 122.5-37T498-221q0-78-73-130t-200-52q-55 0-109.5 9T20-367z"/><glyph unicode="¹" horiz-adv-x="778" d="M135 1274l328 170h188l-53-659h164l-15-207H154l16 207h164l28 379-143-74z"/><glyph unicode="º" horiz-adv-x="765" d="M80 1112q0 158 101.5 250t271.5 92q154 0 243.5-80t89.5-213q0-156-102-248t-268-92q-154 0-245 80t-91 211zm254 14q0-49 24.5-77.5T428 1020q51 0 81 36t30 97q0 49-27 76.5t-70 27.5q-51 0-79.5-33.5T334 1126z"/><glyph unicode="»" horiz-adv-x="1062" d="M53 231l178 314-122 313 208 90 187-327-12-152-238-332zm455 0l178 314-122 313 208 90 187-327-12-152-238-332z"/><glyph unicode="¼" horiz-adv-x="1966" d="M135 1274l328 170h188l-53-660h164l-14-206H154l16 206h164l28 379-143-73zM434 66l950 1439 182-127L618-61zm754 63l12 182 453 555h207l-43-547h121l-15-190h-121L1792 0h-233l10 129h-381zm225 190h170l17 226z"/><glyph unicode="½" horiz-adv-x="1966" d="M135 1274l328 170h188l-53-660h164l-14-206H154l16 206h164l28 379-143-73zM434 66l950 1439 182-127L618-61zm807-66l15 193 290 280q45 45 63.5 75t18.5 60q0 68-102 68-53 0-112.5-19.5T1303 604l-27 191q55 37 140 58t165 21q141 0 228.5-65.5T1897 635q0-80-41-148.5T1706 330l-149-123h323L1864 0h-623z"/><glyph unicode="¾" horiz-adv-x="1966" d="M66 647l55 191q133-72 258-72 59 0 91 21.5t32 60.5q0 66-101 65H250l16 201h121q115 0 115 72 0 68-103 67-119 0-239-71l-27 190q57 37 140 58.5t165 21.5q143 0 229.5-63.5T754 1221q0-72-39-123t-113-76q68-23 105.5-71T745 838q0-123-95-197t-255-74q-90 0-180 22.5T66 647zM434 66l950 1439 182-127L618-61zm754 63l12 182 453 555h207l-43-547h121l-15-190h-121L1792 0h-233l10 129h-381zm225 190h170l17 226z"/><glyph unicode="¿" horiz-adv-x="958" d="M-25-61q0 84 33 145t81 104 124 97q82 59 124 100t56 96l17 68h180l-8-105q-8-102-53.5-164.5T403 150q-57-51-84.5-86T291-18q0-55 42-86t113-31q176 0 373 139l84-227q-98-80-223-121t-268-41q-131 0-230.5 41t-153 114.5T-25-61zm365 739l27 328h331l-26-328H340z"/><glyph unicode="À" horiz-adv-x="1538" d="M-61 0l776 1444h256L1522 0h-310l-112 319H428L266 0H-61zm544 1886h270l195-319H756zm66-1325h465l-191 543z"/><glyph unicode="Á" horiz-adv-x="1538" d="M-61 0l776 1444h256L1522 0h-310l-112 319H428L266 0H-61zm610 561h465l-191 543zm207 1006l227 319h301l-336-319H756z"/><glyph unicode="Â" horiz-adv-x="1538" d="M-61 0l776 1444h256L1522 0h-310l-112 319H428L266 0H-61zm554 1567l295 319h176l246-319H979l-107 174-147-174H493zm56-1006h465l-191 543z"/><glyph unicode="Ã" horiz-adv-x="1538" d="M-61 0l776 1444h256L1522 0h-310l-112 319H428L266 0H-61zm558 1581q9 154 76.5 226.5T741 1880q39 0 74-15.5t80-45.5q39-25 62.5-36t47.5-11q39 0 64.5 25.5t30.5 76.5h133q-8-154-77-226.5T987 1575q-39 0-73 15.5t-79 43.5q-39 25-62.5 36t-47.5 11q-39 0-64.5-24.5T631 1581H497zm52-1020h465l-191 543z"/><glyph unicode="Ä" horiz-adv-x="1538" d="M-61 0l776 1444h256L1522 0h-310l-112 319H428L266 0H-61zm579 1593l20 269h285l-22-269H518zm31-1032h465l-191 543zm358 1032l23 269h282l-20-269H907z"/><glyph unicode="Å" horiz-adv-x="1538" d="M-25 72l736 1351q-78 68-78 170 0 92 64.5 155.5T856 1812t158.5-63 64.5-156q0-72-39-127t-102-80l57-14L1516 0l-326 68-88 251H424L260 0zm572 489h469l-191 545zm221 1032q0-41 24.5-67.5T856 1499t63.5 26.5T944 1593q0 39-24.5 66t-63.5 27-63.5-27-24.5-66z"/><glyph unicode="Æ" horiz-adv-x="2048" d="M-102 0L920 1444h1126l-18-248h-793l49-338h676l-18-248h-623l53-362h582L1933 0h-813l-45 319H465L250 0h-352zm729 561h413l-73 508z"/><glyph unicode="Ç" horiz-adv-x="1388" d="M119 674q0 238 93 416t263 275 397 97q147 0 276.5-42t225.5-124l-119-227q-92 72-180 104.5T885 1206q-209 0-325-142T444 674q0-213 94.5-324.5T813 238t387 137l84-228q-76-73-198.5-117T827-18l-14-64h14q76 0 123-37t47-102q0-78-72.5-130T725-403q-55 0-109.5 9T520-367l31 119q92-29 166-28 90 0 90 53 0 39-62 39-35 0-75-13l-37 43L664-8Q408 33 263.5 212T119 674z"/><glyph unicode="È" horiz-adv-x="1214" d="M104 0l115 1444h995l-18-248H510l-27-338h643l-20-248H465l-29-362h684L1100 0H104zm289 1886h270l195-319H666z"/><glyph unicode="É" horiz-adv-x="1214" d="M104 0l115 1444h995l-18-248H510l-27-338h643l-20-248H465l-29-362h684L1100 0H104zm562 1567l227 319h301l-336-319H666z"/><glyph unicode="Ê" horiz-adv-x="1214" d="M104 0l115 1444h995l-18-248H510l-27-338h643l-20-248H465l-29-362h684L1100 0H104zm299 1567l295 319h176l246-319H889l-107 174-147-174H403z"/><glyph unicode="Ë" horiz-adv-x="1214" d="M104 0l115 1444h995l-18-248H510l-27-338h643l-20-248H465l-29-362h684L1100 0H104zm324 1593l20 269h285l-22-269H428zm389 0l23 269h282l-20-269H817z"/><glyph unicode="Ì" horiz-adv-x="606" d="M20 1886h270l195-319H293zM104 0l113 1444h320L424 0H104z"/><glyph unicode="Í" horiz-adv-x="606" d="M104 0l113 1444h320L424 0H104zm189 1567l227 319h301l-336-319H293z"/><glyph unicode="Î" horiz-adv-x="606" d="M30 1567l295 319h176l246-319H516l-107 174-147-174H30zM104 0l113 1444h320L424 0H104z"/><glyph unicode="Ï" horiz-adv-x="606" d="M55 1593l20 269h285l-22-269H55zM104 0l113 1444h320L424 0H104zm340 1593l23 269h282l-20-269H444z"/><glyph unicode="Ð" horiz-adv-x="1624" d="M39 608l18 242h174l48 594h557q217 0 375.5-82t243.5-233.5 85-358.5q0-242-93-415T1176.5 91 752 0H166l47 608H39zm465-350h221q250 0 373 127t123 387q0 203-107.5 308.5T795 1186H578l-27-336h381l-21-242H532z"/><glyph unicode="Ñ" horiz-adv-x="1540" d="M104 0l115 1444h236l645-907 71 907h299L1356 0h-238L475 905 401 0H104zm395 1581q9 154 76.5 226.5T743 1880q39 0 74-15.5t80-45.5q39-25 62.5-36t47.5-11q39 0 64.5 25.5t30.5 76.5h133q-8-154-77-226.5T989 1575q-39 0-73 15.5t-79 43.5q-39 25-62.5 36t-47.5 11q-39 0-64.5-24.5T633 1581H499z"/><glyph unicode="Ò" horiz-adv-x="1611" d="M119 674q0 236 88 415t251 277 376 98q211 0 368.5-84t242.5-240.5 85-369.5q0-236-89-415T1190 78 813-20q-211 0-367.5 83.5T204 304t-85 370zm319 0q0-213 96.5-329T811 229q184 0 291.5 143.5T1210 770q0 213-97 328.5T838 1214q-186 0-293-144T438 674zm82 1212h270l195-319H793z"/><glyph unicode="Ó" horiz-adv-x="1611" d="M119 674q0 236 88 415t251 277 376 98q211 0 368.5-84t242.5-240.5 85-369.5q0-236-89-415T1190 78 813-20q-211 0-367.5 83.5T204 304t-85 370zm319 0q0-213 96.5-329T811 229q184 0 291.5 143.5T1210 770q0 213-97 328.5T838 1214q-186 0-293-144T438 674zm355 893l227 319h301l-336-319H793z"/><glyph unicode="Ô" horiz-adv-x="1611" d="M119 674q0 236 88 415t251 277 376 98q211 0 368.5-84t242.5-240.5 85-369.5q0-236-89-415T1190 78 813-20q-211 0-367.5 83.5T204 304t-85 370zm319 0q0-213 96.5-329T811 229q184 0 291.5 143.5T1210 770q0 213-97 328.5T838 1214q-186 0-293-144T438 674zm92 893l295 319h176l246-319h-231l-107 174-147-174H530z"/><glyph unicode="Õ" horiz-adv-x="1611" d="M119 674q0 236 88 415t251 277 376 98q211 0 368.5-84t242.5-240.5 85-369.5q0-236-89-415T1190 78 813-20q-211 0-367.5 83.5T204 304t-85 370zm319 0q0-213 96.5-329T811 229q184 0 291.5 143.5T1210 770q0 213-97 328.5T838 1214q-186 0-293-144T438 674zm96 907q9 154 76.5 226.5T778 1880q39 0 74-15.5t80-45.5q39-25 62.5-36t47.5-11q39 0 64.5 25.5t30.5 76.5h133q-8-154-77-226.5t-169-72.5q-39 0-73 15.5t-79 43.5q-39 25-62.5 36t-47.5 11q-39 0-64.5-24.5T668 1581H534z"/><glyph unicode="Ö" horiz-adv-x="1611" d="M119 674q0 236 88 415t251 277 376 98q211 0 368.5-84t242.5-240.5 85-369.5q0-236-89-415T1190 78 813-20q-211 0-367.5 83.5T204 304t-85 370zm319 0q0-213 96.5-329T811 229q184 0 291.5 143.5T1210 770q0 213-97 328.5T838 1214q-186 0-293-144T438 674zm117 919l20 269h285l-22-269H555zm389 0l23 269h282l-20-269H944z"/><glyph unicode="×" d="M158 258l317 326-307 334 162 149 301-326 317 326 137-149-317-326 307-334-162-149-301 325-317-325z"/><glyph unicode="Ø" horiz-adv-x="1611" d="M119 674q0 236 88 415t251 277 376 98q172 0 307-55l114 174 193-123-115-174q97-90 147-221t50-295q0-236-89-415T1190 78 813-20q-174 0-305 55L393-139 199-16l114 174q-94 92-144 223t-50 293zm319 0q0-152 49-254l506 766q-70 29-155 28-186 0-293-144T438 674zm217-416q70-29 156-29 184 0 291.5 143.5T1210 770q0 154-49 254z"/><glyph unicode="Ù" horiz-adv-x="1513" d="M139 530q0 27 4 84l66 830h313l-65-838q-2-23-2-63 0-158 75.5-236T762 229q137 0 215 79t92 257l70 879h313l-68-856q-23-301-184.5-453.5T745-18q-301 0-453.5 138T139 530zm332 1356h270l195-319H744z"/><glyph unicode="Ú" horiz-adv-x="1513" d="M139 530q0 27 4 84l66 830h313l-65-838q-2-23-2-63 0-158 75.5-236T762 229q137 0 215 79t92 257l70 879h313l-68-856q-23-301-184.5-453.5T745-18q-301 0-453.5 138T139 530zm605 1037l227 319h301l-336-319H744z"/><glyph unicode="Û" horiz-adv-x="1513" d="M139 530q0 27 4 84l66 830h313l-65-838q-2-23-2-63 0-158 75.5-236T762 229q137 0 215 79t92 257l70 879h313l-68-856q-23-301-184.5-453.5T745-18q-301 0-453.5 138T139 530zm342 1037l295 319h176l246-319H967l-107 174-147-174H481z"/><glyph unicode="Ü" horiz-adv-x="1513" d="M139 530q0 27 4 84l66 830h313l-65-838q-2-23-2-63 0-158 75.5-236T762 229q137 0 215 79t92 257l70 879h313l-68-856q-23-301-184.5-453.5T745-18q-301 0-453.5 138T139 530zm367 1063l20 269h285l-22-269H506zm389 0l23 269h282l-20-269H895z"/><glyph unicode="Ý" horiz-adv-x="1302" d="M-31 1444h357l354-533 436 533h367L823 653 772 0H453l51 653zm670 123l227 319h301l-336-319H639z"/><glyph unicode="Þ" horiz-adv-x="1370" d="M104 0l115 1444h313l-22-291h362q213 0 332-103.5T1323 760q0-215-127-331T834 313H442L418 0H104zm359 555h344q219 0 219 186 0 86-47 127t-143 41H489z"/><glyph unicode="ß" horiz-adv-x="1390" d="M80 0l72 911q20 270 170.5 409.5T739 1460q199 0 311.5-74.5T1163 1182q0-90-43-153.5T999 891q-53-51-77.5-84T897 739q0-37 37-59.5t115-48.5q90-31 146-61.5t98-88 42-149.5q0-102-53-181T1129.5 28 893-16q-113 0-219.5 32.5T487 106l99 213q174-109 334-108 61 0 96 23.5t35 66.5q0 41-40 64.5T889 416q-90 33-144.5 60.5T650 557t-40 137q0 80 39 138.5T766 971q53 51 79.5 87t26.5 72q0 109-149 109-238 0-258-283L389 0H80z"/><glyph unicode="à" horiz-adv-x="1118" d="M63 281q0 115 58.5 184.5t185.5 101T645 598h74l2 27q6 90-36 132t-138 42q-76 0-163-27t-165-74l-67 207q84 55 208.5 90t243.5 35q207 0 308.5-95T1014 647q0-45-2-67L967 0H674l10 137Q645 63 575.5 23.5T414-16q-100 0-180 38.5T108.5 129 63 281zm193 1275h287l176-419H527zM365 313q0-53 36.5-84.5T500 197q84 0 140 60t65 157l2 35h-56q-160 0-223-31t-63-105z"/><glyph unicode="á" horiz-adv-x="1118" d="M63 281q0 115 58.5 184.5t185.5 101T645 598h74l2 27q6 90-36 132t-138 42q-76 0-163-27t-165-74l-67 207q84 55 208.5 90t243.5 35q207 0 308.5-95T1014 647q0-45-2-67L967 0H674l10 137Q645 63 575.5 23.5T414-16q-100 0-180 38.5T108.5 129 63 281zm302 32q0-53 36.5-84.5T500 197q84 0 140 60t65 157l2 35h-56q-160 0-223-31t-63-105zm162 824l225 419h317l-350-419H527z"/><glyph unicode="â" horiz-adv-x="1118" d="M63 281q0 115 58.5 184.5t185.5 101T645 598h74l2 27q6 90-36 132t-138 42q-76 0-163-27t-165-74l-67 207q84 55 208.5 90t243.5 35q207 0 308.5-95T1014 647q0-45-2-67L967 0H674l10 137Q645 63 575.5 23.5T414-16q-100 0-180 38.5T108.5 129 63 281zm202 856l299 419h184l233-419H748l-107 237-131-237H265zm100-824q0-53 36.5-84.5T500 197q84 0 140 60t65 157l2 35h-56q-160 0-223-31t-63-105z"/><glyph unicode="ã" horiz-adv-x="1118" d="M63 281q0 115 58.5 184.5t185.5 101T645 598h74l2 27q6 90-36 132t-138 42q-76 0-163-27t-165-74l-67 207q84 55 208.5 90t243.5 35q207 0 308.5-95T1014 647q0-45-2-67L967 0H674l10 137Q645 63 575.5 23.5T414-16q-100 0-180 38.5T108.5 129 63 281zm208 921q8 154 75.5 226.5T506 1501q43 0 80-16.5t86-46.5q43-25 64.5-35t44.5-10q39 0 63.5 25.5T875 1495h133q-10-154-76.5-226.5T773 1196q-41 0-77 15.5t-89 45.5q-43 25-64.5 35.5T498 1303q-82 0-94-101H271zm94-889q0-53 36.5-84.5T500 197q84 0 140 60t65 157l2 35h-56q-160 0-223-31t-63-105z"/><glyph unicode="ä" horiz-adv-x="1118" d="M63 281q0 115 58.5 184.5t185.5 101T645 598h74l2 27q6 90-36 132t-138 42q-76 0-163-27t-165-74l-67 207q84 55 208.5 90t243.5 35q207 0 308.5-95T1014 647q0-45-2-67L967 0H674l10 137Q645 63 575.5 23.5T414-16q-100 0-180 38.5T108.5 129 63 281zm228 927l21 271h284l-22-271H291zm74-895q0-53 36.5-84.5T500 197q84 0 140 60t65 157l2 35h-56q-160 0-223-31t-63-105zm315 895l23 271h282l-20-271H680z"/><glyph unicode="å" horiz-adv-x="1118" d="M63 281q0 115 58.5 184.5t185.5 101T645 598h74l2 27q6 90-36 132t-138 42q-76 0-163-27t-165-74l-67 207q84 55 208.5 90t243.5 35q207 0 308.5-95T1014 647q0-45-2-67L967 0H674l10 137Q645 63 575.5 23.5T414-16q-100 0-180 38.5T108.5 129 63 281zm302 32q0-53 36.5-84.5T500 197q84 0 140 60t65 157l2 35h-56q-160 0-223-31t-63-105zm51 1035q0 92 64.5 155.5T639 1567t159-63.5 65-155.5q0-94-64.5-158T639 1126q-94 0-158.5 63.5T416 1348zm135 0q0-41 24.5-68t63.5-27 63.5 27 24.5 68q0 39-24.5 65.5T639 1440t-63.5-27-24.5-65z"/><glyph unicode="æ" horiz-adv-x="1714" d="M63 281q0 115 58.5 184.5t185.5 101T645 598h72l2 27q6 90-37 132t-139 42q-72 0-159-27t-165-74l-67 207q84 55 208.5 90t243.5 35q213 0 307-123 61 59 143.5 91t174.5 32q190 0 306-126t116-357q0-49-6-103h-641q8-115 71.5-172t173.5-57q147 0 285 98l65-207q-63-57-165.5-89.5T1227-16q-141 0-244.5 52T819 186Q760 88 660.5 36T438-16q-168 0-271.5 83T63 281zm302 26q0-49 36.5-79.5T498 197q82 0 139 60t65 157l3 35h-54q-160 0-223-32t-63-110zm645 291h383q2 109-43 164t-123 55q-182 0-217-219z"/><glyph unicode="ç" horiz-adv-x="1011" d="M70 475q0 170 68.5 296T334 963.5t297 66.5q240 0 393-125L924 694q-133 98-277 99-123 0-191.5-82T387 479q0-125 61.5-191.5T618 221q137 0 279 98l64-213q-68-57-162-88.5T604-16l-14-66h14q76 0 123-37t47-102q0-78-72.5-130T502-403q-55 0-109.5 9T297-367l31 119q92-29 166-28 90 0 90 53 0 39-62 39-35 0-76-13l-36 43L442 0Q268 39 169 166T70 475z"/><glyph unicode="è" horiz-adv-x="1091" d="M70 477q0 162 66.5 288t182 195.5T580 1030q204 0 325-124t121-357q0-49-6-105H367q18-229 251-229 154 0 293 98l66-207q-66-57-168-89.5T596-16q-158 0-276.5 61t-184 173T70 477zm179 1079h287l176-419H520zm124-958h397q0 111-48 165t-132 54q-182 0-217-219z"/><glyph unicode="é" horiz-adv-x="1091" d="M70 477q0 162 66.5 288t182 195.5T580 1030q204 0 325-124t121-357q0-49-6-105H367q18-229 251-229 154 0 293 98l66-207q-66-57-168-89.5T596-16q-158 0-276.5 61t-184 173T70 477zm303 121h397q0 111-48 165t-132 54q-182 0-217-219zm147 539l225 419h317l-350-419H520z"/><glyph unicode="ê" horiz-adv-x="1091" d="M70 477q0 162 66.5 288t182 195.5T580 1030q204 0 325-124t121-357q0-49-6-105H367q18-229 251-229 154 0 293 98l66-207q-66-57-168-89.5T596-16q-158 0-276.5 61t-184 173T70 477zm188 660l299 419h184l233-419H741l-107 237-131-237H258zm115-539h397q0 111-48 165t-132 54q-182 0-217-219z"/><glyph unicode="ë" horiz-adv-x="1091" d="M70 477q0 162 66.5 288t182 195.5T580 1030q204 0 325-124t121-357q0-49-6-105H367q18-229 251-229 154 0 293 98l66-207q-66-57-168-89.5T596-16q-158 0-276.5 61t-184 173T70 477zm214 731l21 271h284l-22-271H284zm89-610h397q0 111-48 165t-132 54q-182 0-217-219zm300 610l23 271h282l-20-271H673z"/><glyph unicode="ì" horiz-adv-x="546" d="M-41 1556h287l176-419H230zM80 0l80 1006h309L389 0H80z"/><glyph unicode="í" horiz-adv-x="546" d="M80 0l80 1006h309L389 0H80zm150 1137l225 419h317l-350-419H230z"/><glyph unicode="î" horiz-adv-x="546" d="M-32 1137l299 419h184l233-419H451l-107 237-131-237H-32zM80 0l80 1006h309L389 0H80z"/><glyph unicode="ï" horiz-adv-x="546" d="M-6 1208l21 271h284l-22-271H-6zM80 0l80 1006h309L389 0H80zm303 1208l23 271h282l-20-271H383z"/><glyph unicode="ð" horiz-adv-x="1216" d="M66 438q0 150 66.5 261.5t183 172T578 932q186 0 284-101-31 129-114 226l-367-99-31 158 242 64q-102 57-230 75l84 211q272-39 453-202l262 69 31-157-174-48q141-209 141-477 0-342-153.5-504.5T594-16q-162 0-280.5 56t-183 158.5T66 438zm307 2q0-98 56-159.5T590 219q119 0 177 75t58 191q0 100-56 158.5T608 702q-119 0-177-73.5T373 440z"/><glyph unicode="ñ" horiz-adv-x="1218" d="M80 0l80 1006h301l-10-119q53 68 137 105.5t188 37.5q168 0 254-93t86-273q0-43-2-66L1067 0H758l47 586q8 100-32 151t-124 51q-96 0-151.5-60T434 563L389 0H80zm232 1202q8 154 75.5 226.5T547 1501q43 0 80-16.5t86-46.5q43-25 64.5-35t44.5-10q39 0 63.5 25.5T916 1495h133q-10-154-76.5-226.5T814 1196q-41 0-77 15.5t-89 45.5q-43 25-64.5 35.5T539 1303q-82 0-94-101H312z"/><glyph unicode="ò" horiz-adv-x="1204" d="M70 479q0 168 66.5 293t188 191.5T608 1030t281-61.5 183.5-173T1137 535q0-170-66.5-294T882 50.5 598-16 317.5 45t-183 173T70 479zm216 1077h287l176-419H557zm91-1083q0-256 217-256 119 0 177 90t58 236q0 254-217 254-119 0-177-90.5T377 473z"/><glyph unicode="ó" horiz-adv-x="1204" d="M70 479q0 168 66.5 293t188 191.5T608 1030t281-61.5 183.5-173T1137 535q0-170-66.5-294T882 50.5 598-16 317.5 45t-183 173T70 479zm307-6q0-256 217-256 119 0 177 90t58 236q0 254-217 254-119 0-177-90.5T377 473zm180 664l225 419h317l-350-419H557z"/><glyph unicode="ô" horiz-adv-x="1204" d="M70 479q0 168 66.5 293t188 191.5T608 1030t281-61.5 183.5-173T1137 535q0-170-66.5-294T882 50.5 598-16 317.5 45t-183 173T70 479zm225 658l299 419h184l233-419H778l-107 237-131-237H295zm82-664q0-256 217-256 119 0 177 90t58 236q0 254-217 254-119 0-177-90.5T377 473z"/><glyph unicode="õ" horiz-adv-x="1204" d="M70 479q0 168 66.5 293t188 191.5T608 1030t281-61.5 183.5-173T1137 535q0-170-66.5-294T882 50.5 598-16 317.5 45t-183 173T70 479zm231 723q8 154 75.5 226.5T536 1501q43 0 80-16.5t86-46.5q43-25 64.5-35t44.5-10q39 0 63.5 25.5T905 1495h133q-10-154-76.5-226.5T803 1196q-41 0-77 15.5t-89 45.5q-43 25-64.5 35.5T528 1303q-82 0-94-101H301zm76-729q0-256 217-256 119 0 177 90t58 236q0 254-217 254-119 0-177-90.5T377 473z"/><glyph unicode="ö" horiz-adv-x="1204" d="M70 479q0 168 66.5 293t188 191.5T608 1030t281-61.5 183.5-173T1137 535q0-170-66.5-294T882 50.5 598-16 317.5 45t-183 173T70 479zm251 729l21 271h284l-22-271H321zm56-735q0-256 217-256 119 0 177 90t58 236q0 254-217 254-119 0-177-90.5T377 473zm333 735l23 271h282l-20-271H710z"/><glyph unicode="÷" d="M115 481l16 211h997l-16-211H115zM446 63l21 246h242L688 63H446zm64 791l18 246h242l-18-246H510z"/><glyph unicode="ø" horiz-adv-x="1204" d="M70 479q0 168 66.5 293t188 191.5T608 1030q121 0 219-35l99 148 137-86-92-142q80-65 123-162.5t43-217.5q0-170-66.5-294T882 50.5 598-16q-121 0-219 34l-98-147-140 86 95 141q-80 68-123 164T70 479zm301-6q0-84 20-137l301 452q-41 10-80 11-123 0-182-90.5T371 473zm143-248q41-10 80-10 125 0 183.5 90T836 543q0 86-23 137z"/><glyph unicode="ù" horiz-adv-x="1206" d="M102 344q0 43 2 66l48 596h309l-47-578q-8-100 30.5-151.5T565 225q90 0 144.5 60.5T772 449l45 557h309L1047 0H745l11 129Q703 59 621 21.5T438-16q-164 0-250 92t-86 268zm182 1212h287l176-419H555z"/><glyph unicode="ú" horiz-adv-x="1206" d="M102 344q0 43 2 66l48 596h309l-47-578q-8-100 30.5-151.5T565 225q90 0 144.5 60.5T772 449l45 557h309L1047 0H745l11 129Q703 59 621 21.5T438-16q-164 0-250 92t-86 268zm453 793l225 419h317l-350-419H555z"/><glyph unicode="û" horiz-adv-x="1206" d="M102 344q0 43 2 66l48 596h309l-47-578q-8-100 30.5-151.5T565 225q90 0 144.5 60.5T772 449l45 557h309L1047 0H745l11 129Q703 59 621 21.5T438-16q-164 0-250 92t-86 268zm191 793l299 419h184l233-419H776l-107 237-131-237H293z"/><glyph unicode="ü" horiz-adv-x="1206" d="M102 344q0 43 2 66l48 596h309l-47-578q-8-100 30.5-151.5T565 225q90 0 144.5 60.5T772 449l45 557h309L1047 0H745l11 129Q703 59 621 21.5T438-16q-164 0-250 92t-86 268zm217 864l21 271h284l-22-271H319zm389 0l23 271h282l-20-271H708z"/><glyph unicode="ý" horiz-adv-x="1093" d="M16 1004h314l211-637 309 637h309L444-369H131L354 57zm486 133l225 419h317l-350-419H502z"/><glyph unicode="þ" horiz-adv-x="1255" d="M49-369l144 1813h309l-45-555q49 66 129 103.5t174 37.5q127 0 224-58.5t150.5-168T1188 547q0-164-60.5-292t-170-199.5T707-16q-205 0-310 153l-39-506H49zm375 858q0-133 57.5-202.5T645 217q111 0 173.5 83T881 526q0 131-58.5 201T655 797q-106 0-168.5-83T424 489z"/><glyph unicode="ÿ" horiz-adv-x="1093" d="M16 1004h314l211-637 309 637h309L444-369H131L354 57zm250 204l21 271h284l-22-271H266zm389 0l23 271h282l-20-271H655z"/><glyph unicode="Œ" horiz-adv-x="2138" d="M119 674q0 242 93 415t270 264 425 91h1231l-18-248h-686l-27-338h643l-20-248h-641l-29-362h684L2023 0H823Q606 0 447.5 82T204 315.5 119 674zm319-2q0-205 108.5-314.5T862 248h187l73 948H934q-496 0-496-524z"/><glyph unicode="œ" horiz-adv-x="1839" d="M70 479q0 168 66.5 293t186 191.5T598 1030q270 0 393-160 63 78 153.5 119t203.5 41q192 0 310-125t118-354q0-51-7-107h-641q8-115 72-172t174-57q147 0 285 98l67-207q-66-57-167-89.5T1352-16q-125 0-221.5 45T971 154Q842-16 582-16q-154 0-269.5 61t-179 174T70 479zm307-6q0-256 217-256 115 0 172 90t57 236q0 254-211 254-119 0-177-90.5T377 473zm758 125h385q0 109-45 164t-123 55q-182 0-217-219z"/><glyph unicode="Ÿ" horiz-adv-x="1302" d="M-31 1444h357l354-533 436 533h367L823 653 772 0H453l51 653zm432 149l20 269h285l-22-269H401zm389 0l23 269h282l-20-269H790z"/><glyph unicode="ˆ" horiz-adv-x="614" d="M0 1137l299 419h184l233-419H483l-107 237-131-237H0z"/><glyph unicode="˜" horiz-adv-x="614" d="M6 1202q8 154 75.5 226.5T241 1501q43 0 80-16.5t86-46.5q43-25 64.5-35t44.5-10q39 0 63.5 25.5T610 1495h133q-10-154-76.5-226.5T508 1196q-41 0-77 15.5t-89 45.5q-43 25-64.5 35.5T233 1303q-82 0-94-101H6z"/><glyph horiz-adv-x="943"/><glyph horiz-adv-x="1886"/><glyph horiz-adv-x="943"/><glyph horiz-adv-x="1886"/><glyph horiz-adv-x="628"/><glyph horiz-adv-x="471"/><glyph horiz-adv-x="314"/><glyph horiz-adv-x="314"/><glyph horiz-adv-x="235"/><glyph horiz-adv-x="377"/><glyph horiz-adv-x="104"/><glyph unicode="‐" horiz-adv-x="901" d="M129 428l18 242h633l-18-242H129z"/><glyph unicode="‑" horiz-adv-x="901" d="M129 428l18 242h633l-18-242H129z"/><glyph unicode="‒" horiz-adv-x="901" d="M129 428l18 242h633l-18-242H129z"/><glyph unicode="–" horiz-adv-x="1024" d="M-4 459l14 180h1024l-14-180H-4z"/><glyph unicode="—" horiz-adv-x="2048" d="M-4 459l14 180h2048l-14-180H-4z"/><glyph unicode="‘" horiz-adv-x="532" d="M127 838l16 211q10 117 60.5 214T360 1460l113-96q-111-104-139-199h151l-26-327H127z"/><glyph unicode="’" horiz-adv-x="532" d="M147 1116l27 328h332l-17-211q-10-119-59-215T272 821l-110 97q111 104 139 198H147z"/><glyph unicode="‚" horiz-adv-x="532" d="M61 0l27 328h330l-15-203Q393 4 343-94.5T186-295L72-199Q185-93 213 0H61z"/><glyph unicode="“" horiz-adv-x="956" d="M127 838l16 211q10 117 60.5 214T360 1460l113-96q-111-104-139-199h151l-26-327H127zm424 0l16 211q10 117 60.5 214T784 1460l113-96q-111-104-139-199h151l-26-327H551z"/><glyph unicode="”" horiz-adv-x="956" d="M147 1116l27 328h332l-17-211q-10-119-59-215T272 821l-110 97q111 104 139 198H147zm424 0l27 328h332l-17-211q-10-119-59-215T696 821l-110 97q111 104 139 198H571z"/><glyph unicode="„" horiz-adv-x="956" d="M61 0l27 328h330l-15-203Q393 4 343-94.5T186-295L72-199Q185-93 213 0H61zm424 0l27 328h330l-15-203Q817 4 767-94.5T610-295l-114 96Q609-93 637 0H485z"/><glyph unicode="•" horiz-adv-x="1073" d="M168 543q0 94 48 178t133 135 190 51q98 0 183-48t136-131 51-185q0-98-50-181T724 229.5 539 180q-99 0-185 48T218 359t-50 184z"/><glyph unicode="…" horiz-adv-x="1595" d="M61 0l27 328h330L393 0H61zm533 0l24 328h332L926 0H594zm532 0l25 328h332L1456 0h-330z"/><glyph horiz-adv-x="377"/><glyph unicode="‹" horiz-adv-x="620" d="M125 469l12 152 234 331 200-96-174-311 121-316-205-90z"/><glyph unicode="›" horiz-adv-x="608" d="M53 231l178 314-122 313 208 90 187-327-12-152-238-332z"/><glyph horiz-adv-x="471"/><glyph unicode="€" d="M41 471l14 188h160q0 66 6 127H66l16 189h172q59 233 204.5 360T819 1462q127 0 246-45t192-121l-118-227q-94 76-167 107.5T827 1208q-184 0-256-233h306l-17-189H535q-4-41-9-127h324l-14-188H535q18-121 74.5-178T766 236q63 0 138 32.5T1083 375l84-228q-84-76-202.5-120.5T745-18q-211 0-346 128T227 471H41z"/><glyph unicode="™" horiz-adv-x="1935" d="M88 1219l18 225h754l-16-225H604l-51-637H272l52 637H88zm823-637l68 862h211l199-443 268 443h215l-68-862h-241l28 379-133-226h-174l-100 223-31-376H911z"/><glyph unicode="◼" horiz-adv-x="1003" d="M0 0v1004h1004V0H0z"/></font>
</defs>
</svg>
