<svg xmlns="http://www.w3.org/2000/svg"><defs><font id="nunito_sansextralight" horiz-adv-x="1228"><font-face units-per-em="2048" ascent="1638" descent="-410"/><glyph unicode="ﬁ" horiz-adv-x="1048" d="M16 918v73h199v64q0 186 88 282.5T573 1444l66 4 10-76-94-6q-129-10-191.5-86T301 1055v-64h573V0h-86v918H301V0h-86v918H16zm748 348v133h133v-133H764z"/><glyph unicode="ﬂ" horiz-adv-x="1052" d="M16 918v73h199v64q0 186 89 282.5T573 1444l64 4 10-76-94-6q-129-8-190.5-86T301 1055v-64h299v-73H301V0h-86v918H16zM792 0v1444h86V0h-86z"/><glyph horiz-adv-x="0"/><glyph horiz-adv-x="503"/><glyph horiz-adv-x="0"/><glyph horiz-adv-x="0"/><glyph horiz-adv-x="503"/><glyph horiz-adv-x="503"/><glyph horiz-adv-x="503"/><glyph unicode="!" horiz-adv-x="434" d="M145 0v143h142V0H145zm17 1444h108L244 332h-56z"/><glyph unicode="&quot;" horiz-adv-x="808" d="M152 1444h106l-22-543h-58zm395 0h106l-22-543h-58z"/><glyph unicode="#" d="M55 391v82h232l100 514H94v82h307l74 375h86l-72-375h385l72 375h88l-73-375h213v-82H946L846 473h289v-82H829L754 0h-86l75 391H358L283 0h-88l75 391H55zm320 82h385l98 514H473z"/><glyph unicode="$" d="M115 184l43 74q111-100 220-145t245-45q182 0 285.5 81.5T1012 377q0 88-51.5 140t-127 80T625 657q-156 39-250 77T214 850t-67 209q0 113 56.5 202t158 141 232.5 58v219h84v-221q121-10 228.5-59t187.5-133l-43-74q-170 184-426 184-182 0-285.5-85T236 1057q0-100 55-160.5T428 806t221-65q152-37 240-71.5t150.5-105T1102 375q0-160-118-266.5T678-14v-222h-86v220q-139 4-261 55T115 184z"/><glyph unicode="%" horiz-adv-x="1878" d="M133 1016q0 221 88 331.5T467 1458t246-109.5 88-330.5-88-332-246-111-246 110-88 331zm92 2q0-188 59.5-277.5T467 651t181.5 89 58.5 278q0 184-59.5 273T467 1380q-123 0-182.5-89T225 1018zM471-2l860 1491 76-43L547-45zm606 430q0 221 88 330.5T1411 868t246-109.5 88-330.5-88-331.5T1411-14 1165 96.5 1077 428zm92 0q0-188 59.5-276.5T1411 63t181.5 88.5T1651 428q0 186-58.5 274.5T1411 791t-182.5-88.5T1169 428z"/><glyph unicode="&amp;" horiz-adv-x="1327" d="M131 348q0 125 77 228.5T461 797l26 16q-104 123-142 195.5T307 1163q0 133 87 214t233 81q133 0 212-72.5t79-197.5q0-70-27-126t-92.5-116.5T610 799l391-457q102 197 105 485h86q-8-332-135-548L1296 0h-104l-182 209Q930 100 816 43T565-14q-127 0-226 45T185.5 159 131 348zm86-2q0-129 95.5-204.5T569 66q242-1 389 204L543 752l-25-17Q348 622 282.5 537.5T217 346zm182 817q0-69 32-130.5T557 860q158 106 215 174t57 146q0 88-56 142t-146 54q-102 0-165-58t-63-155z"/><glyph unicode="'" horiz-adv-x="413" d="M152 1444h106l-22-543h-58z"/><glyph unicode="(" horiz-adv-x="575" d="M217 539q0 236 53.5 465T436 1466l68-24Q303 996 303 539t201-904l-68-24Q217 64 217 539z"/><glyph unicode=")" horiz-adv-x="575" d="M72-365Q271 84 270 539q0 455-198 903l67 24q113-233 166-462.5T358 539q0-475-219-928z"/><glyph unicode="*" horiz-adv-x="917" d="M74 1065v80l329-6-172 280 68 39 160-289 157 289 68-39-170-280 330 6v-80l-330 6 170-278-68-39-157 286-160-288-68 41 172 278z"/><glyph unicode="+" d="M115 539v82h460v460h78V621h461v-82H653V82h-78v457H115z"/><glyph unicode="," horiz-adv-x="434" d="M143-160q39 43 52.5 80T211 0h-66v143h142V31q0-70-20.5-127.5T197-201z"/><glyph unicode="-" horiz-adv-x="851" d="M156 504v78h540v-78H156z"/><glyph unicode="." horiz-adv-x="434" d="M145 0v143h142V0H145z"/><glyph unicode="/" horiz-adv-x="524" d="M-39-88l518 1616 84-31L45-119z"/><glyph unicode="0" d="M127 721q0 365 124 552t363 187q240 0 364-186.5T1102 723q0-362-125-550.5T614-16q-237 0-362 187T127 721zm92 2q0-332 97.5-492.5T614 70q201 0 298.5 159.5T1010 723q0 336-96.5 494.5T614 1376q-201 0-298-159.5T219 723z"/><glyph unicode="1" d="M295 0v78h321v1241l-260-172-53 72 313 211v2l21 12h63V78h322V0H295z"/><glyph unicode="2" d="M162 1270q86 86 212 138t251 52q184 0 290.5-98t106.5-268q0-125-58.5-245T772 582L315 78h775V0H195v66l520 585q117 133 168 234.5t51 206.5q0 137-80 211.5T629 1378q-115 0-218.5-44T205 1198z"/><glyph unicode="3" d="M139 176l43 72q100-92 206-136t226-44q166 0 257.5 81.5T963 383q0 154-96.5 232.5T584 694H440v80h113q178 0 278.5 87T932 1104q0 131-80 202.5T629 1378q-113 0-216.5-44T205 1198l-43 72q88 90 210 140t255 50q182 0 288.5-96t106.5-262q0-127-62.5-223.5T788 741q127-34 195-124.5t68-227.5q0-186-118-294.5T612-14q-135 0-259 49T139 176z"/><glyph unicode="4" d="M123 340v68l715 1036h71V420h228v-80H909V0h-86v340H176l-2-4v4h-51zm108 80h592v856z"/><glyph unicode="5" d="M190 176l43 72Q432 68 655 68q166 0 263.5 101t97.5 269q0 164-95.5 266.5T670 807q-123 0-211-49T305 602h-78v842h830v-80H311V729q59 78 150.5 120T662 891q206 0 326-125t120-330q0-131-55.5-233.5T895 43 655-14q-127 0-250.5 50T190 176z"/><glyph unicode="6" horiz-adv-x="1226" d="M135 678q0 371 139.5 576.5T666 1460q121 0 234.5-49t205.5-141l-43-72q-104 94-199.5 137T664 1378q-207 0-324-185T223 676v-82q45 137 160 216t268 79q135 0 238.5-56.5t161-159T1108 436q0-129-57.5-232.5T890.5 42 659-16q-252 0-388 180T135 678zm141-240q0-168 105.5-270T657 66q162 0 261.5 102t99.5 270q0 166-100.5 267.5T653 807q-109 0-194.5-47t-134-131T276 438z"/><glyph unicode="7" d="M160 1366v78h907v-64L373 0h-92l688 1366H160z"/><glyph unicode="8" d="M117 377q0 133 72.5 229T389 739q-111 41-175 131.5T150 1079q0 176 120.5 278.5T614 1460t344-102.5 121-278.5q0-119-65.5-209T838 739q129-39 201.5-134t72.5-228q0-184-128-287.5T614-14 244.5 89.5 117 377zm92 2q0-311 405-311 406 0 406 311T614 690 209 379zm33 700q0-143 95-224t277-81 277.5 81 95.5 224q0 141-95 220t-278 79q-182 0-277-78.5T242 1079z"/><glyph unicode="9" d="M123 1008q0 129 57.5 232T340 1401.5t231 58.5q252 0 388.5-180T1096 766q0-371-139.5-576.5T565-16q-121 0-234.5 49T125 174l43 72q104-94 199.5-137T567 66q207 0 324 185t117 517v78q-45-135-161-213t-267-78q-135 0-238.5 56.5T180.5 770 123 1008zm92-2q0-166 99.5-267.5T578 637q108 0 194 47t134 131 48 191q0 168-104.5 270T575 1378q-164 0-262-102t-98-270z"/><glyph unicode=":" horiz-adv-x="434" d="M145 0v143h142V0H145zm0 848v143h142V848H145z"/><glyph unicode=";" horiz-adv-x="434" d="M143-160q39 43 52.5 80T211 0h-66v143h142V31q0-70-20.5-127.5T197-201zm2 1008v143h142V848H145z"/><glyph unicode="&lt;" d="M115 543v73l999 476v-88L219 580l895-422V68z"/><glyph unicode="=" d="M115 334v82h999v-82H115zm0 409v82h999v-82H115z"/><glyph unicode="&gt;" d="M115 68v90l895 422-895 424v88l999-476v-73z"/><glyph unicode="?" horiz-adv-x="878" d="M2 1270q88 86 210 137t241 51q164 0 262-84t98-221q0-109-44-189.5T633 768q-92-113-142.5-204T430 352l-2-20h-53v22q0 96 26.5 177T466 672.5 567 817q78 100 117 173t39 163q0 102-71.5 162.5T455 1376q-209 0-410-178zM332 0v143h139V0H332z"/><glyph unicode="@" horiz-adv-x="1882" d="M109 567q0 262 111.5 464t306 312.5T961 1454q260 0 443-110.5t275.5-282.5 92.5-352q0-213-62.5-342t-155-182.5T1366 131q-111 0-169 48t-60 140h-4q-49-86-132-137t-184-51q-125 0-208 91t-83 261q0 137 53.5 260T732 943t229 77q104 0 181-53.5t93-130.5h2l25 155h86l-103-594q-6-37-6-65 0-72 36-98.5t107-26.5q70 0 138.5 49t117 161.5T1686 709q0 156-80 307t-244 250.5-401 99.5q-217 0-391.5-98.5T295 988 195 567q0-238 92-414t265-272 411-96q184 0 321 56.5T1497 0h117q-90-143-260-223t-391-80q-258 0-452 108.5t-298 305T109 567zm497-73q0-141 65.5-214T834 207q112 0 196 67.5t128 177 44 228.5q0 127-64.5 194.5T965 942q-109 0-190-64.5t-125-168T606 494z"/><glyph unicode="A" horiz-adv-x="1462" d="M70 0l620 1444h82L1393 0h-90l-173 399H330L158 0H70zm295 481h731l-365 852z"/><glyph unicode="B" horiz-adv-x="1361" d="M197 0v1444h532q219 0 338-97.5t119-281.5q0-119-60.5-202T956 739q125-30 194-121.5t69-226.5q0-193-121-292T752 0H197zm86 80h467q192 0 285 73.5t93 227.5-95 232.5T750 692H283V80zm0 694h436q184 0 280.5 78t96.5 225q0 287-377 287H283V774z"/><glyph unicode="C" horiz-adv-x="1386" d="M137 723q0 229 78 395t222.5 254 342.5 88q303 0 492-194l-43-72q-106 98-212 140t-239 42q-262 0-406.5-172T227 723q0-311 144.5-483T778 68q133 0 238.5 42T1229 250l43-72Q1085-16 783-16h-3q-198 0-342.5 88T215 327t-78 396z"/><glyph unicode="D" horiz-adv-x="1484" d="M197 0v1444h444q340 0 523.5-186.5T1348 723q0-346-184.5-534.5T641 0H197zm84 78h358q305 0 460.5 162.5T1255 723q0 319-154.5 481T639 1366H281V78z"/><glyph unicode="E" horiz-adv-x="1179" d="M197 0v1444h868v-80H283V772h741v-80H283V80h782V0H197z"/><glyph unicode="F" horiz-adv-x="1122" d="M197 0v1444h847v-80H281V772h723v-78H281V0h-84z"/><glyph unicode="G" horiz-adv-x="1466" d="M137 723q0 231 79 397t225.5 253 349.5 87q299 0 485-194l-43-74q-104 98-209.5 141T784 1376q-264 0-410.5-171T227 723q0-317 148.5-487T799 66q113 0 219 19t188 54v506H807v82h479V82q-76-43-212-70.5T799-16q-207 0-355.5 88T216 326t-79 397z"/><glyph unicode="H" horiz-adv-x="1538" d="M197 0v1444h86V772h970v-78H283V0h-86zm1058 0v1444h86V0h-86z"/><glyph unicode="I" horiz-adv-x="477" d="M197 0v1444h84V0h-84z"/><glyph unicode="J" horiz-adv-x="608" d="M-20 66l104 8q115 8 179.5 87T328 367v1077h84V362q0-164-83-260T90-4l-102-8z"/><glyph unicode="K" horiz-adv-x="1226" d="M197 0v1444h84V768l766 676h120L365 735 1214 0h-124L281 696V0h-84z"/><glyph unicode="L" horiz-adv-x="1079" d="M197 0v1444h84V78h768V0H197z"/><glyph unicode="M" horiz-adv-x="1720" d="M197 0v1444h73L862 307l586 1137h76V0h-84l2 1264L897 225h-70L279 1255 281 0h-84z"/><glyph unicode="N" horiz-adv-x="1499" d="M197 0v1444h71l955-1297v1297h80V0h-70L276 1298V0h-79z"/><glyph unicode="O" horiz-adv-x="1538" d="M137 721q0 227 76 394t218 256 337 89 338-89 219-255 76-393-77-394-219-256-337-89q-193 0-335 89T214 329t-77 392zm92 2q0-311 141.5-483T768 68q258 0 399.5 172T1309 723t-140.5 482T768 1376q-256 0-397.5-171T229 723z"/><glyph unicode="P" horiz-adv-x="1294" d="M197 0v1444h520q223 0 346-106.5t123-303.5-124-305-345-108H281V0h-84zm84 702h434q190 0 285.5 84t95.5 248-95.5 247-285.5 83H281V702z"/><glyph unicode="Q" horiz-adv-x="1538" d="M137 721q0 227 76 394t218 256 337 89 337-89 219-255 77-393q0-279-115-466T965 8q43-14 77.5-49t71.5-98l127-205-67-45-148 237Q944-17 768-16q-193 0-335 89T214 329t-77 392zm92 2q0-311 141.5-483T768 68q258 0 399.5 172T1309 723t-140.5 482T768 1376q-256 0-397.5-171T229 723z"/><glyph unicode="R" horiz-adv-x="1386" d="M197 0v1444h557q223 0 345-101.5t122-298.5q0-168-99.5-268T840 655q51-16 91-55t77-104L1270 0h-94L932 463q-53 102-123 139t-195 37H281V0h-84zm86 721h473q374 0 374 324 0 162-92 240.5T756 1364H283V721z"/><glyph unicode="S" horiz-adv-x="1224" d="M104 178l43 72q109-100 217.5-141T631 68q195 0 301 80.5T1038 379q0 86-53 139t-131 81-209 58q-176 43-271 77T204 847t-75 214q0 121 60.5 211t174 139 265.5 49q297 0 485-194l-43-72q-102 96-207.5 139T629 1376q-195 0-303.5-84T217 1057q0-131 94.5-193.5T575 758l89-21q147-33 239-66.5t156.5-105T1124 373q0-115-61.5-203t-173-137T631-16q-170 0-297 47T104 178z"/><glyph unicode="T" horiz-adv-x="1196" d="M25 1366v78h1146v-78H641V0h-86v1366H25z"/><glyph unicode="U" horiz-adv-x="1464" d="M186 547v897h84V532q0-464 461-464h2q227 0 344 116.5T1194 532v912h86V547q0-279-139.5-421T733-16q-270 0-408.5 142T186 547z"/><glyph unicode="V" horiz-adv-x="1372" d="M25 1444h88L686 109l574 1335h90L727 0h-84z"/><glyph unicode="W" horiz-adv-x="2238" d="M86 1444h84L625 123l456 1321 74-2 455-1317 456 1319h86L1653 0h-80l-455 1307L664 0h-78z"/><glyph unicode="X" horiz-adv-x="1290" d="M49 0l549 743-516 701h100l467-635 463 635h98L696 739 1241 0h-100L647 676 152 0H49z"/><glyph unicode="Y" horiz-adv-x="1189" d="M2 1444h100l494-670 494 670h96L637 700V0h-86v702z"/><glyph unicode="Z" horiz-adv-x="1185" d="M86 0v63l899 1301H86v80h954l2 4v-4h45v-64L190 80h918V0H135l-2-4v4H86z"/><glyph unicode="[" horiz-adv-x="575" d="M229-369v1813h338v-76H315V-293h252v-76H229z"/><glyph unicode="\" horiz-adv-x="524" d="M-39 1497l84 31L563-88l-84-31z"/><glyph unicode="]" horiz-adv-x="575" d="M8-293h252v1661H8v76h338V-369H8v76z"/><glyph unicode="^" d="M104 287l474 999h73l473-999h-86l-424 893-424-893h-86z"/><glyph unicode="_" horiz-adv-x="1024" d="M8 0h1008v-68H8V0z"/><glyph unicode="`" horiz-adv-x="614" d="M12 1534h127l205-410h-74z"/><glyph unicode="a" horiz-adv-x="1067" d="M141 283q0 111 58.5 171T392 540.5 768 567h41v86q0 145-57.5 212T569 932q-96 0-177-25.5T223 823l-41 74q76 55 175.5 87t199.5 32q340 0 340-367V0h-88v182Q764 88 679 37T485-14q-94 0-173 38.5T187 132t-46 151zm99 4q0-94 69.5-154.5T485 72q93 0 166.5 44T767 237.5 809 414v73h-39q-215 0-327.5-17T285 411t-45-124z"/><glyph unicode="b" horiz-adv-x="1157" d="M174 0v1444h86V803q45 102 134 157.5t214 55.5q131 0 231.5-63.5t156-178.5 55.5-268q0-156-55.5-273.5t-156-182T608-14q-125 0-214 55T260 201V0h-86zm86 502q0-207 90-319.5T608 70q164 0 256 114.5T956 506q0 203-92 314.5T606 932 350 819.5 260 502z"/><glyph unicode="c" horiz-adv-x="962" d="M106 498q0 154 56.5 271.5t160 182T563 1016q100 0 190.5-36T901 883l-41-74q-78 66-147.5 95.5T565 934q-170 0-268-117t-98-321q0-201 97-313.5T563 70q78 0 148.5 28.5T860 193l41-72q-59-63-151.5-99T561-14q-137 0-239.5 63.5t-159 180T106 498z"/><glyph unicode="d" horiz-adv-x="1157" d="M106 506q0 154 55.5 268.5t156 178T549 1016q125 0 214-55.5T897 803v641h86V0h-86v201Q852 97 763 41.5T549-14q-131 0-231.5 64.5t-156 182T106 506zm93 0q0-205 93-320.5T549 70q168 0 258 112.5T897 502q0 205-90 317.5T551 932 292 820.5 199 506z"/><glyph unicode="e" horiz-adv-x="1073" d="M106 500q0 154 57.5 270.5t162 181T565 1016q193 0 299.5-125T971 541v-54H201q4-201 101-309T580 70q92 0 173 30.5T913 199l41-74Q891 62 790.5 24T584-14q-221 0-349.5 137T106 500zm97 67h686q-4 178-88 273.5T565 936q-155 0-250.5-97.5T203 567z"/><glyph unicode="f" horiz-adv-x="618" d="M16 918v73h199v64q0 186 89 282.5T573 1444l64 4 10-76-94-6q-129-8-190.5-86T301 1055v-64h299v-73H301V0h-86v918H16z"/><glyph unicode="g" horiz-adv-x="1165" d="M106 524q0 145 56.5 257t158 173.5T553 1016q127 0 217-55.5T905 803v188h86V47q0-213-100-321.5T592-383q-248 0-420 141l41 72q102-74 184-101.5T594-299q154 0 233.5 85T907 35v215Q864 144 773 87.5T553 31q-131 0-232.5 61.5t-158 174T106 524zm93 0q0-193 95-301t259-108q166 0 259 109.5T905 524t-93 299-259 109q-164 0-259-108.5T199 524z"/><glyph unicode="h" horiz-adv-x="1132" d="M174 0v1444h86V817q45 96 135 147.5t207 51.5q361 0 361-377V0h-86v631q0 158-63.5 230.5T608 934q-158 0-253-97.5T260 578V0h-86z"/><glyph unicode="i" horiz-adv-x="434" d="M151 1268v129h131v-129H151zM174 0v991h86V0h-86z"/><glyph unicode="j" horiz-adv-x="434" d="M-156-297l86 4q121 10 182.5 78T174-25V991h86V-23q0-158-83-246.5T-59-369l-88-6zm307 1565v129h131v-129H151z"/><glyph unicode="k" horiz-adv-x="958" d="M174 0v1444h86V528l518 463h121L358 514 961 0H836L260 489V0h-86z"/><glyph unicode="l" horiz-adv-x="434" d="M174 0v1444h86V0h-86z"/><glyph unicode="m" horiz-adv-x="1708" d="M174 0v991h84V817q41 96 122 147.5t191 51.5q238 0 306-199 43 92 132 145.5t201 53.5q328 0 328-377V0h-86v631q0 158-57.5 230.5T1212 934q-143 0-228-96.5T899 578V0h-86v631q0 158-57.5 230.5T573 934q-143 0-228-96.5T260 578V0h-86z"/><glyph unicode="n" horiz-adv-x="1132" d="M174 0v991h84V813q45 98 136 150.5t208 52.5q361 0 361-377V0h-86v631q0 158-63.5 230.5T608 934q-158 0-253-97.5T260 578V0h-86z"/><glyph unicode="o" horiz-adv-x="1097" d="M106 502q0 154 55.5 270.5t156 180T549 1016t231.5-63.5T936 772t55-270q0-156-55-272.5t-155.5-180T549-14 317.5 49.5t-156 180T106 502zm93 0q0-209 91-320.5T547 70q170 0 261 111.5T899 502q0 203-93 316.5T549 932 292 818.5 199 502z"/><glyph unicode="p" horiz-adv-x="1157" d="M174-369V991h86V805q45 102 134 156.5t214 54.5q131 0 231.5-64.5t156-181.5 55.5-272q0-154-55.5-269.5t-156-179T608-14q-125 0-214 55T260 201v-570h-86zm86 871q0-207 90-319.5T606 70t258 111.5T956 498t-92 319.5T608 932q-168 0-258-111.5T260 502z"/><glyph unicode="q" horiz-adv-x="1157" d="M106 498q0 156 55.5 272.5t156 181T549 1016q125 0 214-54.5T897 805v186h86V-369h-86v570Q852 97 763 41.5T549-14q-131 0-231.5 63.5t-156 179T106 498zm93 0q0-203 93-315.5T551 70t256 112.5T897 502t-90 318.5T549 932q-164 0-257-115t-93-319z"/><glyph unicode="r" horiz-adv-x="667" d="M174 0v991h86V817q47 92 130 138t208 57l43 4 10-78-69-8q-168-16-245-109.5T260 594V0h-86z"/><glyph unicode="s" horiz-adv-x="974" d="M113 121l41 72q80-68 154.5-94.5T489 72q131 0 201 47t70 133q0 72-45 115t-146 67l-168 39q-117 27-185.5 97.5T147 733q0 127 96.5 205t260.5 78q104 0 192-35t144-98l-41-74q-66 61-137.5 91T504 930q-121 0-189.5-49.5T246 745q0-76 42-119.5T420 559l170-41q264-61 264-260 0-123-100.5-197.5T483-14q-229 0-370 135z"/><glyph unicode="t" horiz-adv-x="643" d="M16 918v73h199v309h86V991h299v-73H301V334q0-131 61.5-198.5T545 68q47 0 86 6l-4-80q-43-6-92-6-154 0-237 89t-83 238v603H16z"/><glyph unicode="u" horiz-adv-x="1116" d="M170 365v626h86V373q0-156 63.5-229.5T516 70q154 0 247 97t93 259v565h86V0h-84v186Q811 90 722 38T520-14q-172 0-261 96t-89 283z"/><glyph unicode="v" horiz-adv-x="1032" d="M45 991h92L516 76l381 915h90L565 0h-98z"/><glyph unicode="w" horiz-adv-x="1699" d="M82 991h94l305-891 320 891h104l312-889 311 889h92L1268 0h-103L852 885 532 0H430z"/><glyph unicode="x" horiz-adv-x="1036" d="M57 0l408 512L80 991h110l328-411 328 411h112L573 512 981 0H868L518 438 168 0H57z"/><glyph unicode="y" horiz-adv-x="1032" d="M45 991h92L516 76l381 915h90L406-369h-89L471-10z"/><glyph unicode="z" horiz-adv-x="1015" d="M100 0v59l688 859H131v73h766v-69L219 76h703V0H100z"/><glyph unicode="{" horiz-adv-x="651" d="M111 502v73l39 3q86 4 120.5 44T305 745v525q0 174 168 174h170v-76H483q-92 0-92-94V739q0-88-40-138t-99-62q59-12 99-62.5T391 338v-537q0-94 92-94h160v-76H473q-168 0-168 174v527q0 86-34.5 126T150 500z"/><glyph unicode="|" horiz-adv-x="501" d="M207-369v1813h88V-369h-88z"/><glyph unicode="}" horiz-adv-x="651" d="M8-293h160q92 0 92 94v537q0 88 40 138t99 63q-59 12-99 62t-40 138v535q0 94-92 94H8v76h170q82 0 125-45t43-129V745q0-86 35-124.5T502 578l39-3v-73l-39-2q-86-2-121-42t-35-126v-527q0-84-43-129t-125-45H8v76z"/><glyph unicode="~" d="M115 518q82 188 256 189 68 0 133-27t149-74q78-41 119-58.5t82-17.5q70 0 114 38t74 104l72-31q-43-92-104.5-140T858 453q-68 0-133.5 26.5T575 553q-78 41-118.5 58.5T375 629q-70 0-114-38t-75-104z"/><glyph unicode="¡" horiz-adv-x="434" d="M145 848v143h142V848H145zm17-1217l26 1031h56l26-1031H162z"/><glyph unicode="¢" d="M203 498q0 141 50 252.5t141 180 210 81.5v225h86v-221q92-6 174-41t135-92l-41-74q-80 66-149.5 95.5T662 934q-170 0-268.5-118T295 496q0-199 97-312.5T659 70q78 0 149 28.5T958 193l41-72q-57-57-138-93T690-12v-224h-86v224Q485 0 394 67.5t-141 178T203 498z"/><glyph unicode="£" d="M104 0v78h230v604H104v82h230v311q0 180 97 282.5T700 1460q121 0 236-50t205-144l-43-74q-82 90-186.5 138T696 1378q-133 0-204.5-80.5T420 1067V764h391v-82H420V78h717V0H104z"/><glyph unicode="¤" d="M121 70l112 114q-51 66-79.5 148T125 502t27.5 169T231 817L121 934l72 74 110-117q63 57 144 88t169 31q176 0 308-113l106 111 74-74-109-111q53-66 83-148.5t30-172.5-29.5-173T995 180l109-110-74-74-106 110Q793-7 616-6 438-6 303 111L193-4zm92 432q0-117 54.5-215.5T414 131t200-57q111 0 203 57t145.5 155.5T1016 502t-53.5 215T817 872.5 614 930q-109 0-200.5-58.5t-146-156T213 502z"/><glyph unicode="¥" d="M10 1444h103l497-676h11l495 676h103L719 768h354v-82H657V461h416v-82H657V0h-86v379H156v82h415v225H156v82h356z"/><glyph unicode="¦" horiz-adv-x="501" d="M207 315h88v-684h-88v684zm0 445v684h88V760h-88z"/><glyph unicode="§" horiz-adv-x="1050" d="M96 715q0 70 30 138.5T203 965q-25 59-25 153 0 156 99.5 248t263.5 92q90 0 179-38t142-97l-41-74q-80 66-147.5 95.5T535 1374q-129 0-200-67.5T264 1114q0-100 48-164.5T479 821l158-84q174-90 245.5-175T954 358q0-63-29.5-129.5T846 117q29-66 28-160 0-152-98-246t-260-94q-113 0-206 33T137-250l41 74q90-68 166-95.5T516-299q131 0 200.5 67.5T786-39q0 100-49 168T571 256l-157 82q-174 88-246 173T96 715zm90-13q0-76 53.5-135T432 430l143-80q165-92 224-162 66 76 65 185 0 78-53 137T618 645l-145 80q-164 88-223 162-63-76-64-185z"/><glyph unicode="¨" horiz-adv-x="614" d="M79 1270v123h125v-123H79zm330 0v123h125v-123H409z"/><glyph unicode="©" horiz-adv-x="1669" d="M102 723q0 205 96.5 372T463 1358t373 96 371.5-96 263-263 96.5-372-96.5-372T1206 87 836-10q-205 0-372 97T199.5 351 102 723zm76 0q0-184 87-335.5t237.5-239T836 61q182 0 331.5 87.5t236.5 239 87 335.5-87 334.5-236.5 237.5-331.5 87-333-87-238-237.5T178 723zm266 0q0 203 107.5 321.5T844 1163q82 0 162.5-31.5T1145 1047l-37-66q-72 57-134.5 83T840 1090q-145 0-224-95.5T537 723t78.5-272.5T840 354q72 0 134 26t134 83l37-66q-57-53-138-84.5T844 281q-185 0-292.5 118.5T444 723z"/><glyph unicode="ª" horiz-adv-x="665" d="M76 1016q0 68 34.5 105.5t113.5 54 220 16.5h27v41q0 80-32.5 114.5T338 1382q-102 0-205-67l-33 63q47 33 110.5 54.5T336 1454q221 0 221-229V850h-86v90q-27-47-75-73.5T291 840q-92 0-153.5 51T76 1016zm92 10q0-49 37-82t92-33q74 0 124 51.5t50 135.5v37h-22q-117 0-177.5-11.5t-82-35T168 1026z"/><glyph unicode="«" horiz-adv-x="806" d="M123 520v45l188 326 68-25-166-323 166-326-70-22zm324 0v45l188 326 68-25-166-323 166-326-70-22z"/><glyph unicode="¬" d="M115 758v80h999V322h-74v436H115z"/><glyph unicode="­" horiz-adv-x="851" d="M156 504v78h540v-78H156z"/><glyph unicode="®" horiz-adv-x="1669" d="M102 723q0 205 96.5 372T463 1358t373 96q204 0 371-96t263.5-263 96.5-372-96.5-372T1206 87 836-10q-205 0-372 97T199.5 351 102 723zm76 0q0-184 87-335.5t237.5-239T836 61q182 0 331.5 87.5t236.5 239 87 335.5-87 334.5-236.5 237.5-331.5 87-333-87-238-237.5T178 723zm377-432v862h336q133 0 206.5-63.5T1171 907q0-104-60-165.5T940 668q55-19 102-93l181-284h-95L952 565q-33 53-69.5 72.5T780 657H641V291h-86zm86 444h240q104 0 154 42t50 130-49 130-155 42H641V735z"/><glyph unicode="¯" horiz-adv-x="614" d="M8 1288v88h598v-88H8z"/><glyph unicode="°" horiz-adv-x="745" d="M84 1163q0 82 38 148.5T226.5 1416t146.5 38 145.5-38 103-104.5T659 1163t-37.5-148.5-103-104.5T373 872t-146.5 38T122 1014.5 84 1163zm88 0q0-92 56.5-150.5T373 954t144 58.5 56 150.5-56 150.5-144 58.5-144.5-58.5T172 1163z"/><glyph unicode="±" d="M115 0v82h999V0H115zm0 616v80h460v385h78V696h461v-80H653V231h-78v385H115z"/><glyph unicode="²" horiz-adv-x="778" d="M88 1334q59 53 137 85.5t162 32.5q117 0 182.5-62t65.5-163q0-74-34-143.5T494 932L238 654h434v-76H121v66l303 340q66 72 94.5 127t28.5 114q0 74-43 113t-115 39q-55 0-120.5-28T143 1272z"/><glyph unicode="³" horiz-adv-x="778" d="M78 691l55 61q59-49 124-75.5T377 650q86 0 137 40t51 126q0 166-207 165h-96v74h76q96 0 150.5 43t54.5 127q0 74-43 113t-113 39q-117 0-244-105l-55 62q59 53 138 85.5t161 32.5q115 0 179.5-61t64.5-160q0-76-39-130t-98-79q73-20 114-73.5T649 814q0-115-75.5-178.5T377 572q-84 0-163 32.5T78 691z"/><glyph unicode="´" horiz-adv-x="614" d="M270 1124l205 410h127l-258-410h-74z"/><glyph unicode="µ" horiz-adv-x="1116" d="M170-369V991h86V373q0-156 63.5-229.5T516 70q154 0 247 97t93 259v565h86V0h-84v186Q811 90 722 38T520-14q-170 0-264 90v-445h-86z"/><glyph unicode="¶" horiz-adv-x="1138" d="M109 1065q0 109 47 195t134 135 202 49h450V-369h-98v1721H588V-369h-99V686q-113 0-199.5 49T156 870t-47 195z"/><glyph unicode="·" horiz-adv-x="434" d="M145 471v143h142V471H145z"/><glyph unicode="¸" horiz-adv-x="614" d="M154-350l28 69q66-29 150-28 61 0 93 22.5t32 61.5q0 31-19.5 47T381-162q-43 0-102-22l-39 28 20 197h86L334-92q25 8 61 8 60 0 104-35t44-106q0-72-57.5-118T328-389q-43 0-91.5 9T154-350z"/><glyph unicode="¹" horiz-adv-x="778" d="M215 1313l195 131h71V654h150v-76H248v76h151v686l-139-94z"/><glyph unicode="º" horiz-adv-x="665" d="M53 1147q0 141 76 224t201 83 202.5-83 77.5-224-77.5-224T330 840t-201 83-76 224zm88 0q0-115 48.5-175.5T330 911q190 0 190 236 0 113-48 174t-142 61q-92 0-140.5-62.5T141 1147z"/><glyph unicode="»" horiz-adv-x="806" d="M102 217l166 326-166 323 70 25 188-326v-45L172 195zm324 0l166 326-166 323 70 25 188-326v-45L496 195z"/><glyph unicode="¼" horiz-adv-x="1880" d="M215 1313l195 131h71V653h150v-75H248v75h151v686l-139-94zM471-2l862 1491 76-43L549-45zm725 195v67l416 606h74V268h129v-75h-129V0h-92v193h-398zm94 75h304v439z"/><glyph unicode="½" horiz-adv-x="1880" d="M215 1313l195 131h71V653h150v-75H248v75h151v686l-139-94zM471-2l862 1491 76-43L549-45zm719 758q59 53 137 85.5t162 32.5q117 0 182.5-62t65.5-163q0-74-34-143.5T1596 354L1340 76h434V0h-551v66l303 340q66 72 94.5 127t28.5 114q0 74-43 113t-115 39q-55 0-120.5-28T1245 694z"/><glyph unicode="¾" horiz-adv-x="1880" d="M78 690l55 62q59-49 124-76t120-27q86 0 137 40t51 126q0 166-207 166h-96v74h76q96 0 150.5 43t54.5 127q0 74-43 112.5T387 1376q-117 0-244-104l-55 61q59 53 138 86t161 33q115 0 179.5-61.5T631 1231q0-76-39-130t-98-79q73-21 114-74t41-135q0-115-75.5-178.5T377 571q-84 0-163 33T78 690zM471-2l862 1491 76-43L549-45zm725 195v67l416 606h74V268h129v-75h-129V0h-92v193h-398zm94 75h304v439z"/><glyph unicode="¿" horiz-adv-x="878" d="M63-84Q63-8 88 52.5T147.5 158 244 264q63 63 101 111.5t67.5 115T449 641v18h55v-22q0-94-26.5-167T413 345 311 225q-80-88-118.5-153.5T154-84q0-96 74.5-156.5T422-301q215 0 412 178l40-72q-86-86-207.5-137T426-383q-162 0-262.5 83T63-84zm343 932v143h141V848H406z"/><glyph unicode="À" horiz-adv-x="1462" d="M70 0l620 1444h82L1393 0h-90l-173 399H330L158 0H70zm295 481h731l-365 852zm75 1391h123l205-305h-74z"/><glyph unicode="Á" horiz-adv-x="1462" d="M70 0l620 1444h82L1393 0h-90l-173 399H330L158 0H70zm295 481h731l-365 852zm329 1086l205 305h123l-254-305h-74z"/><glyph unicode="Â" horiz-adv-x="1462" d="M70 0l620 1444h82L1393 0h-90l-173 399H330L158 0H70zm295 481h731l-365 852zm100 1086l229 305h74l229-305H893l-162 231-162-231H465z"/><glyph unicode="Ã" horiz-adv-x="1462" d="M70 0l620 1444h82L1393 0h-90l-173 399H330L158 0H70zm295 481h731l-365 852zm50 1145q0 90 43 144.5t119 54.5q45 0 86-18.5t94-53.5q41-25 69-38t50-13q47 0 75 35t26 82h69q0-90-43-144.5T884 1620q-45 0-86 18.5t-94 53.5q-41 25-68.5 38t-50.5 13q-47 0-74.5-35t-25.5-82h-70z"/><glyph unicode="Ä" horiz-adv-x="1462" d="M70 0l620 1444h82L1393 0h-90l-173 399H330L158 0H70zm295 481h731l-365 852zm138 1180v123h125v-123H503zm330 0v123h125v-123H833z"/><glyph unicode="Å" horiz-adv-x="1462" d="M70 0l600 1395q-61 18-99.5 68T532 1577q0 82 58.5 138.5T731 1772t139.5-56.5T928 1577q0-63-38-113.5t-97-68.5L1393 0h-90l-173 399H330L158 0H70zm295 481h731l-365 852zm262 1096q0-45 29.5-77t74.5-32 75 32 30 77q0 47-30 78t-75 31-74.5-31-29.5-78z"/><glyph unicode="Æ" horiz-adv-x="2019" d="M29 0l860 1444h1016v-82H979l125-590h760v-80h-744l129-610h656V0h-719l-84 399H356L119 0H29zm374 481h682l-178 848z"/><glyph unicode="Ç" horiz-adv-x="1386" d="M137 723q0 229 78 395t222.5 254 342.5 88q303 0 492-194l-43-72q-106 98-212 140t-239 42q-262 0-406.5-172T227 723q0-311 144.5-483T778 68q133 0 238.5 42T1229 250l43-72Q1090-10 803-16l-6-76q25 8 61 8 59 0 103.5-35t44.5-106q0-72-57.5-118T791-389q-43 0-91.5 9T616-350l29 69q66-29 150-28 61 0 93 22.5t32 61.5q0 31-19.5 47T844-162q-43 0-103-22l-39 28 15 142Q445 9 291 202T137 723z"/><glyph unicode="È" horiz-adv-x="1179" d="M197 0v1444h868v-80H283V772h741v-80H283V80h782V0H197zm168 1872h123l205-305h-74z"/><glyph unicode="É" horiz-adv-x="1179" d="M197 0v1444h868v-80H283V772h741v-80H283V80h782V0H197zm422 1567l205 305h123l-254-305h-74z"/><glyph unicode="Ê" horiz-adv-x="1179" d="M197 0v1444h868v-80H283V772h741v-80H283V80h782V0H197zm193 1567l229 305h74l229-305H818l-162 231-162-231H390z"/><glyph unicode="Ë" horiz-adv-x="1179" d="M197 0v1444h868v-80H283V772h741v-80H283V80h782V0H197zm231 1661v123h125v-123H428zm330 0v123h125v-123H758z"/><glyph unicode="Ì" horiz-adv-x="477" d="M-51 1872H72l205-305h-74zM197 0v1444h84V0h-84z"/><glyph unicode="Í" horiz-adv-x="477" d="M197 0v1444h84V0h-84zm6 1567l205 305h123l-254-305h-74z"/><glyph unicode="Î" horiz-adv-x="477" d="M-26 1567l229 305h74l229-305H402l-162 231-162-231H-26zM197 0v1444h84V0h-84z"/><glyph unicode="Ï" horiz-adv-x="477" d="M12 1661v123h125v-123H12zM197 0v1444h84V0h-84zm145 1661v123h125v-123H342z"/><glyph unicode="Ð" horiz-adv-x="1492" d="M8 696v76h197v672h444q342 0 524.5-186.5T1356 723q0-346-184.5-534.5T649 0H205v696H8zM289 78h358q305 0 461 162.5T1264 723q0 319-155 481t-462 162H289V772h403v-76H289V78z"/><glyph unicode="Ñ" horiz-adv-x="1499" d="M197 0v1444h71l955-1297v1297h80V0h-70L276 1298V0h-79zm237 1626q0 90 43 144.5t119 54.5q45 0 86-18.5t94-53.5q41-25 69-38t50-13q47 0 75 35t26 82h69q0-90-43-144.5T903 1620q-45 0-86 18.5t-94 53.5q-41 25-68.5 38t-50.5 13q-47 0-74.5-35t-25.5-82h-70z"/><glyph unicode="Ò" horiz-adv-x="1538" d="M137 721q0 227 76 394t218 256 337 89 338-89 219-255 76-393-77-394-219-256-337-89q-193 0-335 89T214 329t-77 392zm92 2q0-311 141.5-483T768 68q258 0 399.5 172T1309 723t-140.5 482T768 1376q-256 0-397.5-171T229 723zm248 1149h123l205-305h-74z"/><glyph unicode="Ó" horiz-adv-x="1538" d="M137 721q0 227 76 394t218 256 337 89 338-89 219-255 76-393-77-394-219-256-337-89q-193 0-335 89T214 329t-77 392zm92 2q0-311 141.5-483T768 68q258 0 399.5 172T1309 723t-140.5 482T768 1376q-256 0-397.5-171T229 723zm502 844l205 305h123l-254-305h-74z"/><glyph unicode="Ô" horiz-adv-x="1538" d="M137 721q0 227 76 394t218 256 337 89 338-89 219-255 76-393-77-394-219-256-337-89q-193 0-335 89T214 329t-77 392zm92 2q0-311 141.5-483T768 68q258 0 399.5 172T1309 723t-140.5 482T768 1376q-256 0-397.5-171T229 723zm273 844l229 305h74l229-305H930l-162 231-162-231H502z"/><glyph unicode="Õ" horiz-adv-x="1538" d="M137 721q0 227 76 394t218 256 337 89 338-89 219-255 76-393-77-394-219-256-337-89q-193 0-335 89T214 329t-77 392zm92 2q0-311 141.5-483T768 68q258 0 399.5 172T1309 723t-140.5 482T768 1376q-256 0-397.5-171T229 723zm223 903q0 90 43 144.5t119 54.5q45 0 86-18.5t94-53.5q41-25 69-38t50-13q47 0 75 35t26 82h69q0-90-43-144.5T921 1620q-45 0-86 18.5t-94 53.5q-41 25-68.5 38t-50.5 13q-47 0-74.5-35t-25.5-82h-70z"/><glyph unicode="Ö" horiz-adv-x="1538" d="M137 721q0 227 76 394t218 256 337 89 338-89 219-255 76-393-77-394-219-256-337-89q-193 0-335 89T214 329t-77 392zm92 2q0-311 141.5-483T768 68q258 0 399.5 172T1309 723t-140.5 482T768 1376q-256 0-397.5-171T229 723zm311 938v123h125v-123H540zm330 0v123h125v-123H870z"/><glyph unicode="×" d="M135 158l422 424-422 422 58 57 421-422 422 422 58-57-422-422 422-424-58-56-422 422-421-422z"/><glyph unicode="Ø" horiz-adv-x="1538" d="M137 721q0 227 76 394t218 256 337 89 336-88l84 144 67-37-88-152q113-94 173.5-248.5T1401 723q0-227-77-394T1105 73 768-16q-193 0-334 88L350-72l-67 37 88 152q-113 96-173.5 250.5T137 721zm92 2q0-178 48.5-312.5T416 193l645 1107q-123 76-293 76-256 0-397.5-171T229 723zm248-578q121-78 291-77 258 0 399.5 172T1309 723q0 362-185 530z"/><glyph unicode="Ù" horiz-adv-x="1464" d="M186 547v897h84V532q0-465 463-464 227 0 344 116.5T1194 532v912h86V547q0-279-139.5-421T733-16q-270 0-408.5 142T186 547zm256 1325h123l205-305h-74z"/><glyph unicode="Ú" horiz-adv-x="1464" d="M186 547v897h84V532q0-465 463-464 227 0 344 116.5T1194 532v912h86V547q0-279-139.5-421T733-16q-270 0-408.5 142T186 547zm510 1020l205 305h123l-254-305h-74z"/><glyph unicode="Û" horiz-adv-x="1464" d="M186 547v897h84V532q0-465 463-464 227 0 344 116.5T1194 532v912h86V547q0-279-139.5-421T733-16q-270 0-408.5 142T186 547zm281 1020l229 305h74l229-305H895l-162 231-162-231H467z"/><glyph unicode="Ü" horiz-adv-x="1464" d="M186 547v897h84V532q0-465 463-464 227 0 344 116.5T1194 532v912h86V547q0-279-139.5-421T733-16q-270 0-408.5 142T186 547zm319 1114v123h125v-123H505zm330 0v123h125v-123H835z"/><glyph unicode="Ý" horiz-adv-x="1189" d="M2 1444h100l494-670 494 670h96L637 700V0h-86v702zm555 123l205 305h123l-254-305h-74z"/><glyph unicode="Þ" horiz-adv-x="1294" d="M197 0v1444h86v-332h456q215 0 331-97t116-278q0-180-117-280.5T739 356H283V0h-86zm86 438h456q181 0 269 74t88 225q0 150-88 222.5T739 1032H283V438z"/><glyph unicode="ß" horiz-adv-x="1189" d="M174 0v1014q0 205 107.5 321.5T580 1452q139 0 220-67.5t81-182.5q0-86-44-144.5T707 926q-66-55-96.5-92T580 750q0-55 31.5-92t78.5-60 129-53q96-35 155.5-65.5t101.5-86 42-139.5q0-119-98-193.5T766-14q-102 0-196.5 35.5T412 121l41 72q86-66 157.5-93.5T766 70q121 0 189.5 50t68.5 138q0 59-33 98t-82 61.5T776 469q-96 33-153.5 61.5t-97.5 80T485 743q0 72 40 124.5T643 983q76 63 113 110.5t37 112.5q0 76-55.5 119T584 1368q-156 0-240-91t-84-261V0h-86z"/><glyph unicode="à" horiz-adv-x="1067" d="M141 283q0 111 58.5 171T392 540.5 768 567h41v86q0 145-57.5 212T569 932q-96 0-177-25.5T223 823l-41 74q76 55 175.5 87t199.5 32q340 0 340-367V0h-88v182Q764 88 679 37T485-14q-94 0-173 38.5T187 132t-46 151zm99 4q0-94 69.5-154.5T485 72q93 0 166.5 44T767 237.5 809 414v73h-39q-215 0-327.5-17T285 411t-45-124zm20 1247h127l205-410h-74z"/><glyph unicode="á" horiz-adv-x="1067" d="M141 283q0 111 58.5 171T392 540.5 768 567h41v86q0 145-57.5 212T569 932q-96 0-177-25.5T223 823l-41 74q76 55 175.5 87t199.5 32q340 0 340-367V0h-88v182Q764 88 679 37T485-14q-94 0-173 38.5T187 132t-46 151zm99 4q0-94 69.5-154.5T485 72q93 0 166.5 44T767 237.5 809 414v73h-39q-215 0-327.5-17T285 411t-45-124zm278 837l205 410h127l-258-410h-74z"/><glyph unicode="â" horiz-adv-x="1067" d="M141 283q0 111 58.5 171T392 540.5 768 567h41v86q0 145-57.5 212T569 932q-96 0-177-25.5T223 823l-41 74q76 55 175.5 87t199.5 32q340 0 340-367V0h-88v182Q764 88 679 37T485-14q-94 0-173 38.5T187 132t-46 151zm99 4q0-94 69.5-154.5T485 72q93 0 166.5 44T767 237.5 809 414v73h-39q-215 0-327.5-17T285 411t-45-124zm49 837l227 410h78l227-410H717l-162 324-162-324H289z"/><glyph unicode="ã" horiz-adv-x="1067" d="M141 283q0 111 58.5 171T392 540.5 768 567h41v86q0 145-57.5 212T569 932q-96 0-177-25.5T223 823l-41 74q76 55 175.5 87t199.5 32q340 0 340-367V0h-88v182Q764 88 679 37T485-14q-94 0-173 38.5T187 132t-46 151zm98 954q0 88 43 142.5t119 54.5q45 0 85-17.5t95-52.5q41-25 69-38t50-13q47 0 75 34.5t26 79.5h69q0-88-43-142t-119-54q-45 0-86 18.5t-94 53.5q-41 25-68.5 38t-50.5 13q-47 0-74.5-35t-25.5-82h-70zm1-950q0-94 69.5-154.5T485 72q93 0 166.5 44T767 237.5 809 414v73h-39q-215 0-327.5-17T285 411t-45-124z"/><glyph unicode="ä" horiz-adv-x="1067" d="M141 283q0 111 58.5 171T392 540.5 768 567h41v86q0 145-57.5 212T569 932q-96 0-177-25.5T223 823l-41 74q76 55 175.5 87t199.5 32q340 0 340-367V0h-88v182Q764 88 679 37T485-14q-94 0-173 38.5T187 132t-46 151zm99 4q0-94 69.5-154.5T485 72q93 0 166.5 44T767 237.5 809 414v73h-39q-215 0-327.5-17T285 411t-45-124zm87 983v123h125v-123H327zm330 0v123h125v-123H657z"/><glyph unicode="å" horiz-adv-x="1067" d="M141 283q0 111 58.5 171T392 540.5 768 567h41v86q0 145-57.5 212T569 932q-96 0-177-25.5T223 823l-41 74q76 55 175.5 87t199.5 32q340 0 340-367V0h-88v182Q764 88 679 37T485-14q-94 0-173 38.5T187 132t-46 151zm99 4q0-94 69.5-154.5T485 72q93 0 166.5 44T767 237.5 809 414v73h-39q-215 0-327.5-17T285 411t-45-124zm116 1042q0 82 58.5 138.5T555 1524t140-56.5 58-138.5-58-138-140-56-140.5 56-58.5 138zm94 0q0-45 30-76.5t75-31.5 74.5 31.5T659 1329q0 47-29.5 78t-74.5 31-75-31-30-78z"/><glyph unicode="æ" horiz-adv-x="1765" d="M141 283q0 111 58.5 172T395 541.5 778 567h41v76q0 152-58.5 220.5T571 932q-90 0-173-26.5T223 823l-41 74q76 55 177.5 87t201.5 32q270 0 332-219 55 104 151.5 161.5T1264 1016q188 0 293.5-126T1663 537v-50H909q2-201 100.5-309T1284 70q166 0 322 129l41-74q-61-61-162-100t-199-39q-156 0-264.5 75.5T864 279Q829 142 733 64T494-14q-98 0-179.5 38.5T187 131t-46 152zm99 4q0-94 71.5-154.5T496 72q94 0 167.5 45T778 243t41 185v59h-39q-219 0-332.5-17T287 411t-47-124zm671 280h668q-4 178-86 273.5T1264 936q-150 0-243-98.5T911 567z"/><glyph unicode="ç" horiz-adv-x="962" d="M106 498q0 154 56.5 271.5t160 182T563 1016q100 0 190.5-36T901 883l-41-74q-78 66-147.5 95.5T565 934q-170 0-268-117t-98-321q0-201 97-313.5T563 70q78 0 148.5 28.5T860 193l41-72q-55-59-141-95T580-14l-7-78q25 8 62 8 59 0 103-35t44-106q0-72-57-118t-158-46q-43 0-91 9t-83 30l29 69q66-29 149-28 61 0 93 22.5t32 61.5q0 31-19.5 47T621-162q-43 0-103-22l-39 28 15 146Q316 13 211 150T106 498z"/><glyph unicode="è" horiz-adv-x="1073" d="M106 500q0 154 57.5 270.5t162 181T565 1016q193 0 299.5-125T971 541v-54H201q4-201 101-309T580 70q92 0 173 30.5T913 199l41-74Q891 62 790.5 24T584-14q-221 0-349.5 137T106 500zm97 67h686q-4 178-88 273.5T565 936q-155 0-250.5-97.5T203 567zm67 967h127l205-410h-74z"/><glyph unicode="é" horiz-adv-x="1073" d="M106 500q0 154 57.5 270.5t162 181T565 1016q193 0 299.5-125T971 541v-54H201q4-201 101-309T580 70q92 0 173 30.5T913 199l41-74Q891 62 790.5 24T584-14q-221 0-349.5 137T106 500zm97 67h686q-4 178-88 273.5T565 936q-155 0-250.5-97.5T203 567zm325 557l205 410h127l-258-410h-74z"/><glyph unicode="ê" horiz-adv-x="1073" d="M106 500q0 154 57.5 270.5t162 181T565 1016q193 0 299.5-125T971 541v-54H201q4-201 101-309T580 70q92 0 173 30.5T913 199l41-74Q891 62 790.5 24T584-14q-221 0-349.5 137T106 500zm97 67h686q-4 178-88 273.5T565 936q-155 0-250.5-97.5T203 567zm96 557l227 410h78l227-410H727l-162 324-162-324H299z"/><glyph unicode="ë" horiz-adv-x="1073" d="M106 500q0 154 57.5 270.5t162 181T565 1016q193 0 299.5-125T971 541v-54H201q4-201 101-309T580 70q92 0 173 30.5T913 199l41-74Q891 62 790.5 24T584-14q-221 0-349.5 137T106 500zm97 67h686q-4 178-88 273.5T565 936q-155 0-250.5-97.5T203 567zm134 703v123h125v-123H337zm330 0v123h125v-123H667z"/><glyph unicode="ì" horiz-adv-x="434" d="M-78 1534H49l205-410h-74zM174 0v991h86V0h-86z"/><glyph unicode="í" horiz-adv-x="434" d="M174 0v991h86V0h-86zm6 1124l205 410h127l-258-410h-74z"/><glyph unicode="î" horiz-adv-x="434" d="M-49 1124l227 410h78l227-410H379l-162 324-162-324H-49zM174 0v991h86V0h-86z"/><glyph unicode="ï" horiz-adv-x="434" d="M-11 1270v123h125v-123H-11zM174 0v991h86V0h-86zm145 1270v123h125v-123H319z"/><glyph unicode="ð" horiz-adv-x="1103" d="M106 459q0 141 55.5 248.5t158 166T555 932q240 0 346-184-37 262-211 432l-313-131-31 73 275 117q-125 92-289 143l24 72q213-70 346-182l263 110 28-75-225-95q229-235 229-634 0-293-113.5-442.5T549-14q-133 0-233.5 58t-155 165.5T106 459zm93 0q0-186 91-287.5T547 70q164 0 258 103t94 286q0 182-93 285.5T549 848 292 744.5 199 459z"/><glyph unicode="ñ" horiz-adv-x="1132" d="M174 0v991h84V813q45 98 136 150.5t208 52.5q361 0 361-377V0h-86v631q0 158-63.5 230.5T608 934q-158 0-253-97.5T260 578V0h-86zm77 1237q0 88 43 142.5t119 54.5q45 0 85-17.5t95-52.5q41-25 69-38t50-13q47 0 75 34.5t26 79.5h69q0-88-43-142t-119-54q-45 0-86 18.5t-94 53.5q-41 25-68.5 38t-50.5 13q-47 0-74.5-35t-25.5-82h-70z"/><glyph unicode="ò" horiz-adv-x="1097" d="M106 502q0 154 55.5 270.5t156 180T549 1016t231.5-63.5T936 772t55-270q0-156-55-272.5t-155.5-180T549-14 317.5 49.5t-156 180T106 502zm93 0q0-209 91-320.5T547 70q170 0 261 111.5T899 502q0 203-93 316.5T549 932 292 818.5 199 502zm55 1032h127l205-410h-74z"/><glyph unicode="ó" horiz-adv-x="1097" d="M106 502q0 154 55.5 270.5t156 180T549 1016t231.5-63.5T936 772t55-270q0-156-55-272.5t-155.5-180T549-14 317.5 49.5t-156 180T106 502zm93 0q0-209 91-320.5T547 70q170 0 261 111.5T899 502q0 203-93 316.5T549 932 292 818.5 199 502zm313 622l205 410h127l-258-410h-74z"/><glyph unicode="ô" horiz-adv-x="1097" d="M106 502q0 154 55.5 270.5t156 180T549 1016t231.5-63.5T936 772t55-270q0-156-55-272.5t-155.5-180T549-14 317.5 49.5t-156 180T106 502zm93 0q0-209 91-320.5T547 70q170 0 261 111.5T899 502q0 203-93 316.5T549 932 292 818.5 199 502zm84 622l227 410h78l227-410H711l-162 324-162-324H283z"/><glyph unicode="õ" horiz-adv-x="1097" d="M106 502q0 154 55.5 270.5t156 180T549 1016t231.5-63.5T936 772t55-270q0-156-55-272.5t-155.5-180T549-14 317.5 49.5t-156 180T106 502zm93 0q0-209 91-320.5T547 70q170 0 261 111.5T899 502q0 203-93 316.5T549 932 292 818.5 199 502zm34 735q0 88 43 142.5t119 54.5q45 0 85-17.5t95-52.5q41-25 69-38t50-13q47 0 75 34.5t26 79.5h69q0-88-43-142t-119-54q-45 0-86 18.5t-94 53.5q-41 25-68.5 38t-50.5 13q-47 0-74.5-35t-25.5-82h-70z"/><glyph unicode="ö" horiz-adv-x="1097" d="M106 502q0 154 55.5 270.5t156 180T549 1016t231.5-63.5T936 772t55-270q0-156-55-272.5t-155.5-180T549-14 317.5 49.5t-156 180T106 502zm93 0q0-209 91-320.5T547 70q170 0 261 111.5T899 502q0 203-93 316.5T549 932 292 818.5 199 502zm122 768v123h125v-123H321zm330 0v123h125v-123H651z"/><glyph unicode="÷" d="M115 539v82h999v-82H115zM520 84v168h164V84H520zm0 827v168h164V911H520z"/><glyph unicode="ø" horiz-adv-x="1097" d="M106 502q0 154 55.5 270.5t156 180T549 1016q125 0 217-55l68 114 73-41-71-123q75-67 115-172.5T991 502q0-156-55-272.5t-155.5-180T549-14q-121 0-217 55L266-74l-76 43 72 123q-74 68-115 172.5T106 502zm95 0q0-225 104-336l420 723q-74 43-176 43-164 0-256-113.5T201 502zm172-391q76-41 174-41 170 0 261 111.5T899 502q0 109-27.5 193.5T793 836z"/><glyph unicode="ù" horiz-adv-x="1116" d="M170 365v626h86V373q0-156 63.5-229.5T516 70q154 0 247 97t93 259v565h86V0h-84v186Q811 90 722 38T520-14q-172 0-261 96t-89 283zm94 1169h127l205-410h-74z"/><glyph unicode="ú" horiz-adv-x="1116" d="M170 365v626h86V373q0-156 63.5-229.5T516 70q154 0 247 97t93 259v565h86V0h-84v186Q811 90 722 38T520-14q-172 0-261 96t-89 283zm352 759l205 410h127l-258-410h-74z"/><glyph unicode="û" horiz-adv-x="1116" d="M170 365v626h86V373q0-156 63.5-229.5T516 70q154 0 247 97t93 259v565h86V0h-84v186Q811 90 722 38T520-14q-172 0-261 96t-89 283zm123 759l227 410h78l227-410H721l-162 324-162-324H293z"/><glyph unicode="ü" horiz-adv-x="1116" d="M170 365v626h86V373q0-156 63.5-229.5T516 70q154 0 247 97t93 259v565h86V0h-84v186Q811 90 722 38T520-14q-172 0-261 96t-89 283zm161 905v123h125v-123H331zm330 0v123h125v-123H661z"/><glyph unicode="ý" horiz-adv-x="1032" d="M45 991h92L516 76l381 915h90L406-369h-89L471-10zm434 133l205 410h127l-258-410h-74z"/><glyph unicode="þ" horiz-adv-x="1157" d="M174-369v1813h86V805q45 102 134 156.5t214 54.5q127 0 227.5-62.5t158-179.5 57.5-276q0-160-57.5-276t-158-176T608-14q-125 0-214 55T260 201v-570h-86zm86 871q0-207 90-319.5T606 70q168 0 259 112.5T956 498q0 201-91 317.5T608 932q-168 0-258-111.5T260 502z"/><glyph unicode="ÿ" horiz-adv-x="1032" d="M45 991h92L516 76l381 915h90L406-369h-89L471-10zm243 279v123h125v-123H288zm330 0v123h125v-123H618z"/><glyph unicode="Œ" horiz-adv-x="2142" d="M137 723q0 348 182.5 534.5T842 1444h1186v-80h-785V772h744v-80h-744V80h785V0H842Q502 0 319.5 187.5T137 723zm92 0q0-319 155-481T846 80h313v1284H846q-616 0-617-641z"/><glyph unicode="œ" horiz-adv-x="1857" d="M106 502q0 154 55.5 270.5t156 180T551 1016q141 0 243.5-77T944 725q49 135 155.5 213t252.5 78q190 0 296.5-125T1755 541v-54H993q4-201 101.5-309T1372 70q166 0 326 129l41-74q-61-61-162.5-100T1374-14q-160 0-269.5 76.5T948 285Q901 142 798.5 64T551-14q-133 0-233.5 63.5t-156 180T106 502zm93 0q0-209 91-320.5T547 70q170 0 261 111.5T899 502q0 203-92 316.5T549 932q-164 0-257-113.5T199 502zm796 65h678q-4 178-88 273.5T1352 936q-154 0-247-97.5T995 567z"/><glyph unicode="Ÿ" horiz-adv-x="1189" d="M2 1444h100l494-670 494 670h96L637 700V0h-86v702zm364 217v123h125v-123H366zm330 0v123h125v-123H696z"/><glyph unicode="ˆ" horiz-adv-x="614" d="M41 1124l227 410h78l227-410H469l-162 324-162-324H41z"/><glyph unicode="˜" horiz-adv-x="614" d="M-9 1237q0 88 43 142.5t119 54.5q45 0 85-17.5t95-52.5q41-25 69-38t50-13q47 0 75 34.5t26 79.5h69q0-88-43-142t-119-54q-45 0-86 18.5t-94 53.5q-41 25-68.5 38t-50.5 13q-47 0-74.5-35T61 1237H-9z"/><glyph horiz-adv-x="936"/><glyph horiz-adv-x="1872"/><glyph horiz-adv-x="936"/><glyph horiz-adv-x="1872"/><glyph horiz-adv-x="624"/><glyph horiz-adv-x="468"/><glyph horiz-adv-x="312"/><glyph horiz-adv-x="312"/><glyph horiz-adv-x="234"/><glyph horiz-adv-x="374"/><glyph horiz-adv-x="104"/><glyph unicode="‐" horiz-adv-x="851" d="M156 504v78h540v-78H156z"/><glyph unicode="‑" horiz-adv-x="851" d="M156 504v78h540v-78H156z"/><glyph unicode="‒" horiz-adv-x="851" d="M156 504v78h540v-78H156z"/><glyph unicode="–" horiz-adv-x="1024" d="M0 510v68h1024v-68H0z"/><glyph unicode="—" horiz-adv-x="2048" d="M0 510v68h2048v-68H0z"/><glyph unicode="‘" horiz-adv-x="434" d="M145 1110v111q0 70 20.5 127t70.5 106l55-41q-39-43-53.5-81t-16.5-79h66v-143H145z"/><glyph unicode="’" horiz-adv-x="434" d="M143 1141q39 43 52.5 79.5T211 1300h-66v144h142v-113q0-70-20.5-127T197 1100z"/><glyph unicode="‚" horiz-adv-x="434" d="M143-160q39 43 52.5 80T211 0h-66v143h142V31q0-70-20.5-127.5T197-201z"/><glyph unicode="“" horiz-adv-x="727" d="M145 1110v111q0 70 20.5 127t70.5 106l55-41q-39-43-53.5-81t-16.5-79h66v-143H145zm293 0v111q0 70 20.5 127t70.5 106l55-41q-39-43-53.5-81t-16.5-79h66v-143H438z"/><glyph unicode="”" horiz-adv-x="727" d="M143 1141q39 43 52.5 79.5T211 1300h-66v144h142v-113q0-70-20.5-127T197 1100zm293 0q39 43 52.5 79.5T504 1300h-66v144h142v-113q0-70-20.5-127T490 1100z"/><glyph unicode="„" horiz-adv-x="727" d="M143-160q39 43 52.5 80T211 0h-66v143h142V31q0-70-20.5-127.5T197-201zm293 0q39 43 52.5 80T504 0h-66v143h142V31q0-70-20.5-127.5T490-201z"/><glyph unicode="•" horiz-adv-x="1073" d="M166 543q0 94 48 178t133 135 190 51q98 0 183-48t136-131 51-185q0-98-50-181T722 229.5 537 180q-99 0-185 48T216 359t-50 184z"/><glyph unicode="…" horiz-adv-x="1300" d="M145 0v143h142V0H145zm435 0v143h141V0H580zm434 0v143h141V0h-141z"/><glyph horiz-adv-x="374"/><glyph unicode="‹" horiz-adv-x="483" d="M123 520v45l188 326 68-25-166-323 166-326-70-22z"/><glyph unicode="›" horiz-adv-x="483" d="M102 217l166 326-166 323 70 25 188-326v-45L172 195z"/><glyph horiz-adv-x="468"/><glyph unicode="€" d="M29 528v82h227q-4 74-4 113t4 113H29v82h235q35 262 167 402t345 140q250 0 422-194l-43-72q-72 86-175 135t-208 49q-174 0-281.5-117.5T352 918h385v-82H344q-4-74-4-113 0-43 4-113h393v-82H352q29-229 135.5-345.5T772 66q105 0 208 49t175 135l43-72q-78-88-193.5-141T776-16q-213 0-345 140T264 528H29z"/><glyph unicode="™" horiz-adv-x="1841" d="M8 1368v76h701v-76H401V582h-86v786H8zm840-786v862h70l339-643 334 643h70V582h-80v690l-293-561h-63l-295 551V582h-82z"/><glyph unicode="◼" horiz-adv-x="993" d="M0 0v993h993V0H0z"/></font>
</defs>
</svg>
