<svg xmlns="http://www.w3.org/2000/svg"><defs><font id="nunito_sansextralight_italic" horiz-adv-x="1228"><font-face units-per-em="2048" ascent="1638" descent="-410"/><glyph unicode="ﬁ" horiz-adv-x="1048" d="M51 918l4 73h199l4 58q14 197 107.5 291T647 1444l68 4 2-76-90-6q-137-10-204-83t-77-222l-6-70h571L836 0h-86l71 918H334L262 0h-86l72 918H51zm772 348l13 133h133l-13-133H823z"/><glyph unicode="ﬂ" horiz-adv-x="1052" d="M51 918l4 73h199l4 58q14 197 107.5 291T647 1444l68 4v-76l-88-6q-138-10-204.5-83T346 1061l-6-70h299l-4-73H334L262 0h-86l72 918H51zM753 0l115 1444h86L839 0h-86z"/><glyph horiz-adv-x="0"/><glyph horiz-adv-x="503"/><glyph horiz-adv-x="0"/><glyph horiz-adv-x="0"/><glyph horiz-adv-x="503"/><glyph horiz-adv-x="503"/><glyph horiz-adv-x="503"/><glyph unicode="!" horiz-adv-x="434" d="M106 0l13 143h139L248 0H106zm68 332l59 1112h111L229 332h-55z"/><glyph unicode="&quot;" horiz-adv-x="808" d="M211 901l16 543h107l-66-543h-57zm395 0l16 543h107l-66-543h-57z"/><glyph unicode="#" d="M47 391l4 82h234l139 514H135l4 82h307l103 375h86l-103-375h386l102 375h88l-102-375h213l-5-82H983L844 473h286l-4-82H821L715 0h-86l106 391H350L244 0h-88l106 391H47zm326 82h385l139 514H512z"/><glyph unicode="$" d="M90 184l47 74q106-102 215-146t258-44q186 0 290 82.5T1004 379q0 78-48.5 129t-119 80.5T641 657q-147 45-235.5 84T255 855t-62 194q0 121 60 214t168.5 145 248.5 52l18 219h84l-18-223q258-25 401-190l-49-74q-78 94-186.5 139T659 1376q-172 0-273-87t-101-236q0-90 52-148.5T464 813t208-74q139-43 223-79.5T1036.5 555t57.5-174q0-113-56.5-201t-160-140T637-18l-16-218h-86l16 220Q410-8 292 42T90 184z"/><glyph unicode="%" horiz-adv-x="1878" d="M174 963q0 233 92 365t256 132q158 0 241-99t83-292q0-231-92-361T498 578q-158 0-241 99t-83 286zm94-11q0-154 56.5-226.5T500 653q123 0 187.5 109.5T752 1081q0 154-56.5 227.5T522 1382q-125 0-189.5-109.5T268 952zM432 2l977 1487 72-47L504-45zm637 369q0 236 92 366.5T1417 868q158 0 241-98t83-291q0-233-92.5-363T1393-14q-156 0-240 99t-84 286zm94-11q0-152 56.5-224.5T1395 63q123 0 187.5 109t64.5 320q0 152-56.5 225.5T1417 791q-125 0-189.5-110T1163 360z"/><glyph unicode="&amp;" horiz-adv-x="1327" d="M131 348q0 123 75 226.5T459 797l26 16q-106 123-144 196.5T303 1165q0 133 87 213t233 80q133 0 210.5-72.5T911 1188q0-70-26.5-126t-91-116.5T608 799l393-455q100 201 101 483h86q-6-332-131-546L1300 0h-104l-184 211Q930 102 817.5 44T567-14q-129 0-228 45T185.5 159 131 348zm88-2q0-129 94.5-204.5T569 66q121 0 220.5 53T958 272L539 752q-6-6-12.5-9.5T516 735Q348 622 283.5 537.5T219 346zm176 817q0-69 32-130.5T553 860q158 106 214 174t56 146q0 88-56 142t-146 54q-102 0-164-58t-62-155z"/><glyph unicode="'" horiz-adv-x="413" d="M211 901l16 543h107l-66-543h-57z"/><glyph unicode="(" horiz-adv-x="575" d="M215 373q0 293 77 572.5T512 1466l66-28Q302 916 301 373q0-371 133-738l-67-24Q215-14 215 373z"/><glyph unicode=")" horiz-adv-x="575" d="M4-360Q280 168 281 705q0 377-134 737l70 24q152-375 152-761 0-293-78-572.5T70-389z"/><glyph unicode="*" horiz-adv-x="917" d="M123 1065v80l330-6-172 280 67 39 160-289 158 289 67-39-168-280 328 6v-80l-328 6 168-278-67-39-158 286-160-288-65 41 170 278z"/><glyph unicode="+" d="M117 539l8 82h461l37 460h77l-36-460h460l-8-82H657L621 82h-78l37 457H117z"/><glyph unicode="," horiz-adv-x="434" d="M92-160q41 43 58.5 81T172 0h-66l13 143h139l-8-118q-6-70-29.5-123.5T143-201z"/><glyph unicode="-" horiz-adv-x="851" d="M158 504l6 78h541l-7-78H158z"/><glyph unicode="." horiz-adv-x="434" d="M106 0l13 143h139L248 0H106z"/><glyph unicode="/" horiz-adv-x="524" d="M-84-84l643 1612 82-35L-4-119z"/><glyph unicode="0" d="M141 608q0 406 136.5 629T659 1460q229 0 347-159.5T1124 836q0-406-136-629T604-16q-227 0-345 159.5T141 608zm92-18q0-264 92.5-393T608 68q209 0 316.5 199.5T1032 854q0 264-92 393t-281 129q-209 0-317.5-198.5T233 590z"/><glyph unicode="1" d="M256 0l8 78h318l100 1243-274-172-48 72 330 211 21 12h63L668 78h321l-6-78H256z"/><glyph unicode="2" d="M156 0l4 66 569 581q141 143 197.5 246.5T983 1112q0 121-77 193.5T702 1378q-123 0-229-43t-215-137l-35 72q88 88 215 139t256 51q172 0 274.5-93t102.5-253q0-133-66.5-257T780 573L285 78h772l-6-78H156z"/><glyph unicode="3" d="M115 176l47 72q102-92 204.5-136T586 68q172 0 271 88t99 250q0 143-90 215.5T600 694H457l6 80h135q174 0 279.5 96.5T983 1124q0 115-79 184.5T696 1378q-119 0-224-43t-214-137l-35 72q90 88 216 139t257 51q170 0 272.5-93t102.5-249q0-127-73.5-231.5T799 737q116-30 180.5-114t64.5-211q0-195-126.5-310.5T580-14q-135 0-253 48T115 176z"/><glyph unicode="4" d="M111 340l4 68 796 1036h72L901 420h232l-7-80H895L868 0h-86l27 340H168l-4-4v4h-53zm118 80h586l68 848z"/><glyph unicode="5" d="M166 176l49 72q104-92 205.5-136T631 68q174 0 278.5 111.5T1014 475q0 150-89 241t-235 91q-246 0-377-205h-77l63 842h831l-6-80H381l-49-631q59 72 153.5 115T682 891q193 0 308.5-113.5T1106 475q0-143-61.5-253.5t-171-173T625-14q-129 0-248 49T166 176z"/><glyph unicode="6" horiz-adv-x="1226" d="M147 594q0 262 72 457.5t203 302T727 1460q123 0 235.5-49t204.5-141l-47-72q-193 180-395 180-207 0-334-174T240 707l-9-97q53 129 165 205t257 76q135 0 236.5-54.5t158-153.5 56.5-228q0-135-59.5-243t-164-168T645-16q-238 0-368 158.5T147 594zm125-174q0-158 102.5-256T645 66q164 0 266.5 108.5T1014 457q0 158-99.5 254T651 807q-108 0-195-50T320.5 618.5 272 420z"/><glyph unicode="7" d="M229 1366l9 78h903l-4-64L342 0h-92l786 1366H229z"/><glyph unicode="8" d="M106 369q0 131 81 234.5T408 743q-104 39-159.5 121T193 1061q0 119 59 209t167.5 140 254.5 50q213 0 331.5-95t118.5-255q0-135-71.5-234.5T856 735q248-80 248-354 0-117-60.5-206t-175-138T598-12q-242 0-367 96T106 369zm93-9q0-143 96-215.5T592 72t310.5 80.5T1012 383q0 160-93.5 233.5T612 690q-201 0-307-82T199 360zm86 699q0-133 93-209t271-76q184 0 283.5 88t99.5 242q0 129-91 201.5T672 1378q-186 0-286.5-85T285 1059z"/><glyph unicode="9" d="M100 174l47 72Q344 66 543 66q209 0 335 174t150 497l8 97q-53-129-164.5-205T614 553q-135 0-236.5 54.5T220 761t-56 228q0 135 59.5 242.5t165 168T625 1460q237 0 366-159.5T1120 850q0-262-71.5-457.5T846 90.5 541-16q-121 0-233.5 48T100 174zm156 813q0-158 98.5-254T616 637q109 0 196 50t135 138 48 199q0 158-103.5 256T621 1378q-164 0-264.5-108.5T256 987z"/><glyph unicode=":" horiz-adv-x="434" d="M106 0l13 143h139L248 0H106zm68 848l10 143h142l-11-143H174z"/><glyph unicode=";" horiz-adv-x="434" d="M92-160q41 43 58.5 81T172 0h-66l13 143h139l-8-118q-6-70-29.5-123.5T143-201zm82 1008l10 143h142l-11-143H174z"/><glyph unicode="&lt;" d="M119 543l6 73 1036 476-8-88-928-424 862-422-6-90z"/><glyph unicode="=" d="M102 334l7 82h999l-6-82H102zm31 409l8 82h1000l-8-82H133z"/><glyph unicode="&gt;" d="M82 68l6 90 928 422-862 424 8 88 962-476-6-73z"/><glyph unicode="?" horiz-adv-x="878" d="M63 1270q90 88 215 139t244 51q160 0 252-75.5t92-202.5q0-84-27.5-154T769 903 655 768Q553 655 494.5 565T418 352l-2-20h-54v22q6 98 40 179t77 141.5T594 817q94 106 138 182t44 175q0 94-67.5 149T520 1378q-213 0-420-180zM293 0l10 143h139L432 0H293z"/><glyph unicode="@" horiz-adv-x="1882" d="M119 567q0 262 111.5 464t306 312.5T971 1454q260 0 443-110.5t275.5-282.5 92.5-352q0-213-62.5-342T1565 184.5 1376 131q-111 0-169 48t-60 140h-4q-49-86-132-137t-184-51q-125 0-207.5 91T537 483q0 137 53 260t152.5 200 228.5 77q104 0 181-53.5t93-130.5h2l25 155h86l-103-594q-6-37-6-65 0-72 36-98.5t108-26.5q70 0 138 49t116.5 161.5T1696 709q0 156-80 307t-244 250.5-401 99.5q-217 0-391-98.5T305.5 988 205 567q0-238 92-414t265-272 411-96q184 0 321.5 56.5T1507 0h117q-90-143-260-223t-391-80q-258 0-451.5 108.5t-298 305T119 567zm497-73q0-141 66-214t162-73q112 0 196 67.5t128 177 44 228.5q0 127-64.5 194.5T975 942q-109 0-189.5-64.5t-125-168T616 494z"/><glyph unicode="A" horiz-adv-x="1462" d="M31 0l733 1444h82L1354 0h-90l-142 399H326L123 0H31zm336 481h727l-297 850z"/><glyph unicode="B" horiz-adv-x="1361" d="M158 0l112 1444h512q223 0 337-89t114-261q0-129-67.5-223.5T969 735q121-30 182-111t61-206q0-199-124.5-308.5T733 0H158zm92 80h489q187 0 285 82t98 239q0 291-358 291H297zm53 694h461q178 0 279.5 84t101.5 240q0 131-90 198.5T788 1364H350z"/><glyph unicode="C" horiz-adv-x="1386" d="M154 655q0 244 80.5 426.5t230 280.5 354.5 98q164 0 294-49t220-145l-49-70q-100 96-208.5 138T813 1376q-178 0-306-86t-195.5-248.5T244 653q0-281 135-433T764 68q260 0 444 182l39-72q-104-98-229-146T737-16q-176 0-308 80.5T225.5 297 154 655z"/><glyph unicode="D" horiz-adv-x="1484" d="M158 0l112 1444h432q324 0 494-170t170-488q0-369-184.5-577.5T657 0H158zm92 78h409q301 0 458 185.5T1274 788q0 578-569 578H350z"/><glyph unicode="E" horiz-adv-x="1179" d="M158 0l112 1444h869l-4-80H350l-47-592h744l-9-80H297L250 80h782l-6-80H158z"/><glyph unicode="F" horiz-adv-x="1122" d="M158 0l112 1444h848l-4-80H350l-47-592h723l-8-78H297L242 0h-84z"/><glyph unicode="G" horiz-adv-x="1466" d="M152 633q0 252 85 438t241.5 286.5T848 1458q299 0 489-192l-49-72q-106 98-209.5 140T848 1376q-188 0-324.5-88t-209-253T242 641q0-276 137-425.5T784 66q98 0 203 19t191 54l39 506H817l6 82h480l-50-647q-86-41-217-68.5T793-16q-313 0-477 171T152 633z"/><glyph unicode="H" horiz-adv-x="1538" d="M158 0l112 1444h84l-51-672h973l-8-78H297L244 0h-86zm1059 0l112 1444h86L1303 0h-86z"/><glyph unicode="I" horiz-adv-x="477" d="M158 0l112 1444h84L242 0h-84z"/><glyph unicode="J" horiz-adv-x="608" d="M-53-12v78l106 8q117 10 184.5 83.5T317 365l84 1079h84L401 360Q374 20 53-4z"/><glyph unicode="K" horiz-adv-x="1226" d="M158 0l112 1444h84l-53-670 811 670h129L377 739 1176 0h-115L297 702 242 0h-84z"/><glyph unicode="L" horiz-adv-x="1079" d="M158 0l112 1444h84L250 78h766l-6-78H158z"/><glyph unicode="M" horiz-adv-x="1720" d="M158 0l110 1444h78L848 305l674 1139h75L1485 0h-84l98 1253L877 225h-70L342 1260 242 0h-84z"/><glyph unicode="N" horiz-adv-x="1499" d="M158 0l112 1444h72l850-1297 104 1297h80L1264 0h-70L340 1305 238 0h-80z"/><glyph unicode="O" horiz-adv-x="1538" d="M154 655q0 244 79.5 426.5t226 280.5 343.5 98q190 0 329.5-81t213-232.5T1419 786q0-242-79.5-424t-227-280T768-16q-190 0-328.5 80.5T227.5 297 154 655zm92-2q0-281 136-432T770 70q172 0 298 86t192.5 247.5T1327 788q0 283-135 434.5T803 1374q-172 0-298-86t-192.5-248.5T246 653z"/><glyph unicode="P" horiz-adv-x="1294" d="M158 0l112 1444h512q219 0 334-103.5t115-281.5q0-217-134-327.5T727 621H291L242 0h-84zm139 702h434q410 1 410 357 0 145-88 225t-269 80H348z"/><glyph unicode="Q" horiz-adv-x="1538" d="M154 655q0 244 79.5 426.5t226 280.5 343.5 98q190 0 329.5-81t213-232.5T1419 786q0-303-125-510.5T934 8q37-16 67.5-51t63.5-96l111-205-72-45-129 237Q905-21 725-14 555-8 426 72T225.5 301.5 154 655zm92-2q0-281 136-432T770 70q172 0 298 86t192.5 247.5T1327 788q0 283-135 434.5T803 1374q-172 0-298-86t-192.5-248.5T246 653z"/><glyph unicode="R" horiz-adv-x="1386" d="M158 0l112 1444h545q217 0 334-93.5t117-277.5q0-182-103.5-290.5T862 655q47-16 80-54t64-105L1229 0h-94L930 463q-45 102-112.5 139T625 639H293L242 0h-84zm141 721h469q207 0 307.5 85t100.5 263q0 150-89.5 222.5T819 1364H350z"/><glyph unicode="S" horiz-adv-x="1224" d="M80 178l49 72q111-98 223.5-141T612 66q203 0 309.5 79.5T1028 369q0 86-50 139t-125 83-206 66q-152 43-246 83T241.5 860 176 1069q0 119 61.5 207t175 136 265.5 48q150 0 275.5-49t222.5-145l-50-72q-201 184-446 184-203 0-309.5-82T264 1067q0-96 54.5-156.5T454 816t216-71q150-43 236.5-79.5t148-108.5 61.5-188q0-117-61.5-204t-175-134T614-16q-170 0-297 46T80 178z"/><glyph unicode="T" horiz-adv-x="1196" d="M94 1366l6 78h1147l-6-78H709L602 0h-86l109 1366H94z"/><glyph unicode="U" horiz-adv-x="1464" d="M186 475q0 45 2 70l72 899h84l-70-891q-2-25-2-70 0-415 420-415h2q471 0 504 467l70 909h86l-70-895q-23-283-171-424T696-16q-252 0-381 128T186 475z"/><glyph unicode="V" horiz-adv-x="1372" d="M98 1444h88L653 106l678 1338h92L688 0h-84z"/><glyph unicode="W" horiz-adv-x="2238" d="M160 1444h84L594 123l561 1321 74-2 352-1317 559 1319h86L1614 0h-80l-352 1305L625 0h-78z"/><glyph unicode="X" horiz-adv-x="1290" d="M10 0l606 743-460 701h102l412-635 510 635h104L715 741 1202 0h-102L662 676 113 0H10z"/><glyph unicode="Y" horiz-adv-x="1189" d="M76 1444h96l442-670 545 670h101L653 702 598 0h-86l55 700z"/><glyph unicode="Z" horiz-adv-x="1185" d="M47 0l4 63 998 1301H156l6 80h946l4 4v-4h49l-4-64L164 80h913l-8-80H104l-4-4v4H47z"/><glyph unicode="[" horiz-adv-x="575" d="M162-369l143 1813h336l-4-76H385L254-293h250l-4-76H162z"/><glyph unicode="\" horiz-adv-x="524" d="M39 1505l88 23L518-96l-88-23z"/><glyph unicode="]" horiz-adv-x="575" d="M-59-369l4 76h252l133 1661H78l4 76h338L276-369H-59z"/><glyph unicode="^" d="M88 287l551 999h74l395-999h-84l-354 893-494-893H88z"/><glyph unicode="_" horiz-adv-x="1024" d="M-37-68l6 68H977l-4-68H-37z"/><glyph unicode="`" horiz-adv-x="614" d="M98 1534h119l176-410h-74z"/><glyph unicode="a" horiz-adv-x="1067" d="M125 268q0 111 59.5 175.5t194.5 94T743 567h72l6 80q2 18 2 51 0 121-56 177.5T592 932q-174 0-342-109l-37 76q74 53 176.5 85t198.5 32q325-1 325-318 0-31-2-47L858 0h-88l14 178Q735 82 651 34T463-14q-150 0-244 78.5T125 268zm96 4q0-92 65.5-146T467 72q135 0 230.5 94T803 408l6 79h-59q-219 0-333-22.5T262 397t-41-125z"/><glyph unicode="b" horiz-adv-x="1157" d="M135 0l115 1444h86l-49-617q49 88 141 138.5t201 50.5q125 0 221-59.5t149.5-168T1053 535q0-164-58.5-289t-164-192.5T590-14q-125 0-217 56T238 201L221 0h-86zm123 455q0-186 88-285.5T600 70q168 0 263 126t95 349q0 184-89 285.5T621 932q-170 0-266.5-127T258 455z"/><glyph unicode="c" horiz-adv-x="962" d="M106 463q0 164 58.5 290t167 194.5T586 1016q102 0 192-36t154-97l-45-74q-82 66-153.5 95.5T578 934q-180 0-279.5-127T199 457q0-182 89-284.5T545 70q80 0 147.5 28.5T838 193l34-72q-61-63-149-99T535-14q-129 0-225.5 59t-150 166.5T106 463z"/><glyph unicode="d" horiz-adv-x="1157" d="M106 465q0 164 58.5 289t163 193.5T569 1016q125 0 217.5-56.5T922 803l49 641h86L944 0h-86l14 178Q823 88 731 37T530-14q-125 0-221 59T159.5 213 106 465zm93-2q0-186 90-289.5T539 70q170 0 266 127t96 350q0 186-88 285.5T559 932q-168 0-264-126t-96-343z"/><glyph unicode="e" horiz-adv-x="1073" d="M106 463q0 164 58.5 290t167 194.5T588 1016q184 0 288.5-109.5T981 582q0-61-4-95H201v-32q0-178 90-281.5T551 70q199 0 344 125l37-74q-59-61-166-98T553-14q-207 0-327 129T106 463zm103 104h688q1 16 1 31 0 158-75 244-82 94-229 94-164 0-263.5-97.5T209 567z"/><glyph unicode="f" horiz-adv-x="618" d="M51 918l4 73h199l4 58q14 197 107.5 291T647 1444l68 4v-76l-88-6q-138-10-204.5-83T346 1061l-6-70h299l-4-73H334L262 0h-86l72 918H51z"/><glyph unicode="g" horiz-adv-x="1165" d="M109 489q0 158 57 277t162.5 184.5T573 1016q127 0 220.5-56.5T930 803l14 188h86L956 45q-35-428-426-428-121 0-222 35T115-242l45 72q102-74 182-101.5T530-299q313 0 342 344l15 191q-45-96-139.5-150.5T541 31q-197 0-314.5 125T109 489zm92-8q0-178 88-272t256-94q170 0 267 119.5T909 565q0 174-90 270.5T565 932q-170 0-267-120t-97-331z"/><glyph unicode="h" horiz-adv-x="1132" d="M135 0l115 1444h86l-51-621q51 92 141 142.5t205 50.5q168 0 256-83t88-245q0-35-2-53L924 0h-86l49 627q2 18 2 53 0 254-254 254-162 0-259-95.5T266 578L221 0h-86z"/><glyph unicode="i" horiz-adv-x="434" d="M135 0l78 991h86L221 0h-86zm78 1268l10 129h129l-10-129H213z"/><glyph unicode="j" horiz-adv-x="434" d="M-219-297l84 4q129 10 194.5 75.5T133-18l80 1009h86L221-8q-27-338-348-361l-88-6zm432 1565l10 129h129l-10-129H213z"/><glyph unicode="k" horiz-adv-x="958" d="M135 0l115 1444h86l-74-918 551 465h123L365 514 922 0H803L260 498 221 0h-86z"/><glyph unicode="l" horiz-adv-x="434" d="M135 0l115 1444h86L221 0h-86z"/><glyph unicode="m" horiz-adv-x="1708" d="M135 0l78 991h84l-12-170q45 96 126 145.5t191 49.5q244 0 299-195 47 92 136 143.5t204 51.5q154 0 232.5-82t78.5-242q0-37-2-57L1499 0h-86l51 627q2 20 2 55 0 129-56 190.5T1239 934q-147 0-233-93T905 580L860 0h-86l49 627q2 20 2 61 0 125-56 185.5T598 934q-145 0-232-93T266 580L221 0h-86z"/><glyph unicode="n" horiz-adv-x="1132" d="M135 0l78 991h84l-14-172q51 94 141 145.5t207 51.5q168 0 256-83t88-245q0-35-2-53L924 0h-86l49 627q2 18 2 53 0 254-254 254-162 0-259-95.5T266 578L221 0h-86z"/><glyph unicode="o" horiz-adv-x="1097" d="M106 463q0 164 57.5 289t161 194.5T565 1016q195 0 311.5-130T993 537q0-164-57-289T774.5 54.5 535-14q-129 0-225.5 59t-150 166.5T106 463zm93-6q0-186 89-286.5T541 70q166 0 263 126t97 347q0 184-90 286.5T561 932q-168 0-265-126t-97-349z"/><glyph unicode="p" horiz-adv-x="1157" d="M106-369L213 991h86l-12-166q49 90 141 140.5t201 50.5q125 0 221-59.5t149.5-168T1053 535q0-164-58.5-289t-164-192.5T590-14q-125 0-217 56T238 201l-45-570h-87zm152 824q0-186 88-285.5T600 70q168 0 263 126t95 349q0 184-89 285.5T621 932q-170 0-266.5-127T258 455z"/><glyph unicode="q" horiz-adv-x="1157" d="M104 467q0 164 58.5 289t164 192.5T567 1016q125 0 218.5-56.5T920 803l16 188h86L913-369h-86l43 547Q821 88 728 37T528-14q-125 0-221 59T157.5 213 104 467zm93-10q0-182 90-284.5T535 70q170 0 267 127t97 350q0 186-88 285.5T557 932q-168 0-264-126t-96-349z"/><glyph unicode="r" horiz-adv-x="667" d="M135 0l78 991h86l-12-174q49 94 132 139t218 56l45 4 4-78-70-8q-319-31-348-336L221 0h-86z"/><glyph unicode="s" horiz-adv-x="974" d="M84 121l45 72q82-66 155.5-93.5T455 72q286 0 286 181 0 58-34.5 95t-85 58.5T483 453q-102 31-164.5 58.5T212 592t-44 139v5q0 127 100 203 102 77 269 77 100 0 188-35t145-98l-45-74Q692 930 539 930q-133 0-204-49.5T264 733q0-82 63.5-121T518 539q102-29 166-56.5t108-81T836 260q0-125-105.5-199.5T453-14q-107 0-205 35.5T84 121z"/><glyph unicode="t" horiz-adv-x="643" d="M51 918l4 73h199l25 309h86l-25-309h299l-4-73H334l-45-578q-2-16-2-45 0-111 57-169t166-58q49 0 88 8L588-4q-39-8-84-8-145 0-224 79.5T201 287q0 27 2 41l45 590H51z"/><glyph unicode="u" horiz-adv-x="1116" d="M158 315q0 35 2 54l49 622h86l-49-616q-2-16-2-49 0-256 248-256 156 0 251 94t107 262l45 565h86L903 0h-84l15 184Q785 88 695.5 37T496-14q-164 0-251 83t-87 246z"/><glyph unicode="v" horiz-adv-x="1032" d="M84 991h90L481 76l451 915h94L526 0h-98z"/><glyph unicode="w" horiz-adv-x="1699" d="M119 991h92l238-891 387 891h104l244-889 379 889h96L1229 0h-103L879 885 494 0H391z"/><glyph unicode="x" horiz-adv-x="1036" d="M18 0l449 514-350 477h112l291-411 365 411h112L573 510 942 0H829L516 444 129 0H18z"/><glyph unicode="y" horiz-adv-x="1032" d="M84 991h90L481 76l451 915h94L338-369h-88L430-10z"/><glyph unicode="z" horiz-adv-x="1015" d="M61 0l7 59 749 859H164l6 73h766l-4-69L193 76h696l-6-76H61z"/><glyph unicode="{" horiz-adv-x="651" d="M111 502l4 73 43 3q86 4 123.5 44T326 745l39 525q16 174 184 174h168l-4-76H551q-88 0-98-94l-41-535q-6-88-51.5-138T256 539q59-12 95-62.5T381 338l-43-537q-4-47 15.5-70.5T420-293h160l-5-76H426q-188 0-176 174l41 527q2 12 2 35 0 68-32 99.5T152 500z"/><glyph unicode="|" horiz-adv-x="501" d="M137-369l144 1813h88L225-369h-88z"/><glyph unicode="}" horiz-adv-x="651" d="M-59-369l4 76h161q92 0 99 94l43 537q6 88 51 138t104 63q-59 14-94 63t-28 137l38 535q10 94-81 94H78l4 76h149q98 0 140.5-43t36.5-131l-41-525q-6-86 25.5-124.5T510 578l37-3-4-73-41-2q-86-2-123-42t-47-126l-39-527q-8-84-53-129t-129-45H-59z"/><glyph unicode="~" d="M117 518q98 188 268 189 70 0 133.5-27T662 606q70-39 112.5-57.5T858 530q70 0 116 38t81 104l71-31q-49-92-114.5-140T856 453q-68 0-130 25.5T580 553q-72 39-113 57.5T385 629q-70 0-117-39t-82-103z"/><glyph unicode="¡" horiz-adv-x="434" d="M94-369L203 662h53L203-369H94zm80 1217l10 143h142l-11-143H174z"/><glyph unicode="¢" d="M201 463q0 240 118.5 389T645 1014l19 223h86l-19-223q88-8 164-43t131-88l-45-74q-82 66-152.5 95.5T674 934q-182 0-281.5-127T293 457q0-180 90-283.5T639 70q82 0 148.5 28.5T932 193l37-72q-59-59-142.5-95T649-14l-16-222h-86l16 226Q397 13 299 139.5T201 463z"/><glyph unicode="£" d="M66 0l6 78h231l47 604H119l8 82h231l23 295q14 188 119.5 294.5T776 1460q119 0 227.5-50t196.5-144l-49-74q-76 88-173 137t-200 49q-139 0-220-80.5T465 1067l-25-303h394l-7-82H434L387 78h719l-8-78H66z"/><glyph unicode="¤" d="M123 70l113 114q-51 66-80 148t-29 170 27.5 169T233 817L123 934l72 74 110-117q63 57 144 88t169 31q176 0 308-113l106 111 74-74-109-111q53-66 83-148.5t30-172.5-29.5-173T997 180l109-110-74-74-106 110Q795-7 618-6 442-6 305 111L195-4zm92 432q0-117 54.5-215.5T416 131t200-57q111 0 203 57t145.5 155.5T1018 502t-53.5 215T819 872.5 616 930q-109 0-200.5-58.5t-146-156T215 502z"/><glyph unicode="¥" d="M84 1444h102l443-676h8l553 676h102L739 768h357l-9-82H672l-17-225h416l-8-82H647L618 0h-86l31 379H145l9 82h415l19 223v2H170l8 82h354z"/><glyph unicode="¦" horiz-adv-x="501" d="M139-369l54 684h88l-54-684h-88zm88 1129l54 684h88l-54-684h-88z"/><glyph unicode="§" horiz-adv-x="1050" d="M78-250l47 74q92-68 168-94.5T467-297q133 0 204.5 72.5T743-23q0 88-45 152T551 254l-152 90q-156 92-221 174t-65 184q0 82 35.5 159T240 983q-14 45-15 107 0 168 102.5 268T598 1458q88 0 181-38t149-97l-45-74q-76 68-146.5 96.5T578 1374q-119 0-193-77.5T311 1096q0-84 44-144.5T504 827l151-94q158-96 222.5-178T942 369q0-74-35-146.5T813 102q18-51 18-114 0-170-98-269.5T467-381q-115 0-208 32T78-250zm125 952q0-70 50-129t173-137l137-88q156-96 211-174 78 82 78 203 0 70-48 127T631 641l-139 86q-154 98-209 174-80-80-80-199z"/><glyph unicode="¨" horiz-adv-x="614" d="M141 1270l10 123h125l-8-123H141zm330 0l8 123h127l-10-123H471z"/><glyph unicode="©" horiz-adv-x="1669" d="M102 723q0 205 96.5 372T463 1358t373 96 371.5-96 263-263 96.5-372-96.5-372T1206 87 836-10q-205 0-372 97T199.5 351 102 723zm76 0q0-184 87-335.5t237.5-239T836 61q182 0 331.5 87.5t236.5 239 87 335.5-87 334.5-236.5 237.5-331.5 87-333-87-238-237.5T178 723zm266 0q0 203 107.5 321.5T844 1163q82 0 162.5-31.5T1145 1047l-37-66q-72 57-134.5 83T840 1090q-145 0-224-95.5T537 723t78.5-272.5T840 354q72 0 134 26t134 83l37-66q-57-53-138-84.5T844 281q-185 0-292.5 118.5T444 723z"/><glyph unicode="ª" horiz-adv-x="665" d="M117 1012q0 98 85 139t290 41h34l2 41q12 150-125 149-104 0-204-67l-29 63q49 37 112.5 56.5T408 1454q98 0 153-52t55-147l-2-28-28-377h-86l8 90q-29-47-77-73.5T324 840q-92 0-149.5 48T117 1012zm92 4q0-43 35-74t84-31q80 0 132 51.5t60 135.5l2 37h-28q-111 0-172.5-11.5t-87-37T209 1016z"/><glyph unicode="«" horiz-adv-x="806" d="M125 520l4 45 211 326 72-27-195-321 139-326-71-22zm324 0l4 45 211 326 72-27-195-321 139-326-71-22z"/><glyph unicode="¬" d="M135 758l6 80h1000l-41-516h-74l35 436H135z"/><glyph unicode="­" horiz-adv-x="851" d="M158 504l6 78h541l-7-78H158z"/><glyph unicode="®" horiz-adv-x="1669" d="M121 723q0 205 96 372t264 263 373 96 372-96 263-263 96-372-96-372-264-264-371-97q-205 0-372 97T218 351t-97 372zm76 0q0-184 86-335.5t236.5-239T854 61q182 0 331.5 87.5t236.5 239 87 335.5-87 334.5-236.5 237.5-331.5 87-332.5-87T284 1057.5 197 723zm342-432l67 862h316q287 0 286-233 0-107-66.5-173.5T954 668q55-20 95-93l157-284h-94L958 565q-31 53-66.5 72.5T793 657H653l-28-366h-86zm120 444h250q105 0 157 47t52 136q0 88-49 124.5T909 1079H688z"/><glyph unicode="¯" horiz-adv-x="614" d="M69 1288l8 88h596l-6-88H69z"/><glyph unicode="°" horiz-adv-x="745" d="M137 1163q0 82 38 148.5T279.5 1416t146.5 38 145.5-38T675 1311.5t38-148.5-38-148.5T571.5 910 426 872t-146.5 38T175 1014.5 137 1163zm88 0q0-92 56.5-150.5T426 954t144.5 58.5T627 1163t-56.5 150.5T426 1372t-144.5-58.5T225 1163z"/><glyph unicode="±" d="M76 0l8 82h999l-8-82H76zm49 616l6 80h461l31 385h77l-30-385h460l-6-80H664l-31-385h-80l31 385H125z"/><glyph unicode="²" horiz-adv-x="778" d="M127 578l4 66 332 340q76 80 108.5 136t32.5 117q0 66-40 103t-109 37q-55 0-124-28t-128-77l-49 62q137 119 299 118 113 0 176-58t63-157q0-74-39-144.5T532 940L250 654h432l-4-76H127z"/><glyph unicode="³" horiz-adv-x="778" d="M94 691l60 61q115-102 233-102 92 0 147.5 42T590 820q0 162-195 161h-94l4 74h82q102 0 158.5 47t56.5 140q0 63-41 99t-108 36q-55 0-124-28t-126-77l-49 62q137 119 299 118 113 0 176-56t63-142q0-88-44-147.5T534 1020q68-18 105-67t37-127q0-119-80-186.5T391 572q-84 0-162 32.5T94 691z"/><glyph unicode="´" horiz-adv-x="614" d="M319 1124l236 410h133l-295-410h-74z"/><glyph unicode="µ" horiz-adv-x="1116" d="M102-369L209 991h86l-49-616q-2-16-2-49 0-256 248-256 156 0 251 94t107 262l45 565h86L903 0h-84l15 184Q785 88 695.5 37T496-14q-180 0-271 96l-37-451h-86z"/><glyph unicode="¶" horiz-adv-x="1138" d="M152 1036q0 180 107.5 294T565 1444h451L872-369h-98l135 1721H655L520-369h-98l82 1055q-158 4-255 99.5T152 1036z"/><glyph unicode="·" horiz-adv-x="434" d="M145 471l11 143h141l-10-143H145z"/><glyph unicode="¸" horiz-adv-x="614" d="M90-350l29 69q74-29 149-28 63 0 97 21.5t34 62.5q0 31-19.5 47T324-162q-45 0-99-22l-37 28 37 197h86L287-90q29 6 53 6 66 0 105.5-36T485-221q0-76-58-122t-165-46q-41 0-88 9t-84 30z"/><glyph unicode="¹" horiz-adv-x="778" d="M254 578l6 76h152l55 686-150-94-39 67 205 131h74l-61-790h147l-6-76H254z"/><glyph unicode="º" horiz-adv-x="665" d="M102 1118q0 150 81 243t218 93q119 0 191-77t72-201q0-152-82-244t-222-92q-116 0-187 76.5T102 1118zm88 0q0-100 44.5-153.5T360 911q103 0 158 70t55 195q0 100-44 153t-128 53q-100 0-155.5-70.5T190 1118z"/><glyph unicode="»" horiz-adv-x="806" d="M76 219l196 324-141 323 72 25 164-326-5-45-215-325zm324 0l196 324-141 323 72 25 164-326-5-45-215-325z"/><glyph unicode="¼" horiz-adv-x="1880" d="M254 578l6 75h152l55 686-150-94-38 68 204 131h74l-61-791h147l-6-75H254zM436 4l973 1485 69-49L506-45zm736 189l4 67 465 606h73l-47-598h131l-6-75h-131L1647 0h-92l14 193h-397zm102 75h301l35 439z"/><glyph unicode="½" horiz-adv-x="1880" d="M254 578l6 75h152l55 686-150-94-38 68 204 131h74l-61-791h147l-6-75H254zM436 4l973 1485 69-49L506-45zm748-4l4 66 332 340q76 80 108.5 136t32.5 117q0 66-40 103t-109 37q-55 0-124-28t-128-77l-49 62q137 119 299 118 113 0 176-58t63-157q0-74-39-144.5T1589 362L1307 76h432l-4-76h-551z"/><glyph unicode="¾" horiz-adv-x="1880" d="M94 690l60 62q115-102 233-103 92 0 147.5 42T590 819q0 162-195 162h-94l4 74h82q102 0 158.5 47t56.5 139q0 63-41 99t-108 36q-55 0-124-27.5T203 1272l-49 61q137 119 299 119 113 0 176-56.5t63-142.5q0-88-44-147t-113-86q67-19 104-68t37-127q0-119-80-186.5T391 571q-84 0-161.5 33T94 690zM436 4l973 1485 69-49L506-45zm736 189l4 67 465 606h73l-47-598h131l-6-75h-131L1647 0h-92l14 193h-397zm102 75h301l35 439z"/><glyph unicode="¿" horiz-adv-x="878" d="M18-102q0 76 27 138t68 109.5T221 258q104 102 162.5 183T461 641l2 18h53l-2-22q-6-94-39-169t-76-127-112-122q-92-92-135-157.5T109-96q0-94 68.5-149.5T367-301q211 0 417 180l37-72q-90-88-213-139t-237-51q-164 0-258.5 78T18-102zm416 950l10 143h142l-11-143H434z"/><glyph unicode="À" horiz-adv-x="1462" d="M31 0l733 1444h82L1354 0h-90l-142 399H326L123 0H31zm336 481h727l-297 850zm186 1391h114l185-305h-74z"/><glyph unicode="Á" horiz-adv-x="1462" d="M31 0l733 1444h82L1354 0h-90l-142 399H326L123 0H31zm336 481h727l-297 850zm411 1086l225 305h131l-282-305h-74z"/><glyph unicode="Â" horiz-adv-x="1462" d="M31 0l733 1444h82L1354 0h-90l-142 399H326L123 0H31zm336 481h727l-297 850zm182 1086l253 305h74l205-305H979l-142 231-182-231H549z"/><glyph unicode="Ã" horiz-adv-x="1462" d="M31 0l733 1444h82L1354 0h-90l-142 399H326L123 0H31zm336 481h727l-297 850zm136 1145q5 96 53 147.5t126 51.5q41 0 76.5-16.5T854 1755q41-27 67.5-40t50.5-13q49 0 78 32.5t31 84.5h70q-4-94-52.5-146.5T972 1620q-41 0-77.5 17.5T802 1690q-41 27-67.5 40t-50.5 13q-49 0-78-32t-33-85h-70z"/><glyph unicode="Ä" horiz-adv-x="1462" d="M31 0l733 1444h82L1354 0h-90l-142 399H326L123 0H31zm336 481h727l-297 850zm229 1180l10 123h125l-8-123H596zm329 0l9 123h127l-11-123H925z"/><glyph unicode="Å" horiz-adv-x="1462" d="M-8 0l747 1397q-57 23-92 71t-35 109q0 82 57.5 138.5T811 1772q82 0 139.5-56.5T1008 1577q0-59-32-106.5t-85-69.5l528-1571L1225 0l-131 399H328L53-139zm379 481h696l-270 834zm336 1096q0-43 28-76l-10 31 43-55q6 0 10-4l76 141 16-125q20 14 31.5 37.5T913 1577q0 47-28.5 78t-73.5 31-74.5-31-29.5-78z"/><glyph unicode="Æ" horiz-adv-x="2019" d="M-10 0l973 1444h1015l-4-82h-930l80-590h762l-6-80h-745l82-610h657l-8-82h-721l-51 399H356L88 0h-98zm422 481h669l-108 838z"/><glyph unicode="Ç" horiz-adv-x="1386" d="M154 655q0 244 80.5 426.5t230 280.5 354.5 98q164 0 294-49t220-145l-49-70q-100 96-208.5 138T813 1376q-178 0-306-86t-195.5-248.5T244 653q0-281 135-433T764 68q260 0 444 182l39-72Q1048-8 764-16l-14-74q29 6 53 6 66 0 105.5-36T948-221q0-76-58.5-122T725-389q-41 0-88 9t-84 30l29 69q74-29 149-28 63 0 97 21.5t34 62.5q0 31-19.5 47T786-162q-45 0-98-22l-37 28 27 142Q518-2 400.5 83t-182 231.5T154 655z"/><glyph unicode="È" horiz-adv-x="1179" d="M158 0l112 1444h869l-4-80H350l-47-592h744l-9-80H297L250 80h782l-6-80H158zm320 1872h114l185-305h-74z"/><glyph unicode="É" horiz-adv-x="1179" d="M158 0l112 1444h869l-4-80H350l-47-592h744l-9-80H297L250 80h782l-6-80H158zm545 1567l225 305h131l-282-305h-74z"/><glyph unicode="Ê" horiz-adv-x="1179" d="M158 0l112 1444h869l-4-80H350l-47-592h744l-9-80H297L250 80h782l-6-80H158zm316 1567l253 305h74l205-305H904l-142 231-182-231H474z"/><glyph unicode="Ë" horiz-adv-x="1179" d="M158 0l112 1444h869l-4-80H350l-47-592h744l-9-80H297L250 80h782l-6-80H158zm363 1661l10 123h125l-8-123H521zm329 0l9 123h127l-11-123H850z"/><glyph unicode="Ì" horiz-adv-x="477" d="M60 1872h114l185-305h-74zM158 0l112 1444h84L242 0h-84z"/><glyph unicode="Í" horiz-adv-x="477" d="M158 0l112 1444h84L242 0h-84zm127 1567l225 305h131l-282-305h-74z"/><glyph unicode="Î" horiz-adv-x="477" d="M56 1567l253 305h74l205-305H486l-142 231-182-231H56zM158 0l112 1444h84L242 0h-84z"/><glyph unicode="Ï" horiz-adv-x="477" d="M103 1661l10 123h125l-8-123H103zM158 0l112 1444h84L242 0h-84zm274 1661l9 123h127l-11-123H432z"/><glyph unicode="Ð" horiz-adv-x="1492" d="M23 696l6 76h196l54 672h432q323 0 493-170t170-488q0-369-184-577.5T666 0H166l55 696H23zM258 78h410q301 0 457.5 185.5T1282 788q0 578-567 578H358l-47-594h402l-6-76H307z"/><glyph unicode="Ñ" horiz-adv-x="1499" d="M158 0l112 1444h72l850-1297 104 1297h80L1264 0h-70L340 1305 238 0h-80zm364 1626q5 96 53 147.5t126 51.5q41 0 76.5-16.5T873 1755q41-27 67.5-40t50.5-13q49 0 78 32.5t31 84.5h70q-4-94-52.5-146.5T991 1620q-41 0-77.5 17.5T821 1690q-41 27-67.5 40t-50.5 13q-49 0-78-32t-33-85h-70z"/><glyph unicode="Ò" horiz-adv-x="1538" d="M154 655q0 244 79.5 426.5t226 280.5 343.5 98q190 0 329.5-81t213-232.5T1419 786q0-242-79.5-424t-227-280T768-16q-190 0-328.5 80.5T227.5 297 154 655zm92-2q0-281 136-432T770 70q172 0 298 86t192.5 247.5T1327 788q0 283-135 434.5T803 1374q-172 0-298-86t-192.5-248.5T246 653zm344 1219h114l185-305h-74z"/><glyph unicode="Ó" horiz-adv-x="1538" d="M154 655q0 244 79.5 426.5t226 280.5 343.5 98q190 0 329.5-81t213-232.5T1419 786q0-242-79.5-424t-227-280T768-16q-190 0-328.5 80.5T227.5 297 154 655zm92-2q0-281 136-432T770 70q172 0 298 86t192.5 247.5T1327 788q0 283-135 434.5T803 1374q-172 0-298-86t-192.5-248.5T246 653zm569 914l225 305h131l-282-305h-74z"/><glyph unicode="Ô" horiz-adv-x="1538" d="M154 655q0 244 79.5 426.5t226 280.5 343.5 98q190 0 329.5-81t213-232.5T1419 786q0-242-79.5-424t-227-280T768-16q-190 0-328.5 80.5T227.5 297 154 655zm92-2q0-281 136-432T770 70q172 0 298 86t192.5 247.5T1327 788q0 283-135 434.5T803 1374q-172 0-298-86t-192.5-248.5T246 653zm340 914l253 305h74l205-305h-102l-142 231-182-231H586z"/><glyph unicode="Õ" horiz-adv-x="1538" d="M154 655q0 244 79.5 426.5t226 280.5 343.5 98q190 0 329.5-81t213-232.5T1419 786q0-242-79.5-424t-227-280T768-16q-190 0-328.5 80.5T227.5 297 154 655zm92-2q0-281 136-432T770 70q172 0 298 86t192.5 247.5T1327 788q0 283-135 434.5T803 1374q-172 0-298-86t-192.5-248.5T246 653zm294 973q5 96 53 147.5t126 51.5q41 0 76.5-16.5T891 1755q41-27 67.5-40t50.5-13q49 0 78 32.5t31 84.5h70q-4-94-52.5-146.5T1009 1620q-41 0-77.5 17.5T839 1690q-41 27-67.5 40t-50.5 13q-49 0-78-32t-33-85h-70z"/><glyph unicode="Ö" horiz-adv-x="1538" d="M154 655q0 244 79.5 426.5t226 280.5 343.5 98q190 0 329.5-81t213-232.5T1419 786q0-242-79.5-424t-227-280T768-16q-190 0-328.5 80.5T227.5 297 154 655zm92-2q0-281 136-432T770 70q172 0 298 86t192.5 247.5T1327 788q0 283-135 434.5T803 1374q-172 0-298-86t-192.5-248.5T246 653zm387 1008l10 123h125l-8-123H633zm329 0l9 123h127l-11-123H962z"/><glyph unicode="×" d="M150 158l415 422-391 424 64 57 387-422 415 422 52-57-416-420 391-426-61-56-388 420-415-420z"/><glyph unicode="Ø" horiz-adv-x="1538" d="M154 655q0 244 79.5 426.5t226 280.5 343.5 98q215 0 362-100l105 156 65-43-108-162q94-88 143-221.5t49-303.5q0-242-79.5-424t-227-280T768-16Q557-16 410 84L305-72l-65 43 108 162q-94 86-144 219t-50 303zm92-2q-1-296 149-446l723 1081q-123 86-315 86-172 0-298-86t-192.5-248.5T246 653zm211-497q123-86 313-86 172 0 298 86t192.5 247.5T1327 788q0 299-149 449z"/><glyph unicode="Ù" horiz-adv-x="1464" d="M186 475q0 45 2 70l72 899h84l-70-891q-2-25-2-70 0-416 422-415 471 0 504 467l70 909h86l-70-895q-23-283-171-424T696-16q-252 0-381 128T186 475zm369 1397h114l185-305h-74z"/><glyph unicode="Ú" horiz-adv-x="1464" d="M186 475q0 45 2 70l72 899h84l-70-891q-2-25-2-70 0-416 422-415 471 0 504 467l70 909h86l-70-895q-23-283-171-424T696-16q-252 0-381 128T186 475zm594 1092l225 305h131l-282-305h-74z"/><glyph unicode="Û" horiz-adv-x="1464" d="M186 475q0 45 2 70l72 899h84l-70-891q-2-25-2-70 0-416 422-415 471 0 504 467l70 909h86l-70-895q-23-283-171-424T696-16q-252 0-381 128T186 475zm365 1092l253 305h74l205-305H981l-142 231-182-231H551z"/><glyph unicode="Ü" horiz-adv-x="1464" d="M186 475q0 45 2 70l72 899h84l-70-891q-2-25-2-70 0-416 422-415 471 0 504 467l70 909h86l-70-895q-23-283-171-424T696-16q-252 0-381 128T186 475zm412 1186l10 123h125l-8-123H598zm329 0l9 123h127l-11-123H927z"/><glyph unicode="Ý" horiz-adv-x="1189" d="M76 1444h96l442-670 545 670h101L653 702 598 0h-86l55 700zm565 123l225 305h131l-282-305h-74z"/><glyph unicode="Þ" horiz-adv-x="1294" d="M158 0l112 1444h84l-24-332h446q207 0 318.5-90T1206 756q0-186-122.5-293T729 356H270L244 0h-86zm118 438h453q197 0 292 80t95 238q0 143-86 209.5T776 1032H324z"/><glyph unicode="ß" horiz-adv-x="1189" d="M135 0l80 1028q18 211 135 317.5T645 1452q133 0 212-61.5t79-169.5q0-92-50-156T743 928q-76-61-109.5-100.5T600 737q0-72 55.5-110.5T823 545q90-35 144.5-63.5t92.5-79 38-128.5q0-127-97.5-207.5T741-14q-98 0-194 35.5T383 121l47 72q82-66 154.5-94.5T745 70q117 0 189 55t72 147q0 74-57.5 114T776 465q-90 33-143 60.5T542 601t-38 122q0 84 45 139.5T684 989q84 66 125 115t41 119q0 66-55.5 105.5T647 1368q-319 0-346-356L221 0h-86z"/><glyph unicode="à" horiz-adv-x="1067" d="M125 268q0 111 59.5 175.5t194.5 94T743 567h72l6 80q2 18 2 51 0 121-56 177.5T592 932q-174 0-342-109l-37 76q74 53 176.5 85t198.5 32q325-1 325-318 0-31-2-47L858 0h-88l14 178Q735 82 651 34T463-14q-150 0-244 78.5T125 268zm96 4q0-92 65.5-146T467 72q135 0 230.5 94T803 408l6 79h-59q-219 0-333-22.5T262 397t-41-125zm125 1262h119l176-410h-74z"/><glyph unicode="á" horiz-adv-x="1067" d="M125 268q0 111 59.5 175.5t194.5 94T743 567h72l6 80q2 18 2 51 0 121-56 177.5T592 932q-174 0-342-109l-37 76q74 53 176.5 85t198.5 32q325-1 325-318 0-31-2-47L858 0h-88l14 178Q735 82 651 34T463-14q-150 0-244 78.5T125 268zm96 4q0-92 65.5-146T467 72q135 0 230.5 94T803 408l6 79h-59q-219 0-333-22.5T262 397t-41-125zm346 852l236 410h133l-295-410h-74z"/><glyph unicode="â" horiz-adv-x="1067" d="M125 268q0 111 59.5 175.5t194.5 94T743 567h72l6 80q2 18 2 51 0 121-56 177.5T592 932q-174 0-342-109l-37 76q74 53 176.5 85t198.5 32q325-1 325-318 0-31-2-47L858 0h-88l14 178Q735 82 651 34T463-14q-150 0-244 78.5T125 268zm96 4q0-92 65.5-146T467 72q135 0 230.5 94T803 408l6 79h-59q-219 0-333-22.5T262 397t-41-125zm117 852l260 410h78l194-410H768l-137 324-189-324H338z"/><glyph unicode="ã" horiz-adv-x="1067" d="M125 268q0 111 59.5 175.5t194.5 94T743 567h72l6 80q2 18 2 51 0 121-56 177.5T592 932q-174 0-342-109l-37 76q74 53 176.5 85t198.5 32q325-1 325-318 0-31-2-47L858 0h-88l14 178Q735 82 651 34T463-14q-150 0-244 78.5T125 268zm96 4q0-92 65.5-146T467 72q135 0 230.5 94T803 408l6 79h-59q-219 0-333-22.5T262 397t-41-125zm76 965q4 94 52 145.5t126 51.5q37 0 71.5-14.5t63.5-32 37-21.5q41-27 67.5-40t51.5-13q49 0 77.5 31.5T874 1427h68q-2-94-50-145t-128-51q-41 0-77 17.5t-91 51.5q-47 29-70.5 41.5T477 1354q-49 0-78-32t-33-85h-69z"/><glyph unicode="ä" horiz-adv-x="1067" d="M125 268q0 111 59.5 175.5t194.5 94T743 567h72l6 80q2 18 2 51 0 121-56 177.5T592 932q-174 0-342-109l-37 76q74 53 176.5 85t198.5 32q325-1 325-318 0-31-2-47L858 0h-88l14 178Q735 82 651 34T463-14q-150 0-244 78.5T125 268zm96 4q0-92 65.5-146T467 72q135 0 230.5 94T803 408l6 79h-59q-219 0-333-22.5T262 397t-41-125zm168 998l10 123h125l-8-123H389zm330 0l8 123h127l-10-123H719z"/><glyph unicode="å" horiz-adv-x="1067" d="M125 268q0 111 59.5 175.5t194.5 94T743 567h72l6 80q2 18 2 51 0 121-56 177.5T592 932q-174 0-342-109l-37 76q74 53 176.5 85t198.5 32q325-1 325-318 0-31-2-47L858 0h-88l14 178Q735 82 651 34T463-14q-150 0-244 78.5T125 268zm96 4q0-92 65.5-146T467 72q135 0 230.5 94T803 408l6 79h-59q-219 0-333-22.5T262 397t-41-125zm201 1057q0 82 58 138.5t140 56.5 139.5-56.5T817 1329t-57.5-138-139.5-56-140 56-58 138zm94 0q0-45 29.5-76.5T620 1221t75 31.5 30 76.5q0 47-30 78t-75 31-74.5-31-29.5-78z"/><glyph unicode="æ" horiz-adv-x="1765" d="M125 268q0 111 59.5 175.5t194.5 94T743 567h82l6 80q2 20 3 55 0 117-57.5 173.5T600 932q-92 0-177-25.5T250 823l-37 76q74 53 177.5 85t201.5 32q268 0 319-203 59 96 154.5 149.5T1286 1016q180 0 283.5-108.5T1673 586q0-45-6-99H909l-2-10v-22q0-178 91.5-281.5T1262 70q80 0 165.5 30.5T1587 195l35-74q-57-61-160.5-98T1264-14q-162 0-266.5 76.5T852 281Q807 144 701.5 65T457-14q-145 0-238.5 78.5T125 268zm96 4q0-90 64.5-145T461 72q141 0 240.5 99T813 428l4 59h-67q-219 0-333-22.5T262 397t-41-125zm694 295h672q8 180-72.5 274.5T1294 936q-153 0-250.5-90T918 592z"/><glyph unicode="ç" horiz-adv-x="962" d="M106 463q0 164 58.5 290t167 194.5T586 1016q102 0 192-36t154-97l-45-74q-82 66-153.5 95.5T578 934q-181 0-280-127t-99-350q0-182 89-284.5T545 70q80 0 147.5 28.5T838 193l34-72q-59-61-146-97T541-14l-15-76q29 6 54 6 66 0 105.5-36T725-221q0-76-58.5-122T502-389q-41 0-88 9t-84 30l28 69q74-29 150-28 63 0 97 21.5t34 62.5q0 31-19.5 47T563-162q-45 0-98-22l-37 28L455-8Q295 19 200.5 144.5T106 463z"/><glyph unicode="è" horiz-adv-x="1073" d="M106 463q0 164 58.5 290t167 194.5T588 1016q184 0 288.5-109.5T981 582q0-61-4-95H201v-32q0-178 90-281.5T551 70q199 0 344 125l37-74q-59-61-166-98T553-14q-207 0-327 129T106 463zm103 104h688q8 180-74 274.5T594 936q-164 0-263.5-97.5T209 567zm147 967h119l176-410h-74z"/><glyph unicode="é" horiz-adv-x="1073" d="M106 463q0 164 58.5 290t167 194.5T588 1016q184 0 288.5-109.5T981 582q0-61-4-95H201v-32q0-178 90-281.5T551 70q199 0 344 125l37-74q-59-61-166-98T553-14q-207 0-327 129T106 463zm103 104h688q8 180-74 274.5T594 936q-164 0-263.5-97.5T209 567zm368 557l236 410h133l-295-410h-74z"/><glyph unicode="ê" horiz-adv-x="1073" d="M106 463q0 164 58.5 290t167 194.5T588 1016q184 0 288.5-109.5T981 582q0-61-4-95H201v-32q0-178 90-281.5T551 70q199 0 344 125l37-74q-59-61-166-98T553-14q-207 0-327 129T106 463zm103 104h688q8 180-74 274.5T594 936q-164 0-263.5-97.5T209 567zm139 557l260 410h78l194-410H778l-137 324-189-324H348z"/><glyph unicode="ë" horiz-adv-x="1073" d="M106 463q0 164 58.5 290t167 194.5T588 1016q184 0 288.5-109.5T981 582q0-61-4-95H201v-32q0-178 90-281.5T551 70q199 0 344 125l37-74q-59-61-166-98T553-14q-207 0-327 129T106 463zm103 104h688q8 180-74 274.5T594 936q-164 0-263.5-97.5T209 567zm190 703l10 123h125l-8-123H399zm330 0l8 123h127l-10-123H729z"/><glyph unicode="ì" horiz-adv-x="434" d="M8 1534h119l176-410h-74zM135 0l78 991h86L221 0h-86z"/><glyph unicode="í" horiz-adv-x="434" d="M135 0l78 991h86L221 0h-86zm94 1124l236 410h133l-295-410h-74z"/><glyph unicode="î" horiz-adv-x="434" d="M0 1124l260 410h78l194-410H430l-137 324-189-324H0zM135 0l78 991h86L221 0h-86z"/><glyph unicode="ï" horiz-adv-x="434" d="M51 1270l10 123h125l-8-123H51zM135 0l78 991h86L221 0h-86zm246 1270l8 123h127l-10-123H381z"/><glyph unicode="ð" horiz-adv-x="1103" d="M102 424q0 150 57.5 265.5t162 179T563 932q135 0 231.5-59.5T928 717q-10 281-183 463l-325-131-25 73 287 117q-115 94-281 147l31 68q199-63 330-182l272 110 25-75-236-95q184-213 185-553 0-340-128-506.5T530-14q-195 0-311.5 118.5T102 424zm93-6q0-170 88-259t254-89q168 0 265 114.5T899 506q0 162-91 252t-251 90q-168 0-265-113.5T195 418z"/><glyph unicode="ñ" horiz-adv-x="1132" d="M135 0l78 991h84l-14-172q51 94 141 145.5t207 51.5q168 0 256-83t88-245q0-35-2-53L924 0h-86l49 627q2 18 2 53 0 254-254 254-162 0-259-95.5T266 578L221 0h-86zm174 1237q4 94 52 145.5t126 51.5q37 0 71.5-14.5t63.5-32 37-21.5q41-27 67.5-40t51.5-13q49 0 77.5 31.5T886 1427h68q-2-94-50-145t-128-51q-41 0-77 17.5t-91 51.5q-47 29-70.5 41.5T489 1354q-49 0-78-32t-33-85h-69z"/><glyph unicode="ò" horiz-adv-x="1097" d="M106 463q0 164 57.5 289t161 194.5T565 1016q195 0 311.5-130T993 537q0-164-57-289T774.5 54.5 535-14q-129 0-225.5 59t-150 166.5T106 463zm93-6q0-186 89-286.5T541 70q166 0 263 126t97 347q0 184-90 286.5T561 932q-168 0-265-126t-97-349zm141 1077h119l176-410h-74z"/><glyph unicode="ó" horiz-adv-x="1097" d="M106 463q0 164 57.5 289t161 194.5T565 1016q195 0 311.5-130T993 537q0-164-57-289T774.5 54.5 535-14q-129 0-225.5 59t-150 166.5T106 463zm93-6q0-186 89-286.5T541 70q166 0 263 126t97 347q0 184-90 286.5T561 932q-168 0-265-126t-97-349zm362 667l236 410h133l-295-410h-74z"/><glyph unicode="ô" horiz-adv-x="1097" d="M106 463q0 164 57.5 289t161 194.5T565 1016q195 0 311.5-130T993 537q0-164-57-289T774.5 54.5 535-14q-129 0-225.5 59t-150 166.5T106 463zm93-6q0-186 89-286.5T541 70q166 0 263 126t97 347q0 184-90 286.5T561 932q-168 0-265-126t-97-349zm133 667l260 410h78l194-410H762l-137 324-189-324H332z"/><glyph unicode="õ" horiz-adv-x="1097" d="M106 463q0 164 57.5 289t161 194.5T565 1016q195 0 311.5-130T993 537q0-164-57-289T774.5 54.5 535-14q-129 0-225.5 59t-150 166.5T106 463zm93-6q0-186 89-286.5T541 70q166 0 263 126t97 347q0 184-90 286.5T561 932q-168 0-265-126t-97-349zm92 780q4 94 52 145.5t126 51.5q37 0 71.5-14.5t63.5-32 37-21.5q41-27 67.5-40t51.5-13q49 0 77.5 31.5T868 1427h68q-2-94-50-145t-128-51q-41 0-77 17.5t-91 51.5q-47 29-70.5 41.5T471 1354q-49 0-78-32t-33-85h-69z"/><glyph unicode="ö" horiz-adv-x="1097" d="M106 463q0 164 57.5 289t161 194.5T565 1016q195 0 311.5-130T993 537q0-164-57-289T774.5 54.5 535-14q-129 0-225.5 59t-150 166.5T106 463zm93-6q0-186 89-286.5T541 70q166 0 263 126t97 347q0 184-90 286.5T561 932q-168 0-265-126t-97-349zm184 813l10 123h125l-8-123H383zm330 0l8 123h127l-10-123H713z"/><glyph unicode="÷" d="M117 539l8 82h999l-8-82H117zM487 84l15 168h164L651 84H487zm66 827l14 168h164l-14-168H553z"/><glyph unicode="ø" horiz-adv-x="1097" d="M106 463q0 164 57.5 289t161 194.5T565 1016q135 0 234-64l82 123 69-41-88-133q64-63 97.5-156.5T993 537q0-164-57-289T774.5 54.5 535-14q-131 0-234 63L221-74l-71 43 88 131q-63 63-97.5 155.5T106 463zm95-6q0-183 84-283l467 707q-80 51-191 51-168 0-264-126t-96-349zm147-338q78-49 193-49 166 0 262 126t96 347q0 180-86 282z"/><glyph unicode="ù" horiz-adv-x="1116" d="M158 315q0 35 2 54l49 622h86l-49-616q-2-16-2-49 0-256 248-256 156 0 251 94t107 262l45 565h86L903 0h-84l15 184Q785 88 695.5 37T496-14q-164 0-251 83t-87 246zm192 1219h119l176-410h-74z"/><glyph unicode="ú" horiz-adv-x="1116" d="M158 315q0 35 2 54l49 622h86l-49-616q-2-16-2-49 0-256 248-256 156 0 251 94t107 262l45 565h86L903 0h-84l15 184Q785 88 695.5 37T496-14q-164 0-251 83t-87 246zm413 809l236 410h133l-295-410h-74z"/><glyph unicode="û" horiz-adv-x="1116" d="M158 315q0 35 2 54l49 622h86l-49-616q-2-16-2-49 0-256 248-256 156 0 251 94t107 262l45 565h86L903 0h-84l15 184Q785 88 695.5 37T496-14q-164 0-251 83t-87 246zm184 809l260 410h78l194-410H772l-137 324-189-324H342z"/><glyph unicode="ü" horiz-adv-x="1116" d="M158 315q0 35 2 54l49 622h86l-49-616q-2-16-2-49 0-256 248-256 156 0 251 94t107 262l45 565h86L903 0h-84l15 184Q785 88 695.5 37T496-14q-164 0-251 83t-87 246zm235 955l10 123h125l-8-123H393zm330 0l8 123h127l-10-123H723z"/><glyph unicode="ý" horiz-adv-x="1032" d="M84 991h90L481 76l451 915h94L338-369h-88L430-10zm444 133l236 410h133l-295-410h-74z"/><glyph unicode="þ" horiz-adv-x="1157" d="M106-369l144 1813h86l-49-617q49 88 141 138.5t201 50.5q125 0 221-59.5t149.5-168T1053 535q0-164-58.5-289t-164-192.5T590-14q-125 0-217 56T238 201l-45-570h-87zm152 824q0-186 88-285.5T600 70q168 0 263 126t95 349q0 184-89 285.5T621 932q-170 0-266.5-127T258 455z"/><glyph unicode="ÿ" horiz-adv-x="1032" d="M84 991h90L481 76l451 915h94L338-369h-88L430-10zm266 279l10 123h125l-8-123H350zm330 0l8 123h127l-10-123H680z"/><glyph unicode="Œ" horiz-adv-x="2142" d="M154 657q0 369 184 578t524 209h1239l-4-80h-786l-47-592h745l-8-80h-744l-47-612h785l-6-80H817Q493 0 323.5 170T154 657zm92-2q0-575 567-575h313l103 1284H860q-301 0-457.5-184.5T246 655z"/><glyph unicode="œ" horiz-adv-x="1857" d="M106 463q0 164 57.5 289t162 194.5T567 1016q147 0 246.5-75T952 719q51 141 160 219t266 78q180 0 283.5-109.5T1765 582q0-61-4-95H991v-32q0-180 92.5-282.5T1352 70q82 0 168 30.5t159 94.5l35-74q-57-61-161.5-98T1354-14q-162 0-267.5 74.5T938 270Q887 139 782.5 62.5T537-14q-129 0-226.5 59t-151 166.5T106 463zm93-6q0-186 89-286.5T541 70q166 0 263 126t97 347q0 184-90 286.5T561 932q-168 0-265-126t-97-349zm800 110h680q8 180-71.5 274.5T1384 936q-163 0-262.5-97.5T999 567z"/><glyph unicode="Ÿ" horiz-adv-x="1189" d="M76 1444h96l442-670 545 670h101L653 702 598 0h-86l55 700zm383 217l10 123h125l-8-123H459zm329 0l9 123h127l-11-123H788z"/><glyph unicode="ˆ" horiz-adv-x="614" d="M90 1124l260 410h78l194-410H520l-137 324-189-324H90z"/><glyph unicode="˜" horiz-adv-x="614" d="M49 1237q4 94 52 145.5t126 51.5q37 0 71.5-14.5t63.5-32 37-21.5q41-27 67.5-40t51.5-13q49 0 77.5 31.5T626 1427h68q-2-94-50-145t-128-51q-41 0-77 17.5t-91 51.5q-47 29-70.5 41.5T229 1354q-49 0-78-32t-33-85H49z"/><glyph horiz-adv-x="936"/><glyph horiz-adv-x="1872"/><glyph horiz-adv-x="936"/><glyph horiz-adv-x="1872"/><glyph horiz-adv-x="624"/><glyph horiz-adv-x="468"/><glyph horiz-adv-x="312"/><glyph horiz-adv-x="312"/><glyph horiz-adv-x="234"/><glyph horiz-adv-x="374"/><glyph horiz-adv-x="104"/><glyph unicode="‐" horiz-adv-x="851" d="M158 504l6 78h541l-7-78H158z"/><glyph unicode="‑" horiz-adv-x="851" d="M158 504l6 78h541l-7-78H158z"/><glyph unicode="‒" horiz-adv-x="851" d="M158 504l6 78h541l-7-78H158z"/><glyph unicode="–" horiz-adv-x="1024" d="M0 510l6 68h1024l-6-68H0z"/><glyph unicode="—" horiz-adv-x="2048" d="M0 510l6 68h2048l-6-68H0z"/><glyph unicode="‘" horiz-adv-x="434" d="M195 1110l8 111q6 72 30.5 128t77.5 105l51-41q-43-43-59-80t-20-80h65l-14-143H195z"/><glyph unicode="’" horiz-adv-x="434" d="M195 1141q43 43 59 79.5t20 79.5h-65l10 144h141l-6-113q-6-70-31.5-127T244 1100z"/><glyph unicode="‚" horiz-adv-x="434" d="M92-160q41 43 58.5 81T172 0h-66l13 143h139l-8-118q-6-70-29.5-123.5T143-201z"/><glyph unicode="“" horiz-adv-x="727" d="M195 1110l8 111q6 72 30.5 128t77.5 105l51-41q-43-43-59-80t-20-80h65l-14-143H195zm293 0l8 111q6 72 30.5 128t77.5 105l51-41q-43-43-59-80t-20-80h65l-14-143H488z"/><glyph unicode="”" horiz-adv-x="727" d="M195 1141q43 43 59 79.5t20 79.5h-65l10 144h141l-6-113q-6-70-31.5-127T244 1100zm293 0q43 43 59 79.5t20 79.5h-65l10 144h141l-6-113q-6-70-31.5-127T537 1100z"/><glyph unicode="„" horiz-adv-x="727" d="M92-160q41 43 58.5 81T172 0h-66l13 143h139l-8-118q-6-70-29.5-123.5T143-201zm293 0q41 43 58.5 81T465 0h-66l13 143h139l-8-118q-6-70-29.5-123.5T436-201z"/><glyph unicode="•" horiz-adv-x="1073" d="M168 543q0 94 48 178t133 135 190 51q98 0 183-48t136-131 51-185q0-98-50-181T724 229.5 539 180q-99 0-185 48T218 359t-50 184z"/><glyph unicode="…" horiz-adv-x="1300" d="M106 0l13 143h139L248 0H106zm435 0l10 143h141L682 0H541zm434 0l10 143h141L1116 0H975z"/><glyph horiz-adv-x="374"/><glyph unicode="‹" horiz-adv-x="483" d="M125 520l4 45 211 326 72-27-195-321 139-326-71-22z"/><glyph unicode="›" horiz-adv-x="483" d="M76 219l196 324-141 323 72 25 164-326-5-45-215-325z"/><glyph horiz-adv-x="468"/><glyph unicode="€" d="M33 528l6 82h227v15q0 113 13 211H57l6 82h228q49 260 186 401t342 141q139 0 247-47t194-147l-50-72q-68 88-169 136t-222 48q-170 0-281.5-118.5T381 918h389l-6-82H369q-14-94-15-222v-4h391l-6-82H356q16-229 117.5-345.5T758 66q92 0 196.5 50T1137 250l37-72q-76-84-193-139T764-16q-219 0-346 141T270 528H33z"/><glyph unicode="™" horiz-adv-x="1841" d="M76 1368l8 76h700l-8-76H471l-63-786h-86l61 786H76zm778-786l68 862h67l289-643 385 643h72l-68-862h-80l55 690-337-561h-64l-250 549-55-678h-82z"/><glyph unicode="◼" horiz-adv-x="993" d="M0 0v993h993V0H0z"/></font>
</defs>
</svg>
