<svg xmlns="http://www.w3.org/2000/svg"><defs><font id="nunito_sansblack_italic" horiz-adv-x="1228"><font-face units-per-em="2048" ascent="1638" descent="-410"/><glyph unicode="ﬁ" horiz-adv-x="1384" d="M27 739l20 269h189l2 20q16 197 151 301.5T784 1448l113 8-4-264-123-6q-82-4-121-33t-45-100l-4-45h719L1239 0H874l60 739H580L520 0H156l59 739H27zm931 441l25 333h383l-25-333H958z"/><glyph unicode="ﬂ" horiz-adv-x="1382" d="M27 739l20 269h189l2 20q16 197 151 301.5T784 1448l127 8 7-264-148-6q-80-2-120-32t-46-101l-4-45h242l-21-269H580L520 0H156l59 739H27zM875 0l114 1444h365L1239 0H875z"/><glyph horiz-adv-x="0"/><glyph horiz-adv-x="585"/><glyph horiz-adv-x="0"/><glyph horiz-adv-x="0"/><glyph horiz-adv-x="585"/><glyph horiz-adv-x="585"/><glyph horiz-adv-x="585"/><glyph unicode="!" horiz-adv-x="557" d="M49 0l31 373h379L428 0H49zm82 1446l444-2-186-944H170z"/><glyph unicode="&quot;" horiz-adv-x="997" d="M139 1444h416L422 815H178zm449 0h416L871 815H627z"/><glyph unicode="#" d="M98 326l17 219h143l102 370H193l14 220h215l86 309h233l-86-309h181l86 309h235l-86-309h96l-16-220h-141L907 545h166l-14-219H846L756 0H522l90 326H432L342 0H106l91 326H98zm396 219h180l102 370H596z"/><glyph unicode="$" d="M23 133l137 266q96-68 202.5-98.5T596 270q219 0 219 142 0 57-59.5 88.5T565 573q-141 43-233 86T172 786t-68 215q0 176 126 299t329 154l19 225h286l-18-227q119-16 217-53t158-90l-138-267q-201 131-403 132-92 0-145.5-37t-53.5-99q0-65 63.5-101T745 860q139-43 228.5-85t154-123 64.5-210q0-182-123-303T737-10l-16-226H434l17 224Q310 0 206 35T23 133z"/><glyph unicode="%" horiz-adv-x="1974" d="M100 991q0 223 105.5 351T494 1470q180 0 279-105t99-298q0-229-102-354T481 588q-182 0-281.5 104.5T100 991zm293-30q0-80 19.5-116t64.5-36q103 0 103 289 0 78-19.5 113.5T496 1247q-55 0-79-71.5T393 961zm35-883l942 1431 213-143L641-66zm707 313q0 221 105.5 349T1528 868q180 0 279.5-105.5T1907 465q0-229-102.5-354T1516-14q-183 0-282 105.5T1135 391zm292-33q0-80 19.5-115.5T1511 207q103 0 103 289 0 78-19.5 114.5T1530 647q-55 0-79-72.5T1427 358z"/><glyph unicode="&amp;" horiz-adv-x="1437" d="M39 391q0 150 79 253.5T338 817q-96 123-96 266 0 111 55 195t154.5 131 224.5 47q188 0 299.5-90t111.5-240q0-246-274-378l195-201q86 154 114 348h295q-45-328-207-557L1536 0h-436L989 117Q796-16 569-16q-158 0-277.5 52t-186 145T39 391zm352 29q0-74 53.5-119T586 256q109 0 215 66L514 627q-123-78-123-207zm170 665q0-33 16.5-67.5T637 932q90 37 127 80t37 102q0 47-29 77t-80 30q-57 0-94-36t-37-100z"/><glyph unicode="'" horiz-adv-x="548" d="M139 1444h416L422 815H178z"/><glyph unicode="(" horiz-adv-x="815" d="M199 399q0 307 95 567.5T586 1483l227-109q-129-272-186.5-508.5T569 346q0-150 26-303.5T680-307l-246-99Q305-176 252 13.5T199 399z"/><glyph unicode=")" horiz-adv-x="815" d="M8-297Q137-25 194.5 212T252 731q0 147-26.5 301T139 1384l246 99q129-229 183.5-419T623 678q0-307-95.5-567.5T236-406z"/><glyph unicode="*" horiz-adv-x="931" d="M100 942v244l228-17-125 189 209 123 98-205 98 205 213-125-127-187 226 17V940l-226 16 127-186-213-123-98 207-100-205-209 121 127 188z"/><glyph unicode="+" d="M115 467l18 244h377l31 379h241l-30-379h376l-16-244H733L702 90H461l31 377H115z"/><glyph unicode="," horiz-adv-x="557" d="M49 0l31 373h379l-19-223Q430 15 373.5-95T197-317L68-209Q187-100 221 0H49z"/><glyph unicode="-" horiz-adv-x="913" d="M121 408l22 284h658l-25-284H121z"/><glyph unicode="." horiz-adv-x="557" d="M49 0l31 373h379L428 0H49z"/><glyph unicode="/" horiz-adv-x="714" d="M-86-76l659 1653 258-92L172-168z"/><glyph unicode="0" d="M78 633q0 258 69.5 444.5T349 1362t315 98q256 0 390-167t134-482q0-258-69.5-444.5T916.5 82 600-16q-254 0-388 165.5T78 633zm362-51q0-164 41-239t127-75q105 0 161 151.5T825 862q0 164-41 239t-127 75q-104 0-160.5-154T440 582z"/><glyph unicode="1" d="M156 0l22 299h309l58 721-240-129-137 268 520 285h266L864 299h312L1151 0H156z"/><glyph unicode="2" horiz-adv-x="1230" d="M82 0l20 279 512 487q158 154 158 272 0 133-172 133-168 0-369-129l-96 267q199 154 516 153 229 0 360.5-111.5T1143 1040q0-113-57.5-213T883 588L578 299h544L1100 0H82z"/><glyph unicode="3" d="M25 137l137 266q197-129 397-129 106 0 160.5 41T774 434q0 80-51 115t-162 35H344l23 290h182q117 0 173 39t56 119q0 139-180 139-88 0-183.5-33.5T231 1042l-96 267q92 72 227.5 112.5T649 1462q143 0 255-46t175.5-131 63.5-195q0-127-64.5-216.5T891 737q108-37 171.5-114.5T1126 432q0-129-66.5-230.5T864 42 555-16q-158 0-296 41T25 137z"/><glyph unicode="4" d="M37 244l20 278 719 922h307l-71-914h188l-22-286H989L971 0H604l19 244H37zm369 286h241l27 349z"/><glyph unicode="5" d="M63 137l138 266q172-129 387-129 109 0 169 52.5T817 473q0 88-56 137t-161 49q-66 0-128-18t-112-53H154l67 856h950l-22-285H563l-20-246q76 31 182 31 131 0 232.5-54T1115 738.5t56-222.5q0-252-154.5-392T592-16q-154 0-292 39.5T63 137z"/><glyph unicode="6" d="M74 631q0 252 79.5 440.5t227 289.5T729 1462q139 0 272.5-41t231.5-112l-137-267q-86 63-176.5 96T750 1171q-244 0-293-356 49 59 125.5 94T743 944q121 0 217.5-56.5T1111 730t54-228q0-150-65.5-268.5t-181-185T655-18q-279 0-430 168.5T74 631zm389-174q0-84 49-135.5T641 270q76 0 124 57.5T813 479q0 84-46 132t-124 48q-80 0-130-55t-50-147z"/><glyph unicode="7" d="M102 0l693 1145H131l25 299h1067l-21-281L502 0H102z"/><glyph unicode="8" d="M35 389q0 133 75.5 227.5T317 748q-92 45-141 122.5T127 1051q0 190 145.5 300.5T670 1462q250 0 386-99t136-286q0-113-66.5-205T950 741q228-77 228-323 0-129-73-227.5T899 38 594-16Q336-16 185.5 93.5T35 389zm350 33q0-72 56.5-113T600 268q113 0 171 43t58 129q0 147-206 148-119 0-178.5-43T385 422zm92 600q0-72 47-111t129-39q92 0 140.5 40t48.5 120q0 76-42 111t-130 35q-193 0-193-156z"/><glyph unicode="9" d="M29 135l139 266q86-63 176-96t170-33q123 0 197.5 90.5T807 631q-49-61-126-96t-163-35q-121 0-216 56T152.5 713.5 98 942q0 150 65.5 268.5t181.5 185 263 66.5q279 0 429.5-169T1188 813q0-252-80-440.5T880.5 83 532-18q-139 0-271 40.5T29 135zm420 830q0-84 46-132.5T618 784q80 0 130.5 55.5T799 987q0 84-45 135.5T637 1174q-84 0-136-57.5T449 965z"/><glyph unicode=":" horiz-adv-x="557" d="M49 0l31 373h379L428 0H49zm49 635l29 373h379l-29-373H98z"/><glyph unicode=";" horiz-adv-x="557" d="M49 0l31 373h379l-19-223Q430 15 373.5-95T197-317L68-209Q187-100 221 0H49zm51 635l31 373h377l-29-373H100z"/><glyph unicode="&lt;" d="M111 455l22 272 1030 389-20-266-699-260 658-260-23-267z"/><glyph unicode="=" d="M98 262l19 244h993l-16-244H98zm31 410l16 243h998l-19-243H129z"/><glyph unicode="&gt;" d="M80 63l22 267 699 260-658 260 21 266 969-389-23-272z"/><glyph unicode="?" horiz-adv-x="978" d="M61 1309q201 154 500 153 137 0 241.5-43t161-119.5T1020 1120q0-80-34-143.5T905 868 780 764q-80-61-121-103.5T604 567l-20-80H373l10 123q8 98 49 162t113 133q53 51 77.5 86t24.5 80q0 49-34.5 74.5T518 1171q-78 0-171-32.5T158 1042zM256 0l31 373h377L635 0H256z"/><glyph unicode="@" horiz-adv-x="1933" d="M86 535q0 291 118 498.5t325.5 316T1004 1458q270 0 464.5-97t297-269T1868 694q0-170-52.5-298T1666 198.5 1438 129q-106 0-177 46t-92 122h-4q-57-80-121.5-124T874 129q-160 0-244.5 103.5T545 504q0 147 55 266t152.5 186.5T973 1024q80 0 139-29.5t90-91.5h6l21 105h254l-84-455q-10-68-10-109 0-57 21.5-85.5T1483 330q33 0 66.5 36.5t57 118.5 23.5 209q0 266-160.5 409.5T1004 1247q-193 0-343.5-83T426 920.5 342 535q0-197 78-343.5T646.5-36 997-117q141 0 242.5 31T1384 0h330q-78-147-264-238.5T997-330q-276 0-483 109.5T196.5 86 86 535zm719-33q0-76 32.5-124t94.5-48q108 0 168.5 97t60.5 226q0 84-37 127t-102 43q-102 0-159.5-98T805 502z"/><glyph unicode="A" horiz-adv-x="1558" d="M-84 0l786 1444h299L1565 0h-365l-106 299H453L301 0H-84zm680 582h399l-166 462z"/><glyph unicode="B" horiz-adv-x="1423" d="M92 0l113 1444h678q238 0 363.5-101.5T1372 1079q0-119-61.5-201.5T1122 745q111-32 172.5-123.5T1356 410q0-197-146.5-303.5T815 0H92zm389 285h301q121 0 173.5 34.5T1008 440q0 76-48.5 114T807 592H506zm47 592h263q118 0 168.5 31.5T1010 1020q0 70-46 104.5T815 1159H551z"/><glyph unicode="C" horiz-adv-x="1388" d="M111 678q0 236 96 414t271 274 407 96q145 0 273-41t226-116l-137-269q-88 66-171 96.5T903 1163q-197 0-303-129T494 678q0-195 84-296t247-101q162 0 373 125l96-267q-74-72-206-114.5T815-18q-217 0-375.5 85T196 308.5 111 678z"/><glyph unicode="D" horiz-adv-x="1583" d="M92 0l113 1444h588q217 0 377.5-83t248.5-235.5 88-359.5q0-242-96-414T1133.5 90 698 0H92zm400 303h172q240 0 354.5 111.5T1133 768q0 182-100.5 277.5T741 1141H557z"/><glyph unicode="E" horiz-adv-x="1222" d="M92 0l115 1444h1028l-25-291H551l-23-274h619l-23-289H506l-25-299h662L1118 0H92z"/><glyph unicode="F" horiz-adv-x="1183" d="M92 0l115 1444h1003l-22-295H555l-20-266h591l-22-295H510L463 0H92z"/><glyph unicode="G" horiz-adv-x="1523" d="M111 682q0 236 96 412t273 272 415 96q332 0 530-157l-137-267q-94 70-182 100-78 27-180 27h-27q-197-4-302-132T492 680q0-201 94-306.5T872 268q86 0 185 25l20 264H821l23 258h590l-56-719q-106-55-250.5-84.5T817-18q-217 0-375.5 85T197 310.5 111 682z"/><glyph unicode="H" horiz-adv-x="1589" d="M92 0l115 1444h368l-45-561h588l45 561h369L1417 0h-368l47 584H508L461 0H92z"/><glyph unicode="I" horiz-adv-x="638" d="M92 0l113 1444h377L469 0H92z"/><glyph unicode="J" horiz-adv-x="813" d="M-31 279l152 8q94 4 133 41t47 127l76 989h379l-76-983q-16-227-142-342T164-12L-12-23z"/><glyph unicode="K" horiz-adv-x="1429" d="M92 0l113 1444h377l-50-625 601 625h454L899 741 1497 0h-436L520 649 469 0H92z"/><glyph unicode="L" horiz-adv-x="1171" d="M92 0l115 1444h377L492 305h614L1083 0H92z"/><glyph unicode="M" horiz-adv-x="1724" d="M96 0l115 1444h297l362-807 502 807h291L1548 0h-327l61 758-319-518H721L483 733 424 0H96z"/><glyph unicode="N" horiz-adv-x="1550" d="M92 0l115 1444h274l594-815 66 815h352L1378 0h-280L510 811 442 0H92z"/><glyph unicode="O" horiz-adv-x="1630" d="M111 678q0 233 90 412.5T457 1367t385 97q217 0 378.5-85t248.5-242.5 87-370.5q0-233-91-411.5T1208 78 825-20 446.5 65 198 306.5 111 678zm374 0q0-197 87-302.5T821 270q166 0 262.5 131t96.5 365q0 195-88 301.5T846 1174q-168 0-264.5-132.5T485 678z"/><glyph unicode="P" horiz-adv-x="1386" d="M92 0l115 1444h674q231 0 361-116t130-316q0-236-137-363T840 522H510L469 0H92zm440 805h271q219 0 219 186 0 86-48 127t-147 41H561z"/><glyph unicode="Q" horiz-adv-x="1630" d="M111 678q0 233 90 412.5T457 1367t385 97q221 0 381.5-84t246.5-240.5 86-373.5q0-242-95-422T1192 66q78-33 127-123l143-260-334-146L926-88q-37 68-138 70-207 2-359.5 89t-235 243.5T111 678zm374 0q0-197 87-302.5T821 270q168 0 263.5 132.5T1180 766q0 195-87 301.5T846 1174q-168 0-264.5-132.5T485 678z"/><glyph unicode="R" horiz-adv-x="1447" d="M92 0l113 1444h702q227 0 354.5-116t127.5-308q0-195-91.5-307.5T1014 567q59-16 99-55t73-102L1393 0H985L758 461q-39 80-142 80H504L463 0H92zm434 823h305q100 0 152.5 45t52.5 129q0 82-44 122t-136 40H551z"/><glyph unicode="S" horiz-adv-x="1359" d="M47 139l139 267q219-135 473-136 117 0 178.5 31t61.5 90q0 63-67.5 99T623 567q-152 45-248 88T209 783t-70 221q0 137 77 241.5T434 1406t330 56q158 0 301-43t229-114l-135-267q-88 63-195.5 99.5T754 1174q-111 0-175.5-36T514 1038q0-66 66.5-100.5T793 860q150-45 245-87t164.5-124 69.5-215q0-217-164-334.5T643-18q-166 0-323.5 42T47 139z"/><glyph unicode="T" horiz-adv-x="1294" d="M74 1139l24 305h1245l-24-305H887L799 0H418l90 1139H74z"/><glyph unicode="U" horiz-adv-x="1525" d="M127 547q0 29 4 86l66 811h368l-63-826q-2-23-2-63 0-145 67.5-215T776 270q115 0 180.5 69t79.5 234l70 871h371l-68-846q-23-305-187.5-460.5T758-18q-631 0-631 565z"/><glyph unicode="V" horiz-adv-x="1521" d="M27 1444h391l344-975 495 975h383L870 0H571z"/><glyph unicode="W" horiz-adv-x="2295" d="M98 1444h381l228-916 395 916h258l235-932 390 932h358L1714 0h-299l-239 866L801 0H500z"/><glyph unicode="X" horiz-adv-x="1404" d="M-102 0l612 733-490 711h431l286-432 350 432h443L930 725 1427 0H997L700 446 342 0h-444z"/><glyph unicode="Y" horiz-adv-x="1331" d="M-55 1444h417l334-500 410 500h432L866 643 815 0H438l51 645z"/><glyph unicode="Z" horiz-adv-x="1263" d="M68 0l20 276 700 873H156l22 295h1065l-20-270-705-879h660L1155 0H68z"/><glyph unicode="[" horiz-adv-x="811" d="M141-369l144 1813h563l-21-268H621L518-100h211l-22-269H141z"/><glyph unicode="\" horiz-adv-x="712" d="M35 1507l272 70L711-98l-273-70z"/><glyph unicode="]" horiz-adv-x="811" d="M-35-369l21 269h211l96 1276H86l20 268h564L530-369H-35z"/><glyph unicode="^" d="M72 295l471 999h270l311-999H862L655 975 342 295H72z"/><glyph unicode="_" horiz-adv-x="1024" d="M-20-207L-4 0h954l-16-207H-20z"/><glyph unicode="`" horiz-adv-x="614" d="M-33 1561h325l177-422H247z"/><glyph unicode="a" horiz-adv-x="1130" d="M49 283q0 117 57.5 187.5t182.5 103T621 606h73l2 15v14q0 65-34 97-38 34-127 34-72 0-160-27.5T211 668l-74 239q84 55 215 90t256 35q217 0 324.5-97T1040 635q0-25-4-74L993 0H651l11 127Q625 59 557 21.5T401-16q-100 0-180 39.5T95 131 49 283zm350 41q0-43 30-70t79-27q70 0 118 53.5T680 416l2 22h-55q-121 0-174.5-26.5T399 324z"/><glyph unicode="b" horiz-adv-x="1280" d="M68 0l110 1444h365l-43-539q49 61 123.5 94t169.5 33q127 0 224-58.5t150.5-167T1221 549q0-164-60.5-293t-170-200.5T737-16q-195 0-301 139L426 0H68zm397 498q0-121 50-183.5T657 252q95 0 149 73.5T860 522q0 117-51 179.5T664 764q-90 0-144.5-74T465 498z"/><glyph unicode="c" horiz-adv-x="1024" d="M59 477q0 174 72 299t204 190.5 308 65.5q246 0 404-121L934 666q-61 43-132 67.5T666 758q-111 0-171.5-71T434 485q0-111 55.5-169T637 258q137 0 274 94l72-248q-70-57-169-88.5T612-16q-168 0-292.5 61T127 218 59 477z"/><glyph unicode="d" horiz-adv-x="1280" d="M59 467q0 164 61.5 293t171 200.5T545 1032q190 0 293-131l45 543h364L1133 0H772l8 111q-49-61-123.5-94T489-16q-127 0-224 58T113.5 208.5 59 467zm361 25q0-115 51-177.5T616 252q93 0 146 73.5T815 518q0 121-49 183.5T625 764q-94 0-149.5-74T420 492z"/><glyph unicode="e" horiz-adv-x="1095" d="M59 479q0 160 69 286t186.5 196.5T578 1032q210 0 334-127t124-362q0-53-6-109H410q25-184 223-184 145 0 282 94l74-240q-68-57-169-88.5T606-16q-162 0-285.5 61T128 218 59 479zm355 127h325q-6 180-149 180-72 0-116-42t-60-138z"/><glyph unicode="f" horiz-adv-x="806" d="M27 739l20 269h189l2 20q16 197 151 301.5T784 1448l127 8 7-264-148-6q-80-2-120-32t-46-101l-4-45h242l-21-269H580L520 0H156l59 739H27z"/><glyph unicode="g" horiz-adv-x="1288" d="M43-264L156-16q209-102 403-103 106 0 164.5 50.5T791 96l4 49Q690 29 497 29h-3q-127 0-225.5 57t-153 161.5T61 492q0 152 61.5 275.5t173.5 194 255 70.5q195 0 303-135l8 111h359l-68-871q-23-272-175.5-397T547-385q-145 0-274.5 31.5T43-264zm379 774q0-98 53-153.5T621 301q94 0 150 65.5T827 541q0 113-51 168t-147 55-151.5-67.5T422 510z"/><glyph unicode="h" horiz-adv-x="1239" d="M68 0l110 1444h365l-43-533q55 57 135 89t176 32q168 0 254-95t86-280q0-45-2-69L1102 0H737l47 575q1 13 1 25-1 68-29 108-34 46-105 46-80 0-124-52.5T477 561L432 0H68z"/><glyph unicode="i" horiz-adv-x="575" d="M68 0l79 1008h365L432 0H68zm86 1182l24 329h381l-26-329H154z"/><glyph unicode="j" horiz-adv-x="575" d="M-197-125l123 8q72 4 103.5 32T68 6l79 1002h365L436 59q-12-156-59-244.5t-154.5-135T-80-377l-108-6zm347 1307l24 329h381l-26-329H150z"/><glyph unicode="k" horiz-adv-x="1187" d="M68 0l110 1444h365l-66-852 359 414h440L844 518 1210 0H774L465 432 432 0H68z"/><glyph unicode="l" horiz-adv-x="575" d="M68 0l114 1444h365L432 0H68z"/><glyph unicode="m" horiz-adv-x="1837" d="M68 0l79 1006h355l-8-97q57 63 130.5 93t170.5 30q98 0 170.5-41T1077 874q66 78 154 118t190 40q160 0 244-96t84-281q0-41-2-63L1700 0h-365l47 584q1 14 1 27 1 62-23 99-28 44-88 44-76 0-116-51.5T1108 539L1065 0H700l48 580q1 15 1 30 0 144-112 144-74 0-115-51.5T473 539L432 0H68z"/><glyph unicode="n" horiz-adv-x="1239" d="M68 0l79 1008h355l-8-107q53 61 135 96t182 35q168 0 254-95t86-280q0-45-2-69L1102 0H737l47 575q1 13 1 25-1 68-29 108-34 46-105 46-80 0-124-52.5T477 561L432 0H68z"/><glyph unicode="o" d="M59 483q0 170 70 294t196 189.5 293 65.5q168 0 293-61.5t192.5-174T1171 535q0-172-69.5-296T906 49.5 612-16 319.5 45 127 220 59 483zm361-6q0-115 46-170t140-55q109 0 157 82t48 209q0 113-46 167t-140 54q-109 0-157-81t-48-206z"/><glyph unicode="p" horiz-adv-x="1280" d="M35-369l110 1377h359l-8-109q49 63 124.5 98t172.5 35q127 0 224-58.5t150.5-167T1221 549q0-164-60.5-293t-170-200.5T737-16q-190 0-299 135l-39-488H35zm430 867q0-121 50-183.5T657 252q95 0 149 73.5T860 522q0 117-51 179.5T664 764q-90 0-144.5-74T465 498z"/><glyph unicode="q" horiz-adv-x="1280" d="M61 467q0 164 60.5 293t170 200.5T545 1032q195 0 299-137l10 113h358L1104-369H739l37 473q-47-57-121.5-88.5T489-16q-127 0-224 58T114.5 208.5 61 467zm361 27q0-117 50-179.5T616 252q93 0 147 73.5T817 518q0 121-49 183.5T625 764t-148.5-74T422 494z"/><glyph unicode="r" horiz-adv-x="858" d="M68 0l79 1006h349l-13-129q115 139 344 155l80 4-4-301-221-22q-115-12-158-57.5T471 506L432 0H68z"/><glyph unicode="s" horiz-adv-x="1003" d="M6 104l113 248q84-53 186.5-84.5T502 236q63 0 93 16t30 41q0 33-41 51t-133 45q-109 29-182.5 59.5t-128 91T86 698t57.5 174 162 118 239.5 42q117 0 230.5-31.5T969 911L858 674q-76 51-159 78.5T537 780q-66 0-98.5-15T406 723q0-33 41.5-53.5T582 625q111-31 183.5-62T892 472t54-159q0-156-122-242.5T494-16q-140 0-256.5 29.5T6 104z"/><glyph unicode="t" horiz-adv-x="829" d="M27 739l20 269h189l22 292h365l-23-292h242l-21-269H580l-27-331-2-29q0-133 145-133 35 0 95 6L752-6q-63-10-123-10-442 0-443 366 0 39 2 60l27 329H27z"/><glyph unicode="u" d="M88 348q0 23 4 72l45 588h365l-45-568-2-30q0-72 32.5-110t96.5-38q76 0 118.5 52.5T752 455l45 553h364L1081 0H727l10 115q-53-61-135-96T424-16q-164 0-250 93T88 348z"/><glyph unicode="v" horiz-adv-x="1107" d="M2 1006h369l184-566 274 566h363L664 0H362z"/><glyph unicode="w" horiz-adv-x="1785" d="M16 1008h361l180-572 258 572h236l174-582 264 582h360L1348 0h-299L885 494 659 0H358z"/><glyph unicode="x" horiz-adv-x="1124" d="M-113 0l469 522-364 486h420l170-238 200 238h432L774 518 1159 0H739L549 268 319 0h-432z"/><glyph unicode="y" horiz-adv-x="1107" d="M2 1006h369l184-566 274 566h363L469-369H100L336 72z"/><glyph unicode="z" horiz-adv-x="1062" d="M53 0l23 256 479 483H113l20 269h889l-23-240-495-500h477L961 0H53z"/><glyph unicode="{" horiz-adv-x="886" d="M68 406l20 260 94 10q68 6 95.5 41T311 831l27 316q12 152 89 224.5t204 72.5h293l-21-268H776q-41 0-62.5-19.5T688 1087l-24-301q-9-92-67-160.5T467 541q68-16 116-88t40-166L600-12q-2-49 16.5-68.5T676-100h129l-23-269H537q-150 0-229 84T240-72l26 314 2 32q0 61-24.5 89T162 397z"/><glyph unicode="|" horiz-adv-x="616" d="M72-369l143 1813h334L406-369H72z"/><glyph unicode="}" horiz-adv-x="886" d="M-35-369l21 269h129q41 0 63.5 19.5T203-12l22 299q8 94 66.5 163.5T422 537q-68 16-116 85.5T266 786l25 301q4 49-16.5 69t-61.5 20H86l20 268h248q150 0 227.5-85t67.5-212l-26-316-2-32q0-61 24.5-89t81.5-34l96-10-22-260-94-9q-63-6-93-42t-36-113L551-72q-12-154-93-225.5T233-369H-35z"/><glyph unicode="~" d="M119 541q41 104 126 166.5T424 770q57 0 111.5-19.5T666 694q55-29 87.5-41t61.5-12q45 0 80 27.5t61 89.5l170-119q-39-104-126-166.5T819 410q-59 0-114.5 20.5T578 487q-55 27-88 40.5T428 541q-88 0-139-119z"/><glyph unicode="¡" horiz-adv-x="557" d="M-16-369l182 877h219l47-875zM98 635l29 373h379l-29-373H98z"/><glyph unicode="¢" d="M147 477q0 211 104.5 349.5T543 1010l18 241h287l-17-225q178-20 302-115l-113-245q-61 43-132 67.5T752 758q-111 0-171.5-71T520 485q0-113 55.5-170T725 258q137 0 272 94l72-248q-61-51-145-81.5T748-14l-17-222H444l19 256Q313 73 230 193t-83 284z"/><glyph unicode="£" d="M41 0l22 299h130l24 317H90l14 213h132l16 222q14 186 153.5 298.5T772 1462q143 0 273.5-40t216.5-113l-138-267q-201 129-344 129-72 0-111.5-37.5T625 1024l-17-195h314l-17-213H592l-27-317h592L1135 0H41z"/><glyph unicode="¤" d="M96 94l109 113q-92 135-92 295 0 164 92 295L96 909l125 125 109-112q127 88 280 88 154 0 279-86l110 116 136-135-113-117q86-133 86-286 0-162-90-291l112-117-122-121L899 86Q768-6 610-6 454-6 328 82L219-29zm299 408q0-94 62.5-161T612 274q86 0 149.5 67T825 502t-64.5 160.5T608 729t-150.5-67.5T395 502z"/><glyph unicode="¥" d="M12 1444h404l231-445 314 445h403L913 840h215l-18-215H811l-8-103h301l-19-215H786L762 0H385l25 307H113l18 215h295l8 103H137l19 215h206z"/><glyph unicode="¦" horiz-adv-x="616" d="M74-369l53 684h334l-53-684H74zm88 1129l53 684h334l-53-684H162z"/><glyph unicode="§" horiz-adv-x="1222" d="M51-260L164-12q76-51 166-80t174-29q88 0 137 29t49 80q0 35-22.5 60.5T590 100L307 246q-125 63-185.5 146T61 588q0 197 170 321-47 76-47 156 0 125 70 213t188.5 134 268.5 46q129 0 231-28.5t199-90.5l-111-237q-61 45-141 70.5T731 1198q-193 0-192-104 0-68 96-117l285-146q248-129 247-339 0-201-168-324 45-78 45-156 0-190-144-292.5T516-383q-139 0-260 32T51-260zm334 936q0-51 35-98.5t96-77.5l293-156 10-6q18 31 19 61 0 111-129 181L418 741l-6 4q-27-43-27-69z"/><glyph unicode="¨" horiz-adv-x="614" d="M-2 1194l24 305h322l-25-305H-2zm405 0l25 305h321l-24-305H403z"/><glyph unicode="©" horiz-adv-x="1669" d="M102 723q0 205 96.5 372T463 1358t373 96 371.5-96 263-263 96.5-372-96.5-372T1206 87 836-10q-205 0-373 97T198.5 351 102 723zm150 0q0-168 74.5-303t208-213T836 129t300 78 206.5 213 74.5 303-74.5 303-206.5 212-300 77-301.5-77-208-212T252 723zm160 0q0 201 123.5 320.5T870 1163q96 0 179.5-23.5T1192 1071l-76-219q-29 20-85 40.5T926 913q-88 0-137.5-49T739 723t49.5-142.5T926 530q49 0 105 20.5t85 41.5l76-219q-123-92-322-92-211 0-334.5 119.5T412 723z"/><glyph unicode="ª" horiz-adv-x="702" d="M63 1010q0 96 77 139t241 43h68l2 16q0 20-16.5 27.5T375 1243q-47 0-100.5-10t-96.5-31l-33 203q125 49 285 49 156 0 226.5-67.5T727 1182q0-35-2-54l-25-301H424l8 105q-27-61-71-88t-105-27q-80 0-136.5 58.5T63 1010zm263 22q0-31 45-31 26 0 45.5 15.5T438 1059v8h-76q-12 0-24-10t-12-25z"/><glyph unicode="«" horiz-adv-x="1142" d="M125 457l14 176 240 334 233-113-170-309 117-314-237-104zm487 0l14 176 240 334 233-113-170-309 117-314-237-104z"/><glyph unicode="¬" d="M127 670l23 243h999l-51-649H846l28 406H127z"/><glyph unicode="­" horiz-adv-x="913" d="M121 408l22 284h658l-25-284H121z"/><glyph unicode="®" horiz-adv-x="1669" d="M121 723q0 205 96 372t264 263 373 96 372-96 263-263 96-372-96-372-264-264-371-97q-205 0-372 97T218 351t-97 372zm149 0q0-131 45-240.5T442 291l68 866h414q164 0 251-70.5t87-195.5q0-106-54.5-180T1055 608q47-6 84-34.5t53-71.5l84-199q76 80 118 187.5t42 232.5q0 168-76 303t-208 212-298 77-299-77-209-212-76-303zm172-432q80-78 185.5-120T854 129t226.5 43T1264 291H922L817 569q-2 8-5 12.5t-5 4.5h-25l-22-295H442zm355 510h88q39 0 56 16.5t17 52.5q0 27-18 38.5T881 920h-76z"/><glyph unicode="¯" horiz-adv-x="614" d="M41 1237l16 217h653l-18-217H41z"/><glyph unicode="°" horiz-adv-x="755" d="M109 1141q0 88 42 159.5T266.5 1413t161.5 41q90 0 164-41t116-112.5 42-159.5-42-160-116-112-164-40-162.5 40T151 981t-42 160zm188 0q0-59 38-98t93-39 94 38.5 39 98.5q0 61-39 100t-94 39-93-39-38-100z"/><glyph unicode="±" d="M76 0l18 244h1000L1075 0H76zm45 575l20 246h377l23 269h241l-20-269h379l-21-246H741l-20-268H477l23 268H121z"/><glyph unicode="²" horiz-adv-x="778" d="M90 578l18 225 281 267q66 59 66 104 0 27-21.5 38t-69.5 11q-104 0-215-63l-20 223q55 31 141 50t166 19q147 0 239.5-67.5T768 1205q0-80-40-147.5T571 900l-110-82h289l-19-240H90z"/><glyph unicode="³" horiz-adv-x="778" d="M57 637l56 222q135-61 264-62 102 0 102 60 0 39-76 38H238l18 234h131q49 0 69.5 11t20.5 34q0 49-90 49-123 0-238-63l-20 223q55 33 140 51t167 18q150 0 241-64.5t91-174.5q0-68-38-117t-110-74q70-22 107-70t37-112q0-123-99.5-197.5T395 568q-94 0-186 18.5T57 637z"/><glyph unicode="´" horiz-adv-x="614" d="M247 1139l226 422h362l-366-422H247z"/><glyph unicode="µ" d="M29-369l108 1377h365l-45-568-2-30q0-72 32.5-110t96.5-38q74 0 117.5 52.5T752 455l45 553h364L1081 0H727l10 115q-53-61-135-96T424-16h-2l-29-353H29z"/><glyph unicode="¶" horiz-adv-x="1327" d="M90 938q0 152 61.5 266.5t177 177T602 1444h668L1126-369H893l129 1606H815L686-369H455l69 877q-127 2-225 54T145.5 711.5 90 938z"/><glyph unicode="·" horiz-adv-x="557" d="M78 365l28 372h379l-30-372H78z"/><glyph unicode="¸" horiz-adv-x="614" d="M2-371l35 131q94-29 168-28 80 0 80 45 0 35-60 35-20 0-67-11l-37 45 41 195h186L319-82h7q77 0 125.5-37T500-221q0-80-75-132.5T215-406q-57 0-114.5 9.5T2-371z"/><glyph unicode="¹" horiz-adv-x="778" d="M100 1264l359 180h215l-49-626h168l-19-240H129l18 240h168l25 305-145-70z"/><glyph unicode="º" horiz-adv-x="790" d="M76 1110q0 162 105.5 253t283.5 91q164 0 258-80t94-215q0-158-107.5-250T428 817q-162 0-257 81t-95 212zm293 18q0-35 20.5-58t52.5-23q41 0 64.5 27.5T530 1147q0 37-21.5 58.5T453 1227q-41 0-62.5-25.5T369 1128z"/><glyph unicode="»" horiz-adv-x="1126" d="M49 233l172 312-117 311 242 107 193-330-15-176-245-334zm487 0l172 312-117 311 242 107 193-330-15-176-245-334z"/><glyph unicode="¼" horiz-adv-x="1986" d="M100 1264l359 180h215l-49-627h168l-17-219 600 911 213-145L647-66 434 80l328 498H129l18 239h168l25 305-145-69zM1190 115l16 209 449 542h239l-41-534h117l-14-217h-121l-8-115h-268l8 115h-377zm258 217h137l14 176z"/><glyph unicode="½" horiz-adv-x="1986" d="M100 1264l359 180h215l-49-627h168l-17-219 600 911 213-145L647-66 434 80l328 498H129l18 239h168l25 305-145-69zM1253 0l19 225 280 267q66 59 66 104 0 27-21.5 38t-68.5 11q-104 0-215-63l-21 223q55 31 141.5 50t165.5 19q147 0 239.5-67.5T1931 627q0-80-40-147.5T1735 322l-111-82h289L1894 0h-641z"/><glyph unicode="¾" horiz-adv-x="1986" d="M57 637l56 221q135-61 264-61 102 0 102 59 0 39-76 39H238l18 233h131q49 0 69.5 11.5T477 1174q0 49-90 49-123 0-237-64l-21 223q55 33 140 51.5t167 18.5q150 0 241-64.5t91-175.5q0-68-38-116.5T621 1022q69-23 106-71t37-111q0-123-99.5-198T395 567q-94 0-186 18.5T57 637zM434 80l942 1429 213-145L647-66zm756 35l16 209 448 542h240l-41-534h117l-14-217h-121l-9-115h-268l8 115h-376zm258 217h137l14 176z"/><glyph unicode="¿" horiz-adv-x="978" d="M-35-51q0 86 36 149.5T87 202t130 91q70 41 107.5 73.5T375 440l22 80h211l-8-123q-8-94-51-149T432 133q-51-41-73.5-67.5T336 2q0-47 35-71.5T467-94q78 0 171 32.5T827 35l97-266Q725-385 422-385q-137 0-240.5 42t-160 117.5T-35-51zm352 686l29 373h379l-31-373H317z"/><glyph unicode="À" horiz-adv-x="1558" d="M-84 0l786 1444h299L1565 0h-365l-106 299H453L301 0H-84zm553 1888h307l196-321H751zM596 582h399l-166 462z"/><glyph unicode="Á" horiz-adv-x="1558" d="M-84 0l786 1444h299L1565 0h-365l-106 299H453L301 0H-84zm680 582h399l-166 462zm155 985l228 321h344l-351-321H751z"/><glyph unicode="Â" horiz-adv-x="1558" d="M-84 0l786 1444h299L1565 0h-365l-106 299H453L301 0H-84zm565 1567l305 321h201l256-321H979l-97 159-139-159H481zm115-985h399l-166 462z"/><glyph unicode="Ã" horiz-adv-x="1558" d="M-84 0l786 1444h299L1565 0h-365l-106 299H453L301 0H-84zm581 1569q8 170 81 246.5t179 76.5q37 0 71-14t77-43q43-25 64.5-35t45.5-10q80 0 90 96h150q-10-168-84-245.5T991 1563q-37 0-68 14t-78 43q-39 25-62.5 36t-47.5 11q-80 0-90-98H497zm99-987h399l-166 462z"/><glyph unicode="Ä" horiz-adv-x="1558" d="M-84 0l786 1444h299L1565 0h-365l-106 299H453L301 0H-84zm583 1575l25 307h321l-24-307H499zm97-993h399l-166 462zm309 993l24 307h322l-25-307H905z"/><glyph unicode="Å" horiz-adv-x="1558" d="M-244-311l924 1755 6 10q-49 61-49 143 0 94 67.5 160t163.5 66 163-65.5 67-160.5q0-98-72-165l-4-9L1589 0l-284-295-215 594H473L328 0zm856 893h375l-160 442zm170 1013l60 86q-27-8-43.5-30.5T782 1597v-2zm148 64l22-57q0 31-22 57z"/><glyph unicode="Æ" horiz-adv-x="2056" d="M-125 0L909 1444h1155l-24-289h-758l41-276h655l-22-289h-592l45-301h565L1952 0h-840l-43 299H492L291 0h-416zm805 582h348l-63 428z"/><glyph unicode="Ç" horiz-adv-x="1388" d="M111 678q0 236 96 414t271 274 407 96q145 0 273-41t226-116l-137-269q-88 66-171 96.5T903 1163q-197 0-303-129T494 678q0-195 84-296t247-101q162 0 373 125l96-267q-69-67-192-110T844-18l-15-64h7q78 0 126-37t48-102q0-80-75-132.5T725-406q-57 0-114.5 9.5T512-371l35 131q94-29 168-28 80 0 80 45 0 35-60 35-20 0-67-11l-37 45L662-6Q402 35 256.5 216T111 678z"/><glyph unicode="È" horiz-adv-x="1222" d="M92 0l115 1444h1028l-25-291H551l-23-274h619l-23-289H506l-25-299h662L1118 0H92zm281 1888h307l196-321H655z"/><glyph unicode="É" horiz-adv-x="1222" d="M92 0l115 1444h1028l-25-291H551l-23-274h619l-23-289H506l-25-299h662L1118 0H92zm563 1567l228 321h344l-351-321H655z"/><glyph unicode="Ê" horiz-adv-x="1222" d="M92 0l115 1444h1028l-25-291H551l-23-274h619l-23-289H506l-25-299h662L1118 0H92zm293 1567l305 321h201l256-321H883l-97 159-139-159H385z"/><glyph unicode="Ë" horiz-adv-x="1222" d="M92 0l115 1444h1028l-25-291H551l-23-274h619l-23-289H506l-25-299h662L1118 0H92zm311 1575l25 307h321l-24-307H403zm406 0l24 307h322l-25-307H809z"/><glyph unicode="Ì" horiz-adv-x="638" d="M11 1888h307l196-321H293zM92 0l113 1444h377L469 0H92z"/><glyph unicode="Í" horiz-adv-x="638" d="M92 0l113 1444h377L469 0H92zm201 1567l228 321h344l-351-321H293z"/><glyph unicode="Î" horiz-adv-x="638" d="M23 1567l305 321h201l256-321H521l-97 159-139-159H23zM92 0l113 1444h377L469 0H92z"/><glyph unicode="Ï" horiz-adv-x="638" d="M41 1575l25 307h321l-24-307H41zM92 0l113 1444h377L469 0H92zm355 1575l24 307h322l-25-307H447z"/><glyph unicode="Ð" horiz-adv-x="1656" d="M43 586l23 284h167l46 574h587q217 0 379-83t249-235.5 87-359.5q0-242-96-414T1207.5 90 772 0H166l45 586H43zm522-283h174q238 0 352.5 111.5T1206 768q0 182-100 277.5T815 1141H633l-23-271h377l-24-284H588z"/><glyph unicode="Ñ" horiz-adv-x="1550" d="M92 0l115 1444h274l594-815 66 815h352L1378 0h-280L510 811 442 0H92zm401 1569q8 170 81 246.5t179 76.5q37 0 71-14t77-43q43-25 64.5-35t45.5-10q80 0 90 96h150q-10-168-84-245.5T987 1563q-37 0-68 14t-78 43q-39 25-62.5 36t-47.5 11q-80 0-90-98H493z"/><glyph unicode="Ò" horiz-adv-x="1630" d="M111 678q0 233 90 412.5T457 1367t385 97q217 0 378.5-85t248.5-242.5 87-370.5q0-233-91-411.5T1208 78 825-20 446.5 65 198 306.5 111 678zm374 0q0-197 87-302.5T821 270q166 0 262.5 131t96.5 365q0 195-88 301.5T846 1174q-168 0-264.5-132.5T485 678zm21 1210h307l196-321H788z"/><glyph unicode="Ó" horiz-adv-x="1630" d="M111 678q0 233 90 412.5T457 1367t385 97q217 0 378.5-85t248.5-242.5 87-370.5q0-233-91-411.5T1208 78 825-20 446.5 65 198 306.5 111 678zm374 0q0-197 87-302.5T821 270q166 0 262.5 131t96.5 365q0 195-88 301.5T846 1174q-168 0-264.5-132.5T485 678zm303 889l228 321h344l-351-321H788z"/><glyph unicode="Ô" horiz-adv-x="1630" d="M111 678q0 233 90 412.5T457 1367t385 97q217 0 378.5-85t248.5-242.5 87-370.5q0-233-91-411.5T1208 78 825-20 446.5 65 198 306.5 111 678zm374 0q0-197 87-302.5T821 270q166 0 262.5 131t96.5 365q0 195-88 301.5T846 1174q-168 0-264.5-132.5T485 678zm33 889l305 321h201l256-321h-264l-97 159-139-159H518z"/><glyph unicode="Õ" horiz-adv-x="1630" d="M111 678q0 233 90 412.5T457 1367t385 97q217 0 378.5-85t248.5-242.5 87-370.5q0-233-91-411.5T1208 78 825-20 446.5 65 198 306.5 111 678zm374 0q0-197 87-302.5T821 270q166 0 262.5 131t96.5 365q0 195-88 301.5T846 1174q-168 0-264.5-132.5T485 678zm49 891q8 170 81 246.5t179 76.5q37 0 71-14t77-43q43-25 64.5-35t45.5-10q80 0 90 96h150q-10-168-84-245.5t-180-77.5q-37 0-68 14t-78 43q-39 25-62.5 36t-47.5 11q-80 0-90-98H534z"/><glyph unicode="Ö" horiz-adv-x="1630" d="M111 678q0 233 90 412.5T457 1367t385 97q217 0 378.5-85t248.5-242.5 87-370.5q0-233-91-411.5T1208 78 825-20 446.5 65 198 306.5 111 678zm374 0q0-197 87-302.5T821 270q166 0 262.5 131t96.5 365q0 195-88 301.5T846 1174q-168 0-264.5-132.5T485 678zm51 897l25 307h321l-24-307H536zm406 0l24 307h322l-25-307H942z"/><glyph unicode="×" d="M160 283l295 301-289 313 186 172 279-303 295 303 157-172-295-301 289-313-186-172-279 303-295-303z"/><glyph unicode="Ø" horiz-adv-x="1630" d="M111 678q0 233 90 412.5T457 1367t385 97q162 0 293-47l118 180 224-139-117-178q94-92 145-223t51-291q0-233-91-411.5T1208 78 825-20q-160 0-290 47L416-154 188-14l119 178q-96 92-146 222t-50 292zm374 0q0-113 31-199l447 676q-55 18-117 19-168 0-264.5-132.5T485 678zm222-391q55-16 114-17 166 0 262.5 131t96.5 365q0 115-31 197z"/><glyph unicode="Ù" horiz-adv-x="1525" d="M127 547q0 29 4 86l66 811h368l-63-826q-2-23-2-63 0-145 67.5-215T776 270q115 0 180.5 69t79.5 234l70 871h371l-68-846q-23-305-187.5-460.5T758-18q-631 0-631 565zm326 1341h307l196-321H735z"/><glyph unicode="Ú" horiz-adv-x="1525" d="M127 547q0 29 4 86l66 811h368l-63-826q-2-23-2-63 0-145 67.5-215T776 270q115 0 180.5 69t79.5 234l70 871h371l-68-846q-23-305-187.5-460.5T758-18q-631 0-631 565zm608 1020l228 321h344l-351-321H735z"/><glyph unicode="Û" horiz-adv-x="1525" d="M127 547q0 29 4 86l66 811h368l-63-826q-2-23-2-63 0-145 67.5-215T776 270q115 0 180.5 69t79.5 234l70 871h371l-68-846q-23-305-187.5-460.5T758-18q-631 0-631 565zm338 1020l305 321h201l256-321H963l-97 159-139-159H465z"/><glyph unicode="Ü" horiz-adv-x="1525" d="M127 547q0 29 4 86l66 811h368l-63-826q-2-23-2-63 0-145 67.5-215T776 270q115 0 180.5 69t79.5 234l70 871h371l-68-846q-23-305-187.5-460.5T758-18q-631 0-631 565zm356 1028l25 307h321l-24-307H483zm406 0l24 307h322l-25-307H889z"/><glyph unicode="Ý" horiz-adv-x="1331" d="M-55 1444h417l334-500 410 500h432L866 643 815 0H438l51 645zm694 123l228 321h344l-351-321H639z"/><glyph unicode="Þ" horiz-adv-x="1390" d="M92 0l115 1444h368l-22-281h342q213 0 336-107.5T1354 760q0-221-129-339T858 303H485L461 0H92zm416 586h319q177-1 177 153 0 72-37 106t-117 34H530z"/><glyph unicode="ß" horiz-adv-x="1439" d="M68 0l69 881q23 287 179.5 434T762 1462q215 0 336-77.5t121-213.5q0-88-41-152.5T1063 883q-49-51-70.5-81T971 739q0-31 30.5-47t102.5-41q88-29 145.5-58.5t100.5-89 43-157.5q0-164-123-263T930-16q-117 0-225.5 31.5T512 104l115 248q84-51 171-78.5T963 246q100 0 100 63 0 33-33 51.5T920 406q-84 27-142.5 55T677 543.5 635 686q0 80 40 143.5T786 969q45 47 68 78.5t23 60.5q0 49-32 73.5T743 1206q-217 0-237-262L432 0H68z"/><glyph unicode="à" horiz-adv-x="1130" d="M49 283q0 117 57.5 187.5t182.5 103T621 606h73l2 15q4 76-33.5 110.5T535 766q-72 0-160-27.5T211 668l-74 239q84 55 215 90t256 35q217 0 324.5-97T1040 635q0-25-4-74L993 0H651l11 127Q625 59 557 21.5T401-16q-100 0-180 39.5T95 131 49 283zm187 1278h325l177-422H516zM399 324q0-43 30-70t79-27q70 0 118 53.5T680 416l2 22h-55q-121 0-174.5-26.5T399 324z"/><glyph unicode="á" horiz-adv-x="1130" d="M49 283q0 117 57.5 187.5t182.5 103T621 606h73l2 15q4 76-33.5 110.5T535 766q-72 0-160-27.5T211 668l-74 239q84 55 215 90t256 35q217 0 324.5-97T1040 635q0-25-4-74L993 0H651l11 127Q625 59 557 21.5T401-16q-100 0-180 39.5T95 131 49 283zm350 41q0-43 30-70t79-27q70 0 118 53.5T680 416l2 22h-55q-121 0-174.5-26.5T399 324zm117 815l226 422h362l-366-422H516z"/><glyph unicode="â" horiz-adv-x="1130" d="M49 283q0 117 57.5 187.5t182.5 103T621 606h73l2 15q4 76-33.5 110.5T535 766q-72 0-160-27.5T211 668l-74 239q84 55 215 90t256 35q217 0 324.5-97T1040 635q0-25-4-74L993 0H651l11 127Q625 59 557 21.5T401-16q-100 0-180 39.5T95 131 49 283zm197 856l309 422h209l244-422H742l-99 217-116-217H246zm153-815q0-43 30-70t79-27q70 0 118 53.5T680 416l2 22h-55q-121 0-174.5-26.5T399 324z"/><glyph unicode="ã" horiz-adv-x="1130" d="M49 283q0 117 57.5 187.5t182.5 103T621 606h73l2 15q4 76-33.5 110.5T535 766q-72 0-160-27.5T211 668l-74 239q84 55 215 90t256 35q217 0 324.5-97T1040 635q0-25-4-74L993 0H651l11 127Q625 59 557 21.5T401-16q-100 0-180 39.5T95 131 49 283zm216 911q8 166 79.5 244t167.5 78q43 0 81-15.5t85-44.5q35-20 59.5-31.5T785 1413q76 0 90 96h149q-12-168-82.5-244.5T774 1188q-43 0-79.5 15.5T611 1247q-39 23-62.5 33t-46.5 10q-74 0-90-96H265zm134-870q0-43 30-70t79-27q70 0 118 53.5T680 416l2 22h-55q-121 0-174.5-26.5T399 324z"/><glyph unicode="ä" horiz-adv-x="1130" d="M49 283q0 117 57.5 187.5t182.5 103T621 606h73l2 15q4 76-33.5 110.5T535 766q-72 0-160-27.5T211 668l-74 239q84 55 215 90t256 35q217 0 324.5-97T1040 635q0-25-4-74L993 0H651l11 127Q625 59 557 21.5T401-16q-100 0-180 39.5T95 131 49 283zm218 911l24 305h322l-25-305H267zm132-870q0-43 30-70t79-27q70 0 118 53.5T680 416l2 22h-55q-121 0-174.5-26.5T399 324zm273 870l25 305h321l-24-305H672z"/><glyph unicode="å" horiz-adv-x="1130" d="M49 283q0 117 57.5 187.5t182.5 103T621 606h73l2 15q4 76-33.5 110.5T535 766q-72 0-160-27.5T211 668l-74 239q84 55 215 90t256 35q217 0 324.5-97T1040 635q0-25-4-74L993 0H651l11 127Q625 59 557 21.5T401-16q-100 0-180 39.5T95 131 49 283zm350 41q0-43 30-70t79-27q70 0 118 53.5T680 416l2 22h-55q-121 0-174.5-26.5T399 324zm15 1028q0 94 66.5 159.5T643 1577t164-65.5 68-159.5q0-96-67.5-162T643 1124q-96 0-162.5 65.5T414 1352zm145 0q0-37 24-63.5t60-26.5q37 0 61.5 26.5T729 1352t-24.5 62.5T643 1440t-60.5-25.5T559 1352z"/><glyph unicode="æ" horiz-adv-x="1701" d="M49 283q0 117 57.5 187.5t182.5 103T621 606h67l2 15q4 76-34 110.5T528 766q-68 0-155.5-27.5T211 668l-74 239q84 55 214 90t255 35q205 0 303-110 127 111 305 110 125 0 222.5-56t153-167 55.5-268q0-51-7-107h-610q25-184 219-184 137 0 275 94l73-240q-68-57-169-88.5T1217-16q-137 0-240 49T811 172Q750 82 651.5 33T434-16q-115 0-203 38.5T96 129 49 283zm350 32q0-39 30-63.5t79-24.5q65 0 112.5 51.5T674 412l2 26h-49q-121 0-174.5-27.5T399 315zm633 291h314q-2 92-40 136t-98 44q-71 0-115-42t-61-138z"/><glyph unicode="ç" horiz-adv-x="1024" d="M59 477q0 174 72 299t204 190.5 308 65.5q246 0 404-121L934 666q-61 43-132 67.5T666 758q-111 0-171.5-71T434 485q0-111 55.5-169T637 258q137 0 274 94l72-248q-68-55-164-86.5T621-16l-15-66h6q78 0 126-37t48-102q0-80-74.5-132.5T502-406q-57 0-114.5 9.5T289-371l35 131q94-29 168-28 80 0 79 45 0 35-59 35-20 0-68-11l-36 45L440 2Q262 45 160.5 171T59 477z"/><glyph unicode="è" horiz-adv-x="1095" d="M59 479q0 160 69 286t186.5 196.5T578 1032q210 0 334-127t124-362q0-53-6-109H410q25-184 223-184 145 0 282 94l74-240q-68-57-169-88.5T606-16q-162 0-285.5 61T128 218 59 479zm166 1082h325l177-422H505zm189-955h325q-6 180-149 180-72 0-116-42t-60-138z"/><glyph unicode="é" horiz-adv-x="1095" d="M59 479q0 160 69 286t186.5 196.5T578 1032q210 0 334-127t124-362q0-53-6-109H410q25-184 223-184 145 0 282 94l74-240q-68-57-169-88.5T606-16q-162 0-285.5 61T128 218 59 479zm355 127h325q-6 180-149 180-72 0-116-42t-60-138zm91 533l226 422h362l-366-422H505z"/><glyph unicode="ê" horiz-adv-x="1095" d="M59 479q0 160 69 286t186.5 196.5T578 1032q210 0 334-127t124-362q0-53-6-109H410q25-184 223-184 145 0 282 94l74-240q-68-57-169-88.5T606-16q-162 0-285.5 61T128 218 59 479zm176 660l309 422h209l244-422H731l-99 217-116-217H235zm179-533h325q-6 180-149 180-72 0-116-42t-60-138z"/><glyph unicode="ë" horiz-adv-x="1095" d="M59 479q0 160 69 286t186.5 196.5T578 1032q210 0 334-127t124-362q0-53-6-109H410q25-184 223-184 145 0 282 94l74-240q-68-57-169-88.5T606-16q-162 0-285.5 61T128 218 59 479zm197 715l24 305h322l-25-305H256zm158-588h325q-6 180-149 180-72 0-116-42t-60-138zm247 588l25 305h321l-24-305H661z"/><glyph unicode="ì" horiz-adv-x="575" d="M-51 1561h325l177-422H229zM68 0l79 1008h365L432 0H68z"/><glyph unicode="í" horiz-adv-x="575" d="M68 0l79 1008h365L432 0H68zm161 1139l226 422h362l-366-422H229z"/><glyph unicode="î" horiz-adv-x="575" d="M-41 1139l309 422h209l244-422H455l-99 217-116-217H-41zM68 0l79 1008h365L432 0H68z"/><glyph unicode="ï" horiz-adv-x="575" d="M-20 1194l24 305h322l-25-305H-20zM68 0l79 1008h365L432 0H68zm317 1194l25 305h321l-24-305H385z"/><glyph unicode="ð" horiz-adv-x="1245" d="M55 440q0 150 70 261.5t189.5 171T580 932q172 0 264-80-27 94-94 176l-379-92-33 178 223 53q-94 45-209 56l97 245q295-33 487-208l258 61 31-178-160-39q66-100 98.5-217t32.5-238q0-342-159.5-503.5T608-16q-168 0-293 56T122.5 198.5 55 440zm361 6q0-82 48-136t138-54q109 0 157 63.5T807 481q0 84-47 135.5T621 668q-106 0-155.5-64.5T416 446z"/><glyph unicode="ñ" horiz-adv-x="1239" d="M68 0l79 1008h355l-8-107q53 61 135 96t182 35q168 0 254-95t86-280q0-45-2-69L1102 0H737l47 575q6 86-27.5 132.5T651 754q-80 0-124-52.5T477 561L432 0H68zm246 1194q8 166 79.5 244t167.5 78q43 0 81-15.5t85-44.5q35-20 59.5-31.5T834 1413q76 0 90 96h149q-12-168-82.5-244.5T823 1188q-43 0-79.5 15.5T660 1247q-39 23-62.5 33t-46.5 10q-74 0-90-96H314z"/><glyph unicode="ò" d="M59 483q0 170 70 294t196 189.5 293 65.5q168 0 293-61.5t192.5-174T1171 535q0-172-69.5-296T906 49.5 612-16 319.5 45 127 220 59 483zm216 1078h325l177-422H555zM420 477q0-115 46-170t140-55q109 0 157 82t48 209q0 113-46 167t-140 54q-109 0-157-81t-48-206z"/><glyph unicode="ó" d="M59 483q0 170 70 294t196 189.5 293 65.5q168 0 293-61.5t192.5-174T1171 535q0-172-69.5-296T906 49.5 612-16 319.5 45 127 220 59 483zm361-6q0-115 46-170t140-55q109 0 157 82t48 209q0 113-46 167t-140 54q-109 0-157-81t-48-206zm135 662l226 422h362l-366-422H555z"/><glyph unicode="ô" d="M59 483q0 170 70 294t196 189.5 293 65.5q168 0 293-61.5t192.5-174T1171 535q0-172-69.5-296T906 49.5 612-16 319.5 45 127 220 59 483zm226 656l309 422h209l244-422H781l-99 217-116-217H285zm135-662q0-115 46-170t140-55q109 0 157 82t48 209q0 113-46 167t-140 54q-109 0-157-81t-48-206z"/><glyph unicode="õ" d="M59 483q0 170 70 294t196 189.5 293 65.5q168 0 293-61.5t192.5-174T1171 535q0-172-69.5-296T906 49.5 612-16 319.5 45 127 220 59 483zm245 711q8 166 79.5 244t167.5 78q43 0 81-15.5t85-44.5q35-20 59.5-31.5T824 1413q76 0 90 96h149q-12-168-82.5-244.5T813 1188q-43 0-79.5 15.5T650 1247q-39 23-62.5 33t-46.5 10q-74 0-90-96H304zm116-717q0-115 46-170t140-55q109 0 157 82t48 209q0 113-46 167t-140 54q-109 0-157-81t-48-206z"/><glyph unicode="ö" d="M59 483q0 170 70 294t196 189.5 293 65.5q168 0 293-61.5t192.5-174T1171 535q0-172-69.5-296T906 49.5 612-16 319.5 45 127 220 59 483zm247 711l24 305h322l-25-305H306zm114-717q0-115 46-170t140-55q109 0 157 82t48 209q0 113-46 167t-140 54q-109 0-157-81t-48-206zm291 717l25 305h321l-24-305H711z"/><glyph unicode="÷" d="M115 467l18 244h995l-16-244H115zM436 59l23 265h260L698 59H436zm64 781l18 264h262l-20-264H500z"/><glyph unicode="ø" d="M59 483q0 170 70 294t196 189.5 293 65.5q119 0 216-31l104 156 154-96-95-143q84-68 129-165.5t45-217.5q0-172-69.5-296T906 49.5 612-16q-117 0-215 30L295-141 139-45l97 143q-86 68-131.5 166T59 483zm355-6q0-49 10-94l252 379q-33 4-51 4-113 0-162-81t-49-208zm143-223q29-4 49-4 115 0 165 82t50 211q0 49-10 94z"/><glyph unicode="ù" d="M88 348q0 23 4 72l45 588h365l-45-568-2-30q0-72 32.5-110t96.5-38q76 0 118.5 52.5T752 455l45 553h364L1081 0H727l10 115q-53-61-135-96T424-16q-164 0-250 93T88 348zm183 1213h325l177-422H551z"/><glyph unicode="ú" d="M88 348q0 23 4 72l45 588h365l-45-568-2-30q0-72 32.5-110t96.5-38q76 0 118.5 52.5T752 455l45 553h364L1081 0H727l10 115q-53-61-135-96T424-16q-164 0-250 93T88 348zm463 791l226 422h362l-366-422H551z"/><glyph unicode="û" d="M88 348q0 23 4 72l45 588h365l-45-568-2-30q0-72 32.5-110t96.5-38q76 0 118.5 52.5T752 455l45 553h364L1081 0H727l10 115q-53-61-135-96T424-16q-164 0-250 93T88 348zm193 791l309 422h209l244-422H777l-99 217-116-217H281z"/><glyph unicode="ü" d="M88 348q0 23 4 72l45 588h365l-45-568-2-30q0-72 32.5-110t96.5-38q76 0 118.5 52.5T752 455l45 553h364L1081 0H727l10 115q-53-61-135-96T424-16q-164 0-250 93T88 348zm214 846l24 305h322l-25-305H302zm405 0l25 305h321l-24-305H707z"/><glyph unicode="ý" horiz-adv-x="1107" d="M2 1006h369l184-566 274 566h363L469-369H100L336 72zm493 133l226 422h362l-366-422H495z"/><glyph unicode="þ" horiz-adv-x="1280" d="M35-369l143 1813h365l-43-539q49 61 123.5 94t169.5 33q127 0 224-58.5t150.5-167T1221 549q0-164-60.5-293t-170-200.5T737-16q-190 0-299 135l-39-488H35zm430 867q0-121 50-183.5T657 252q95 0 149 73.5T860 522q0 117-51 179.5T664 764q-90 0-144.5-74T465 498z"/><glyph unicode="ÿ" horiz-adv-x="1107" d="M2 1006h369l184-566 274 566h363L469-369H100L336 72zm244 188l24 305h322l-25-305H246zm405 0l25 305h321l-24-305H651z"/><glyph unicode="Œ" horiz-adv-x="2138" d="M111 678q0 242 96 414t277.5 262 435.5 90h1228l-24-291h-660l-22-274h618l-22-289h-619l-22-299h659L2032 0H825Q608 0 446.5 83T198 318.5 111 678zm374-2q0-184 100.5-284.5T874 291h154l70 862H952q-238 0-352.5-116.5T485 676z"/><glyph unicode="œ" horiz-adv-x="1835" d="M59 483q0 170 69 294t192.5 189.5T606 1032q262 0 393-141 129 141 340 141 199 0 319-127t120-362q0-49-6-109h-609q25-184 217-184 137 0 275 94l74-240q-68-57-168.5-88.5T1352-16q-119 0-212 39.5T981 137Q850-17 594-16q-160 0-280.5 62.5T126 221.5 59 483zm361-6q0-115 46-170t140-55q103 0 150 83t47 208q0 113-44 167t-134 54q-109 0-157-81t-48-206zm747 129h312q-2 92-39 136t-97 44q-71 0-115-42t-61-138z"/><glyph unicode="Ÿ" horiz-adv-x="1331" d="M-55 1444h417l334-500 410 500h432L866 643 815 0H438l51 645zm442 131l25 307h321l-24-307H387zm406 0l24 307h322l-25-307H793z"/><glyph unicode="ˆ" horiz-adv-x="614" d="M-23 1139l309 422h209l244-422H473l-99 217-116-217H-23z"/><glyph unicode="˜" horiz-adv-x="614" d="M-4 1194q8 166 79.5 244t167.5 78q43 0 81-15.5t85-44.5q35-20 59.5-31.5T516 1413q76 0 90 96h149q-12-168-82.5-244.5T505 1188q-43 0-79.5 15.5T342 1247q-39 23-62.5 33t-46.5 10q-74 0-90-96H-4z"/><glyph horiz-adv-x="946"/><glyph horiz-adv-x="1892"/><glyph horiz-adv-x="946"/><glyph horiz-adv-x="1892"/><glyph horiz-adv-x="630"/><glyph horiz-adv-x="473"/><glyph horiz-adv-x="315"/><glyph horiz-adv-x="315"/><glyph horiz-adv-x="236"/><glyph horiz-adv-x="378"/><glyph horiz-adv-x="105"/><glyph unicode="‐" horiz-adv-x="913" d="M121 408l22 284h658l-25-284H121z"/><glyph unicode="‑" horiz-adv-x="913" d="M121 408l22 284h658l-25-284H121z"/><glyph unicode="‒" horiz-adv-x="913" d="M121 408l22 284h658l-25-284H121z"/><glyph unicode="–" horiz-adv-x="1024" d="M-4 446l14 207h1024l-14-207H-4z"/><glyph unicode="—" horiz-adv-x="2048" d="M-4 446l14 207h2048l-14-207H-4z"/><glyph unicode="‘" horiz-adv-x="557" d="M113 770l16 236q10 131 66.5 237.5T373 1462l127-110q-119-109-154-209h174l-31-373H113z"/><glyph unicode="’" horiz-adv-x="557" d="M133 1071l29 373h379l-19-236q-10-129-65.5-235.5T281 754L154 862q117 111 151 209H133z"/><glyph unicode="‚" horiz-adv-x="557" d="M49 0l31 373h379l-19-223Q430 15 373.5-95T197-317L68-209Q187-100 221 0H49z"/><glyph unicode="“" horiz-adv-x="1013" d="M113 770l16 236q10 131 66.5 237.5T373 1462l127-110q-119-109-154-209h174l-31-373H113zm457 0l16 236q10 131 66.5 237.5T830 1462l127-110q-119-109-154-209h174l-31-373H570z"/><glyph unicode="”" horiz-adv-x="1013" d="M133 1071l29 373h379l-19-236q-10-129-65.5-235.5T281 754L154 862q117 111 151 209H133zm457 0l29 373h379l-19-236q-10-129-65.5-235.5T738 754L611 862q117 111 151 209H590z"/><glyph unicode="„" horiz-adv-x="1013" d="M49 0l31 373h379l-19-223Q430 15 373.5-95T197-317L68-209Q187-100 221 0H49zm457 0l31 373h379l-19-223Q887 15 830.5-95T654-317L525-209Q644-100 678 0H506z"/><glyph unicode="•" horiz-adv-x="1073" d="M168 543q0 94 48 178t133 135 190 51q98 0 183-48t136-131 51-185q0-98-50-181T724 229.5 539 180q-99 0-185 48T218 359t-50 184z"/><glyph unicode="…" horiz-adv-x="1669" d="M49 0l31 373h379L428 0H49zm557 0l31 373h377L985 0H606zm557 0l29 373h379L1542 0h-379z"/><glyph horiz-adv-x="378"/><glyph unicode="‹" horiz-adv-x="655" d="M125 457l14 176 240 334 233-113-170-309 117-314-237-104z"/><glyph unicode="›" horiz-adv-x="638" d="M49 233l172 312-117 311 242 107 193-330-15-176-245-334z"/><glyph horiz-adv-x="473"/><glyph unicode="€" d="M43 457l16 215h144q0 53 6 102H68l18 215h160q61 227 208.5 350T819 1462q125 0 246-43t192-114l-137-267q-100 72-164.5 99.5T829 1165q-145 0-211-176h283l-18-215H575q-4-66-4-102h303l-16-215H580q16-92 62-135t126-43q55 0 124 27.5t179 99.5l94-267q-84-72-204.5-114.5T741-18q-209 0-345 123.5T219 457H43z"/><glyph unicode="™" horiz-adv-x="1957" d="M90 1182l21 262h770l-23-262H637l-49-600H260l49 600H90zm836-600l67 862h248l174-391 240 391h252l-68-862h-285l25 301-84-140h-201l-63 140-25-301H926z"/><glyph unicode="◼" horiz-adv-x="1003" d="M0 0v1004h1004V0H0z"/></font>
</defs>
</svg>
